<?xml version="1.0" standalone="no"?>
<!DOCTYPE svg PUBLIC "-//W3C//DTD SVG 1.1//EN" "http://www.w3.org/Graphics/SVG/1.1/DTD/svg11.dtd" >
<svg>
<metadata>
Created by FontForge 20110222 at Thu Nov 13 15:39:11 2014
 By www-data
Copyright2012 Kai Bernau and Susana Carvalho with Christian Schwartz under exclusive license to Schwartzco Inc.Commercial Type. All rights reserved.
</metadata>
<defs>
<font id="AtlasGroteskDetail-Bold" horiz-adv-x="600" >
  <font-face 
    font-family="Atlas Grotesk Detail"
    font-weight="700"
    font-stretch="normal"
    units-per-em="1000"
    panose-1="0 0 0 0 0 0 0 0 0 0"
    ascent="812"
    descent="-188"
    x-height="536"
    cap-height="765"
    bbox="-212 -232 1261 1202"
    underline-thickness="50"
    underline-position="-25"
    stemh="107"
    stemv="159"
    unicode-range="U+0020-FB02"
  />
<missing-glyph horiz-adv-x="500" 
 />
    <glyph glyph-name=".notdef" horiz-adv-x="500" 
 />
    <glyph glyph-name="Eth" unicode="&#xd0;" horiz-adv-x="792" 
d="M364 0h-265v329h-75v111h75v325h262c225 0 382 -111 382 -373s-155 -392 -379 -392zM263 124h89c132 0 217 66 217 264c0 189 -86 255 -212 255h-94v-203h166v-111h-166v-205z" />
    <glyph glyph-name="eth" unicode="&#xf0;" horiz-adv-x="622" 
d="M308 -14c-169 0 -270 101 -270 279c0 170 95 280 231 280c54 0 82 -18 109 -45h2c-23 46 -62 87 -107 124l-133 -52l-24 63l94 37c-35 25 -72 47 -106 68l117 55c46 -19 90 -41 129 -68l108 42l23 -63l-70 -27c104 -94 168 -224 168 -388c0 -211 -109 -305 -271 -305z
M310 444c-80 0 -108 -68 -108 -179c0 -101 28 -172 107 -172c80 0 106 71 106 172c0 109 -28 179 -105 179z" />
    <glyph glyph-name="Lslash" unicode="&#x141;" horiz-adv-x="610" 
d="M77 0v263l-79 -29v119l79 29v383h164v-323l222 81v-119l-222 -81v-195h330v-128h-494z" />
    <glyph glyph-name="lslash" unicode="&#x142;" horiz-adv-x="297" 
d="M228 0h-159v292l-74 -44v119l74 44v377h159v-282l76 45v-120l-76 -45v-386z" />
    <glyph glyph-name="Scaron" unicode="&#x160;" horiz-adv-x="699" 
d="M278 827l-108 133h115l66 -56h1l64 56h106l-108 -133h-136zM635 557h-168c-4 51 -38 100 -114 100c-71 0 -115 -38 -115 -92c0 -51 28 -82 101 -95l116 -21c136 -25 202 -98 202 -211c0 -164 -112 -254 -307 -254c-191 0 -298 92 -306 235h171c8 -66 54 -115 139 -115
c91 0 133 46 133 104c0 53 -29 81 -109 96l-114 22c-118 23 -197 94 -197 216c0 135 104 234 287 234c194 0 276 -100 281 -219z" />
    <glyph glyph-name="scaron" unicode="&#x161;" horiz-adv-x="536" 
d="M197 614l-110 174h109l69 -77h1l66 77h101l-110 -174h-126zM484 387h-140c-3 34 -28 61 -77 61s-75 -24 -75 -56c0 -30 16 -48 62 -54l91 -12c98 -13 155 -61 155 -158c0 -119 -97 -183 -233 -183c-160 0 -228 75 -235 171h146c2 -38 27 -69 90 -69c51 0 85 20 85 59
c0 32 -14 48 -64 55l-86 12c-100 14 -157 63 -157 160c0 93 70 176 222 176c140 0 209 -68 216 -162z" />
    <glyph glyph-name="Yacute" unicode="&#xdd;" horiz-adv-x="697" 
d="M267 0v320l-256 445h181l161 -301h2l163 301h168l-255 -442v-323h-164zM292 827l64 133h158l-103 -133h-119z" />
    <glyph glyph-name="yacute" unicode="&#xfd;" horiz-adv-x="571" 
d="M217 -3l-200 539h164l88 -282c18 -58 24 -105 24 -105h3s6 47 23 105l83 282h155l-188 -553c-43 -125 -95 -182 -234 -182c-52 0 -76 6 -79 7v116c9 -2 31 -5 54 -5c60 0 88 17 103 65zM226 614l51 174h158l-88 -174h-121z" />
    <glyph glyph-name="Thorn" unicode="&#xde;" horiz-adv-x="668" 
d="M344 276h6c79 2 126 39 126 116c0 82 -49 113 -130 113h-105v-229h103zM358 161h-117v-161h-164v765h164v-148h128c152 0 266 -63 266 -224c0 -168 -117 -232 -277 -232z" />
    <glyph glyph-name="thorn" unicode="&#xfe;" horiz-adv-x="646" 
d="M225 239c0 -84 36 -146 110 -146c70 0 110 60 110 175c0 113 -35 171 -111 171c-64 0 -109 -53 -109 -142v-58zM68 -188v976h159v-332h2c27 49 83 92 163 92c124 0 215 -80 215 -278c0 -179 -91 -283 -230 -283c-77 0 -125 38 -147 80h-3v-255h-159z" />
    <glyph glyph-name="Zcaron" unicode="&#x17d;" horiz-adv-x="658" 
d="M260 827l-108 133h115l66 -56h1l64 56h106l-108 -133h-136zM53 638v127h560v-113l-383 -524h389v-128h-583v113l384 525h-367z" />
    <glyph glyph-name="zcaron" unicode="&#x17e;" horiz-adv-x="544" 
d="M209 614l-110 174h109l69 -77h1l66 77h101l-110 -174h-126zM54 421v115h448v-103l-268 -316h273v-117h-463v104l268 317h-258z" />
    <glyph glyph-name="onehalf" unicode="&#xbd;" horiz-adv-x="918" 
d="M73 -40l547 821h111l-547 -821h-111zM118 334v280h-94v76h14c26 0 49 5 66 17c15 11 24 31 24 58h105v-431h-115zM635 280h-113c2 96 63 157 180 157c120 0 171 -56 171 -126c0 -65 -37 -102 -105 -158l-79 -65v-2h187v-86h-358v61l174 151c46 40 63 61 63 92
c0 32 -21 52 -54 52c-36 0 -66 -19 -66 -76z" />
    <glyph glyph-name="onequarter" unicode="&#xbc;" horiz-adv-x="873" 
d="M118 334v280h-94v76h14c26 0 49 5 66 17c15 11 24 31 24 58h105v-431h-115zM74 -40l547 821h111l-547 -821h-111zM556 170h126v184h-3s-12 -32 -35 -63zM841 90h-56v-90h-107v90h-226v76l196 265h137v-256h56v-85z" />
    <glyph glyph-name="onesuperior" unicode="&#xb9;" horiz-adv-x="305" 
d="M118 384v280h-94v76h14c26 0 49 5 66 17c15 11 24 31 24 58h105v-431h-115z" />
    <glyph glyph-name="threequarters" unicode="&#xbe;" horiz-adv-x="952" 
d="M218 517h-50v71h41c33 0 61 19 61 52s-25 51 -57 51c-41 0 -58 -25 -59 -54h-113c2 63 46 136 179 136c108 0 166 -52 166 -117c0 -47 -28 -83 -85 -97v-2c63 -11 96 -47 96 -103c0 -67 -61 -129 -180 -129c-135 0 -178 69 -180 136h116c3 -35 30 -53 63 -53
c41 0 66 25 66 56c0 33 -24 53 -64 53zM171 -40l547 821h111l-547 -821h-111zM635 170h126v184h-3s-12 -32 -35 -63zM920 90h-56v-90h-107v90h-226v76l196 265h137v-256h56v-85z" />
    <glyph glyph-name="threesuperior" unicode="&#xb3;" horiz-adv-x="437" 
d="M218 567h-50v71h41c33 0 61 19 61 52s-25 51 -57 51c-41 0 -58 -25 -59 -54h-113c2 63 46 136 179 136c108 0 166 -52 166 -117c0 -47 -28 -83 -85 -97v-2c63 -11 96 -47 96 -103c0 -67 -61 -129 -180 -129c-135 0 -178 69 -180 136h116c3 -35 30 -53 63 -53
c41 0 66 25 66 56c0 33 -24 53 -64 53z" />
    <glyph glyph-name="twosuperior" unicode="&#xb2;" horiz-adv-x="430" 
d="M147 664h-113c2 96 63 157 180 157c120 0 171 -56 171 -126c0 -65 -36 -103 -105 -158l-79 -65v-2h187v-86h-358v61l174 151c46 39 63 61 63 92c0 32 -21 52 -54 52c-36 0 -66 -19 -66 -76z" />
    <glyph glyph-name="brokenbar" unicode="&#xa6;" horiz-adv-x="289" 
d="M197 788v-404h-108v404h108zM197 -130h-108v417h108v-417z" />
    <glyph glyph-name="minus" unicode="&#x2212;" horiz-adv-x="632" 
d="M76 300v116h480v-116h-480z" />
    <glyph glyph-name="multiply" unicode="&#xd7;" horiz-adv-x="632" 
d="M149 95l-86 86l169 166l-168 166l86 87l166 -168l166 168l86 -85l-168 -167l168 -166l-86 -87l-167 169z" />
    <glyph glyph-name="space" unicode=" " horiz-adv-x="228" 
 />
    <glyph glyph-name="exclam" unicode="!" horiz-adv-x="330" 
d="M164 -16c-53 0 -94 41 -94 93c0 51 41 92 94 92c54 0 95 -41 95 -92c0 -52 -41 -93 -95 -93zM105 243l-32 545h184l-33 -545h-119z" />
    <glyph glyph-name="quotedbl" unicode="&#x22;" horiz-adv-x="481" 
d="M293 504l-20 261h142l-25 -261h-97zM86 504l-20 261h142l-24 -261h-98z" />
    <glyph glyph-name="numbersign" unicode="#" horiz-adv-x="667" 
d="M266 373h111l21 142h-111zM136 99l25 179h-107v95h122l20 142h-112v95h125l24 155h90l-22 -155h109l24 155h92l-24 -155h112v-95h-125l-20 -142h115v-95h-130l-25 -179h-92l25 179h-110l-26 -179h-90z" />
    <glyph glyph-name="dollar" unicode="$" horiz-adv-x="663" 
d="M294 455v180c-65 -9 -91 -46 -91 -87c0 -49 31 -81 91 -93zM364 108h2c70 9 99 47 99 96c0 54 -33 78 -101 92v-188zM364 -116h-70v105c-158 10 -252 89 -260 226h156c7 -54 38 -95 104 -106v200l-34 6c-128 22 -214 80 -214 217c0 114 92 203 248 215v81h70v-81
c160 -12 235 -103 245 -212h-156c-3 43 -29 86 -89 99v-191l37 -6c150 -25 223 -94 223 -208c0 -142 -92 -229 -260 -240v-105z" />
    <glyph glyph-name="percent" unicode="%" horiz-adv-x="918" 
d="M138 -40l534 821h114l-534 -821h-114zM230 381c-97 0 -175 61 -175 181c0 121 82 180 175 180c95 0 177 -59 177 -180c0 -120 -82 -181 -177 -181zM229 466c42 0 69 32 69 96s-27 97 -69 97s-67 -31 -67 -97c0 -64 25 -96 67 -96zM686 -7c-97 0 -175 61 -175 181
c0 121 81 180 175 180c95 0 176 -59 176 -180c0 -120 -81 -181 -176 -181zM685 78c41 0 69 32 69 96s-28 97 -69 97c-43 0 -68 -31 -68 -97c0 -64 25 -96 68 -96z" />
    <glyph glyph-name="ampersand" unicode="&#x26;" horiz-adv-x="769" 
d="M266 600c0 -42 18 -73 62 -119c57 40 95 77 95 129c0 45 -30 77 -77 77c-50 0 -80 -37 -80 -87zM272 346l-4 -3c-41 -30 -70 -65 -70 -121c0 -76 44 -121 123 -121c50 0 90 21 123 55zM728 -1h-36c-78 0 -115 18 -168 71c-55 -53 -125 -86 -217 -86
c-181 0 -263 86 -263 222c0 91 49 156 159 222c-54 57 -78 101 -78 173c0 104 81 186 222 186c130 0 210 -69 210 -166c0 -91 -65 -154 -154 -218l117 -128c19 43 36 91 52 137h136c-28 -77 -59 -161 -101 -234c47 -52 61 -56 121 -56v-123z" />
    <glyph glyph-name="quotesingle" unicode="'" horiz-adv-x="275" 
d="M86 504l-20 261h142l-24 -261h-98z" />
    <glyph glyph-name="parenleft" unicode="(" horiz-adv-x="358" 
d="M343 -130h-114c-72 100 -161 251 -161 459c0 210 89 359 161 459h114c-69 -122 -132 -268 -132 -459c0 -190 63 -336 132 -459z" />
    <glyph glyph-name="parenright" unicode=")" horiz-adv-x="349" 
d="M15 -130c69 123 132 269 132 459c0 191 -63 337 -132 459h113c73 -100 161 -249 161 -459c0 -208 -88 -359 -161 -459h-113z" />
    <glyph glyph-name="asterisk" unicode="*" horiz-adv-x="455" 
d="M230 542h-4l-62 -125l-95 66l103 97v4l-137 20l37 112l122 -69l2 2l-27 139h117l-26 -140l2 -2l122 68l37 -111l-137 -21v-3l103 -98l-95 -66z" />
    <glyph glyph-name="plus" unicode="+" horiz-adv-x="633" 
d="M378 300v-196h-125v196h-190v116h190v194h125v-194h191v-116h-191z" />
    <glyph glyph-name="comma" unicode="," horiz-adv-x="288" 
d="M40 -117l52 276h164l-110 -276h-106z" />
    <glyph glyph-name="hyphen" unicode="-" horiz-adv-x="425" 
d="M57 255v121h312v-121h-312z" />
    <glyph glyph-name="period" unicode="." horiz-adv-x="291" 
d="M145 -16c-53 0 -94 41 -94 93c0 51 41 92 94 92c54 0 95 -41 95 -92c0 -52 -41 -93 -95 -93z" />
    <glyph glyph-name="slash" unicode="/" horiz-adv-x="572" 
d="M-14 -130l455 918h120l-454 -918h-121z" />
    <glyph glyph-name="zero" unicode="0" horiz-adv-x="702" 
d="M50 367c0 260 120 384 300 384c190 0 302 -122 302 -384c0 -257 -115 -382 -302 -382c-192 0 -300 123 -300 382zM350 105c76 0 127 74 127 263c0 192 -54 265 -127 265c-76 0 -126 -72 -126 -265c0 -197 48 -263 126 -263z" />
    <glyph glyph-name="one" unicode="1" horiz-adv-x="429" 
d="M171 0v508h-145v102h19c44 0 82 10 107 31c24 21 37 54 37 101h141v-742h-159z" />
    <glyph glyph-name="two" unicode="2" horiz-adv-x="639" 
d="M215 495h-159c2 159 101 257 274 257c183 0 257 -97 257 -210c0 -109 -53 -169 -166 -274l-151 -140v-1h319v-127h-548v92l261 250c85 81 120 129 120 190c0 63 -37 102 -97 102c-54 0 -110 -32 -110 -139z" />
    <glyph glyph-name="three" unicode="3" horiz-adv-x="650" 
d="M326 320h-66v112h53c63 0 108 40 108 102s-48 98 -102 98c-72 0 -106 -42 -109 -108h-155c3 112 75 228 269 228c168 0 258 -89 258 -198c0 -80 -45 -142 -125 -168v-2c87 -21 144 -79 144 -180c0 -116 -96 -219 -278 -219c-200 0 -271 113 -278 230h164
c8 -73 57 -108 117 -108c67 0 115 43 115 107c0 66 -44 106 -115 106z" />
    <glyph glyph-name="four" unicode="4" horiz-adv-x="666" 
d="M185 284h203v320h-2s-13 -36 -42 -80zM631 164h-90v-164h-156v164h-350v111l318 466h188v-455h90v-122z" />
    <glyph glyph-name="five" unicode="5" horiz-adv-x="644" 
d="M435 240c0 83 -47 133 -117 133c-52 0 -90 -17 -116 -54h-133l37 422h443v-126h-321l-16 -189h2c27 34 81 65 152 65c134 0 230 -87 230 -247c0 -141 -96 -259 -281 -259c-205 0 -263 113 -270 224h155c7 -72 49 -102 114 -102c67 0 121 47 121 133z" />
    <glyph glyph-name="six" unicode="6" horiz-adv-x="662" 
d="M598 565h-148c-11 46 -42 73 -94 73c-85 0 -138 -80 -142 -247h4c30 60 96 95 174 95c121 0 226 -80 226 -238c0 -143 -95 -263 -279 -263c-165 0 -289 98 -289 350c0 275 115 417 308 417c161 0 229 -82 240 -187zM343 105c56 0 114 40 114 133c0 84 -49 131 -114 131
c-67 0 -114 -43 -114 -131c0 -93 56 -133 114 -133z" />
    <glyph glyph-name="seven" unicode="7" horiz-adv-x="566" 
d="M80 0l279 614h-336v127h518v-90l-298 -651h-163z" />
    <glyph glyph-name="eight" unicode="8" horiz-adv-x="658" 
d="M69 549c0 117 92 203 260 203s260 -86 260 -204c0 -90 -54 -140 -119 -163v-3c81 -20 144 -72 144 -179c0 -123 -114 -219 -285 -219c-179 0 -285 91 -285 219c0 103 64 159 143 179v3c-65 22 -118 74 -118 164zM329 641c-59 0 -107 -34 -107 -106
c0 -70 48 -105 107 -105c58 0 106 35 106 105c0 72 -48 106 -106 106zM329 92c68 0 125 38 125 115c0 78 -56 114 -125 114s-125 -36 -125 -114c0 -77 58 -115 125 -115z" />
    <glyph glyph-name="nine" unicode="9" horiz-adv-x="661" 
d="M321 628c-55 0 -116 -37 -116 -126c0 -82 54 -126 116 -126c65 0 117 43 117 126c0 85 -60 126 -117 126zM59 179h147c10 -51 52 -77 102 -77c91 0 136 85 139 245h-3c-29 -53 -89 -86 -165 -86c-120 0 -236 80 -236 236c0 139 102 255 281 255s287 -117 287 -359
c0 -280 -122 -408 -307 -408c-145 0 -231 76 -245 194z" />
    <glyph glyph-name="colon" unicode=":" horiz-adv-x="298" 
d="M152 352c-53 0 -94 41 -94 93c0 51 41 92 94 92c54 0 95 -41 95 -92c0 -52 -41 -93 -95 -93zM152 -16c-53 0 -94 41 -94 93c0 51 41 92 94 92c54 0 95 -41 95 -92c0 -52 -41 -93 -95 -93z" />
    <glyph glyph-name="semicolon" unicode=";" horiz-adv-x="319" 
d="M93 368v159h168v-159h-168zM148 -117h-106l52 276h164z" />
    <glyph glyph-name="less" unicode="&#x3c;" horiz-adv-x="633" 
d="M560 45l-496 252v72l496 253v-130l-316 -156l316 -157v-134z" />
    <glyph glyph-name="equal" unicode="=" horiz-adv-x="633" 
d="M76 400v115h480v-115h-480zM556 195h-480v115h480v-115z" />
    <glyph glyph-name="greater" unicode="&#x3e;" horiz-adv-x="633" 
d="M73 618l496 -252v-71l-496 -253v130l316 156l-316 157v133z" />
    <glyph glyph-name="question" unicode="?" horiz-adv-x="591" 
d="M292 -16c-53 0 -94 41 -94 93c0 51 41 92 94 92c54 0 95 -41 95 -92c0 -52 -41 -93 -95 -93zM404 580c0 56 -37 92 -102 92c-64 0 -118 -35 -118 -143h-152c-3 157 94 267 273 267c180 0 255 -93 255 -208c0 -92 -39 -142 -104 -196l-67 -56c-21 -17 -28 -26 -28 -54v-43
h-137v64c0 63 8 79 61 122l57 47c38 32 62 58 62 108z" />
    <glyph glyph-name="at" unicode="@" horiz-adv-x="1009" 
d="M717 54c-76 0 -131 33 -139 97h-3c-31 -55 -78 -95 -155 -95c-98 0 -156 66 -156 178c0 137 85 277 225 277c65 0 105 -34 119 -74h2l11 58h128l-59 -277c-12 -58 8 -90 55 -90c64 0 131 62 131 214c0 190 -148 333 -355 333c-218 0 -392 -178 -392 -411
c0 -235 155 -384 366 -384c108 0 199 37 257 84l44 -45c-67 -56 -167 -104 -308 -104c-253 0 -437 181 -437 449c0 274 207 476 472 476c248 0 433 -159 433 -392c0 -208 -117 -294 -239 -294zM465 146c48 0 93 46 107 116l9 44c12 61 -10 116 -65 116
c-81 0 -118 -107 -118 -188c0 -54 22 -88 67 -88z" />
    <glyph glyph-name="A" unicode="A" horiz-adv-x="761" 
d="M373 624c-1 -4 -10 -49 -30 -111l-71 -223h202l-70 222c-21 67 -29 112 -29 112h-2zM570 0l-56 170h-281l-56 -170h-157l267 765h184l271 -765h-172z" />
    <glyph glyph-name="B" unicode="B" horiz-adv-x="728" 
d="M402 0h-325v765h318c173 0 264 -65 264 -195c0 -90 -66 -143 -133 -159v-4c96 -16 166 -83 166 -184c0 -148 -116 -223 -290 -223zM241 449h134c71 0 121 29 121 102c0 66 -44 100 -117 100h-138v-202zM241 117h149c83 0 134 30 134 117c0 73 -51 107 -137 107h-146v-224
z" />
    <glyph glyph-name="C" unicode="C" horiz-adv-x="766" 
d="M404 654c-103 0 -177 -94 -177 -276c0 -175 67 -271 176 -271c90 0 141 57 150 153h167c-8 -165 -126 -276 -313 -276c-238 0 -357 145 -357 388c0 252 132 404 354 404c187 0 306 -98 317 -270h-169c-8 90 -64 148 -148 148z" />
    <glyph glyph-name="D" unicode="D" horiz-adv-x="770" 
d="M77 0v765h261c226 0 383 -111 383 -373s-155 -392 -379 -392h-265zM241 124h89c132 0 217 66 217 264c0 189 -86 255 -212 255h-94v-519z" />
    <glyph glyph-name="E" unicode="E" horiz-adv-x="648" 
d="M77 0v765h504v-125h-340v-197h322v-122h-322v-197h349v-124h-513z" />
    <glyph glyph-name="F" unicode="F" horiz-adv-x="603" 
d="M241 295v-295h-164v765h481v-125h-317v-222h299v-123h-299z" />
    <glyph glyph-name="G" unicode="G" horiz-adv-x="810" 
d="M412 658c-119 0 -187 -97 -187 -279c0 -198 71 -276 187 -276c105 0 166 64 174 173l1 14h-181v118h334v-408h-130v104h-4c-36 -69 -109 -120 -222 -120c-218 0 -334 151 -334 387c0 248 145 405 362 405c184 0 295 -87 313 -243h-167c-10 74 -65 125 -146 125z" />
    <glyph glyph-name="H" unicode="H" horiz-adv-x="792" 
d="M241 318v-318h-164v765h164v-319h308v319h166v-765h-166v318h-308z" />
    <glyph glyph-name="I" unicode="I" horiz-adv-x="318" 
d="M77 0v765h164v-765h-164z" />
    <glyph glyph-name="J" unicode="J" horiz-adv-x="448" 
d="M96 -3h-63v130h37c127 0 146 46 146 138v500h162v-520c0 -190 -105 -248 -282 -248z" />
    <glyph glyph-name="K" unicode="K" horiz-adv-x="735" 
d="M241 232v-232h-164v765h164v-341l279 341h183l-275 -320l287 -445h-188l-210 321z" />
    <glyph glyph-name="L" unicode="L" horiz-adv-x="610" 
d="M77 0v765h164v-637h330v-128h-494z" />
    <glyph glyph-name="M" unicode="M" horiz-adv-x="971" 
d="M77 0v765h238l138 -411c22 -64 32 -113 32 -113h2s11 49 32 113l137 411h238v-765h-162v599h-3s-17 -71 -47 -162l-143 -437h-122l-144 437c-30 92 -45 161 -45 161h-3v-598h-148z" />
    <glyph glyph-name="N" unicode="N" horiz-adv-x="789" 
d="M77 0v765h181l247 -414c39 -66 55 -114 55 -114h3v528h150v-765h-173l-254 422c-41 67 -58 116 -58 116h-3v-538h-148z" />
    <glyph glyph-name="O" unicode="O" horiz-adv-x="822" 
d="M50 380c0 252 147 396 361 396c224 0 361 -141 361 -396c0 -252 -142 -396 -361 -396c-229 0 -361 142 -361 396zM411 104c116 0 184 94 184 276c0 183 -76 278 -184 278c-116 0 -183 -93 -183 -278c0 -184 63 -276 183 -276z" />
    <glyph glyph-name="P" unicode="P" horiz-adv-x="668" 
d="M329 262h-88v-262h-164v765h266c166 0 292 -70 292 -247c0 -186 -135 -256 -306 -256zM241 383h99c85 0 134 44 134 133c0 94 -49 131 -132 131h-101v-264z" />
    <glyph glyph-name="Q" unicode="Q" horiz-adv-x="822" 
d="M50 380c0 255 144 396 361 396c221 0 361 -143 361 -396c0 -148 -51 -265 -138 -316v-5c75 -12 114 -43 151 -111l-144 -82c-50 92 -92 125 -173 125c-18 0 -35 -3 -59 -3c-229 0 -359 138 -359 392zM411 102c118 0 184 86 184 276c0 186 -74 280 -184 280
c-113 0 -183 -95 -183 -280c0 -184 63 -276 183 -276z" />
    <glyph glyph-name="R" unicode="R" horiz-adv-x="714" 
d="M241 408h114c72 0 134 32 134 123c0 93 -71 120 -131 120h-117v-243zM503 0l-144 291h-118v-291h-164v765h299c49 0 105 -7 154 -28c72 -32 127 -91 127 -197c0 -121 -76 -182 -148 -210v-2l171 -328h-177z" />
    <glyph glyph-name="S" unicode="S" horiz-adv-x="699" 
d="M635 557h-168c-4 51 -38 100 -114 100c-71 0 -115 -38 -115 -92c0 -51 28 -82 101 -95l116 -21c136 -25 202 -98 202 -211c0 -164 -112 -254 -307 -254c-191 0 -298 92 -306 235h171c8 -66 54 -115 139 -115c91 0 133 46 133 104c0 53 -29 81 -109 96l-114 22
c-118 23 -197 94 -197 216c0 135 104 234 287 234c194 0 276 -100 281 -219z" />
    <glyph glyph-name="T" unicode="T" horiz-adv-x="662" 
d="M639 765v-129h-226v-636h-164v636h-226v129h616z" />
    <glyph glyph-name="U" unicode="U" horiz-adv-x="761" 
d="M69 267v498h164l-1 -446c0 -55 1 -118 30 -155c28 -35 68 -50 119 -50c55 0 96 15 123 50c28 37 26 100 26 155v446h162v-498c0 -193 -125 -283 -313 -283s-310 89 -310 283z" />
    <glyph glyph-name="V" unicode="V" horiz-adv-x="742" 
d="M278 0l-258 765h172l157 -496c23 -74 27 -114 27 -114h2s4 40 27 113l159 497h158l-256 -765h-188z" />
    <glyph glyph-name="W" unicode="W" horiz-adv-x="1067" 
d="M388 0h-164l-203 765h170l106 -435c19 -77 23 -129 23 -129h2s5 52 26 128l119 436h150l120 -435c21 -77 30 -129 30 -129h1s5 52 23 128l105 436h150l-202 -765h-161l-123 452c-21 77 -24 121 -24 121h-2s-4 -44 -24 -120z" />
    <glyph glyph-name="X" unicode="X" horiz-adv-x="751" 
d="M25 0l254 395l-236 370h189l147 -244h1l151 244h172l-237 -364l260 -401h-194l-167 274h-2l-167 -274h-171z" />
    <glyph glyph-name="Y" unicode="Y" horiz-adv-x="697" 
d="M267 0v320l-256 445h181l161 -301h2l163 301h168l-255 -442v-323h-164z" />
    <glyph glyph-name="Z" unicode="Z" horiz-adv-x="658" 
d="M53 638v127h560v-113l-383 -524h389v-128h-583v113l384 525h-367z" />
    <glyph glyph-name="bracketleft" unicode="[" horiz-adv-x="386" 
d="M97 -130v918h264v-96h-133v-726h133v-96h-264z" />
    <glyph glyph-name="backslash" unicode="\" horiz-adv-x="572" 
d="M466 -130l-454 918h120l454 -918h-120z" />
    <glyph glyph-name="bracketright" unicode="]" horiz-adv-x="386" 
d="M289 788v-918h-264v96h133v726h-133v96h264z" />
    <glyph glyph-name="asciicircum" unicode="^" horiz-adv-x="450" 
d="M278 788l155 -293h-110l-101 173h-1l-101 -173h-103l156 293h105z" />
    <glyph glyph-name="underscore" unicode="_" horiz-adv-x="390" 
d="M-2 -190v99h394v-99h-394z" />
    <glyph glyph-name="grave" unicode="`" horiz-adv-x="369" 
d="M226 788l51 -174h-121l-88 174h158z" />
    <glyph glyph-name="a" unicode="a" horiz-adv-x="584" 
d="M256 94c55 0 106 43 106 132v17c-84 -5 -126 -12 -151 -29c-18 -12 -26 -32 -26 -54c0 -39 27 -66 71 -66zM203 377h-152c6 107 91 171 231 171c173 0 233 -71 233 -214v-185c0 -29 9 -40 43 -40v-110h-53c-77 0 -114 15 -131 74h-2c-34 -50 -86 -79 -162 -79
c-112 0 -182 59 -182 159c0 62 28 106 81 134c57 30 138 35 252 40v29c0 59 -25 90 -79 90c-52 0 -77 -29 -79 -69z" />
    <glyph glyph-name="b" unicode="b" horiz-adv-x="646" 
d="M68 0v788h159v-332h2c27 49 83 92 163 92c124 0 215 -80 215 -278c0 -183 -89 -283 -227 -283c-80 0 -130 36 -158 87h-2v-74h-152zM335 93c70 0 110 60 110 175c0 113 -35 171 -111 171c-64 0 -109 -53 -109 -142v-58c0 -84 36 -146 110 -146z" />
    <glyph glyph-name="c" unicode="c" horiz-adv-x="595" 
d="M557 344h-156c-5 57 -32 99 -92 99c-83 0 -108 -84 -108 -173c0 -83 17 -174 107 -174c70 0 95 51 97 103h154c-4 -141 -110 -212 -251 -212c-173 0 -270 106 -270 281c0 174 104 281 271 281c143 0 244 -70 248 -205z" />
    <glyph glyph-name="d" unicode="d" horiz-adv-x="649" 
d="M424 228v64c0 94 -42 147 -108 147c-71 0 -115 -56 -115 -173c0 -109 33 -173 111 -173c73 0 112 58 112 135zM581 788v-788h-152v79h-2c-28 -47 -76 -93 -160 -93c-142 0 -228 89 -228 275c0 189 101 286 234 286c69 0 122 -32 147 -82h2v323h159z" />
    <glyph glyph-name="e" unicode="e" horiz-adv-x="601" 
d="M400 322v7c-5 76 -35 121 -95 121c-65 0 -99 -46 -107 -128h202zM557 156c-16 -104 -109 -170 -254 -170c-173 0 -265 111 -265 283c0 164 98 280 267 280c181 0 257 -119 257 -276v-42h-364c7 -96 43 -138 110 -138c63 0 83 31 93 63h156z" />
    <glyph glyph-name="f" unicode="f" horiz-adv-x="371" 
d="M251 426v-426h-155v426h-77v110h77v70c0 142 77 188 193 188c41 0 73 -5 78 -6v-111c-3 1 -20 3 -44 3c-47 0 -72 -19 -72 -80v-64h105v-110h-105z" />
    <glyph glyph-name="g" unicode="g" horiz-adv-x="646" 
d="M426 244v58c0 87 -45 137 -112 137c-66 0 -113 -53 -113 -161c0 -102 36 -160 113 -160c67 0 112 54 112 126zM309 -199c-167 0 -245 66 -253 167h153c10 -40 33 -63 102 -63c78 0 115 35 115 130v76h-3c-19 -43 -66 -94 -156 -94c-140 0 -228 81 -228 261
c0 175 102 269 232 269c82 0 131 -41 153 -84h2v73h152v-493c0 -162 -87 -242 -269 -242z" />
    <glyph glyph-name="h" unicode="h" horiz-adv-x="641" 
d="M420 0v314c0 38 -2 68 -16 88c-15 21 -39 31 -69 31c-71 0 -108 -45 -108 -123v-310h-159v788h159v-338h2c24 49 80 97 168 97c129 0 182 -67 182 -199v-348h-159z" />
    <glyph glyph-name="i" unicode="i" horiz-adv-x="295" 
d="M147 614c-49 0 -88 38 -88 87s39 87 88 87c50 0 89 -38 89 -87s-39 -87 -89 -87zM68 0v536h159v-536h-159z" />
    <glyph glyph-name="j" unicode="j" horiz-adv-x="299" 
d="M151 614c-49 0 -88 38 -88 87s39 87 88 87c50 0 89 -38 89 -87s-39 -87 -89 -87zM40 -206c-44 0 -70 8 -75 9v111c4 -2 18 -5 39 -5c47 0 68 22 68 76v551h159v-552c0 -146 -82 -190 -191 -190z" />
    <glyph glyph-name="k" unicode="k" horiz-adv-x="598" 
d="M224 139v-139h-156v788h156v-474l183 222h168l-179 -210l188 -326h-172l-122 219z" />
    <glyph glyph-name="l" unicode="l" horiz-adv-x="295" 
d="M68 0v788h159v-788h-159z" />
    <glyph glyph-name="m" unicode="m" horiz-adv-x="981" 
d="M68 0v536h153v-88h2c28 52 82 99 170 99c99 0 147 -44 167 -111h2c21 50 79 111 177 111c126 0 180 -67 180 -199v-348h-159v314c0 38 -2 68 -16 88c-14 22 -38 31 -67 31c-67 0 -104 -45 -104 -123v-310h-159v314c0 38 -2 68 -16 88c-14 21 -38 31 -67 31
c-67 0 -104 -45 -104 -122v-311h-159z" />
    <glyph glyph-name="n" unicode="n" horiz-adv-x="641" 
d="M420 0v313c0 38 -2 69 -16 89c-15 21 -39 31 -69 31c-71 0 -108 -45 -108 -123v-310h-159v536h153v-88h2c29 54 82 99 174 99c129 0 182 -67 182 -199v-348h-159z" />
    <glyph glyph-name="o" unicode="o" horiz-adv-x="619" 
d="M309 -14c-169 0 -271 107 -271 282c0 176 104 281 272 281c164 0 271 -104 271 -281c0 -175 -111 -282 -272 -282zM310 442c-79 0 -108 -75 -108 -174c0 -104 30 -175 108 -175c80 0 106 76 106 175c0 103 -28 174 -106 174z" />
    <glyph glyph-name="p" unicode="p" horiz-adv-x="646" 
d="M225 239c0 -84 36 -146 110 -146c70 0 110 60 110 175c0 113 -35 171 -111 171c-63 0 -109 -53 -109 -142v-58zM68 -188v724h153v-87h2c25 48 82 99 169 99c124 0 215 -80 215 -278c0 -179 -91 -283 -230 -283c-77 0 -125 38 -147 80h-3v-255h-159z" />
    <glyph glyph-name="q" unicode="q" horiz-adv-x="649" 
d="M581 536v-724h-159v255h-2c-21 -36 -71 -81 -153 -81c-142 0 -228 87 -228 275c0 189 101 286 234 286c69 0 125 -33 153 -84h2v73h153zM312 93c73 0 112 58 112 135v64c0 94 -42 147 -108 147c-70 0 -115 -56 -115 -173c0 -109 33 -173 111 -173z" />
    <glyph glyph-name="r" unicode="r" horiz-adv-x="427" 
d="M68 0v536h150v-113h2c30 81 105 122 177 122h9v-144h-28c-97 0 -152 -33 -152 -136v-265h-158z" />
    <glyph glyph-name="s" unicode="s" horiz-adv-x="536" 
d="M484 387h-140c-3 34 -28 61 -77 61s-75 -24 -75 -56c0 -30 16 -48 62 -54l91 -12c98 -13 155 -61 155 -158c0 -119 -97 -183 -233 -183c-160 0 -228 75 -235 171h146c2 -38 27 -69 90 -69c51 0 85 20 85 59c0 32 -14 48 -64 55l-86 12c-100 14 -157 63 -157 160
c0 93 70 176 222 176c140 0 209 -68 216 -162z" />
    <glyph glyph-name="t" unicode="t" horiz-adv-x="401" 
d="M119 687h136v-151h120v-110h-118v-237c0 -54 20 -78 74 -78c19 0 45 4 45 4v-116c-21 -2 -61 -6 -106 -6c-105 0 -170 45 -170 166v267h-79v109h18c68 0 80 14 80 111v41z" />
    <glyph glyph-name="u" unicode="u" horiz-adv-x="637" 
d="M222 536v-313c0 -38 3 -68 16 -88c14 -21 37 -31 68 -31c70 0 105 48 105 139v293h159v-536h-153v87h-2c-28 -54 -80 -97 -168 -97c-129 0 -184 63 -184 189v357h159z" />
    <glyph glyph-name="v" unicode="v" horiz-adv-x="571" 
d="M203 0l-191 536h160l86 -271c19 -59 30 -119 30 -119h2s11 60 30 119l86 271h153l-192 -536h-164z" />
    <glyph glyph-name="w" unicode="w" horiz-adv-x="860" 
d="M173 0l-156 536h153l71 -270c14 -55 20 -113 20 -113h3s11 59 27 112l80 271h129l80 -271c16 -54 26 -112 26 -112h4s9 59 23 112l70 271h139l-155 -536h-153l-65 213c-20 65 -37 162 -37 162h-2s-20 -98 -40 -162l-66 -213h-151z" />
    <glyph glyph-name="x" unicode="x" horiz-adv-x="570" 
d="M10 0l182 279l-168 257h171l92 -155h2l86 155h168l-168 -255l185 -281h-174l-106 176h-2l-100 -176h-168z" />
    <glyph glyph-name="y" unicode="y" horiz-adv-x="571" 
d="M217 -3l-200 539h164l88 -282c18 -58 24 -105 24 -105h3s6 47 23 105l83 282h155l-188 -553c-43 -125 -95 -182 -234 -182c-52 0 -76 6 -79 7v116c9 -2 31 -5 54 -5c60 0 88 17 103 65z" />
    <glyph glyph-name="z" unicode="z" horiz-adv-x="544" 
d="M54 421v115h448v-103l-268 -316h273v-117h-463v104l268 317h-258z" />
    <glyph glyph-name="braceleft" unicode="{" horiz-adv-x="413" 
d="M72 273h-30v109h30c45 0 60 19 60 68v153c0 147 80 189 256 189v-92c-107 0 -130 -29 -130 -112v-128c0 -60 -15 -116 -80 -129v-4c65 -14 80 -69 80 -132v-125c0 -83 23 -112 130 -112v-92c-176 0 -256 42 -256 181v158c0 49 -15 68 -60 68z" />
    <glyph glyph-name="bar" unicode="|" horiz-adv-x="289" 
d="M89 -130v918h108v-918h-108z" />
    <glyph glyph-name="braceright" unicode="}" horiz-adv-x="413" 
d="M372 385v-109h-30c-46 0 -60 -19 -60 -68v-153c0 -147 -81 -189 -257 -189v92c107 0 131 29 131 112v129c0 59 15 115 80 128v4c-65 14 -80 69 -80 132v125c0 83 -24 112 -131 112v92c176 0 257 -42 257 -181v-158c0 -49 14 -68 60 -68h30z" />
    <glyph glyph-name="asciitilde" unicode="~" horiz-adv-x="449" 
d="M17 254c0 90 39 170 122 170c63 0 122 -51 160 -51c21 0 38 14 40 52h93c0 -90 -33 -170 -116 -170c-62 0 -121 51 -160 51c-23 0 -37 -18 -39 -52h-100z" />
    <glyph glyph-name="Adieresis" unicode="&#xc4;" horiz-adv-x="761" 
d="M373 624c-1 -4 -10 -49 -30 -111l-71 -223h202l-70 222c-21 67 -29 112 -29 112h-2zM570 0l-56 170h-281l-56 -170h-157l267 765h184l271 -765h-172zM420 828v137h136v-137h-136zM205 828v137h136v-137h-136z" />
    <glyph glyph-name="Aring" unicode="&#xc5;" horiz-adv-x="761" 
d="M373 624c-1 -4 -10 -49 -30 -111l-71 -223h202l-70 222c-21 67 -29 112 -29 112h-2zM570 0l-56 170h-281l-56 -170h-157l267 765h184l271 -765h-172zM379 797c-82 0 -131 49 -131 122s54 124 132 124c84 0 131 -51 131 -124s-53 -122 -132 -122zM379 980
c-32 0 -53 -25 -53 -61s20 -61 54 -61c32 0 52 25 52 61s-19 61 -53 61z" />
    <glyph glyph-name="Ccedilla" unicode="&#xc7;" horiz-adv-x="766" 
d="M390 -232c-69 0 -104 37 -106 79h77c4 -12 13 -21 31 -21c23 0 32 13 32 32s-11 31 -32 31c-13 0 -21 -5 -27 -13h-65l50 111c-200 22 -300 162 -300 385c0 252 132 404 354 404c187 0 306 -98 317 -270h-169c-8 90 -64 148 -148 148c-103 0 -177 -94 -177 -276
c0 -175 67 -271 176 -271c90 0 141 57 150 153h167c-8 -165 -126 -276 -313 -276h-6l-20 -43h2c10 7 21 10 40 10c48 0 84 -34 84 -89c0 -48 -36 -94 -117 -94z" />
    <glyph glyph-name="Eacute" unicode="&#xc9;" horiz-adv-x="648" 
d="M271 827l64 133h158l-103 -133h-119zM77 0v765h504v-125h-340v-197h322v-122h-322v-197h349v-124h-513z" />
    <glyph glyph-name="Ntilde" unicode="&#xd1;" horiz-adv-x="789" 
d="M205 819c2 85 30 155 116 155c63 0 104 -52 143 -52c20 0 39 14 49 53h71c-2 -85 -30 -155 -116 -155c-63 0 -103 52 -144 52c-17 0 -38 -13 -47 -53h-72zM77 0v765h181l247 -414c39 -66 55 -114 55 -114h3v528h150v-765h-173l-254 422c-41 67 -58 116 -58 116h-3v-538
h-148z" />
    <glyph glyph-name="Odieresis" unicode="&#xd6;" horiz-adv-x="822" 
d="M450 828v137h136v-137h-136zM235 828v137h136v-137h-136zM50 380c0 252 147 396 361 396c224 0 361 -141 361 -396c0 -252 -142 -396 -361 -396c-229 0 -361 142 -361 396zM411 104c116 0 184 94 184 276c0 183 -76 278 -184 278c-116 0 -183 -93 -183 -278
c0 -184 63 -276 183 -276z" />
    <glyph glyph-name="Udieresis" unicode="&#xdc;" horiz-adv-x="761" 
d="M69 267v498h164l-1 -446c0 -55 1 -118 30 -155c28 -35 68 -50 119 -50c55 0 96 15 123 50c28 37 26 100 26 155v446h162v-498c0 -193 -125 -283 -313 -283s-310 89 -310 283zM419 828v137h136v-137h-136zM204 828v137h136v-137h-136z" />
    <glyph glyph-name="aacute" unicode="&#xe1;" horiz-adv-x="584" 
d="M256 94c55 0 106 43 106 132v17c-84 -5 -126 -12 -151 -29c-18 -12 -26 -32 -26 -54c0 -39 27 -66 71 -66zM203 377h-152c6 107 91 171 231 171c173 0 233 -71 233 -214v-185c0 -29 9 -40 43 -40v-110h-53c-77 0 -114 15 -131 74h-2c-34 -50 -86 -79 -162 -79
c-112 0 -182 59 -182 159c0 62 28 106 81 134c57 30 138 35 252 40v29c0 59 -25 90 -79 90c-52 0 -77 -29 -79 -69zM221 614l51 174h158l-88 -174h-121z" />
    <glyph glyph-name="agrave" unicode="&#xe0;" horiz-adv-x="584" 
d="M256 94c55 0 106 43 106 132v17c-84 -5 -126 -12 -151 -29c-18 -12 -26 -32 -26 -54c0 -39 27 -66 71 -66zM203 377h-152c6 107 91 171 231 171c173 0 233 -71 233 -214v-185c0 -29 9 -40 43 -40v-110h-53c-77 0 -114 15 -131 74h-2c-34 -50 -86 -79 -162 -79
c-112 0 -182 59 -182 159c0 62 28 106 81 134c57 30 138 35 252 40v29c0 59 -25 90 -79 90c-52 0 -77 -29 -79 -69zM303 788l51 -174h-121l-88 174h158z" />
    <glyph glyph-name="acircumflex" unicode="&#xe2;" horiz-adv-x="584" 
d="M256 94c55 0 106 43 106 132v17c-84 -5 -126 -12 -151 -29c-18 -12 -26 -32 -26 -54c0 -39 27 -66 71 -66zM203 377h-152c6 107 91 171 231 171c173 0 233 -71 233 -214v-185c0 -29 9 -40 43 -40v-110h-53c-77 0 -114 15 -131 74h-2c-34 -50 -86 -79 -162 -79
c-112 0 -182 59 -182 159c0 62 28 106 81 134c57 30 138 35 252 40v29c0 59 -25 90 -79 90c-52 0 -77 -29 -79 -69zM357 788l110 -174h-109l-69 77h-1l-66 -77h-101l110 174h126z" />
    <glyph glyph-name="adieresis" unicode="&#xe4;" horiz-adv-x="584" 
d="M256 94c55 0 106 43 106 132v17c-84 -5 -126 -12 -151 -29c-18 -12 -26 -32 -26 -54c0 -39 27 -66 71 -66zM203 377h-152c6 107 91 171 231 171c173 0 233 -71 233 -214v-185c0 -29 9 -40 43 -40v-110h-53c-77 0 -114 15 -131 74h-2c-34 -50 -86 -79 -162 -79
c-112 0 -182 59 -182 159c0 62 28 106 81 134c57 30 138 35 252 40v29c0 59 -25 90 -79 90c-52 0 -77 -29 -79 -69zM326 636v137h137v-137h-137zM118 636v137h136v-137h-136z" />
    <glyph glyph-name="atilde" unicode="&#xe3;" horiz-adv-x="584" 
d="M256 94c55 0 106 43 106 132v17c-84 -5 -126 -12 -151 -29c-18 -12 -26 -32 -26 -54c0 -39 27 -66 71 -66zM203 377h-152c6 107 91 171 231 171c173 0 233 -71 233 -214v-185c0 -29 9 -40 43 -40v-110h-53c-77 0 -114 15 -131 74h-2c-34 -50 -86 -79 -162 -79
c-112 0 -182 59 -182 159c0 62 28 106 81 134c57 30 138 35 252 40v29c0 59 -25 90 -79 90c-52 0 -77 -29 -79 -69zM101 614c0 89 31 164 118 164c62 0 101 -51 140 -51c19 0 40 10 50 52h71c0 -91 -31 -165 -118 -165c-62 0 -100 51 -140 51c-18 0 -40 -10 -49 -51h-72z
" />
    <glyph glyph-name="aring" unicode="&#xe5;" horiz-adv-x="584" 
d="M256 94c55 0 106 43 106 132v17c-84 -5 -126 -12 -151 -29c-18 -12 -26 -32 -26 -54c0 -39 27 -66 71 -66zM203 377h-152c6 107 91 171 231 171c173 0 233 -71 233 -214v-185c0 -29 9 -40 43 -40v-110h-53c-77 0 -114 15 -131 74h-2c-34 -50 -86 -79 -162 -79
c-112 0 -182 59 -182 159c0 62 28 106 81 134c57 30 138 35 252 40v29c0 59 -25 90 -79 90c-52 0 -77 -29 -79 -69zM292 602c-82 0 -131 49 -131 123c0 72 54 123 132 123c84 0 131 -51 131 -123c0 -74 -53 -123 -132 -123zM292 785c-32 0 -53 -24 -53 -61
c0 -36 20 -60 54 -60c32 0 52 24 52 60c0 37 -19 61 -53 61z" />
    <glyph glyph-name="ccedilla" unicode="&#xe7;" horiz-adv-x="595" 
d="M307 -232c-69 0 -104 37 -106 79h77c4 -12 13 -21 31 -21c23 0 32 13 32 32s-11 31 -32 31c-13 0 -21 -5 -27 -13h-65l51 113c-148 16 -230 118 -230 279c0 174 104 281 271 281c143 0 244 -70 248 -205h-156c-5 57 -32 99 -92 99c-83 0 -108 -84 -108 -173
c0 -83 17 -174 107 -174c70 0 95 51 97 103h154c-4 -137 -104 -208 -240 -212l-21 -46h2c10 7 21 10 40 10c48 0 84 -34 84 -89c0 -48 -36 -94 -117 -94z" />
    <glyph glyph-name="eacute" unicode="&#xe9;" horiz-adv-x="601" 
d="M234 614l51 174h158l-88 -174h-121zM400 322v7c-5 76 -35 121 -95 121c-65 0 -99 -46 -107 -128h202zM557 156c-16 -104 -109 -170 -254 -170c-173 0 -265 111 -265 283c0 164 98 280 267 280c181 0 257 -119 257 -276v-42h-364c7 -96 43 -138 110 -138c63 0 83 31 93 63
h156z" />
    <glyph glyph-name="egrave" unicode="&#xe8;" horiz-adv-x="601" 
d="M400 322v7c-5 76 -35 121 -95 121c-65 0 -99 -46 -107 -128h202zM557 156c-16 -104 -109 -170 -254 -170c-173 0 -265 111 -265 283c0 164 98 280 267 280c181 0 257 -119 257 -276v-42h-364c7 -96 43 -138 110 -138c63 0 83 31 93 63h156zM318 788l51 -174h-121l-88 174
h158z" />
    <glyph glyph-name="ecircumflex" unicode="&#xea;" horiz-adv-x="601" 
d="M371 788l110 -174h-109l-69 77h-1l-66 -77h-101l110 174h126zM400 322v7c-5 76 -35 121 -95 121c-65 0 -99 -46 -107 -128h202zM557 156c-16 -104 -109 -170 -254 -170c-173 0 -265 111 -265 283c0 164 98 280 267 280c181 0 257 -119 257 -276v-42h-364
c7 -96 43 -138 110 -138c63 0 83 31 93 63h156z" />
    <glyph glyph-name="edieresis" unicode="&#xeb;" horiz-adv-x="601" 
d="M339 636v137h137v-137h-137zM131 636v137h136v-137h-136zM400 322v7c-5 76 -35 121 -95 121c-65 0 -99 -46 -107 -128h202zM557 156c-16 -104 -109 -170 -254 -170c-173 0 -265 111 -265 283c0 164 98 280 267 280c181 0 257 -119 257 -276v-42h-364
c7 -96 43 -138 110 -138c63 0 83 31 93 63h156z" />
    <glyph glyph-name="iacute" unicode="&#xed;" horiz-adv-x="295" 
d="M78 614l51 174h158l-88 -174h-121zM68 0v536h159v-536h-159z" />
    <glyph glyph-name="igrave" unicode="&#xec;" horiz-adv-x="295" 
d="M68 0v536h159v-536h-159zM163 788l51 -174h-121l-88 174h158z" />
    <glyph glyph-name="icircumflex" unicode="&#xee;" horiz-adv-x="295" 
d="M205 788l99 -174h-98l-62 77h-1l-59 -77h-91l99 174h113zM68 0v536h159v-536h-159z" />
    <glyph glyph-name="idieresis" unicode="&#xef;" horiz-adv-x="295" 
d="M180 636v137h123v-137h-123zM-7 636v137h122v-137h-122zM68 0v536h159v-536h-159z" />
    <glyph glyph-name="ntilde" unicode="&#xf1;" horiz-adv-x="641" 
d="M420 0v313c0 38 -2 69 -16 89c-15 21 -39 31 -69 31c-71 0 -108 -45 -108 -123v-310h-159v536h153v-88h2c29 54 82 99 174 99c129 0 182 -67 182 -199v-348h-159zM137 613c0 89 31 164 118 164c62 0 101 -51 140 -51c19 0 40 10 50 52h71c0 -91 -31 -165 -118 -165
c-62 0 -100 51 -140 51c-18 0 -40 -10 -49 -51h-72z" />
    <glyph glyph-name="oacute" unicode="&#xf3;" horiz-adv-x="619" 
d="M240 614l51 174h158l-88 -174h-121zM309 -14c-169 0 -271 107 -271 282c0 176 104 281 272 281c164 0 271 -104 271 -281c0 -175 -111 -282 -272 -282zM310 442c-79 0 -108 -75 -108 -174c0 -104 30 -175 108 -175c80 0 106 76 106 175c0 103 -28 174 -106 174z" />
    <glyph glyph-name="ograve" unicode="&#xf2;" horiz-adv-x="619" 
d="M309 -14c-169 0 -271 107 -271 282c0 176 104 281 272 281c164 0 271 -104 271 -281c0 -175 -111 -282 -272 -282zM310 442c-79 0 -108 -75 -108 -174c0 -104 30 -175 108 -175c80 0 106 76 106 175c0 103 -28 174 -106 174zM325 788l51 -174h-121l-88 174h158z" />
    <glyph glyph-name="ocircumflex" unicode="&#xf4;" horiz-adv-x="619" 
d="M377 788l110 -174h-109l-69 77h-1l-66 -77h-101l110 174h126zM309 -14c-169 0 -271 107 -271 282c0 176 104 281 272 281c164 0 271 -104 271 -281c0 -175 -111 -282 -272 -282zM310 442c-79 0 -108 -75 -108 -174c0 -104 30 -175 108 -175c80 0 106 76 106 175
c0 103 -28 174 -106 174z" />
    <glyph glyph-name="odieresis" unicode="&#xf6;" horiz-adv-x="619" 
d="M345 636v137h137v-137h-137zM137 636v137h136v-137h-136zM309 -14c-169 0 -271 107 -271 282c0 176 104 281 272 281c164 0 271 -104 271 -281c0 -175 -111 -282 -272 -282zM310 442c-79 0 -108 -75 -108 -174c0 -104 30 -175 108 -175c80 0 106 76 106 175
c0 103 -28 174 -106 174z" />
    <glyph glyph-name="otilde" unicode="&#xf5;" horiz-adv-x="619" 
d="M309 -14c-169 0 -271 107 -271 282c0 176 104 281 272 281c164 0 271 -104 271 -281c0 -175 -111 -282 -272 -282zM310 442c-79 0 -108 -75 -108 -174c0 -104 30 -175 108 -175c80 0 106 76 106 175c0 103 -28 174 -106 174zM120 614c0 89 31 164 118 164
c62 0 101 -51 140 -51c19 0 40 10 50 52h71c0 -91 -31 -165 -118 -165c-62 0 -100 51 -140 51c-18 0 -40 -10 -49 -51h-72z" />
    <glyph glyph-name="uacute" unicode="&#xfa;" horiz-adv-x="637" 
d="M247 614l51 174h158l-88 -174h-121zM222 536v-313c0 -38 3 -68 16 -88c14 -21 37 -31 68 -31c70 0 105 48 105 139v293h159v-536h-153v87h-2c-28 -54 -80 -97 -168 -97c-129 0 -184 63 -184 189v357h159z" />
    <glyph glyph-name="ugrave" unicode="&#xf9;" horiz-adv-x="637" 
d="M222 536v-313c0 -38 3 -68 16 -88c14 -21 37 -31 68 -31c70 0 105 48 105 139v293h159v-536h-153v87h-2c-28 -54 -80 -97 -168 -97c-129 0 -184 63 -184 189v357h159zM332 788l51 -174h-121l-88 174h158z" />
    <glyph glyph-name="ucircumflex" unicode="&#xfb;" horiz-adv-x="637" 
d="M384 788l110 -174h-109l-69 77h-1l-66 -77h-101l110 174h126zM222 536v-313c0 -38 3 -68 16 -88c14 -21 37 -31 68 -31c70 0 105 48 105 139v293h159v-536h-153v87h-2c-28 -54 -80 -97 -168 -97c-129 0 -184 63 -184 189v357h159z" />
    <glyph glyph-name="udieresis" unicode="&#xfc;" horiz-adv-x="637" 
d="M354 636v137h137v-137h-137zM146 636v137h136v-137h-136zM222 536v-313c0 -38 3 -68 16 -88c14 -21 37 -31 68 -31c70 0 105 48 105 139v293h159v-536h-153v87h-2c-28 -54 -80 -97 -168 -97c-129 0 -184 63 -184 189v357h159z" />
    <glyph glyph-name="dagger" unicode="&#x2020;" horiz-adv-x="334" 
d="M222 558v-268h-110v268h-87v105h87v102h110v-102h88v-105h-88z" />
    <glyph glyph-name="degree" unicode="&#xb0;" horiz-adv-x="445" 
d="M54 594c0 96 71 169 168 169c98 0 169 -73 169 -169s-71 -168 -169 -168c-97 0 -168 72 -168 168zM222 503c52 0 86 38 86 91s-34 92 -86 92c-51 0 -85 -39 -85 -92s34 -91 85 -91z" />
    <glyph glyph-name="cent" unicode="&#xa2;" horiz-adv-x="603" 
d="M421 199h146c-4 -129 -93 -200 -217 -210v-105h-68v104c-151 13 -236 117 -236 280c0 162 89 265 236 279v88h68v-87c125 -10 210 -80 215 -204h-148c-4 47 -24 87 -67 99v-348c50 14 69 59 71 104zM282 96v347c-62 -20 -83 -94 -83 -173c0 -73 14 -155 83 -174z" />
    <glyph glyph-name="sterling" unicode="&#xa3;" horiz-adv-x="649" 
d="M588 126v-126h-531v92l28 21c67 50 99 92 73 189h-123v97h92l-13 39c-64 191 53 314 234 314c170 0 251 -83 249 -223h-160c0 61 -21 115 -89 115c-67 0 -122 -47 -80 -190l16 -55h183v-97h-158c10 -67 -7 -117 -65 -167l-8 -7v-2h352z" />
    <glyph glyph-name="section" unicode="&#xa7;" horiz-adv-x="625" 
d="M183 365c0 -39 33 -57 74 -76l95 -44c20 -9 34 -15 39 -18c33 7 51 31 51 62s-18 51 -74 76l-97 43c-16 7 -30 14 -34 17c-37 -8 -54 -33 -54 -60zM44 340c0 65 36 113 101 138v1c-32 27 -49 63 -49 117c0 105 90 172 219 172c153 0 213 -72 219 -171h-143
c-3 41 -23 69 -75 69c-51 0 -75 -24 -75 -56c0 -40 23 -53 72 -74l131 -57c103 -46 138 -91 138 -170c0 -65 -35 -110 -98 -134v-2c29 -24 48 -57 48 -106c0 -120 -92 -181 -227 -181c-151 0 -222 68 -228 176h141c4 -46 33 -74 88 -74c53 0 81 22 81 58c0 32 -18 47 -61 66
l-143 62c-84 37 -139 72 -139 166z" />
    <glyph glyph-name="bullet" unicode="&#x2022;" horiz-adv-x="340" 
d="M169 185c-70 0 -120 49 -120 123c0 72 55 123 121 123c72 0 121 -51 121 -123c0 -74 -55 -123 -122 -123z" />
    <glyph glyph-name="paragraph" unicode="&#xb6;" horiz-adv-x="616" 
d="M440 765h99v-765h-99v765zM261 374c-125 3 -213 67 -213 197c0 136 95 194 222 194h89v-765h-98v374z" />
    <glyph glyph-name="germandbls" unicode="&#xdf;" horiz-adv-x="649" 
d="M68 0v555c0 147 84 237 262 237c152 0 237 -84 237 -201c0 -98 -57 -150 -116 -169v-3c91 -18 161 -81 161 -195c0 -143 -103 -224 -277 -224h-40v115h32c70 0 120 36 120 118c0 78 -51 126 -122 126h-16v115h15c56 0 95 34 95 110c0 75 -43 102 -96 102
c-51 0 -96 -31 -96 -116v-570h-159z" />
    <glyph glyph-name="registered" unicode="&#xae;" horiz-adv-x="513" 
d="M40 557c0 123 92 219 216 219c125 0 217 -96 217 -219s-92 -218 -217 -218c-124 0 -216 95 -216 218zM256 377c99 0 173 77 173 180s-74 181 -173 181s-172 -78 -172 -181s73 -180 172 -180zM226 578h28c22 0 38 10 38 33c0 19 -15 29 -37 29h-29v-62zM226 538v-86h-56
v225h101c39 0 79 -19 79 -68c0 -36 -25 -55 -46 -62l49 -95h-62l-41 86h-24z" />
    <glyph glyph-name="copyright" unicode="&#xa9;" horiz-adv-x="899" 
d="M55 380c0 224 168 397 394 397s395 -173 395 -397s-169 -396 -395 -396s-394 172 -394 396zM449 41c189 0 330 147 330 339s-141 340 -330 340s-329 -148 -329 -340s140 -339 329 -339zM643 332c-3 -108 -84 -163 -191 -163c-132 0 -205 80 -205 215
c0 132 79 214 206 214c108 0 185 -53 189 -157h-120c-3 43 -24 76 -69 76c-63 0 -83 -64 -83 -132c0 -62 14 -132 82 -132c54 0 72 38 74 79h117z" />
    <glyph glyph-name="trademark" unicode="&#x2122;" horiz-adv-x="713" 
d="M274 765v-66h-92v-240h-76v240h-91v66h259zM309 459v306h122l50 -157c8 -27 11 -47 11 -47h3s3 20 12 47l50 157h120v-306h-75v224h-3s-7 -27 -19 -62l-54 -162h-68l-56 161c-12 35 -17 63 -17 63h-4v-224h-72z" />
    <glyph glyph-name="acute" unicode="&#xb4;" horiz-adv-x="369" 
d="M94 614l51 174h158l-88 -174h-121z" />
    <glyph glyph-name="dieresis" unicode="&#xa8;" horiz-adv-x="369" 
d="M220 636v137h137v-137h-137zM12 636v137h136v-137h-136z" />
    <glyph glyph-name="notequal" unicode="&#x2260;" horiz-adv-x="633" 
d="M292 195l-48 -105h-94l48 105h-122v115h175l41 90h-216v115h269l51 111h94l-51 -111h117v-115h-170l-41 -90h211v-115h-264z" />
    <glyph glyph-name="AE" unicode="&#xc6;" horiz-adv-x="1093" 
d="M525 303v337h-47l-156 -337h203zM267 183l-85 -183h-170l372 765h642v-125h-336v-197h318v-122h-318v-197h345v-124h-510v183h-258z" />
    <glyph glyph-name="Oslash" unicode="&#xd8;" horiz-adv-x="822" 
d="M411 660c-119 0 -187 -93 -187 -280c0 -51 4 -98 14 -137l295 368c-33 35 -76 49 -122 49zM411 101c118 0 188 95 188 279c0 63 -8 113 -21 152l-300 -374c29 -36 72 -57 133 -57zM772 380c0 -252 -142 -396 -361 -396c-89 0 -164 22 -221 63l-58 -72h-108l105 131
c-52 66 -79 158 -79 274c0 252 147 396 361 396c82 0 153 -19 210 -56l58 73h108l-103 -129c57 -67 88 -162 88 -284z" />
    <glyph glyph-name="plusminus" unicode="&#xb1;" horiz-adv-x="633" 
d="M378 369v-170h-125v170h-190v116h190v168h125v-168h191v-116h-191zM63 0v115h506v-115h-506z" />
    <glyph glyph-name="lessequal" unicode="&#x2264;" horiz-adv-x="633" 
d="M560 167l-496 223v83l496 223v-126l-316 -135l316 -138v-130zM560 0h-496v115h496v-115z" />
    <glyph glyph-name="greaterequal" unicode="&#x2265;" horiz-adv-x="633" 
d="M73 696l496 -223v-83l-496 -223v126l316 136l-316 137v130zM569 0h-496v115h496v-115z" />
    <glyph glyph-name="yen" unicode="&#xa5;" horiz-adv-x="654" 
d="M250 0v148h-198v76h198v81h-200v76h188l-217 360h177l135 -242h2l135 242h164l-218 -360h188v-76h-198v-81h200v-76h-200v-148h-156z" />
    <glyph glyph-name="ordfeminine" unicode="&#xaa;" horiz-adv-x="507" 
d="M229 405c45 0 77 33 77 91v12c-54 -2 -85 -3 -106 -18c-13 -9 -19 -23 -19 -39c0 -30 19 -46 48 -46zM195 614h-138c3 87 82 138 190 138c146 0 192 -61 192 -173v-133c0 -27 10 -35 32 -35v-92h-47c-59 0 -95 8 -112 57h-2c-24 -37 -68 -62 -127 -62
c-85 0 -142 50 -142 127c0 47 22 84 64 106c44 24 103 29 200 32v21c0 43 -21 61 -54 61s-54 -19 -56 -47z" />
    <glyph glyph-name="ordmasculine" unicode="&#xba;" horiz-adv-x="528" 
d="M264 309c-134 0 -220 80 -220 221c0 142 85 221 220 221c127 0 220 -77 220 -221c0 -139 -92 -221 -220 -221zM264 653c-61 0 -77 -57 -77 -123c0 -70 20 -123 77 -123c63 0 77 58 77 123c0 70 -18 123 -77 123z" />
    <glyph glyph-name="ae" unicode="&#xe6;" horiz-adv-x="915" 
d="M714 322v6c-6 77 -35 122 -100 122c-63 0 -96 -48 -103 -128h203zM256 94c56 0 107 45 107 132v13c-84 0 -127 -8 -152 -25c-18 -12 -26 -32 -26 -54c0 -40 28 -66 71 -66zM871 156c-17 -108 -106 -170 -251 -170c-117 0 -179 45 -210 101h-2c-39 -55 -101 -93 -198 -93
c-112 0 -182 59 -182 159c0 62 28 106 81 134c57 30 139 35 252 37v32c0 57 -25 90 -79 90c-53 0 -77 -30 -79 -69h-152c6 107 90 171 233 171c88 0 136 -27 163 -68h2c35 43 92 69 167 69c185 0 259 -120 259 -276v-42h-364c7 -98 43 -138 110 -138c63 0 84 31 93 63h157z
" />
    <glyph glyph-name="oslash" unicode="&#xf8;" horiz-adv-x="619" 
d="M310 445c-84 0 -113 -77 -113 -177c0 -28 2 -52 6 -74l180 223c-17 18 -41 28 -73 28zM310 91c85 0 112 77 112 177c0 27 -2 51 -5 73l-181 -222c17 -18 42 -28 74 -28zM581 268c0 -175 -111 -282 -272 -282c-59 0 -109 13 -150 37l-50 -61h-94l87 108
c-41 48 -64 115 -64 198c0 176 104 281 272 281c58 0 109 -13 150 -37l49 60h95l-87 -108c41 -47 64 -114 64 -196z" />
    <glyph glyph-name="questiondown" unicode="&#xbf;" horiz-adv-x="591" 
d="M299 499c-53 0 -94 41 -94 93c0 51 41 92 94 92c54 0 95 -41 95 -92c0 -52 -41 -93 -95 -93zM188 94c0 -56 37 -92 102 -92c64 0 118 35 118 143h152c3 -157 -94 -267 -273 -267c-180 0 -255 93 -255 208c0 92 39 142 104 196l67 56c21 17 28 26 28 54v43h137v-64
c0 -63 -8 -79 -61 -122l-57 -47c-38 -32 -62 -58 -62 -108z" />
    <glyph glyph-name="exclamdown" unicode="&#xa1;" horiz-adv-x="330" 
d="M164 499c-53 0 -94 41 -94 93c0 51 41 92 94 92c54 0 95 -41 95 -92c0 -52 -41 -93 -95 -93zM225 431l32 -545h-184l33 545h119z" />
    <glyph glyph-name="logicalnot" unicode="&#xac;" horiz-adv-x="632" 
d="M569 104h-125v196h-381v116h506v-312z" />
    <glyph glyph-name="florin" unicode="&#x192;" horiz-adv-x="477" 
d="M286 348l-71 -537h-153l69 537h-101v111h115l14 110c21 176 108 223 219 223c37 0 67 -5 73 -6v-116c-4 1 -16 4 -40 4c-47 0 -84 -14 -96 -105l-15 -110h119v-111h-133z" />
    <glyph glyph-name="approxequal" unicode="&#x2248;" horiz-adv-x="633" 
d="M80 380c0 89 43 165 136 165c65 0 147 -46 194 -46c24 0 41 11 46 50h91c0 -91 -39 -165 -127 -165c-68 0 -150 46 -196 46c-26 0 -42 -16 -45 -50h-99zM80 181c0 90 43 165 136 165c65 0 147 -46 194 -46c24 0 41 11 46 50h91c0 -90 -39 -165 -127 -165
c-68 0 -150 46 -196 46c-26 0 -42 -16 -45 -50h-99z" />
    <glyph glyph-name="guillemotleft" unicode="&#xab;" horiz-adv-x="531" 
d="M364 464h116l-97 -206l98 -201h-116l-108 204zM145 464h116l-97 -206l99 -201h-117l-108 204z" />
    <glyph glyph-name="guillemotright" unicode="&#xbb;" horiz-adv-x="538" 
d="M168 57h-117l98 206l-99 201h117l107 -203zM393 57h-117l98 206l-99 201h117l107 -203z" />
    <glyph glyph-name="ellipsis" unicode="&#x2026;" horiz-adv-x="900" 
d="M754 -16c-53 0 -94 41 -94 93c0 51 41 92 94 92c54 0 95 -41 95 -92c0 -52 -41 -93 -95 -93zM449 -16c-53 0 -94 41 -94 93c0 51 41 92 94 92c54 0 95 -41 95 -92c0 -52 -41 -93 -95 -93zM145 -16c-53 0 -94 41 -94 93c0 51 41 92 94 92c54 0 95 -41 95 -92
c0 -52 -41 -93 -95 -93z" />
    <glyph glyph-name="Agrave" unicode="&#xc0;" horiz-adv-x="761" 
d="M373 624c-1 -4 -10 -49 -30 -111l-71 -223h202l-70 222c-21 67 -29 112 -29 112h-2zM570 0l-56 170h-281l-56 -170h-157l267 765h184l271 -765h-172zM374 960l64 -133h-120l-103 133h159z" />
    <glyph glyph-name="Atilde" unicode="&#xc3;" horiz-adv-x="761" 
d="M373 624c-1 -4 -10 -49 -30 -111l-71 -223h202l-70 222c-21 67 -29 112 -29 112h-2zM570 0l-56 170h-281l-56 -170h-157l267 765h184l271 -765h-172zM190 819c2 85 30 155 116 155c63 0 104 -52 143 -52c20 0 39 14 49 53h71c-2 -85 -30 -155 -116 -155
c-63 0 -103 52 -144 52c-17 0 -38 -13 -47 -53h-72z" />
    <glyph glyph-name="Otilde" unicode="&#xd5;" horiz-adv-x="822" 
d="M221 819c2 85 30 155 116 155c63 0 104 -52 143 -52c20 0 39 14 49 53h71c-2 -85 -30 -155 -116 -155c-63 0 -103 52 -144 52c-17 0 -38 -13 -47 -53h-72zM50 380c0 252 147 396 361 396c224 0 361 -141 361 -396c0 -252 -142 -396 -361 -396c-229 0 -361 142 -361 396z
M411 104c116 0 184 94 184 276c0 183 -76 278 -184 278c-116 0 -183 -93 -183 -278c0 -184 63 -276 183 -276z" />
    <glyph glyph-name="OE" unicode="&#x152;" horiz-adv-x="1156" 
d="M588 324v104c0 148 -62 230 -176 230c-105 0 -184 -82 -184 -278c0 -183 67 -276 182 -276c122 0 178 90 178 220zM587 77c-38 -54 -104 -92 -206 -92c-197 0 -332 133 -332 395c0 265 151 396 341 396c81 0 155 -29 197 -96h1v85h501v-125h-336v-197h318v-122h-318v-197
h345v-124h-510v77h-1z" />
    <glyph glyph-name="oe" unicode="&#x153;" horiz-adv-x="972" 
d="M771 322v6c-5 77 -35 122 -99 122c-62 0 -95 -46 -103 -128h202zM310 442c-79 0 -108 -75 -108 -174c0 -104 30 -175 108 -175c80 0 106 76 106 175c0 103 -28 174 -106 174zM928 156c-16 -105 -112 -170 -255 -170c-86 0 -144 27 -182 76c-40 -49 -101 -76 -182 -76
c-169 0 -271 107 -271 282c0 176 104 281 272 281c83 0 144 -27 184 -76c38 48 96 76 178 76c185 0 261 -119 261 -276v-42h-364c7 -96 43 -138 110 -138c63 0 83 31 93 63h156z" />
    <glyph glyph-name="endash" unicode="&#x2013;" horiz-adv-x="524" 
d="M57 256v113h410v-113h-410z" />
    <glyph glyph-name="emdash" unicode="&#x2014;" horiz-adv-x="894" 
d="M57 258v109h780v-109h-780z" />
    <glyph glyph-name="quotedblleft" unicode="&#x201c;" horiz-adv-x="496" 
d="M457 765l-60 -261h-158l117 261h101zM249 765l-59 -261h-159l117 261h101z" />
    <glyph glyph-name="quotedblright" unicode="&#x201d;" horiz-adv-x="495" 
d="M249 504l60 261h158l-117 -261h-101zM41 504l60 261h158l-117 -261h-101z" />
    <glyph glyph-name="quoteleft" unicode="&#x2018;" horiz-adv-x="289" 
d="M251 765l-59 -261h-162l120 261h101z" />
    <glyph glyph-name="quoteright" unicode="&#x2019;" horiz-adv-x="289" 
d="M38 504l60 261h161l-120 -261h-101z" />
    <glyph glyph-name="divide" unicode="&#xf7;" horiz-adv-x="633" 
d="M239 492v143h153v-143h-153zM76 300v116h480v-116h-480zM392 78h-153v144h153v-144z" />
    <glyph glyph-name="ydieresis" unicode="&#xff;" horiz-adv-x="571" 
d="M217 -3l-200 539h164l88 -282c18 -58 24 -105 24 -105h3s6 47 23 105l83 282h155l-188 -553c-43 -125 -95 -182 -234 -182c-52 0 -76 6 -79 7v116c9 -2 31 -5 54 -5c60 0 88 17 103 65zM331 636v137h137v-137h-137zM123 636v137h136v-137h-136z" />
    <glyph glyph-name="Ydieresis" unicode="&#x178;" horiz-adv-x="697" 
d="M267 0v320l-256 445h181l161 -301h2l163 301h168l-255 -442v-323h-164zM395 828v137h136v-137h-136zM180 828v137h136v-137h-136z" />
    <glyph glyph-name="fraction" unicode="&#x2044;" horiz-adv-x="234" 
d="M-212 -40l547 821h111l-547 -821h-111z" />
    <glyph glyph-name="currency" unicode="&#xa4;" horiz-adv-x="631" 
d="M226 348c0 -55 35 -95 88 -95c54 0 89 40 89 95s-35 95 -89 95c-53 0 -88 -40 -88 -95zM129 348c0 30 7 58 18 83l-97 96l86 86l96 -98c24 12 52 19 82 19c31 0 60 -8 84 -20l98 100l86 -86l-101 -98c12 -24 19 -52 19 -82c0 -31 -7 -59 -19 -82l100 -98l-86 -86l-98 99
c-24 -12 -53 -18 -83 -18s-58 6 -82 17l-97 -99l-85 86l98 96c-12 25 -19 54 -19 85z" />
    <glyph glyph-name="guilsinglleft" unicode="&#x2039;" horiz-adv-x="313" 
d="M145 464h116l-97 -206l99 -201h-117l-108 204z" />
    <glyph glyph-name="guilsinglright" unicode="&#x203a;" horiz-adv-x="312" 
d="M168 57h-117l98 206l-99 201h117l107 -203z" />
    <glyph glyph-name="fi" unicode="&#xfb01;" horiz-adv-x="665" 
d="M437 629v144h161v-144h-161zM438 0v536h159v-536h-159zM250 426v-426h-155v426h-76v110h76v72c0 142 77 186 189 186c43 0 69 -5 75 -6v-111c-4 1 -20 3 -41 3c-43 0 -68 -19 -68 -80v-64h103v-110h-103z" />
    <glyph glyph-name="fl" unicode="&#xfb02;" horiz-adv-x="665" 
d="M438 0v788h159v-788h-159zM250 426v-426h-155v426h-76v110h76v72c0 142 77 186 189 186c43 0 69 -5 75 -6v-111c-4 1 -20 3 -41 3c-43 0 -68 -19 -68 -80v-64h103v-110h-103z" />
    <glyph glyph-name="daggerdbl" unicode="&#x2021;" horiz-adv-x="334" 
d="M222 392v-102h-110v102h-87v93h87v85h-87v93h87v102h110v-102h88v-93h-88v-85h88v-93h-88z" />
    <glyph glyph-name="periodcentered" unicode="&#xb7;" horiz-adv-x="291" 
d="M61 267v159h169v-159h-169z" />
    <glyph glyph-name="quotesinglbase" unicode="&#x201a;" horiz-adv-x="289" 
d="M40 -113l60 261h162l-121 -261h-101z" />
    <glyph glyph-name="quotedblbase" unicode="&#x201e;" horiz-adv-x="494" 
d="M248 -113l59 261h159l-117 -261h-101zM40 -113l60 261h158l-117 -261h-101z" />
    <glyph glyph-name="perthousand" unicode="&#x2030;" horiz-adv-x="1317" 
d="M134 -40l534 821h114l-534 -821h-114zM230 381c-97 0 -175 61 -175 181c0 121 82 180 175 180c95 0 177 -59 177 -180c0 -120 -82 -181 -177 -181zM229 466c42 0 69 32 69 96s-27 97 -69 97s-67 -31 -67 -97c0 -64 25 -96 67 -96zM1085 -7c-97 0 -175 61 -175 181
c0 121 81 180 175 180c95 0 176 -59 176 -180c0 -120 -81 -181 -176 -181zM679 -7c-97 0 -175 61 -175 181c0 121 81 180 175 180c95 0 176 -59 176 -180c0 -120 -81 -181 -176 -181zM1084 78c41 0 69 32 69 96s-28 97 -69 97c-43 0 -68 -31 -68 -97c0 -64 25 -96 68 -96z
M678 78c41 0 69 32 69 96s-28 97 -69 97c-43 0 -68 -31 -68 -97c0 -64 25 -96 68 -96z" />
    <glyph glyph-name="Acircumflex" unicode="&#xc2;" horiz-adv-x="761" 
d="M373 624c-1 -4 -10 -49 -30 -111l-71 -223h202l-70 222c-21 67 -29 112 -29 112h-2zM570 0l-56 170h-281l-56 -170h-157l267 765h184l271 -765h-172zM451 960l108 -133h-115l-66 56h-1l-64 -56h-106l108 133h136z" />
    <glyph glyph-name="Ecircumflex" unicode="&#xca;" horiz-adv-x="648" 
d="M405 960l108 -133h-115l-66 56h-1l-64 -56h-106l108 133h136zM77 0v765h504v-125h-340v-197h322v-122h-322v-197h349v-124h-513z" />
    <glyph glyph-name="Aacute" unicode="&#xc1;" horiz-adv-x="761" 
d="M373 624c-1 -4 -10 -49 -30 -111l-71 -223h202l-70 222c-21 67 -29 112 -29 112h-2zM570 0l-56 170h-281l-56 -170h-157l267 765h184l271 -765h-172zM316 827l64 133h158l-103 -133h-119z" />
    <glyph glyph-name="Edieresis" unicode="&#xcb;" horiz-adv-x="648" 
d="M77 0v765h504v-125h-340v-197h322v-122h-322v-197h349v-124h-513zM373 828v137h136v-137h-136zM158 828v137h136v-137h-136z" />
    <glyph glyph-name="Egrave" unicode="&#xc8;" horiz-adv-x="648" 
d="M328 960l64 -133h-120l-103 133h159zM77 0v765h504v-125h-340v-197h322v-122h-322v-197h349v-124h-513z" />
    <glyph glyph-name="Iacute" unicode="&#xcd;" horiz-adv-x="318" 
d="M77 0v765h164v-765h-164zM96 827l64 133h158l-103 -133h-119z" />
    <glyph glyph-name="Icircumflex" unicode="&#xce;" horiz-adv-x="318" 
d="M77 0v765h164v-765h-164zM230 960l108 -133h-115l-66 56h-1l-64 -56h-106l108 133h136z" />
    <glyph glyph-name="Idieresis" unicode="&#xcf;" horiz-adv-x="318" 
d="M77 0v765h164v-765h-164zM198 828v137h136v-137h-136zM-17 828v137h136v-137h-136z" />
    <glyph glyph-name="Igrave" unicode="&#xcc;" horiz-adv-x="318" 
d="M77 0v765h164v-765h-164zM153 960l64 -133h-120l-103 133h159z" />
    <glyph glyph-name="Oacute" unicode="&#xd3;" horiz-adv-x="822" 
d="M346 827l64 133h158l-103 -133h-119zM50 380c0 252 147 396 361 396c224 0 361 -141 361 -396c0 -252 -142 -396 -361 -396c-229 0 -361 142 -361 396zM411 104c116 0 184 94 184 276c0 183 -76 278 -184 278c-116 0 -183 -93 -183 -278c0 -184 63 -276 183 -276z" />
    <glyph glyph-name="Ocircumflex" unicode="&#xd4;" horiz-adv-x="822" 
d="M481 960l108 -133h-115l-66 56h-1l-64 -56h-106l108 133h136zM50 380c0 252 147 396 361 396c224 0 361 -141 361 -396c0 -252 -142 -396 -361 -396c-229 0 -361 142 -361 396zM411 104c116 0 184 94 184 276c0 183 -76 278 -184 278c-116 0 -183 -93 -183 -278
c0 -184 63 -276 183 -276z" />
    <glyph glyph-name="Ograve" unicode="&#xd2;" horiz-adv-x="822" 
d="M405 960l64 -133h-120l-103 133h159zM50 380c0 252 147 396 361 396c224 0 361 -141 361 -396c0 -252 -142 -396 -361 -396c-229 0 -361 142 -361 396zM411 104c116 0 184 94 184 276c0 183 -76 278 -184 278c-116 0 -183 -93 -183 -278c0 -184 63 -276 183 -276z" />
    <glyph glyph-name="Uacute" unicode="&#xda;" horiz-adv-x="761" 
d="M317 827l64 133h158l-103 -133h-119zM69 267v498h164l-1 -446c0 -55 1 -118 30 -155c28 -35 68 -50 119 -50c55 0 96 15 123 50c28 37 26 100 26 155v446h162v-498c0 -193 -125 -283 -313 -283s-310 89 -310 283z" />
    <glyph glyph-name="Ucircumflex" unicode="&#xdb;" horiz-adv-x="761" 
d="M452 960l108 -133h-115l-66 56h-1l-64 -56h-106l108 133h136zM69 267v498h164l-1 -446c0 -55 1 -118 30 -155c28 -35 68 -50 119 -50c55 0 96 15 123 50c28 37 26 100 26 155v446h162v-498c0 -193 -125 -283 -313 -283s-310 89 -310 283z" />
    <glyph glyph-name="Ugrave" unicode="&#xd9;" horiz-adv-x="761" 
d="M375 960l64 -133h-120l-103 133h159zM69 267v498h164l-1 -446c0 -55 1 -118 30 -155c28 -35 68 -50 119 -50c55 0 96 15 123 50c28 37 26 100 26 155v446h162v-498c0 -193 -125 -283 -313 -283s-310 89 -310 283z" />
    <glyph glyph-name="dotlessi" unicode="&#x131;" horiz-adv-x="295" 
d="M68 0v536h159v-536h-159z" />
    <glyph glyph-name="circumflex" unicode="&#x2c6;" horiz-adv-x="369" 
d="M248 788l110 -174h-109l-69 77h-1l-66 -77h-101l110 174h126z" />
    <glyph glyph-name="tilde" unicode="&#x2dc;" horiz-adv-x="369" 
d="M-5 614c0 89 31 164 118 164c62 0 101 -51 140 -51c19 0 40 10 50 52h71c0 -91 -31 -165 -118 -165c-62 0 -100 51 -140 51c-18 0 -40 -10 -49 -51h-72z" />
    <glyph glyph-name="macron" unicode="&#xaf;" horiz-adv-x="369" 
d="M13 636v104h342v-104h-342z" />
    <glyph glyph-name="breve" unicode="&#x2d8;" horiz-adv-x="369" 
d="M184 612c-92 0 -166 52 -166 176h105c0 -49 26 -74 64 -74s65 25 65 74h99c0 -124 -74 -176 -167 -176z" />
    <glyph glyph-name="dotaccent" unicode="&#x2d9;" horiz-adv-x="369" 
d="M116 636v137h137v-137h-137z" />
    <glyph glyph-name="ring" unicode="&#x2da;" horiz-adv-x="369" 
d="M188 602c-82 0 -131 49 -131 123c0 72 54 123 132 123c84 0 131 -51 131 -123c0 -74 -53 -123 -132 -123zM188 785c-32 0 -53 -24 -53 -61c0 -36 20 -60 54 -60c32 0 52 24 52 60c0 37 -19 61 -53 61z" />
    <glyph glyph-name="cedilla" unicode="&#xb8;" horiz-adv-x="536" 
d="M244 30h53l-35 -76h2c10 7 21 10 40 10c48 0 84 -34 84 -89c0 -48 -36 -94 -117 -94c-69 0 -104 37 -106 79h77c4 -12 13 -21 31 -21c23 0 32 13 32 32s-11 31 -32 31c-13 0 -21 -5 -27 -13h-65z" />
    <glyph glyph-name="hungarumlaut" unicode="&#x2dd;" horiz-adv-x="413" 
d="M208 614l52 174h127l-86 -174h-93zM44 614l39 174h128l-73 -174h-94z" />
    <glyph glyph-name="ogonek" unicode="&#x2db;" horiz-adv-x="369" 
d="M198 9c4 -1 64 -9 64 -9c-36 -24 -50 -43 -50 -64c0 -23 15 -34 51 -35v-89h-29c-107 0 -143 38 -143 90c0 44 34 87 107 107z" />
    <glyph glyph-name="caron" unicode="&#x2c7;" horiz-adv-x="369" 
d="M122 614l-110 174h109l69 -77h1l66 77h101l-110 -174h-126z" />
    <glyph glyph-name="uni00A0" unicode="&#xa0;" horiz-adv-x="228" 
 />
    <glyph glyph-name="Amacron" unicode="&#x100;" horiz-adv-x="761" 
d="M373 624c-1 -4 -10 -49 -30 -111l-71 -223h202l-70 222c-21 67 -29 112 -29 112h-2zM570 0l-56 170h-281l-56 -170h-157l267 765h184l271 -765h-172zM208 838v104h342v-104h-342z" />
    <glyph glyph-name="amacron" unicode="&#x101;" horiz-adv-x="584" 
d="M256 94c55 0 106 43 106 132v17c-84 -5 -126 -12 -151 -29c-18 -12 -26 -32 -26 -54c0 -39 27 -66 71 -66zM203 377h-152c6 107 91 171 231 171c173 0 233 -71 233 -214v-185c0 -29 9 -40 43 -40v-110h-53c-77 0 -114 15 -131 74h-2c-34 -50 -86 -79 -162 -79
c-112 0 -182 59 -182 159c0 62 28 106 81 134c57 30 138 35 252 40v29c0 59 -25 90 -79 90c-52 0 -77 -29 -79 -69zM119 636v104h342v-104h-342z" />
    <glyph glyph-name="Abreve" unicode="&#x102;" horiz-adv-x="761" 
d="M373 624c-1 -4 -10 -49 -30 -111l-71 -223h202l-70 222c-21 67 -29 112 -29 112h-2zM570 0l-56 170h-281l-56 -170h-157l267 765h184l271 -765h-172zM379 815c-90 0 -163 45 -166 157h103c3 -40 30 -63 66 -63s63 23 67 63h97c-3 -112 -76 -157 -167 -157z" />
    <glyph glyph-name="abreve" unicode="&#x103;" horiz-adv-x="584" 
d="M256 94c55 0 106 43 106 132v17c-84 -5 -126 -12 -151 -29c-18 -12 -26 -32 -26 -54c0 -39 27 -66 71 -66zM203 377h-152c6 107 91 171 231 171c173 0 233 -71 233 -214v-185c0 -29 9 -40 43 -40v-110h-53c-77 0 -114 15 -131 74h-2c-34 -50 -86 -79 -162 -79
c-112 0 -182 59 -182 159c0 62 28 106 81 134c57 30 138 35 252 40v29c0 59 -25 90 -79 90c-52 0 -77 -29 -79 -69zM290 612c-92 0 -166 52 -166 176h105c0 -49 26 -74 64 -74s65 25 65 74h99c0 -124 -74 -176 -167 -176z" />
    <glyph glyph-name="Aogonek" unicode="&#x104;" horiz-adv-x="761" 
d="M20 0l267 765h184l268 -758c-46 -25 -64 -48 -64 -71s15 -34 51 -35v-89h-29c-107 0 -142 38 -142 90c0 37 25 75 77 98h-63l-56 170h-280l-56 -170h-157zM272 290h202l-70 222c-21 67 -29 112 -29 112h-2s-9 -46 -30 -111z" />
    <glyph glyph-name="aogonek" unicode="&#x105;" horiz-adv-x="584" 
d="M203 377h-152c6 107 91 171 231 171c173 0 233 -71 233 -214v-185c0 -29 9 -40 43 -40v-109c-39 -24 -54 -44 -54 -65c0 -22 15 -33 51 -34v-89h-29c-107 0 -143 37 -143 90c0 38 25 76 85 97v2c-49 7 -79 21 -94 72h-2c-34 -50 -86 -79 -162 -79
c-112 0 -182 59 -182 159c0 62 28 106 81 134c57 30 138 35 252 40v29c0 59 -25 90 -79 90c-52 0 -77 -29 -79 -69zM256 94c55 0 106 43 106 132v17c-84 -5 -126 -12 -151 -29c-18 -12 -26 -32 -26 -54c0 -39 27 -66 71 -66z" />
    <glyph glyph-name="Cacute" unicode="&#x106;" horiz-adv-x="766" 
d="M404 654c-103 0 -177 -94 -177 -276c0 -175 67 -271 176 -271c90 0 141 57 150 153h167c-8 -165 -126 -276 -313 -276c-238 0 -357 145 -357 388c0 252 132 404 354 404c187 0 306 -98 317 -270h-169c-8 90 -64 148 -148 148zM345 827l64 133h158l-103 -133h-119z" />
    <glyph glyph-name="cacute" unicode="&#x107;" horiz-adv-x="595" 
d="M244 614l51 174h158l-88 -174h-121zM557 344h-156c-5 57 -32 99 -92 99c-83 0 -108 -84 -108 -173c0 -83 17 -174 107 -174c70 0 95 51 97 103h154c-4 -141 -110 -212 -251 -212c-173 0 -270 106 -270 281c0 174 104 281 271 281c143 0 244 -70 248 -205z" />
    <glyph glyph-name="Ccircumflex" unicode="&#x108;" horiz-adv-x="766" 
d="M479 960l108 -133h-115l-66 56h-1l-64 -56h-106l108 133h136zM404 654c-103 0 -177 -94 -177 -276c0 -175 67 -271 176 -271c90 0 141 57 150 153h167c-8 -165 -126 -276 -313 -276c-238 0 -357 145 -357 388c0 252 132 404 354 404c187 0 306 -98 317 -270h-169
c-8 90 -64 148 -148 148z" />
    <glyph glyph-name="ccircumflex" unicode="&#x109;" horiz-adv-x="595" 
d="M381 788l110 -174h-109l-69 77h-1l-66 -77h-101l110 174h126zM557 344h-156c-5 57 -32 99 -92 99c-83 0 -108 -84 -108 -173c0 -83 17 -174 107 -174c70 0 95 51 97 103h154c-4 -141 -110 -212 -251 -212c-173 0 -270 106 -270 281c0 174 104 281 271 281
c143 0 244 -70 248 -205z" />
    <glyph glyph-name="Cdotaccent" unicode="&#x10a;" horiz-adv-x="766" 
d="M404 654c-103 0 -177 -94 -177 -276c0 -175 67 -271 176 -271c90 0 141 57 150 153h167c-8 -165 -126 -276 -313 -276c-238 0 -357 145 -357 388c0 252 132 404 354 404c187 0 306 -98 317 -270h-169c-8 90 -64 148 -148 148zM339 833v137h137v-137h-137z" />
    <glyph glyph-name="cdotaccent" unicode="&#x10b;" horiz-adv-x="595" 
d="M557 344h-156c-5 57 -32 99 -92 99c-83 0 -108 -84 -108 -173c0 -83 17 -174 107 -174c70 0 95 51 97 103h154c-4 -141 -110 -212 -251 -212c-173 0 -270 106 -270 281c0 174 104 281 271 281c143 0 244 -70 248 -205zM244 636v137h137v-137h-137z" />
    <glyph glyph-name="Ccaron" unicode="&#x10c;" horiz-adv-x="766" 
d="M333 827l-108 133h115l66 -56h1l64 56h106l-108 -133h-136zM404 654c-103 0 -177 -94 -177 -276c0 -175 67 -271 176 -271c90 0 141 57 150 153h167c-8 -165 -126 -276 -313 -276c-238 0 -357 145 -357 388c0 252 132 404 354 404c187 0 306 -98 317 -270h-169
c-8 90 -64 148 -148 148z" />
    <glyph glyph-name="ccaron" unicode="&#x10d;" horiz-adv-x="595" 
d="M244 614l-110 174h109l69 -77h1l66 77h101l-110 -174h-126zM557 344h-156c-5 57 -32 99 -92 99c-83 0 -108 -84 -108 -173c0 -83 17 -174 107 -174c70 0 95 51 97 103h154c-4 -141 -110 -212 -251 -212c-173 0 -270 106 -270 281c0 174 104 281 271 281
c143 0 244 -70 248 -205z" />
    <glyph glyph-name="Dcaron" unicode="&#x10e;" horiz-adv-x="770" 
d="M280 827l-108 133h115l66 -56h1l64 56h106l-108 -133h-136zM77 0v765h261c226 0 383 -111 383 -373s-155 -392 -379 -392h-265zM241 124h89c132 0 217 66 217 264c0 189 -86 255 -212 255h-94v-519z" />
    <glyph glyph-name="dcaron" unicode="&#x10f;" horiz-adv-x="649" 
d="M645 601l6 187h125l-56 -187h-75zM424 228v64c0 94 -42 147 -108 147c-71 0 -115 -56 -115 -173c0 -109 33 -173 111 -173c73 0 112 58 112 135zM581 788v-788h-152v79h-2c-28 -47 -76 -93 -160 -93c-142 0 -228 89 -228 275c0 189 101 286 234 286c69 0 122 -32 147 -82
h2v323h159z" />
    <glyph glyph-name="Dcroat" unicode="&#x110;" horiz-adv-x="792" 
d="M364 0h-265v329h-75v111h75v325h262c225 0 382 -111 382 -373s-155 -392 -379 -392zM263 124h89c132 0 217 66 217 264c0 189 -86 255 -212 255h-94v-203h166v-111h-166v-205z" />
    <glyph glyph-name="dcroat" unicode="&#x111;" horiz-adv-x="649" 
d="M424 228v64c0 94 -42 147 -108 147c-71 0 -115 -56 -115 -173c0 -109 33 -173 111 -173c73 0 112 58 112 135zM427 79c-28 -47 -76 -93 -160 -93c-142 0 -228 89 -228 275c0 189 101 286 234 286c69 0 122 -32 147 -82h2v142h-149v93h149v88h159v-88h79v-93h-79v-607
h-152v79h-2z" />
    <glyph glyph-name="Emacron" unicode="&#x112;" horiz-adv-x="648" 
d="M77 0v765h504v-125h-340v-197h322v-122h-322v-197h349v-124h-513zM162 838v104h342v-104h-342z" />
    <glyph glyph-name="emacron" unicode="&#x113;" horiz-adv-x="601" 
d="M400 322v7c-5 76 -35 121 -95 121c-65 0 -99 -46 -107 -128h202zM557 156c-16 -104 -109 -170 -254 -170c-173 0 -265 111 -265 283c0 164 98 280 267 280c181 0 257 -119 257 -276v-42h-364c7 -96 43 -138 110 -138c63 0 83 31 93 63h156zM132 636v104h342v-104h-342z
" />
    <glyph glyph-name="Ebreve" unicode="&#x114;" horiz-adv-x="648" 
d="M77 0v765h504v-125h-340v-197h322v-122h-322v-197h349v-124h-513zM333 815c-90 0 -163 45 -166 157h103c3 -40 30 -63 66 -63s63 23 67 63h97c-3 -112 -76 -157 -167 -157z" />
    <glyph glyph-name="ebreve" unicode="&#x115;" horiz-adv-x="601" 
d="M400 322v7c-5 76 -35 121 -95 121c-65 0 -99 -46 -107 -128h202zM557 156c-16 -104 -109 -170 -254 -170c-173 0 -265 111 -265 283c0 164 98 280 267 280c181 0 257 -119 257 -276v-42h-364c7 -96 43 -138 110 -138c63 0 83 31 93 63h156zM303 612
c-92 0 -166 52 -166 176h105c0 -49 26 -74 64 -74s65 25 65 74h99c0 -124 -74 -176 -167 -176z" />
    <glyph glyph-name="Edotaccent" unicode="&#x116;" horiz-adv-x="648" 
d="M264 833v137h137v-137h-137zM77 0v765h504v-125h-340v-197h322v-122h-322v-197h349v-124h-513z" />
    <glyph glyph-name="edotaccent" unicode="&#x117;" horiz-adv-x="601" 
d="M400 322v7c-5 76 -35 121 -95 121c-65 0 -99 -46 -107 -128h202zM557 156c-16 -104 -109 -170 -254 -170c-173 0 -265 111 -265 283c0 164 98 280 267 280c181 0 257 -119 257 -276v-42h-364c7 -96 43 -138 110 -138c63 0 83 31 93 63h156zM234 636v137h137v-137h-137z
" />
    <glyph glyph-name="Eogonek" unicode="&#x118;" horiz-adv-x="648" 
d="M590 -99v-89h-29c-107 0 -143 38 -143 90c0 38 26 76 80 98h-421v765h504v-125h-340v-197h322v-122h-322v-197h349v-124c-36 -24 -51 -43 -51 -64c0 -23 15 -34 51 -35z" />
    <glyph glyph-name="eogonek" unicode="&#x119;" horiz-adv-x="601" 
d="M401 156h156c-7 -43 -25 -81 -67 -115c-47 -39 -82 -73 -82 -105c0 -23 15 -34 51 -35v-89h-29c-107 0 -143 38 -143 88c0 40 28 69 87 92v2c-21 -3 -49 -8 -71 -8c-173 0 -265 111 -265 283c0 164 100 280 266 280c184 0 258 -119 258 -276v-42h-364
c6 -94 41 -138 110 -138c63 0 83 31 93 63zM198 322h202c-3 80 -33 128 -96 128s-99 -47 -106 -128z" />
    <glyph glyph-name="Ecaron" unicode="&#x11a;" horiz-adv-x="648" 
d="M259 827l-108 133h115l66 -56h1l64 56h106l-108 -133h-136zM77 0v765h504v-125h-340v-197h322v-122h-322v-197h349v-124h-513z" />
    <glyph glyph-name="ecaron" unicode="&#x11b;" horiz-adv-x="601" 
d="M234 614l-110 174h109l69 -77h1l66 77h101l-110 -174h-126zM400 322v7c-5 76 -35 121 -95 121c-65 0 -99 -46 -107 -128h202zM557 156c-16 -104 -109 -170 -254 -170c-173 0 -265 111 -265 283c0 164 98 280 267 280c181 0 257 -119 257 -276v-42h-364
c7 -96 43 -138 110 -138c63 0 83 31 93 63h156z" />
    <glyph glyph-name="Gcircumflex" unicode="&#x11c;" horiz-adv-x="810" 
d="M473 960l108 -133h-115l-66 56h-1l-64 -56h-106l108 133h136zM412 658c-119 0 -187 -97 -187 -279c0 -198 71 -276 187 -276c105 0 166 64 174 173l1 14h-181v118h334v-408h-130v104h-4c-36 -69 -109 -120 -222 -120c-218 0 -334 151 -334 387c0 248 145 405 362 405
c184 0 295 -87 313 -243h-167c-10 74 -65 125 -146 125z" />
    <glyph glyph-name="gcircumflex" unicode="&#x11d;" horiz-adv-x="646" 
d="M359 788l110 -174h-109l-69 77h-1l-66 -77h-101l110 174h126zM426 244v58c0 87 -45 137 -112 137c-66 0 -113 -53 -113 -161c0 -102 36 -160 113 -160c67 0 112 54 112 126zM309 -199c-167 0 -245 66 -253 167h153c10 -40 33 -63 102 -63c78 0 115 35 115 130v76h-3
c-19 -43 -66 -94 -156 -94c-140 0 -228 81 -228 261c0 175 102 269 232 269c82 0 131 -41 153 -84h2v73h152v-493c0 -162 -87 -242 -269 -242z" />
    <glyph glyph-name="Gbreve" unicode="&#x11e;" horiz-adv-x="810" 
d="M405 815c-90 0 -163 45 -166 157h103c3 -40 30 -63 66 -63s63 23 67 63h97c-3 -112 -76 -157 -167 -157zM412 658c-119 0 -187 -97 -187 -279c0 -198 71 -276 187 -276c105 0 166 64 174 173l1 14h-181v118h334v-408h-130v104h-4c-36 -69 -109 -120 -222 -120
c-218 0 -334 151 -334 387c0 248 145 405 362 405c184 0 295 -87 313 -243h-167c-10 74 -65 125 -146 125z" />
    <glyph glyph-name="gbreve" unicode="&#x11f;" horiz-adv-x="646" 
d="M426 244v58c0 87 -45 137 -112 137c-66 0 -113 -53 -113 -161c0 -102 36 -160 113 -160c67 0 112 54 112 126zM309 -199c-167 0 -245 66 -253 167h153c10 -40 33 -63 102 -63c78 0 115 35 115 130v76h-3c-19 -43 -66 -94 -156 -94c-140 0 -228 81 -228 261
c0 175 102 269 232 269c82 0 131 -41 153 -84h2v73h152v-493c0 -162 -87 -242 -269 -242zM292 612c-92 0 -166 52 -166 176h105c0 -49 26 -74 64 -74s65 25 65 74h99c0 -124 -74 -176 -167 -176z" />
    <glyph glyph-name="Gdotaccent" unicode="&#x120;" horiz-adv-x="810" 
d="M336 833v137h137v-137h-137zM412 658c-119 0 -187 -97 -187 -279c0 -198 71 -276 187 -276c105 0 166 64 174 173l1 14h-181v118h334v-408h-130v104h-4c-36 -69 -109 -120 -222 -120c-218 0 -334 151 -334 387c0 248 145 405 362 405c184 0 295 -87 313 -243h-167
c-10 74 -65 125 -146 125z" />
    <glyph glyph-name="gdotaccent" unicode="&#x121;" horiz-adv-x="646" 
d="M426 244v58c0 87 -45 137 -112 137c-66 0 -113 -53 -113 -161c0 -102 36 -160 113 -160c67 0 112 54 112 126zM309 -199c-167 0 -245 66 -253 167h153c10 -40 33 -63 102 -63c78 0 115 35 115 130v76h-3c-19 -43 -66 -94 -156 -94c-140 0 -228 81 -228 261
c0 175 102 269 232 269c82 0 131 -41 153 -84h2v73h152v-493c0 -162 -87 -242 -269 -242zM223 636v137h137v-137h-137z" />
    <glyph glyph-name="Gcommaaccent" unicode="&#x122;" horiz-adv-x="810" 
d="M303 -220l24 156h154l-73 -156h-105zM412 658c-119 0 -187 -97 -187 -279c0 -198 71 -276 187 -276c105 0 166 64 174 173l1 14h-181v118h334v-408h-130v104h-4c-36 -69 -109 -120 -222 -120c-218 0 -334 151 -334 387c0 248 145 405 362 405c184 0 295 -87 313 -243
h-167c-10 74 -65 125 -146 125z" />
    <glyph glyph-name="gcommaaccent" unicode="&#x123;" horiz-adv-x="646" 
d="M387 782l-27 -165h-157l79 165h105zM426 244v58c0 87 -45 137 -112 137c-66 0 -113 -53 -113 -161c0 -102 36 -160 113 -160c67 0 112 54 112 126zM309 -199c-167 0 -245 66 -253 167h153c10 -40 33 -63 102 -63c78 0 115 35 115 130v76h-3c-19 -43 -66 -94 -156 -94
c-140 0 -228 81 -228 261c0 175 102 269 232 269c82 0 131 -41 153 -84h2v73h152v-493c0 -162 -87 -242 -269 -242z" />
    <glyph glyph-name="Hcircumflex" unicode="&#x124;" horiz-adv-x="792" 
d="M241 318v-318h-164v765h164v-319h308v319h166v-765h-166v318h-308zM468 960l108 -133h-115l-66 56h-1l-64 -56h-106l108 133h136z" />
    <glyph glyph-name="hcircumflex" unicode="&#x125;" horiz-adv-x="641" 
d="M420 0v314c0 38 -2 68 -16 88c-15 21 -39 31 -69 31c-71 0 -108 -45 -108 -123v-310h-159v788h159v-338h2c24 49 80 97 168 97c129 0 182 -67 182 -199v-348h-159zM395 960l108 -133h-115l-66 56h-1l-64 -56h-106l108 133h136z" />
    <glyph glyph-name="Hbar" unicode="&#x126;" horiz-adv-x="792" 
d="M549 446v118h-308v-118h308zM241 318v-318h-164v564h-77v94h77v107h164v-107h308v107h166v-107h77v-94h-77v-564h-166v318h-308z" />
    <glyph glyph-name="hbar" unicode="&#x127;" horiz-adv-x="641" 
d="M227 310v-310h-159v607h-79v93h79v88h158v-88h151v-93h-151v-157h2c24 49 81 97 169 97c129 0 182 -67 182 -199v-348h-159v314c0 38 -2 68 -16 88c-15 21 -39 31 -69 31c-71 0 -108 -45 -108 -123z" />
    <glyph glyph-name="Itilde" unicode="&#x128;" horiz-adv-x="318" 
d="M77 0v765h164v-765h-164zM-31 819c2 85 30 155 116 155c63 0 104 -52 143 -52c20 0 39 14 49 53h71c-2 -85 -30 -155 -116 -155c-63 0 -103 52 -144 52c-17 0 -38 -13 -47 -53h-72z" />
    <glyph glyph-name="itilde" unicode="&#x129;" horiz-adv-x="295" 
d="M68 0v536h159v-536h-159zM-14 614c0 89 26 164 100 164c53 0 86 -51 119 -51c16 0 34 10 43 52h60c0 -91 -26 -165 -100 -165c-53 0 -85 51 -119 51c-16 0 -34 -10 -42 -51h-61z" />
    <glyph glyph-name="Imacron" unicode="&#x12a;" horiz-adv-x="318" 
d="M77 0v765h164v-765h-164zM-13 838v104h342v-104h-342z" />
    <glyph glyph-name="imacron" unicode="&#x12b;" horiz-adv-x="295" 
d="M68 0v536h159v-536h-159zM11 636v104h274v-104h-274z" />
    <glyph glyph-name="Ibreve" unicode="&#x12c;" horiz-adv-x="318" 
d="M77 0v765h164v-765h-164zM158 815c-90 0 -163 45 -166 157h103c3 -40 30 -63 66 -63s63 23 67 63h97c-3 -112 -76 -157 -167 -157z" />
    <glyph glyph-name="ibreve" unicode="&#x12d;" horiz-adv-x="295" 
d="M68 0v536h159v-536h-159zM148 612c-83 0 -150 52 -150 176h95c0 -49 23 -74 57 -74s59 25 59 74h89c0 -124 -67 -176 -150 -176z" />
    <glyph glyph-name="Iogonek" unicode="&#x12e;" horiz-adv-x="318" 
d="M77 0v765h164v-753c-52 -33 -67 -55 -67 -76c0 -23 15 -34 51 -35v-89h-29c-107 0 -142 38 -142 90c0 38 25 75 78 98h-55z" />
    <glyph glyph-name="iogonek" unicode="&#x12f;" horiz-adv-x="295" 
d="M67 629v144h161v-144h-161zM68 0v536h159v-527c-51 -30 -66 -51 -66 -73c0 -23 15 -34 51 -35v-89h-29c-106 0 -142 38 -142 90c0 40 28 77 79 98h-52z" />
    <glyph glyph-name="Idotaccent" unicode="&#x130;" horiz-adv-x="318" 
d="M77 0v765h164v-765h-164zM90 833v137h137v-137h-137z" />
    <glyph glyph-name="IJ" unicode="&#x132;" horiz-adv-x="749" 
d="M404 -3h-53v130h27c121 0 139 46 139 138v500h162v-520c0 -190 -101 -248 -275 -248zM77 0v765h164v-765h-164z" />
    <glyph glyph-name="ij" unicode="&#x133;" horiz-adv-x="594" 
d="M67 629v144h161v-144h-161zM68 0v536h159v-536h-159zM366 629v144h161v-144h-161zM335 -206c-44 0 -70 8 -75 9v111c4 -2 18 -5 39 -5c47 0 68 22 68 76v551h159v-552c0 -146 -82 -190 -191 -190z" />
    <glyph glyph-name="Jcircumflex" unicode="&#x134;" horiz-adv-x="448" 
d="M370 960l108 -133h-115l-66 56h-1l-64 -56h-106l108 133h136zM96 -3h-63v130h37c127 0 146 46 146 138v500h162v-520c0 -190 -105 -248 -282 -248z" />
    <glyph glyph-name="jcircumflex" unicode="&#x135;" horiz-adv-x="299" 
d="M-35 -197v111c4 -2 18 -5 39 -5c47 0 68 22 68 76v551h159v-552c0 -146 -82 -190 -191 -190c-44 0 -70 8 -75 9zM206 788l99 -174h-98l-62 77h-1l-59 -77h-91l99 174h113z" />
    <glyph glyph-name="Kcommaaccent" unicode="&#x136;" horiz-adv-x="735" 
d="M282 -220l24 156h154l-73 -156h-105zM241 232v-232h-164v765h164v-341l279 341h183l-275 -320l287 -445h-188l-210 321z" />
    <glyph glyph-name="kcommaaccent" unicode="&#x137;" horiz-adv-x="598" 
d="M220 -220l24 156h154l-73 -156h-105zM224 139v-139h-156v788h156v-474l183 222h168l-179 -210l188 -326h-172l-122 219z" />
    <glyph glyph-name="kgreenlandic" unicode="&#x138;" horiz-adv-x="598" 
d="M224 139v-139h-156v536h156v-222l183 222h168l-179 -210l188 -326h-172l-122 219z" />
    <glyph glyph-name="Lacute" unicode="&#x139;" horiz-adv-x="610" 
d="M100 827l64 133h158l-103 -133h-119zM77 0v765h164v-637h330v-128h-494z" />
    <glyph glyph-name="lacute" unicode="&#x13a;" horiz-adv-x="295" 
d="M80 829l64 133h158l-103 -133h-119zM68 0v788h159v-788h-159z" />
    <glyph glyph-name="Lcommaaccent" unicode="&#x13b;" horiz-adv-x="610" 
d="M224 -220l24 156h154l-73 -156h-105zM77 0v765h164v-637h330v-128h-494z" />
    <glyph glyph-name="lcommaaccent" unicode="&#x13c;" horiz-adv-x="295" 
d="M46 -220l24 156h154l-73 -156h-105zM68 0v788h159v-788h-159z" />
    <glyph glyph-name="Lcaron" unicode="&#x13d;" horiz-adv-x="610" 
d="M339 577l16 211h128l-65 -211h-79zM77 0v765h164v-637h330v-128h-494z" />
    <glyph glyph-name="lcaron" unicode="&#x13e;" horiz-adv-x="295" 
d="M290 601l6 187h125l-56 -187h-75zM68 0v788h159v-788h-159z" />
    <glyph glyph-name="Ldot" unicode="&#x13f;" horiz-adv-x="610" 
d="M77 0v765h164v-637h330v-128h-494zM379 340v157h166v-157h-166z" />
    <glyph glyph-name="ldot" unicode="&#x140;" horiz-adv-x="522" 
d="M68 0v788h159v-788h-159zM327 325v149h159v-149h-159z" />
    <glyph glyph-name="Nacute" unicode="&#x143;" horiz-adv-x="789" 
d="M331 827l64 133h158l-103 -133h-119zM77 0v765h181l247 -414c39 -66 55 -114 55 -114h3v528h150v-765h-173l-254 422c-41 67 -58 116 -58 116h-3v-538h-148z" />
    <glyph glyph-name="nacute" unicode="&#x144;" horiz-adv-x="641" 
d="M282 614l51 174h158l-88 -174h-121zM420 0v313c0 38 -2 69 -16 89c-15 21 -39 31 -69 31c-71 0 -108 -45 -108 -123v-310h-159v536h153v-88h2c29 54 82 99 174 99c129 0 182 -67 182 -199v-348h-159z" />
    <glyph glyph-name="Ncommaaccent" unicode="&#x145;" horiz-adv-x="789" 
d="M294 -220l24 156h154l-73 -156h-105zM77 0v765h181l247 -414c39 -66 55 -114 55 -114h3v528h150v-765h-173l-254 422c-41 67 -58 116 -58 116h-3v-538h-148z" />
    <glyph glyph-name="ncommaaccent" unicode="&#x146;" horiz-adv-x="641" 
d="M223 -220l24 156h154l-73 -156h-105zM420 0v313c0 38 -2 69 -16 89c-15 21 -39 31 -69 31c-71 0 -108 -45 -108 -123v-310h-159v536h153v-88h2c29 54 82 99 174 99c129 0 182 -67 182 -199v-348h-159z" />
    <glyph glyph-name="Ncaron" unicode="&#x147;" horiz-adv-x="789" 
d="M320 827l-108 133h115l66 -56h1l64 56h106l-108 -133h-136zM77 0v765h181l247 -414c39 -66 55 -114 55 -114h3v528h150v-765h-173l-254 422c-41 67 -58 116 -58 116h-3v-538h-148z" />
    <glyph glyph-name="ncaron" unicode="&#x148;" horiz-adv-x="641" 
d="M273 614l-110 174h109l69 -77h1l66 77h101l-110 -174h-126zM420 0v313c0 38 -2 69 -16 89c-15 21 -39 31 -69 31c-71 0 -108 -45 -108 -123v-310h-159v536h153v-88h2c29 54 82 99 174 99c129 0 182 -67 182 -199v-348h-159z" />
    <glyph glyph-name="napostrophe" unicode="&#x149;" horiz-adv-x="641" 
d="M13 632l24 156h154l-73 -156h-105zM420 0v313c0 38 -2 69 -16 89c-15 21 -39 31 -69 31c-71 0 -108 -45 -108 -123v-310h-159v536h153v-88h2c29 54 82 99 174 99c129 0 182 -67 182 -199v-348h-159z" />
    <glyph glyph-name="Eng" unicode="&#x14a;" horiz-adv-x="789" 
d="M436 -188h-59v124h33c83 0 123 22 140 63l-263 423c-42 67 -59 116 -59 116h-3v-538h-148v765h180l247 -400c40 -65 56 -115 56 -115h3v515h150v-713c0 -182 -105 -240 -277 -240z" />
    <glyph glyph-name="eng" unicode="&#x14b;" horiz-adv-x="641" 
d="M388 -206c-44 0 -69 8 -73 9v111c4 -2 16 -5 37 -5c47 0 68 22 68 76v328c0 38 -2 69 -16 89c-15 21 -39 31 -69 31c-71 0 -108 -45 -108 -123v-310h-159v536h153v-88h2c29 54 82 99 174 99c129 0 182 -67 182 -199v-364c0 -146 -82 -190 -191 -190z" />
    <glyph glyph-name="Omacron" unicode="&#x14c;" horiz-adv-x="822" 
d="M239 838v104h342v-104h-342zM50 380c0 252 147 396 361 396c224 0 361 -141 361 -396c0 -252 -142 -396 -361 -396c-229 0 -361 142 -361 396zM411 104c116 0 184 94 184 276c0 183 -76 278 -184 278c-116 0 -183 -93 -183 -278c0 -184 63 -276 183 -276z" />
    <glyph glyph-name="omacron" unicode="&#x14d;" horiz-adv-x="619" 
d="M138 636v104h342v-104h-342zM309 -14c-169 0 -271 107 -271 282c0 176 104 281 272 281c164 0 271 -104 271 -281c0 -175 -111 -282 -272 -282zM310 442c-79 0 -108 -75 -108 -174c0 -104 30 -175 108 -175c80 0 106 76 106 175c0 103 -28 174 -106 174z" />
    <glyph glyph-name="Obreve" unicode="&#x14e;" horiz-adv-x="822" 
d="M410 815c-90 0 -163 45 -166 157h103c3 -40 30 -63 66 -63s63 23 67 63h97c-3 -112 -76 -157 -167 -157zM50 380c0 252 147 396 361 396c224 0 361 -141 361 -396c0 -252 -142 -396 -361 -396c-229 0 -361 142 -361 396zM411 104c116 0 184 94 184 276
c0 183 -76 278 -184 278c-116 0 -183 -93 -183 -278c0 -184 63 -276 183 -276z" />
    <glyph glyph-name="obreve" unicode="&#x14f;" horiz-adv-x="619" 
d="M309 -14c-169 0 -271 107 -271 282c0 176 104 281 272 281c164 0 271 -104 271 -281c0 -175 -111 -282 -272 -282zM310 442c-79 0 -108 -75 -108 -174c0 -104 30 -175 108 -175c80 0 106 76 106 175c0 103 -28 174 -106 174zM309 612c-92 0 -166 52 -166 176h105
c0 -49 26 -74 64 -74s65 25 65 74h99c0 -124 -74 -176 -167 -176z" />
    <glyph glyph-name="Ohungarumlaut" unicode="&#x150;" horiz-adv-x="822" 
d="M440 831l35 133h126l-69 -133h-92zM275 831l22 133h125l-56 -133h-91zM50 380c0 252 147 396 361 396c224 0 361 -141 361 -396c0 -252 -142 -396 -361 -396c-229 0 -361 142 -361 396zM411 104c116 0 184 94 184 276c0 183 -76 278 -184 278c-116 0 -183 -93 -183 -278
c0 -184 63 -276 183 -276z" />
    <glyph glyph-name="ohungarumlaut" unicode="&#x151;" horiz-adv-x="619" 
d="M339 614l52 174h127l-86 -174h-93zM175 614l39 174h128l-73 -174h-94zM309 -14c-169 0 -271 107 -271 282c0 176 104 281 272 281c164 0 271 -104 271 -281c0 -175 -111 -282 -272 -282zM310 442c-79 0 -108 -75 -108 -174c0 -104 30 -175 108 -175c80 0 106 76 106 175
c0 103 -28 174 -106 174z" />
    <glyph glyph-name="Racute" unicode="&#x154;" horiz-adv-x="714" 
d="M294 827l64 133h158l-103 -133h-119zM241 408h114c72 0 134 32 134 123c0 93 -71 120 -131 120h-117v-243zM503 0l-144 291h-118v-291h-164v765h299c49 0 105 -7 154 -28c72 -32 127 -91 127 -197c0 -121 -76 -182 -148 -210v-2l171 -328h-177z" />
    <glyph glyph-name="racute" unicode="&#x155;" horiz-adv-x="427" 
d="M168 614l51 174h158l-88 -174h-121zM68 0v536h150v-113h2c30 81 105 122 177 122h9v-144h-28c-97 0 -152 -33 -152 -136v-265h-158z" />
    <glyph glyph-name="Rcommaaccent" unicode="&#x156;" horiz-adv-x="714" 
d="M257 -220l24 156h154l-73 -156h-105zM241 408h114c72 0 134 32 134 123c0 93 -71 120 -131 120h-117v-243zM503 0l-144 291h-118v-291h-164v765h299c49 0 105 -7 154 -28c72 -32 127 -91 127 -197c0 -121 -76 -182 -148 -210v-2l171 -328h-177z" />
    <glyph glyph-name="rcommaaccent" unicode="&#x157;" horiz-adv-x="427" 
d="M44 -220l24 156h154l-73 -156h-105zM68 0v536h150v-113h2c30 81 105 122 177 122h9v-144h-28c-97 0 -152 -33 -152 -136v-265h-158z" />
    <glyph glyph-name="Rcaron" unicode="&#x158;" horiz-adv-x="714" 
d="M282 827l-108 133h115l66 -56h1l64 56h106l-108 -133h-136zM241 408h114c72 0 134 32 134 123c0 93 -71 120 -131 120h-117v-243zM503 0l-144 291h-118v-291h-164v765h299c49 0 105 -7 154 -28c72 -32 127 -91 127 -197c0 -121 -76 -182 -148 -210v-2l171 -328h-177z" />
    <glyph glyph-name="rcaron" unicode="&#x159;" horiz-adv-x="427" 
d="M168 614l-110 174h109l69 -77h1l66 77h101l-110 -174h-126zM68 0v536h150v-113h2c30 81 105 122 177 122h9v-144h-28c-97 0 -152 -33 -152 -136v-265h-158z" />
    <glyph glyph-name="Sacute" unicode="&#x15a;" horiz-adv-x="699" 
d="M635 557h-168c-4 51 -38 100 -114 100c-71 0 -115 -38 -115 -92c0 -51 28 -82 101 -95l116 -21c136 -25 202 -98 202 -211c0 -164 -112 -254 -307 -254c-191 0 -298 92 -306 235h171c8 -66 54 -115 139 -115c91 0 133 46 133 104c0 53 -29 81 -109 96l-114 22
c-118 23 -197 94 -197 216c0 135 104 234 287 234c194 0 276 -100 281 -219zM288 827l64 133h158l-103 -133h-119z" />
    <glyph glyph-name="sacute" unicode="&#x15b;" horiz-adv-x="536" 
d="M197 614l51 174h158l-88 -174h-121zM484 387h-140c-3 34 -28 61 -77 61s-75 -24 -75 -56c0 -30 16 -48 62 -54l91 -12c98 -13 155 -61 155 -158c0 -119 -97 -183 -233 -183c-160 0 -228 75 -235 171h146c2 -38 27 -69 90 -69c51 0 85 20 85 59c0 32 -14 48 -64 55l-86 12
c-100 14 -157 63 -157 160c0 93 70 176 222 176c140 0 209 -68 216 -162z" />
    <glyph glyph-name="Scircumflex" unicode="&#x15c;" horiz-adv-x="699" 
d="M422 960l108 -133h-115l-66 56h-1l-64 -56h-106l108 133h136zM635 557h-168c-4 51 -38 100 -114 100c-71 0 -115 -38 -115 -92c0 -51 28 -82 101 -95l116 -21c136 -25 202 -98 202 -211c0 -164 -112 -254 -307 -254c-191 0 -298 92 -306 235h171c8 -66 54 -115 139 -115
c91 0 133 46 133 104c0 53 -29 81 -109 96l-114 22c-118 23 -197 94 -197 216c0 135 104 234 287 234c194 0 276 -100 281 -219z" />
    <glyph glyph-name="scircumflex" unicode="&#x15d;" horiz-adv-x="536" 
d="M333 788l110 -174h-109l-69 77h-1l-66 -77h-101l110 174h126zM484 387h-140c-3 34 -28 61 -77 61s-75 -24 -75 -56c0 -30 16 -48 62 -54l91 -12c98 -13 155 -61 155 -158c0 -119 -97 -183 -233 -183c-160 0 -228 75 -235 171h146c2 -38 27 -69 90 -69c51 0 85 20 85 59
c0 32 -14 48 -64 55l-86 12c-100 14 -157 63 -157 160c0 93 70 176 222 176c140 0 209 -68 216 -162z" />
    <glyph glyph-name="Scedilla" unicode="&#x15e;" horiz-adv-x="699" 
d="M350 -232c-69 0 -104 37 -106 79h77c4 -12 13 -21 31 -21c23 0 32 13 32 32s-11 31 -32 31c-13 0 -21 -5 -27 -13h-65l49 109c-165 13 -258 102 -265 234h171c8 -66 54 -115 139 -115c91 0 133 46 133 104c0 53 -29 81 -109 96l-114 22c-118 23 -197 94 -197 216
c0 135 104 234 287 234c194 0 276 -100 281 -219h-168c-4 51 -38 100 -114 100c-71 0 -115 -38 -115 -92c0 -51 28 -82 101 -95l116 -21c136 -25 202 -98 202 -211c0 -161 -108 -251 -296 -254l-20 -43h2c10 7 21 10 40 10c48 0 84 -34 84 -89c0 -48 -36 -94 -117 -94z" />
    <glyph glyph-name="scedilla" unicode="&#x15f;" horiz-adv-x="536" 
d="M261 -232c-69 0 -104 37 -106 79h77c4 -12 13 -21 31 -21c23 0 32 13 32 32s-11 31 -32 31c-13 0 -21 -5 -27 -13h-65l50 111c-127 14 -183 83 -189 169h146c2 -38 27 -69 90 -69c51 0 85 20 85 59c0 32 -14 48 -64 55l-86 12c-100 14 -157 63 -157 160
c0 93 70 176 222 176c140 0 209 -68 216 -162h-140c-3 34 -28 61 -77 61s-75 -24 -75 -56c0 -30 16 -48 62 -54l91 -12c98 -13 155 -61 155 -158c0 -119 -97 -183 -228 -183l-20 -44h2c10 7 21 10 40 10c48 0 84 -34 84 -89c0 -48 -36 -94 -117 -94z" />
    <glyph glyph-name="Tcommaaccent" unicode="&#x162;" horiz-adv-x="662" 
d="M231 -220l24 156h154l-73 -156h-105zM639 765v-129h-226v-636h-164v636h-226v129h616z" />
    <glyph glyph-name="tcommaaccent" unicode="&#x163;" horiz-adv-x="401" 
d="M148 -220l24 156h154l-73 -156h-105zM119 687h136v-151h120v-110h-118v-237c0 -54 20 -78 74 -78c19 0 45 4 45 4v-116c-21 -2 -61 -6 -106 -6c-105 0 -170 45 -170 166v267h-79v109h18c68 0 80 14 80 111v41z" />
    <glyph glyph-name="Tcaron" unicode="&#x164;" horiz-adv-x="662" 
d="M262 827l-108 133h115l66 -56h1l64 56h106l-108 -133h-136zM639 765v-129h-226v-636h-164v636h-226v129h616z" />
    <glyph glyph-name="tcaron" unicode="&#x165;" horiz-adv-x="401" 
d="M339 601l6 187h125l-56 -187h-75zM119 687h136v-151h120v-110h-118v-237c0 -54 20 -78 74 -78c19 0 45 4 45 4v-116c-21 -2 -61 -6 -106 -6c-105 0 -170 45 -170 166v267h-79v109h18c68 0 80 14 80 111v41z" />
    <glyph glyph-name="Tbar" unicode="&#x166;" horiz-adv-x="662" 
d="M413 372v-372h-164v372h-177v100h177v164h-226v129h616v-129h-226v-164h178v-100h-178z" />
    <glyph glyph-name="tbar" unicode="&#x167;" horiz-adv-x="401" 
d="M376 -1c-21 -2 -61 -6 -106 -6c-105 0 -170 45 -170 166v71h-79v98h79v103h-79v104h18c68 0 80 14 80 111v41h136v-151h120v-105h-118v-103h118v-98h-118v-41c0 -54 20 -78 74 -78c19 0 45 4 45 4v-116z" />
    <glyph glyph-name="Utilde" unicode="&#x168;" horiz-adv-x="761" 
d="M69 267v498h164l-1 -446c0 -55 1 -118 30 -155c28 -35 68 -50 119 -50c55 0 96 15 123 50c28 37 26 100 26 155v446h162v-498c0 -193 -125 -283 -313 -283s-310 89 -310 283zM191 819c2 85 30 155 116 155c63 0 104 -52 143 -52c20 0 39 14 49 53h71
c-2 -85 -30 -155 -116 -155c-63 0 -103 52 -144 52c-17 0 -38 -13 -47 -53h-72z" />
    <glyph glyph-name="utilde" unicode="&#x169;" horiz-adv-x="637" 
d="M222 536v-313c0 -38 3 -68 16 -88c14 -21 37 -31 68 -31c70 0 105 48 105 139v293h159v-536h-153v87h-2c-28 -54 -80 -97 -168 -97c-129 0 -184 63 -184 189v357h159zM127 614c0 89 31 164 118 164c62 0 101 -51 140 -51c19 0 40 10 50 52h71c0 -91 -31 -165 -118 -165
c-62 0 -100 51 -140 51c-18 0 -40 -10 -49 -51h-72z" />
    <glyph glyph-name="Umacron" unicode="&#x16a;" horiz-adv-x="761" 
d="M69 267v498h164l-1 -446c0 -55 1 -118 30 -155c28 -35 68 -50 119 -50c55 0 96 15 123 50c28 37 26 100 26 155v446h162v-498c0 -193 -125 -283 -313 -283s-310 89 -310 283zM209 838v104h342v-104h-342z" />
    <glyph glyph-name="umacron" unicode="&#x16b;" horiz-adv-x="637" 
d="M222 536v-313c0 -38 3 -68 16 -88c14 -21 37 -31 68 -31c70 0 105 48 105 139v293h159v-536h-153v87h-2c-28 -54 -80 -97 -168 -97c-129 0 -184 63 -184 189v357h159zM145 636v104h342v-104h-342z" />
    <glyph glyph-name="Ubreve" unicode="&#x16c;" horiz-adv-x="761" 
d="M69 267v498h164l-1 -446c0 -55 1 -118 30 -155c28 -35 68 -50 119 -50c55 0 96 15 123 50c28 37 26 100 26 155v446h162v-498c0 -193 -125 -283 -313 -283s-310 89 -310 283zM380 815c-90 0 -163 45 -166 157h103c3 -40 30 -63 66 -63s63 23 67 63h97
c-3 -112 -76 -157 -167 -157z" />
    <glyph glyph-name="ubreve" unicode="&#x16d;" horiz-adv-x="637" 
d="M222 536v-313c0 -38 3 -68 16 -88c14 -21 37 -31 68 -31c70 0 105 48 105 139v293h159v-536h-153v87h-2c-28 -54 -80 -97 -168 -97c-129 0 -184 63 -184 189v357h159zM316 612c-92 0 -166 52 -166 176h105c0 -49 26 -74 64 -74s65 25 65 74h99c0 -124 -74 -176 -167 -176
z" />
    <glyph glyph-name="Uring" unicode="&#x16e;" horiz-adv-x="761" 
d="M69 267v498h164l-1 -446c0 -55 1 -118 30 -155c28 -35 68 -50 119 -50c55 0 96 15 123 50c28 37 26 100 26 155v446h162v-498c0 -193 -125 -283 -313 -283s-310 89 -310 283zM380 797c-82 0 -131 49 -131 122s54 124 132 124c84 0 131 -51 131 -124s-53 -122 -132 -122z
M380 980c-32 0 -53 -25 -53 -61s20 -61 54 -61c32 0 52 25 52 61s-19 61 -53 61z" />
    <glyph glyph-name="uring" unicode="&#x16f;" horiz-adv-x="637" 
d="M316 602c-82 0 -131 49 -131 123c0 72 54 123 132 123c84 0 131 -51 131 -123c0 -74 -53 -123 -132 -123zM316 785c-32 0 -53 -24 -53 -61c0 -36 20 -60 54 -60c32 0 52 24 52 60c0 37 -19 61 -53 61zM222 536v-313c0 -38 3 -68 16 -88c14 -21 37 -31 68 -31
c70 0 105 48 105 139v293h159v-536h-153v87h-2c-28 -54 -80 -97 -168 -97c-129 0 -184 63 -184 189v357h159z" />
    <glyph glyph-name="Uhungarumlaut" unicode="&#x170;" horiz-adv-x="761" 
d="M410 831l35 133h126l-69 -133h-92zM245 831l22 133h125l-56 -133h-91zM69 267v498h164l-1 -446c0 -55 1 -118 30 -155c28 -35 68 -50 119 -50c55 0 96 15 123 50c28 37 26 100 26 155v446h162v-498c0 -193 -125 -283 -313 -283s-310 89 -310 283z" />
    <glyph glyph-name="uhungarumlaut" unicode="&#x171;" horiz-adv-x="637" 
d="M222 536v-313c0 -38 3 -68 16 -88c14 -21 37 -31 68 -31c70 0 105 48 105 139v293h159v-536h-153v87h-2c-28 -54 -80 -97 -168 -97c-129 0 -184 63 -184 189v357h159zM346 614l52 174h127l-86 -174h-93zM182 614l39 174h128l-73 -174h-94z" />
    <glyph glyph-name="Uogonek" unicode="&#x172;" horiz-adv-x="761" 
d="M69 267v498h164l-1 -446c0 -55 1 -118 30 -155c27 -35 68 -50 119 -50c55 0 97 15 123 50c29 37 26 100 26 155v446h162v-498c0 -170 -99 -249 -208 -270c-70 -13 -85 -39 -85 -61c0 -23 15 -34 51 -35v-89h-29c-107 0 -143 38 -143 90c0 35 20 65 66 85
c-169 11 -275 98 -275 280z" />
    <glyph glyph-name="uogonek" unicode="&#x173;" horiz-adv-x="637" 
d="M417 0v87h-2c-28 -54 -80 -97 -168 -97c-129 0 -184 63 -184 189v357h159v-313c0 -38 3 -68 16 -88c14 -21 37 -31 68 -31c70 0 105 48 105 139v293h159v-528c-48 -27 -65 -50 -65 -72c0 -25 19 -34 55 -35v-89h-29c-107 0 -146 34 -146 90c0 40 28 77 80 98h-48z" />
    <glyph glyph-name="Wcircumflex" unicode="&#x174;" horiz-adv-x="1067" 
d="M616 960l108 -133h-115l-66 56h-1l-64 -56h-106l108 133h136zM388 0h-164l-203 765h170l106 -435c19 -77 23 -129 23 -129h2s5 52 26 128l119 436h150l120 -435c21 -77 30 -129 30 -129h1s5 52 23 128l105 436h150l-202 -765h-161l-123 452c-21 77 -24 121 -24 121h-2
s-4 -44 -24 -120z" />
    <glyph glyph-name="wcircumflex" unicode="&#x175;" horiz-adv-x="860" 
d="M502 788l110 -174h-109l-69 77h-1l-66 -77h-101l110 174h126zM173 0l-156 536h153l71 -270c14 -55 20 -113 20 -113h3s11 59 27 112l80 271h129l80 -271c16 -54 26 -112 26 -112h4s9 59 23 112l70 271h139l-155 -536h-153l-65 213c-20 65 -37 162 -37 162h-2
s-20 -98 -40 -162l-66 -213h-151z" />
    <glyph glyph-name="Ycircumflex" unicode="&#x176;" horiz-adv-x="697" 
d="M267 0v320l-256 445h181l161 -301h2l163 301h168l-255 -442v-323h-164zM427 960l108 -133h-115l-66 56h-1l-64 -56h-106l108 133h136z" />
    <glyph glyph-name="ycircumflex" unicode="&#x177;" horiz-adv-x="571" 
d="M217 -3l-200 539h164l88 -282c18 -58 24 -105 24 -105h3s6 47 23 105l83 282h155l-188 -553c-43 -125 -95 -182 -234 -182c-52 0 -76 6 -79 7v116c9 -2 31 -5 54 -5c60 0 88 17 103 65zM362 788l110 -174h-109l-69 77h-1l-66 -77h-101l110 174h126z" />
    <glyph glyph-name="Zacute" unicode="&#x179;" horiz-adv-x="658" 
d="M271 827l64 133h158l-103 -133h-119zM53 638v127h560v-113l-383 -524h389v-128h-583v113l384 525h-367z" />
    <glyph glyph-name="zacute" unicode="&#x17a;" horiz-adv-x="544" 
d="M209 614l51 174h158l-88 -174h-121zM54 421v115h448v-103l-268 -316h273v-117h-463v104l268 317h-258z" />
    <glyph glyph-name="Zdotaccent" unicode="&#x17b;" horiz-adv-x="658" 
d="M53 638v127h560v-113l-383 -524h389v-128h-583v113l384 525h-367zM265 833v137h137v-137h-137z" />
    <glyph glyph-name="zdotaccent" unicode="&#x17c;" horiz-adv-x="544" 
d="M54 421v115h448v-103l-268 -316h273v-117h-463v104l268 317h-258zM209 636v137h137v-137h-137z" />
    <glyph glyph-name="Aringacute" unicode="&#x1fa;" horiz-adv-x="761" 
d="M373 624c-1 -4 -10 -49 -30 -111l-71 -223h202l-70 222c-21 67 -29 112 -29 112h-2zM570 0l-56 170h-281l-56 -170h-157l267 765h184l271 -765h-172zM316 1069l64 133h158l-103 -133h-119zM379 797c-82 0 -131 49 -131 122s54 124 132 124c84 0 131 -51 131 -124
s-53 -122 -132 -122zM379 980c-32 0 -53 -25 -53 -61s20 -61 54 -61c32 0 52 25 52 61s-19 61 -53 61z" />
    <glyph glyph-name="aringacute" unicode="&#x1fb;" horiz-adv-x="584" 
d="M256 94c55 0 106 43 106 132v17c-84 -5 -126 -12 -151 -29c-18 -12 -26 -32 -26 -54c0 -39 27 -66 71 -66zM203 377h-152c6 107 91 171 231 171c173 0 233 -71 233 -214v-185c0 -29 9 -40 43 -40v-110h-53c-77 0 -114 15 -131 74h-2c-34 -50 -86 -79 -162 -79
c-112 0 -182 59 -182 159c0 62 28 106 81 134c57 30 138 35 252 40v29c0 59 -25 90 -79 90c-52 0 -77 -29 -79 -69zM297 584c-82 0 -131 49 -131 123c0 72 54 123 132 123c84 0 131 -51 131 -123c0 -74 -53 -123 -132 -123zM297 767c-32 0 -53 -24 -53 -61
c0 -36 20 -60 54 -60c32 0 52 24 52 60c0 37 -19 61 -53 61zM242 864l64 133h158l-103 -133h-119z" />
    <glyph glyph-name="AEacute" unicode="&#x1fc;" horiz-adv-x="1093" 
d="M551 827l64 133h158l-103 -133h-119zM525 303v337h-47l-156 -337h203zM267 183l-85 -183h-170l372 765h642v-125h-336v-197h318v-122h-318v-197h345v-124h-510v183h-258z" />
    <glyph glyph-name="aeacute" unicode="&#x1fd;" horiz-adv-x="915" 
d="M389 614l51 174h158l-88 -174h-121zM714 322v6c-6 77 -35 122 -100 122c-63 0 -96 -48 -103 -128h203zM256 94c56 0 107 45 107 132v13c-84 0 -127 -8 -152 -25c-18 -12 -26 -32 -26 -54c0 -40 28 -66 71 -66zM871 156c-17 -108 -106 -170 -251 -170
c-117 0 -179 45 -210 101h-2c-39 -55 -101 -93 -198 -93c-112 0 -182 59 -182 159c0 62 28 106 81 134c57 30 139 35 252 37v32c0 57 -25 90 -79 90c-53 0 -77 -30 -79 -69h-152c6 107 90 171 233 171c88 0 136 -27 163 -68h2c35 43 92 69 167 69c185 0 259 -120 259 -276
v-42h-364c7 -98 43 -138 110 -138c63 0 84 31 93 63h157z" />
    <glyph glyph-name="Oslashacute" unicode="&#x1fe;" horiz-adv-x="822" 
d="M411 660c-119 0 -187 -93 -187 -280c0 -51 4 -98 14 -137l295 368c-33 35 -76 49 -122 49zM411 101c118 0 188 95 188 279c0 63 -8 113 -21 152l-300 -374c29 -36 72 -57 133 -57zM772 380c0 -252 -142 -396 -361 -396c-89 0 -164 22 -221 63l-58 -72h-108l105 131
c-52 66 -79 158 -79 274c0 252 147 396 361 396c82 0 153 -19 210 -56l58 73h108l-103 -129c57 -67 88 -162 88 -284zM342 827l64 133h158l-103 -133h-119z" />
    <glyph glyph-name="oslashacute" unicode="&#x1ff;" horiz-adv-x="619" 
d="M310 445c-84 0 -113 -77 -113 -177c0 -28 2 -52 6 -74l180 223c-17 18 -41 28 -73 28zM310 91c85 0 112 77 112 177c0 27 -2 51 -5 73l-181 -222c17 -18 42 -28 74 -28zM581 268c0 -175 -111 -282 -272 -282c-59 0 -109 13 -150 37l-50 -61h-94l87 108
c-41 48 -64 115 -64 198c0 176 104 281 272 281c58 0 109 -13 150 -37l49 60h95l-87 -108c41 -47 64 -114 64 -196zM243 614l51 174h158l-88 -174h-121z" />
    <glyph glyph-name="Scommaaccent" unicode="&#x218;" horiz-adv-x="699" 
d="M251 -220l24 156h154l-73 -156h-105zM635 557h-168c-4 51 -38 100 -114 100c-71 0 -115 -38 -115 -92c0 -51 28 -82 101 -95l116 -21c136 -25 202 -98 202 -211c0 -164 -112 -254 -307 -254c-191 0 -298 92 -306 235h171c8 -66 54 -115 139 -115c91 0 133 46 133 104
c0 53 -29 81 -109 96l-114 22c-118 23 -197 94 -197 216c0 135 104 234 287 234c194 0 276 -100 281 -219z" />
    <glyph glyph-name="scommaaccent" unicode="&#x219;" horiz-adv-x="536" 
d="M166 -220l24 156h154l-73 -156h-105zM484 387h-140c-3 34 -28 61 -77 61s-75 -24 -75 -56c0 -30 16 -48 62 -54l91 -12c98 -13 155 -61 155 -158c0 -119 -97 -183 -233 -183c-160 0 -228 75 -235 171h146c2 -38 27 -69 90 -69c51 0 85 20 85 59c0 32 -14 48 -64 55
l-86 12c-100 14 -157 63 -157 160c0 93 70 176 222 176c140 0 209 -68 216 -162z" />
    <glyph glyph-name="uni021A" unicode="&#x21a;" horiz-adv-x="662" 
d="M231 -220l24 156h154l-73 -156h-105zM639 765v-129h-226v-636h-164v636h-226v129h616z" />
    <glyph glyph-name="uni021B" unicode="&#x21b;" horiz-adv-x="401" 
d="M148 -220l24 156h154l-73 -156h-105zM119 687h136v-151h120v-110h-118v-237c0 -54 20 -78 74 -78c19 0 45 4 45 4v-116c-21 -2 -61 -6 -106 -6c-105 0 -170 45 -170 166v267h-79v109h18c68 0 80 14 80 111v41z" />
    <glyph glyph-name="uni0237" unicode="&#x237;" horiz-adv-x="299" 
d="M-35 -197v111c4 -2 18 -5 39 -5c47 0 68 22 68 76v551h159v-552c0 -146 -82 -190 -191 -190c-44 0 -70 8 -75 9z" />
    <glyph glyph-name="Wgrave" unicode="&#x1e80;" horiz-adv-x="1067" 
d="M539 960l64 -133h-120l-103 133h159zM388 0h-164l-203 765h170l106 -435c19 -77 23 -129 23 -129h2s5 52 26 128l119 436h150l120 -435c21 -77 30 -129 30 -129h1s5 52 23 128l105 436h150l-202 -765h-161l-123 452c-21 77 -24 121 -24 121h-2s-4 -44 -24 -120z" />
    <glyph glyph-name="wgrave" unicode="&#x1e81;" horiz-adv-x="860" 
d="M173 0l-156 536h153l71 -270c14 -55 20 -113 20 -113h3s11 59 27 112l80 271h129l80 -271c16 -54 26 -112 26 -112h4s9 59 23 112l70 271h139l-155 -536h-153l-65 213c-20 65 -37 162 -37 162h-2s-20 -98 -40 -162l-66 -213h-151zM450 788l51 -174h-121l-88 174h158z" />
    <glyph glyph-name="Wacute" unicode="&#x1e82;" horiz-adv-x="1067" 
d="M481 827l64 133h158l-103 -133h-119zM388 0h-164l-203 765h170l106 -435c19 -77 23 -129 23 -129h2s5 52 26 128l119 436h150l120 -435c21 -77 30 -129 30 -129h1s5 52 23 128l105 436h150l-202 -765h-161l-123 452c-21 77 -24 121 -24 121h-2s-4 -44 -24 -120z" />
    <glyph glyph-name="wacute" unicode="&#x1e83;" horiz-adv-x="860" 
d="M365 614l51 174h158l-88 -174h-121zM173 0l-156 536h153l71 -270c14 -55 20 -113 20 -113h3s11 59 27 112l80 271h129l80 -271c16 -54 26 -112 26 -112h4s9 59 23 112l70 271h139l-155 -536h-153l-65 213c-20 65 -37 162 -37 162h-2s-20 -98 -40 -162l-66 -213h-151z" />
    <glyph glyph-name="Wdieresis" unicode="&#x1e84;" horiz-adv-x="1067" 
d="M584 828v137h136v-137h-136zM369 828v137h136v-137h-136zM388 0h-164l-203 765h170l106 -435c19 -77 23 -129 23 -129h2s5 52 26 128l119 436h150l120 -435c21 -77 30 -129 30 -129h1s5 52 23 128l105 436h150l-202 -765h-161l-123 452c-21 77 -24 121 -24 121h-2
s-4 -44 -24 -120z" />
    <glyph glyph-name="wdieresis" unicode="&#x1e85;" horiz-adv-x="860" 
d="M471 636v137h137v-137h-137zM263 636v137h136v-137h-136zM173 0l-156 536h153l71 -270c14 -55 20 -113 20 -113h3s11 59 27 112l80 271h129l80 -271c16 -54 26 -112 26 -112h4s9 59 23 112l70 271h139l-155 -536h-153l-65 213c-20 65 -37 162 -37 162h-2
s-20 -98 -40 -162l-66 -213h-151z" />
    <glyph glyph-name="Ygrave" unicode="&#x1ef2;" horiz-adv-x="697" 
d="M267 0v320l-256 445h181l161 -301h2l163 301h168l-255 -442v-323h-164zM349 960l64 -133h-120l-103 133h159z" />
    <glyph glyph-name="ygrave" unicode="&#x1ef3;" horiz-adv-x="571" 
d="M217 -3l-200 539h164l88 -282c18 -58 24 -105 24 -105h3s6 47 23 105l83 282h155l-188 -553c-43 -125 -95 -182 -234 -182c-52 0 -76 6 -79 7v116c9 -2 31 -5 54 -5c60 0 88 17 103 65zM310 788l51 -174h-121l-88 174h158z" />
    <glyph glyph-name="uni2009" unicode="&#x2009;" horiz-adv-x="48" 
 />
    <glyph glyph-name="uni2032" unicode="&#x2032;" horiz-adv-x="289" 
d="M57 504l21 261h162l-81 -261h-102z" />
    <glyph glyph-name="uni2033" unicode="&#x2033;" horiz-adv-x="495" 
d="M268 504l21 261h158l-78 -261h-101zM61 504l21 261h158l-78 -261h-101z" />
    <glyph glyph-name="Euro" unicode="&#x20ac;" horiz-adv-x="716" 
d="M671 215c-5 -131 -98 -230 -274 -230c-167 0 -262 89 -290 265h-78v77h71c-1 13 -1 26 -1 40s0 28 1 41h-73v77h81c31 177 135 266 298 266c167 0 260 -99 268 -234h-164c-6 62 -37 122 -111 122c-71 0 -114 -45 -130 -154h179v-77h-185c-1 -12 -1 -25 -1 -39
c0 -15 0 -29 1 -42h187v-77h-181c16 -110 59 -151 130 -151c76 0 107 51 114 116h158z" />
    <glyph glyph-name="onethird" unicode="&#x2153;" horiz-adv-x="917" 
d="M698 183h-50v71h41c33 0 61 19 61 52s-25 51 -57 51c-41 0 -58 -25 -59 -54h-113c2 63 46 136 179 136c108 0 166 -52 166 -117c0 -47 -28 -83 -85 -97v-2c63 -11 96 -47 96 -103c0 -67 -61 -129 -180 -129c-135 0 -178 69 -180 136h116c3 -35 30 -53 63 -53
c41 0 66 25 66 56c0 33 -24 53 -64 53zM118 334v280h-94v76h14c26 0 49 5 66 17c15 11 24 31 24 58h105v-431h-115zM66 -40l547 821h111l-547 -821h-111z" />
    <glyph glyph-name="twothirds" unicode="&#x2154;" horiz-adv-x="1017" 
d="M797 183h-50v71h41c33 0 61 19 61 52s-25 51 -57 51c-41 0 -58 -25 -59 -54h-113c2 63 46 136 179 136c108 0 166 -52 166 -117c0 -47 -28 -83 -85 -97v-2c63 -11 96 -47 96 -103c0 -67 -61 -129 -180 -129c-135 0 -178 69 -180 136h116c3 -35 30 -53 63 -53
c41 0 66 25 66 56c0 33 -24 53 -64 53zM147 614h-113c2 96 63 157 180 157c120 0 171 -56 171 -126c0 -65 -36 -103 -105 -158l-79 -65v-2h187v-86h-358v61l174 151c46 39 63 61 63 92c0 32 -21 52 -54 52c-36 0 -66 -19 -66 -76zM186 -40l547 821h111l-547 -821h-111z" />
    <glyph glyph-name="oneeighth" unicode="&#x215b;" horiz-adv-x="915" 
d="M526 319c0 70 55 118 168 118s168 -48 168 -119c0 -50 -27 -79 -66 -93v-2c50 -13 83 -43 83 -102c0 -75 -65 -130 -185 -130c-128 0 -184 52 -184 130c0 55 33 88 82 102v2c-39 13 -66 43 -66 94zM694 366c-34 0 -59 -17 -59 -56c0 -36 25 -56 59 -56s59 20 59 56
c0 39 -25 56 -59 56zM694 63c40 0 70 21 70 62c0 42 -29 63 -70 63s-71 -21 -71 -63c0 -41 32 -62 71 -62zM118 334v280h-94v76h14c26 0 49 5 66 17c15 11 24 31 24 58h105v-431h-115zM65 -40l547 821h111l-547 -821h-111z" />
    <glyph glyph-name="threeeighths" unicode="&#x215c;" horiz-adv-x="992" 
d="M603 320c0 70 55 118 168 118s168 -48 168 -119c0 -50 -27 -79 -66 -93v-2c50 -13 83 -43 83 -102c0 -75 -65 -130 -185 -130c-128 0 -184 52 -184 130c0 55 33 88 82 102v2c-39 13 -66 43 -66 94zM771 367c-34 0 -59 -17 -59 -56c0 -36 25 -56 59 -56s59 20 59 56
c0 39 -25 56 -59 56zM771 64c40 0 70 21 70 62c0 42 -29 63 -70 63s-71 -21 -71 -63c0 -41 32 -62 71 -62zM161 -40l547 821h111l-547 -821h-111zM218 517h-50v71h41c33 0 61 19 61 52s-25 51 -57 51c-41 0 -58 -25 -59 -54h-113c2 63 46 136 179 136
c108 0 166 -52 166 -117c0 -47 -28 -83 -85 -97v-2c63 -11 96 -47 96 -103c0 -67 -61 -129 -180 -129c-135 0 -178 69 -180 136h116c3 -35 30 -53 63 -53c41 0 66 25 66 56c0 33 -24 53 -64 53z" />
    <glyph glyph-name="fiveeighths" unicode="&#x215d;" horiz-adv-x="988" 
d="M599 319c0 70 55 118 168 118s168 -48 168 -119c0 -50 -27 -79 -66 -93v-2c50 -13 83 -43 83 -102c0 -75 -65 -130 -185 -130c-128 0 -184 52 -184 130c0 55 33 88 82 102v2c-39 13 -66 43 -66 94zM767 366c-34 0 -59 -17 -59 -56c0 -36 25 -56 59 -56s59 20 59 56
c0 39 -25 56 -59 56zM767 63c40 0 70 21 70 62c0 42 -29 63 -70 63s-71 -21 -71 -63c0 -41 32 -62 71 -62zM280 474c0 39 -27 66 -66 66c-28 0 -49 -11 -63 -29h-100l20 254h293v-88h-205l-9 -104h1c17 23 50 44 101 44c84 0 141 -47 141 -136c0 -86 -57 -156 -182 -156
c-133 0 -171 67 -176 134h115c3 -34 29 -51 63 -51c38 0 67 24 67 66zM154 -40l547 821h111l-547 -821h-111z" />
    <glyph glyph-name="seveneighths" unicode="&#x215e;" horiz-adv-x="920" 
d="M531 319c0 70 55 118 168 118s168 -48 168 -119c0 -50 -27 -79 -66 -93v-2c50 -13 83 -43 83 -102c0 -75 -65 -130 -185 -130c-128 0 -184 52 -184 130c0 55 33 88 82 102v2c-39 13 -66 43 -66 94zM699 366c-34 0 -59 -17 -59 -56c0 -36 25 -56 59 -56s59 20 59 56
c0 39 -25 56 -59 56zM699 63c40 0 70 21 70 62c0 42 -29 63 -70 63s-71 -21 -71 -63c0 -41 32 -62 71 -62zM61 334l169 343h-202v88h337v-62l-183 -369h-121zM63 -40l547 821h111l-547 -821h-111z" />
    <glyph glyph-name="uni24C5" unicode="&#x24c5;" horiz-adv-x="899" 
d="M55 380c0 224 168 397 394 397s395 -173 395 -397s-169 -396 -395 -396s-394 172 -394 396zM449 41c189 0 330 147 330 339s-141 340 -330 340s-329 -148 -329 -340s140 -339 329 -339zM405 172h-105v422h172c100 0 166 -49 166 -143c0 -100 -68 -147 -169 -147h-64v-132
zM405 381h54c47 0 78 21 78 69s-31 67 -77 67h-55v-136z" />
    <glyph glyph-name="f_f" unicode="&#xfb00;" horiz-adv-x="735" 
d="M251 426v-426h-155v426h-77v110h77v64c0 143 77 186 193 186c41 0 73 -5 78 -6v-111c-3 1 -20 4 -44 4c-47 0 -72 -20 -72 -80v-57h209v72c0 142 77 186 193 186c41 0 73 -5 78 -6v-111c-3 1 -20 3 -44 3c-47 0 -72 -19 -72 -80v-64h105v-110h-105v-426h-155v426h-209z
" />
    <glyph glyph-name="quotedblright.sc" horiz-adv-x="495" 
d="M249 383l60 261h158l-117 -261h-101zM41 383l60 261h158l-117 -261h-101z" />
    <glyph glyph-name="Ibreve.sc" horiz-adv-x="319" 
d="M80 0v644h159v-644h-159zM160 711c-92 0 -166 52 -166 176h105c0 -49 26 -74 64 -74s65 25 65 74h99c0 -124 -74 -176 -167 -176z" />
    <glyph glyph-name="exclamdown.uc" horiz-adv-x="330" 
d="M164 590c-53 0 -94 41 -94 93c0 51 41 92 94 92c54 0 95 -41 95 -92c0 -52 -41 -93 -95 -93zM225 522l32 -545h-184l33 545h119z" />
    <glyph glyph-name="hyphen.uc" horiz-adv-x="425" 
d="M57 300v121h312v-121h-312z" />
    <glyph glyph-name="endash.uc" horiz-adv-x="524" 
d="M57 301v113h410v-113h-410z" />
    <glyph glyph-name="emdash.uc" horiz-adv-x="894" 
d="M57 303v109h780v-109h-780z" />
    <glyph glyph-name="guilsinglleft.uc" horiz-adv-x="313" 
d="M145 524h116l-97 -206l99 -201h-117l-108 204z" />
    <glyph glyph-name="guilsinglright.uc" horiz-adv-x="312" 
d="M168 117h-117l98 206l-99 201h117l107 -203z" />
    <glyph glyph-name="guillemotleft.uc" horiz-adv-x="531" 
d="M364 524h116l-97 -206l98 -201h-116l-108 204zM145 524h116l-97 -206l99 -201h-117l-108 204z" />
    <glyph glyph-name="guillemotright.uc" horiz-adv-x="544" 
d="M175 117h-118l99 206l-100 201h118l106 -203zM399 117h-116l97 206l-98 201h116l108 -203z" />
    <glyph glyph-name="parenleft.uc" horiz-adv-x="366" 
d="M343 -100h-114c-72 100 -161 251 -161 459c0 210 89 359 161 459h114c-69 -122 -132 -268 -132 -459c0 -190 63 -336 132 -459z" />
    <glyph glyph-name="parenright.uc" horiz-adv-x="357" 
d="M23 -100c69 123 132 269 132 459c0 191 -63 337 -132 459h113c73 -100 161 -249 161 -459c0 -208 -88 -359 -161 -459h-113z" />
    <glyph glyph-name="space_uni0326" horiz-adv-x="369" 
d="M109 -207l24 156h154l-73 -156h-105z" />
    <glyph glyph-name="grave.uc" horiz-adv-x="368" 
d="M202 960l64 -133h-120l-103 133h159z" />
    <glyph glyph-name="bracketleft.uc" horiz-adv-x="386" 
d="M97 -100v918h264v-96h-133v-726h133v-96h-264z" />
    <glyph glyph-name="bracketright.uc" horiz-adv-x="386" 
d="M289 818v-918h-264v96h133v726h-133v96h264z" />
    <glyph glyph-name="braceleft.uc" horiz-adv-x="413" 
d="M72 303h-30v109h30c45 0 60 19 60 68v153c0 147 80 189 256 189v-92c-107 0 -130 -29 -130 -112v-128c0 -60 -15 -116 -80 -129v-4c65 -14 80 -69 80 -132v-125c0 -83 23 -112 130 -112v-92c-176 0 -256 42 -256 181v158c0 49 -15 68 -60 68z" />
    <glyph glyph-name="braceright.uc" horiz-adv-x="413" 
d="M372 415v-109h-30c-46 0 -60 -19 -60 -68v-153c0 -147 -81 -189 -257 -189v92c107 0 131 29 131 112v129c0 59 15 115 80 128v4c-65 14 -80 69 -80 132v125c0 83 -24 112 -131 112v92c176 0 257 -42 257 -181v-158c0 -49 14 -68 60 -68h30z" />
    <glyph glyph-name="slash.uc" horiz-adv-x="559" 
d="M-5 -91l432 902h120l-432 -902h-120z" />
    <glyph glyph-name="backslash.uc" horiz-adv-x="559" 
d="M443 -91l-431 902h120l431 -902h-120z" />
    <glyph glyph-name="bar.uc" horiz-adv-x="289" 
d="M89 -91v902h108v-902h-108z" />
    <glyph glyph-name="acute.uc" horiz-adv-x="368" 
d="M93 827l64 133h158l-103 -133h-119z" />
    <glyph glyph-name="at.uc" horiz-adv-x="1022" 
d="M720 126c-76 0 -131 33 -139 97h-3c-31 -55 -78 -95 -155 -95c-98 0 -156 66 -156 178c0 137 85 277 225 277c65 0 105 -34 119 -74h2l11 58h128l-59 -277c-12 -58 8 -90 55 -90c64 0 131 62 131 214c0 190 -148 333 -355 333c-218 0 -392 -178 -392 -411
c0 -235 155 -384 366 -384c108 0 199 37 257 84l44 -45c-67 -56 -167 -104 -308 -104c-253 0 -437 181 -437 449c0 274 207 476 472 476c248 0 433 -159 433 -392c0 -208 -117 -294 -239 -294zM468 218c48 0 93 46 107 116l9 44c12 61 -10 116 -65 116
c-81 0 -118 -107 -118 -188c0 -54 22 -88 67 -88z" />
    <glyph glyph-name="f.short" horiz-adv-x="371" 
d="M251 426v-426h-155v426h-77v110h77v72c0 142 77 186 193 186c41 0 73 -5 78 -6v-111c-3 1 -20 3 -44 3c-47 0 -72 -19 -72 -80v-64h105v-110h-105z" />
    <glyph glyph-name="f_f.short" horiz-adv-x="735" 
d="M251 426v-426h-155v426h-77v110h77v64c0 143 77 186 193 186c41 0 73 -5 78 -6v-111c-3 1 -20 4 -44 4c-47 0 -72 -20 -72 -80v-57h209v72c0 142 77 186 193 186c41 0 73 -5 78 -6v-111c-3 1 -20 3 -44 3c-47 0 -72 -19 -72 -80v-64h105v-110h-105v-426h-155v426h-209z
" />
    <glyph glyph-name="macron.uc" horiz-adv-x="369" 
d="M13 838v104h342v-104h-342z" />
    <glyph glyph-name="circumflex.uc" horiz-adv-x="369" 
d="M253 960l108 -133h-115l-66 56h-1l-64 -56h-106l108 133h136z" />
    <glyph glyph-name="caron.uc" horiz-adv-x="369" 
d="M117 827l-108 133h115l66 -56h1l64 56h106l-108 -133h-136z" />
    <glyph glyph-name="breve.uc" horiz-adv-x="369" 
d="M184 815c-90 0 -163 45 -166 157h103c3 -40 30 -63 66 -63s63 23 67 63h97c-3 -112 -76 -157 -167 -157z" />
    <glyph glyph-name="caron.alt" horiz-adv-x="369" 
d="M132 601l6 187h125l-56 -187h-75z" />
    <glyph glyph-name="dotaccent.uc" horiz-adv-x="369" 
d="M116 833v137h137v-137h-137z" />
    <glyph glyph-name="ring.uc" horiz-adv-x="369" 
d="M188 797c-82 0 -131 49 -131 122s54 124 132 124c84 0 131 -51 131 -124s-53 -122 -132 -122zM188 980c-32 0 -53 -25 -53 -61s20 -61 54 -61c32 0 52 25 52 61s-19 61 -53 61z" />
    <glyph glyph-name="sterling.tab" 
d="M565 126v-126h-518v92l40 29c63 46 83 91 57 181h-104v97h70l-9 27c-74 210 53 326 226 326c168 0 235 -87 238 -223h-150c-2 62 -23 115 -88 115c-81 0 -110 -72 -77 -190l15 -55h177v-97h-152c10 -73 -12 -123 -64 -165l-11 -9v-2h350z" />
    <glyph glyph-name="tilde.uc" horiz-adv-x="369" 
d="M-5 819c2 85 30 155 116 155c63 0 104 -52 143 -52c20 0 39 14 49 53h71c-2 -85 -30 -155 -116 -155c-63 0 -103 52 -144 52c-17 0 -38 -13 -47 -53h-72z" />
    <glyph glyph-name="cent.tab" 
d="M413 199h140c-5 -129 -88 -200 -211 -210v-105h-69v104c-150 14 -229 117 -229 280c0 161 83 265 229 279v88h69v-87c124 -10 204 -80 208 -204h-141c-4 47 -24 88 -67 101v-352c50 15 69 61 71 106zM273 94v350c-62 -20 -82 -96 -82 -174c0 -73 14 -155 82 -176z" />
    <glyph glyph-name="plus.tab" 
d="M362 300v-196h-125v196h-190v116h190v194h125v-194h191v-116h-191z" />
    <glyph glyph-name="minus.tab" 
d="M60 300v116h480v-116h-480z" />
    <glyph glyph-name="multiply.tab" 
d="M133 95l-86 86l169 166l-168 166l86 87l166 -168l166 168l86 -85l-168 -167l168 -166l-86 -87l-167 169z" />
    <glyph glyph-name="divide.tab" 
d="M223 492v143h153v-143h-153zM60 300v116h480v-116h-480zM376 78h-153v144h153v-144z" />
    <glyph glyph-name="equal.tab" 
d="M60 400v115h480v-115h-480zM540 195h-480v115h480v-115z" />
    <glyph glyph-name="less.tab" 
d="M547 45l-497 252v72l497 253v-130l-316 -156l316 -157v-134z" />
    <glyph glyph-name="greater.tab" 
d="M53 618l497 -252v-71l-497 -253v130l316 156l-316 157v133z" />
    <glyph glyph-name="florin.tab" 
d="M362 348l-71 -537h-153l68 537h-101v111h115l14 110c22 176 108 223 219 223c38 0 68 -5 73 -6v-116c-3 1 -15 4 -40 4c-46 0 -83 -14 -95 -105l-15 -110h119v-111h-133z" />
    <glyph glyph-name="plusminus.tab" 
d="M362 369v-170h-125v170h-190v116h190v168h125v-168h191v-116h-191zM47 0v115h506v-115h-506z" />
    <glyph glyph-name="notequal.tab" 
d="M275 195l-48 -105h-94l48 105h-121v115h174l41 90h-215v115h268l51 111h94l-51 -111h118v-115h-171l-41 -90h212v-115h-265z" />
    <glyph glyph-name="approxequal.tab" 
d="M66 380c0 89 44 165 136 165c65 0 148 -46 194 -46c24 0 42 11 46 50h92c0 -91 -39 -165 -128 -165c-68 0 -150 46 -196 46c-26 0 -41 -16 -45 -50h-99zM66 181c0 90 44 165 136 165c65 0 148 -46 194 -46c24 0 42 11 46 50h92c0 -90 -39 -165 -128 -165
c-68 0 -150 46 -196 46c-26 0 -41 -16 -45 -50h-99z" />
    <glyph glyph-name="lessequal.tab" 
d="M547 167l-497 223v83l497 223v-126l-317 -135l317 -138v-130zM547 0h-497v115h497v-115z" />
    <glyph glyph-name="greaterequal.tab" 
d="M53 696l497 -223v-83l-497 -223v126l317 136l-317 137v130zM550 0h-497v115h497v-115z" />
    <glyph glyph-name="period.tab" horiz-adv-x="300" 
d="M149 -16c-53 0 -94 41 -94 93c0 51 41 92 94 92c54 0 95 -41 95 -92c0 -52 -41 -93 -95 -93z" />
    <glyph glyph-name="comma.tab" horiz-adv-x="300" 
d="M38 -117l52 276h164l-110 -276h-106z" />
    <glyph glyph-name="colon.tab" horiz-adv-x="300" 
d="M149 352c-53 0 -94 41 -94 93c0 51 41 92 94 92c54 0 95 -41 95 -92c0 -52 -41 -93 -95 -93zM149 -16c-53 0 -94 41 -94 93c0 51 41 92 94 92c54 0 95 -41 95 -92c0 -52 -41 -93 -95 -93z" />
    <glyph glyph-name="semicolon.tab" horiz-adv-x="300" 
d="M80 368v159h167v-159h-167zM135 -117h-106l52 276h164z" />
    <glyph glyph-name="hungarumlaut.uc" horiz-adv-x="413" 
d="M217 831l35 133h126l-69 -133h-92zM52 831l22 133h125l-56 -133h-91z" />
    <glyph glyph-name="currency.tab" 
d="M210 348c0 -55 35 -95 88 -95c54 0 89 40 89 95s-35 95 -89 95c-53 0 -88 -40 -88 -95zM113 348c0 30 7 58 18 83l-97 96l86 86l96 -98c24 12 52 19 82 19c31 0 60 -8 84 -20l98 100l86 -86l-101 -98c12 -24 19 -52 19 -82c0 -31 -7 -59 -19 -82l100 -98l-86 -86l-98 99
c-24 -12 -53 -18 -83 -18s-58 6 -82 17l-97 -99l-85 86l98 96c-12 25 -19 54 -19 85z" />
    <glyph glyph-name="percent.tab" horiz-adv-x="900" 
d="M128 -40l534 821h113l-534 -821h-113zM222 381c-92 0 -167 61 -167 181c0 121 79 180 167 180c90 0 168 -59 168 -180c0 -120 -78 -181 -168 -181zM221 466c40 0 64 32 64 96s-24 97 -64 97c-41 0 -62 -31 -62 -97c0 -64 21 -96 62 -96zM677 -7c-92 0 -167 61 -167 181
c0 121 78 180 167 180c90 0 168 -59 168 -180c0 -120 -78 -181 -168 -181zM676 78c40 0 63 32 63 96s-23 97 -63 97c-41 0 -63 -31 -63 -97c0 -64 22 -96 63 -96z" />
    <glyph glyph-name="perthousand.tab" horiz-adv-x="1200" 
d="M92 -40l534 821h114l-534 -821h-114zM55 562c0 121 74 180 157 180c85 0 158 -59 158 -180c0 -120 -73 -181 -158 -181c-87 0 -157 61 -157 181zM211 466c36 0 59 32 59 96s-23 97 -59 97s-57 -31 -57 -97c0 -64 21 -96 57 -96zM987 -7c-86 0 -156 61 -156 181
c0 121 73 180 156 180c85 0 158 -59 158 -180c0 -120 -73 -181 -158 -181zM617 -7c-87 0 -157 61 -157 181c0 121 72 180 157 180c84 0 157 -59 157 -180c0 -120 -73 -181 -157 -181zM986 78c35 0 59 32 59 96s-24 97 -59 97s-58 -31 -58 -97c0 -64 23 -96 58 -96zM616 78
c35 0 58 32 58 96s-23 97 -58 97c-36 0 -58 -31 -58 -97c0 -64 22 -96 58 -96z" />
    <glyph glyph-name="idotaccent" horiz-adv-x="295" 
d="M67 629v144h161v-144h-161zM68 0v536h159v-536h-159z" />
    <glyph glyph-name="A.sc" horiz-adv-x="688" 
d="M337 514c-1 -3 -8 -40 -31 -111l-54 -165h168l-54 165c-24 73 -27 111 -27 111h-2zM501 0l-45 132h-240l-46 -132h-151l236 644h177l237 -644h-168z" />
    <glyph glyph-name="AE.sc" horiz-adv-x="966" 
d="M459 254v277h-38l-131 -277h169zM241 151l-72 -151h-157l325 644h559v-113h-281v-154h267v-110h-267v-155h290v-112h-446v151h-218z" />
    <glyph glyph-name="B.sc" horiz-adv-x="666" 
d="M367 0h-287v644h285c149 0 227 -52 227 -161c0 -79 -57 -122 -113 -137v-3c79 -13 143 -67 143 -154c0 -125 -101 -189 -255 -189zM239 381h100c61 0 100 24 100 81c0 52 -38 79 -98 79h-102v-160zM239 106h118c66 0 107 23 107 90c0 57 -41 84 -109 84h-116v-174z" />
    <glyph glyph-name="C.sc" horiz-adv-x="694" 
d="M366 544c-83 0 -140 -72 -140 -224s51 -223 137 -223c70 0 110 45 117 125h161c-6 -149 -111 -236 -277 -236c-210 0 -307 126 -307 326c0 211 117 341 310 341c174 0 270 -81 275 -233h-163c-6 82 -44 124 -113 124z" />
    <glyph glyph-name="D.sc" horiz-adv-x="708" 
d="M80 0v644h238c197 0 335 -95 335 -314c0 -220 -137 -330 -334 -330h-239zM239 111h75c102 0 171 54 171 216c0 154 -70 207 -167 207h-79v-423z" />
    <glyph glyph-name="Dcroat.sc" horiz-adv-x="727" 
d="M340 0h-240v273h-61v99h61v272h238c198 0 335 -95 335 -314c0 -220 -137 -330 -333 -330zM260 111h74c102 0 171 54 171 216c0 154 -69 207 -167 207h-78v-162h130v-99h-130v-162z" />
    <glyph glyph-name="E.sc" horiz-adv-x="594" 
d="M80 0v644h445v-113h-286v-154h271v-110h-271v-155h295v-112h-454z" />
    <glyph glyph-name="Eng.sc" horiz-adv-x="718" 
d="M388 -166h-57v113h42c67 0 101 13 115 50l-204 327c-38 61 -59 112 -59 112h-3v-436h-142v644h170l187 -316c37 -63 55 -108 55 -108h3v424h143v-596c0 -168 -94 -214 -250 -214z" />
    <glyph glyph-name="Eth.sc" horiz-adv-x="727" 
d="M340 0h-240v273h-61v99h61v272h238c198 0 335 -95 335 -314c0 -220 -137 -330 -333 -330zM260 111h74c102 0 171 54 171 216c0 154 -69 207 -167 207h-78v-162h130v-99h-130v-162z" />
    <glyph glyph-name="F.sc" horiz-adv-x="566" 
d="M239 239v-239h-159v644h436v-116h-277v-176h260v-113h-260z" />
    <glyph glyph-name="G.sc" horiz-adv-x="727" 
d="M373 546c-95 0 -151 -75 -151 -227c0 -164 60 -224 149 -224c82 0 140 49 140 134v10h-142v106h286v-345h-117v86h-3c-32 -58 -93 -99 -188 -99c-198 0 -291 131 -291 323c0 209 124 343 319 343c167 0 263 -80 273 -209h-161c-8 64 -48 102 -114 102z" />
    <glyph glyph-name="H.sc" horiz-adv-x="725" 
d="M239 263v-263h-159v644h159v-265h246v265h160v-644h-160v263h-246z" />
    <glyph glyph-name="I.sc" horiz-adv-x="319" 
d="M80 0v644h159v-644h-159z" />
    <glyph glyph-name="IJ.sc" horiz-adv-x="711" 
d="M389 -2h-48v119h24c103 0 117 40 117 114v413h157v-431c0 -166 -95 -215 -250 -215zM80 0v644h159v-644h-159z" />
    <glyph glyph-name="J.sc" horiz-adv-x="420" 
d="M99 -2h-63v119h36c104 0 119 40 119 114v413h157v-431c0 -166 -94 -215 -249 -215z" />
    <glyph glyph-name="K.sc" horiz-adv-x="678" 
d="M239 189v-189h-159v644h159v-284l237 284h167l-232 -274l239 -370h-180l-167 263z" />
    <glyph glyph-name="L.sc" horiz-adv-x="571" 
d="M80 0v644h159v-525h274v-119h-433z" />
    <glyph glyph-name="M.sc" horiz-adv-x="880" 
d="M80 0v644h225l107 -332c17 -53 26 -99 26 -99h3s9 46 26 99l105 332h228v-644h-153v504h-2s-15 -64 -41 -145l-114 -359h-112l-115 360c-26 80 -39 144 -39 144h-3v-504h-141z" />
    <glyph glyph-name="N.sc" horiz-adv-x="718" 
d="M80 0v644h170l186 -317c37 -63 56 -109 56 -109h3v426h143v-644h-161l-193 324c-37 62 -59 113 -59 113h-3v-437h-142z" />
    <glyph glyph-name="O.sc" horiz-adv-x="742" 
d="M57 320c0 209 123 333 314 333c200 0 314 -121 314 -333c0 -210 -120 -333 -314 -333c-206 0 -314 121 -314 333zM371 96c94 0 146 76 146 224c0 149 -61 226 -146 226c-94 0 -145 -75 -145 -226c0 -150 46 -224 145 -224z" />
    <glyph glyph-name="OE.sc" horiz-adv-x="1022" 
d="M518 265v105c0 106 -52 176 -140 176c-81 0 -150 -64 -150 -225c0 -148 56 -225 148 -225c94 0 142 66 142 169zM514 65c-29 -44 -85 -77 -170 -77c-173 0 -287 113 -287 332s129 333 294 333c69 0 134 -28 164 -81h2v72h435v-113h-281v-154h267v-110h-267v-155h290v-112
h-444v65h-3z" />
    <glyph glyph-name="Oslash.sc" horiz-adv-x="742" 
d="M371 549c-98 0 -152 -76 -152 -229c0 -44 4 -80 11 -111l244 296c-26 30 -61 44 -103 44zM371 93c97 0 153 76 153 227c0 45 -5 83 -14 114l-246 -299c25 -28 60 -42 107 -42zM685 320c0 -210 -120 -333 -314 -333c-74 0 -138 17 -187 51l-49 -59h-95l89 108
c-47 56 -72 135 -72 233c0 209 123 333 314 333c73 0 135 -17 185 -49l53 64h95l-93 -113c48 -56 74 -136 74 -235z" />
    <glyph glyph-name="P.sc" horiz-adv-x="616" 
d="M312 214h-73v-214h-159v644h246c148 0 255 -59 255 -210c0 -161 -108 -220 -269 -220zM239 325h75c72 0 116 36 116 109s-45 103 -115 103h-76v-212z" />
    <glyph glyph-name="Q.sc" horiz-adv-x="741" 
d="M57 320c0 208 120 334 315 333c198 0 313 -122 314 -333c-1 -123 -43 -222 -126 -267v-4c65 -8 101 -39 130 -96l-131 -72c-44 79 -79 110 -145 110c-20 0 -25 -2 -44 -2c-208 0 -313 120 -313 331zM371 94c96 0 146 70 146 224c0 151 -59 228 -145 228
c-97 0 -146 -78 -146 -228s48 -224 145 -224z" />
    <glyph glyph-name="R.sc" horiz-adv-x="663" 
d="M239 344h89c59 0 113 26 113 100c0 68 -52 97 -111 97h-91v-197zM457 0l-127 245h-91v-245h-159v644h268c41 0 86 -3 132 -20c63 -22 123 -77 123 -171c0 -103 -61 -153 -127 -177v-2l150 -274h-169z" />
    <glyph glyph-name="S.sc" horiz-adv-x="630" 
d="M563 469h-156c-3 41 -31 77 -92 77c-53 0 -91 -27 -91 -72c0 -42 24 -65 81 -74l105 -17c115 -19 170 -84 170 -180c0 -143 -108 -217 -268 -217c-165 0 -262 81 -265 199h158c4 -54 42 -91 112 -91c74 0 105 35 105 81c0 38 -23 66 -85 77l-104 18
c-101 17 -166 78 -166 184c0 111 89 199 250 199c172 0 239 -81 246 -184z" />
    <glyph glyph-name="T.sc" horiz-adv-x="592" 
d="M564 644v-120h-188v-524h-160v524h-188v120h536z" />
    <glyph glyph-name="Tbar.sc" horiz-adv-x="592" 
d="M564 644v-120h-188v-131h145v-90h-145v-303h-160v303h-147v90h147v131h-188v120h536z" />
    <glyph glyph-name="Thorn.sc" horiz-adv-x="613" 
d="M318 237h6c63 2 101 33 101 93c0 65 -41 90 -105 90h-81v-183h79zM334 133h-95v-133h-159v644h159v-122h104c135 0 234 -54 234 -190c0 -146 -103 -199 -243 -199z" />
    <glyph glyph-name="U.sc" horiz-adv-x="693" 
d="M74 228v416h158v-393c0 -39 3 -80 22 -106s49 -40 94 -40c46 0 77 14 96 41c18 25 20 66 20 105v393h155v-416c0 -164 -107 -242 -272 -242c-169 0 -273 74 -273 242z" />
    <glyph glyph-name="V.sc" horiz-adv-x="652" 
d="M238 0l-221 644h167l120 -385c22 -71 26 -117 26 -117h3s6 46 29 118l121 384h152l-219 -644h-178z" />
    <glyph glyph-name="W.sc" horiz-adv-x="927" 
d="M346 0h-156l-170 644h164l78 -337c15 -66 20 -128 20 -128h2s6 56 24 121l93 344h142l95 -347c18 -65 25 -118 25 -118h2s4 57 19 122l77 343h146l-169 -644h-153l-98 356c-17 63 -21 116 -21 116h-2s-4 -54 -21 -116z" />
    <glyph glyph-name="X.sc" horiz-adv-x="677" 
d="M19 0l228 333l-204 311h178l122 -201h1l127 201h162l-207 -306l228 -338h-186l-139 222h-2l-144 -222h-164z" />
    <glyph glyph-name="Y.sc" horiz-adv-x="623" 
d="M233 0v271l-220 373h171l133 -248h2l132 248h159l-219 -373v-271h-158z" />
    <glyph glyph-name="Z.sc" horiz-adv-x="606" 
d="M62 528v116h494v-104l-325 -423h328v-117h-513v104l326 424h-310z" />
    <glyph glyph-name="ampersand.sc" horiz-adv-x="703" 
d="M251 495c0 -33 9 -48 54 -95c47 31 74 58 74 101c0 38 -25 62 -62 62c-40 0 -66 -29 -66 -68zM247 282l-4 -3c-30 -20 -55 -48 -55 -90c0 -61 41 -96 101 -96c42 0 74 16 101 43zM652 0h-33c-71 0 -104 14 -152 59c-49 -45 -111 -72 -195 -72c-146 0 -226 72 -226 184
c0 77 52 136 138 185c-43 44 -67 82 -67 140c0 87 74 157 201 157c120 0 189 -62 189 -141c0 -81 -53 -122 -135 -178l87 -90c15 32 30 68 46 105h136c-33 -69 -62 -135 -96 -191c39 -38 58 -43 107 -43v-115z" />
    <glyph glyph-name="uni0237.sc" horiz-adv-x="420" 
d="M99 -2h-63v119h36c104 0 119 40 119 114v413h157v-431c0 -166 -94 -215 -249 -215z" />
    <glyph glyph-name="exclam.sc" horiz-adv-x="345" 
d="M172 -16c-49 0 -87 38 -87 86c0 47 38 85 87 85c50 0 88 -38 88 -85c0 -48 -38 -86 -88 -86zM117 206l-31 438h172l-31 -438h-110z" />
    <glyph glyph-name="exclamdown.sc" horiz-adv-x="345" 
d="M172 482c-49 0 -87 38 -87 86c0 47 38 85 87 85c50 0 88 -38 88 -85c0 -48 -38 -86 -88 -86zM227 438l31 -438h-172l32 438h109z" />
    <glyph glyph-name="germandbls.sc" horiz-adv-x="1259" 
d="M563 469h-156c-3 41 -31 77 -92 77c-53 0 -91 -27 -91 -72c0 -42 24 -65 81 -74l105 -17c115 -19 170 -84 170 -180c0 -143 -108 -217 -268 -217c-165 0 -262 81 -265 199h158c4 -54 42 -91 112 -91c74 0 105 35 105 81c0 38 -23 66 -85 77l-104 18
c-101 17 -166 78 -166 184c0 111 89 199 250 199c172 0 239 -81 246 -184zM1193 469h-156c-3 41 -31 77 -92 77c-53 0 -91 -27 -91 -72c0 -42 24 -65 81 -74l105 -17c115 -19 170 -84 170 -180c0 -143 -108 -217 -268 -217c-165 0 -262 81 -265 199h158
c4 -54 42 -91 112 -91c74 0 105 35 105 81c0 38 -23 66 -85 77l-104 18c-101 17 -166 78 -166 184c0 111 89 199 250 199c172 0 239 -81 246 -184z" />
    <glyph glyph-name="question.sc" horiz-adv-x="566" 
d="M281 -16c-49 0 -87 38 -87 86c0 47 38 85 87 85c50 0 88 -38 88 -85c0 -48 -38 -86 -88 -86zM347 206h-128v42c0 39 8 63 49 96l53 43c38 31 48 51 48 85c0 43 -31 75 -85 75c-67 0 -100 -42 -100 -113h-137c-2 125 81 219 240 219c149 0 229 -75 229 -176
c0 -80 -34 -123 -89 -166l-58 -45c-21 -16 -22 -22 -22 -48v-12z" />
    <glyph glyph-name="questiondown.sc" horiz-adv-x="566" 
d="M283 482c-49 0 -87 38 -87 86c0 47 38 85 87 85c50 0 88 -38 88 -85c0 -48 -38 -86 -88 -86zM278 -9c-149 0 -229 75 -229 177c0 79 35 121 89 165l58 46c20 16 22 21 22 47v12h128v-42c0 -39 -8 -63 -49 -96l-53 -43c-38 -30 -48 -51 -48 -85c0 -43 31 -74 84 -74
c68 0 101 41 101 112h137c2 -124 -81 -219 -240 -219z" />
    <glyph glyph-name="quotedblleft.sc" horiz-adv-x="496" 
d="M457 644l-60 -261h-158l117 261h101zM249 644l-59 -261h-159l117 261h101z" />
    <glyph glyph-name="space.tab" horiz-adv-x="300" 
 />
    <glyph glyph-name="quoteleft.sc" horiz-adv-x="289" 
d="M251 644l-59 -261h-162l120 261h101z" />
    <glyph glyph-name="quoteright.sc" horiz-adv-x="289" 
d="M38 383l60 261h161l-120 -261h-101z" />
    <glyph glyph-name="Lslash.sc" horiz-adv-x="571" 
d="M80 0v216l-64 -22v106l64 22v322h159v-266l187 65v-105l-187 -66v-153h274v-119h-433z" />
    <glyph glyph-name="AEacute.sc" horiz-adv-x="966" 
d="M497 713l51 174h158l-88 -174h-121zM459 254v277h-38l-131 -277h169zM241 151l-72 -151h-157l325 644h559v-113h-281v-154h267v-110h-267v-155h290v-112h-446v151h-218z" />
    <glyph glyph-name="Aacute.sc" horiz-adv-x="688" 
d="M283 713l51 174h158l-88 -174h-121zM337 514c-1 -3 -8 -40 -31 -111l-54 -165h168l-54 165c-24 73 -27 111 -27 111h-2zM501 0l-45 132h-240l-46 -132h-151l236 644h177l237 -644h-168z" />
    <glyph glyph-name="Abreve.sc" horiz-adv-x="688" 
d="M337 514c-1 -3 -8 -40 -31 -111l-54 -165h168l-54 165c-24 73 -27 111 -27 111h-2zM501 0l-45 132h-240l-46 -132h-151l236 644h177l237 -644h-168zM343 711c-92 0 -166 52 -166 176h105c0 -49 26 -74 64 -74s65 25 65 74h99c0 -124 -74 -176 -167 -176z" />
    <glyph glyph-name="Acircumflex.sc" horiz-adv-x="688" 
d="M411 887l110 -174h-109l-69 77h-1l-66 -77h-101l110 174h126zM337 514c-1 -3 -8 -40 -31 -111l-54 -165h168l-54 165c-24 73 -27 111 -27 111h-2zM501 0l-45 132h-240l-46 -132h-151l236 644h177l237 -644h-168z" />
    <glyph glyph-name="Adieresis.sc" horiz-adv-x="688" 
d="M379 735v137h137v-137h-137zM171 735v137h136v-137h-136zM337 514c-1 -3 -8 -40 -31 -111l-54 -165h168l-54 165c-24 73 -27 111 -27 111h-2zM501 0l-45 132h-240l-46 -132h-151l236 644h177l237 -644h-168z" />
    <glyph glyph-name="Agrave.sc" horiz-adv-x="688" 
d="M337 514c-1 -3 -8 -40 -31 -111l-54 -165h168l-54 165c-24 73 -27 111 -27 111h-2zM501 0l-45 132h-240l-46 -132h-151l236 644h177l237 -644h-168zM359 887l51 -174h-121l-88 174h158z" />
    <glyph glyph-name="Amacron.sc" horiz-adv-x="688" 
d="M337 514c-1 -3 -8 -40 -31 -111l-54 -165h168l-54 165c-24 73 -27 111 -27 111h-2zM501 0l-45 132h-240l-46 -132h-151l236 644h177l237 -644h-168zM172 735v104h342v-104h-342z" />
    <glyph glyph-name="Aogonek.sc" horiz-adv-x="688" 
d="M666 -188h-29c-106 0 -142 38 -142 90c0 36 22 71 72 98h-65l-46 132h-240l-46 -132h-151l236 644h177l235 -640c-38 -26 -52 -45 -52 -67c0 -24 16 -35 51 -36v-89zM337 514c-1 -3 -8 -40 -31 -111l-54 -165h168l-54 165c-24 73 -27 111 -27 111h-2z" />
    <glyph glyph-name="Aring.sc" horiz-adv-x="688" 
d="M343 701c-82 0 -131 49 -131 123c0 72 54 123 132 123c84 0 131 -51 131 -123c0 -74 -53 -123 -132 -123zM343 884c-32 0 -53 -24 -53 -61c0 -36 20 -60 54 -60c32 0 52 24 52 60c0 37 -19 61 -53 61zM337 514c-1 -3 -8 -40 -31 -111l-54 -165h168l-54 165
c-24 73 -27 111 -27 111h-2zM501 0l-45 132h-240l-46 -132h-151l236 644h177l237 -644h-168z" />
    <glyph glyph-name="uni01FA.sc" horiz-adv-x="688" 
d="M343 701c-82 0 -131 49 -131 123c0 72 54 123 132 123c84 0 131 -51 131 -123c0 -74 -53 -123 -132 -123zM343 884c-32 0 -53 -24 -53 -61c0 -36 20 -60 54 -60c32 0 52 24 52 60c0 37 -19 61 -53 61zM337 514c-1 -3 -8 -40 -31 -111l-54 -165h168l-54 165
c-24 73 -27 111 -27 111h-2zM501 0l-45 132h-240l-46 -132h-151l236 644h177l237 -644h-168zM282 986l64 133h158l-103 -133h-119z" />
    <glyph glyph-name="Atilde.sc" horiz-adv-x="688" 
d="M337 514c-1 -3 -8 -40 -31 -111l-54 -165h168l-54 165c-24 73 -27 111 -27 111h-2zM501 0l-45 132h-240l-46 -132h-151l236 644h177l237 -644h-168zM154 713c0 89 31 164 118 164c62 0 101 -51 140 -51c19 0 40 10 50 52h71c0 -91 -31 -165 -118 -165
c-62 0 -100 51 -140 51c-18 0 -40 -10 -49 -51h-72z" />
    <glyph glyph-name="Cacute.sc" horiz-adv-x="694" 
d="M303 713l51 174h158l-88 -174h-121zM366 544c-83 0 -140 -72 -140 -224s51 -223 137 -223c70 0 110 45 117 125h161c-6 -149 -111 -236 -277 -236c-210 0 -307 126 -307 326c0 211 117 341 310 341c174 0 270 -81 275 -233h-163c-6 82 -44 124 -113 124z" />
    <glyph glyph-name="Ccaron.sc" horiz-adv-x="694" 
d="M294 713l-110 174h109l69 -77h1l66 77h101l-110 -174h-126zM366 544c-83 0 -140 -72 -140 -224s51 -223 137 -223c70 0 110 45 117 125h161c-6 -149 -111 -236 -277 -236c-210 0 -307 126 -307 326c0 211 117 341 310 341c174 0 270 -81 275 -233h-163
c-6 82 -44 124 -113 124z" />
    <glyph glyph-name="Ccedilla.sc" horiz-adv-x="694" 
d="M363 -232c-69 0 -104 37 -106 79h77c4 -12 13 -21 31 -21c23 0 32 13 32 32s-11 31 -32 31c-13 0 -21 -5 -27 -13h-65l50 112c-182 15 -266 138 -266 324c0 211 117 341 310 341c174 0 270 -81 275 -233h-163c-6 82 -44 124 -113 124c-83 0 -140 -72 -140 -224
s51 -223 137 -223c70 0 110 45 117 125h161c-6 -146 -106 -232 -266 -236l-21 -45h2c10 7 21 10 40 10c48 0 84 -34 84 -89c0 -48 -36 -94 -117 -94z" />
    <glyph glyph-name="Ccircumflex.sc" horiz-adv-x="694" 
d="M431 887l110 -174h-109l-69 77h-1l-66 -77h-101l110 174h126zM366 544c-83 0 -140 -72 -140 -224s51 -223 137 -223c70 0 110 45 117 125h161c-6 -149 -111 -236 -277 -236c-210 0 -307 126 -307 326c0 211 117 341 310 341c174 0 270 -81 275 -233h-163
c-6 82 -44 124 -113 124z" />
    <glyph glyph-name="Cdotaccent.sc" horiz-adv-x="694" 
d="M366 544c-83 0 -140 -72 -140 -224s51 -223 137 -223c70 0 110 45 117 125h161c-6 -149 -111 -236 -277 -236c-210 0 -307 126 -307 326c0 211 117 341 310 341c174 0 270 -81 275 -233h-163c-6 82 -44 124 -113 124zM294 735v137h137v-137h-137z" />
    <glyph glyph-name="Dcaron.sc" horiz-adv-x="708" 
d="M80 0v644h238c197 0 335 -95 335 -314c0 -220 -137 -330 -334 -330h-239zM239 111h75c102 0 171 54 171 216c0 154 -70 207 -167 207h-79v-423zM269 713l-110 174h109l69 -77h1l66 77h101l-110 -174h-126z" />
    <glyph glyph-name="Eacute.sc" horiz-adv-x="594" 
d="M247 713l51 174h158l-88 -174h-121zM80 0v644h445v-113h-286v-154h271v-110h-271v-155h295v-112h-454z" />
    <glyph glyph-name="Ecaron.sc" horiz-adv-x="594" 
d="M238 713l-110 174h109l69 -77h1l66 77h101l-110 -174h-126zM80 0v644h445v-113h-286v-154h271v-110h-271v-155h295v-112h-454z" />
    <glyph glyph-name="Ecircumflex.sc" horiz-adv-x="594" 
d="M374 887l110 -174h-109l-69 77h-1l-66 -77h-101l110 174h126zM80 0v644h445v-113h-286v-154h271v-110h-271v-155h295v-112h-454z" />
    <glyph glyph-name="Edieresis.sc" horiz-adv-x="594" 
d="M343 735v137h137v-137h-137zM135 735v137h136v-137h-136zM80 0v644h445v-113h-286v-154h271v-110h-271v-155h295v-112h-454z" />
    <glyph glyph-name="Edotaccent.sc" horiz-adv-x="594" 
d="M238 735v137h137v-137h-137zM80 0v644h445v-113h-286v-154h271v-110h-271v-155h295v-112h-454z" />
    <glyph glyph-name="Egrave.sc" horiz-adv-x="594" 
d="M322 887l51 -174h-121l-88 174h158zM80 0v644h445v-113h-286v-154h271v-110h-271v-155h295v-112h-454z" />
    <glyph glyph-name="Emacron.sc" horiz-adv-x="594" 
d="M136 735v104h342v-104h-342zM80 0v644h445v-113h-286v-154h271v-110h-271v-155h295v-112h-454z" />
    <glyph glyph-name="Eogonek.sc" horiz-adv-x="594" 
d="M535 -99v-89h-29c-107 0 -143 38 -143 90c0 38 26 76 80 98h-363v644h445v-113h-286v-154h271v-110h-271v-155h295v-112c-36 -24 -50 -43 -50 -64c0 -23 15 -34 51 -35z" />
    <glyph glyph-name="Gbreve.sc" horiz-adv-x="727" 
d="M373 546c-95 0 -151 -75 -151 -227c0 -164 60 -224 149 -224c82 0 140 49 140 134v10h-142v106h286v-345h-117v86h-3c-32 -58 -93 -99 -188 -99c-198 0 -291 131 -291 323c0 209 124 343 319 343c167 0 263 -80 273 -209h-161c-8 64 -48 102 -114 102zM362 711
c-92 0 -166 52 -166 176h105c0 -49 26 -74 64 -74s65 25 65 74h99c0 -124 -74 -176 -167 -176z" />
    <glyph glyph-name="Gcircumflex.sc" horiz-adv-x="727" 
d="M429 887l110 -174h-109l-69 77h-1l-66 -77h-101l110 174h126zM373 546c-95 0 -151 -75 -151 -227c0 -164 60 -224 149 -224c82 0 140 49 140 134v10h-142v106h286v-345h-117v86h-3c-32 -58 -93 -99 -188 -99c-198 0 -291 131 -291 323c0 209 124 343 319 343
c167 0 263 -80 273 -209h-161c-8 64 -48 102 -114 102z" />
    <glyph glyph-name="Gcommaaccent.sc" horiz-adv-x="727" 
d="M262 -220l24 156h154l-73 -156h-105zM373 546c-95 0 -151 -75 -151 -227c0 -164 60 -224 149 -224c82 0 140 49 140 134v10h-142v106h286v-345h-117v86h-3c-32 -58 -93 -99 -188 -99c-198 0 -291 131 -291 323c0 209 124 343 319 343c167 0 263 -80 273 -209h-161
c-8 64 -48 102 -114 102z" />
    <glyph glyph-name="Gdotaccent.sc" horiz-adv-x="727" 
d="M373 546c-95 0 -151 -75 -151 -227c0 -164 60 -224 149 -224c82 0 140 49 140 134v10h-142v106h286v-345h-117v86h-3c-32 -58 -93 -99 -188 -99c-198 0 -291 131 -291 323c0 209 124 343 319 343c167 0 263 -80 273 -209h-161c-8 64 -48 102 -114 102zM293 735v137h137
v-137h-137z" />
    <glyph glyph-name="Hcircumflex.sc" horiz-adv-x="725" 
d="M430 887l110 -174h-109l-69 77h-1l-66 -77h-101l110 174h126zM239 263v-263h-159v644h159v-265h246v265h160v-644h-160v263h-246z" />
    <glyph glyph-name="Iacute.sc" horiz-adv-x="319" 
d="M100 713l51 174h158l-88 -174h-121zM80 0v644h159v-644h-159z" />
    <glyph glyph-name="questiondown.uc" horiz-adv-x="591" 
d="M298 590c-53 0 -94 41 -94 93c0 51 41 92 94 92c54 0 95 -41 95 -92c0 -52 -41 -93 -95 -93zM188 185c0 -56 37 -92 102 -92c64 0 118 35 118 143h152c3 -157 -94 -267 -273 -267c-180 0 -255 93 -255 208c0 92 39 142 104 196l67 56c21 17 28 26 28 54v43h137v-64
c0 -63 -8 -79 -61 -122l-57 -47c-38 -32 -62 -58 -62 -108z" />
    <glyph glyph-name="Icircumflex.sc" horiz-adv-x="319" 
d="M227 887l110 -174h-109l-69 77h-1l-66 -77h-101l110 174h126zM80 0v644h159v-644h-159z" />
    <glyph glyph-name="Idieresis.sc" horiz-adv-x="319" 
d="M196 735v137h137v-137h-137zM-12 735v137h136v-137h-136zM80 0v644h159v-644h-159z" />
    <glyph glyph-name="Igrave.sc" horiz-adv-x="319" 
d="M80 0v644h159v-644h-159zM175 887l51 -174h-121l-88 174h158z" />
    <glyph glyph-name="Imacron.sc" horiz-adv-x="319" 
d="M80 0v644h159v-644h-159zM-11 735v104h342v-104h-342z" />
    <glyph glyph-name="Iogonek.sc" horiz-adv-x="319" 
d="M238 -188h-29c-106 0 -142 38 -142 90c0 38 25 76 79 98h-66v644h159v-641c-36 -24 -52 -43 -52 -66c0 -24 15 -35 51 -36v-89z" />
    <glyph glyph-name="Itilde.sc" horiz-adv-x="319" 
d="M80 0v644h159v-644h-159zM-29 713c0 89 31 164 118 164c62 0 101 -51 140 -51c19 0 40 10 50 52h71c0 -91 -31 -165 -118 -165c-62 0 -100 51 -140 51c-18 0 -40 -10 -49 -51h-72z" />
    <glyph glyph-name="Jcircumflex.sc" horiz-adv-x="420" 
d="M337 887l110 -174h-109l-69 77h-1l-66 -77h-101l110 174h126zM99 -2h-63v119h36c104 0 119 40 119 114v413h157v-431c0 -166 -94 -215 -249 -215z" />
    <glyph glyph-name="Kcommaaccent.sc" horiz-adv-x="678" 
d="M258 -220l24 156h154l-73 -156h-105zM239 189v-189h-159v644h159v-284l237 284h167l-232 -274l239 -370h-180l-167 263z" />
    <glyph glyph-name="Lacute.sc" horiz-adv-x="571" 
d="M80 0v644h159v-525h274v-119h-433zM103 713l51 174h158l-88 -174h-121z" />
    <glyph glyph-name="Lcaron.sc" horiz-adv-x="571" 
d="M80 0v644h159v-525h274v-119h-433zM314 457l6 187h125l-56 -187h-75z" />
    <glyph glyph-name="Lcommaaccent.sc" horiz-adv-x="571" 
d="M80 0v644h159v-525h274v-119h-433zM196 -220l24 156h154l-73 -156h-105z" />
    <glyph glyph-name="Nacute.sc" horiz-adv-x="718" 
d="M299 713l51 174h158l-88 -174h-121zM80 0v644h170l186 -317c37 -63 56 -109 56 -109h3v426h143v-644h-161l-193 324c-37 62 -59 113 -59 113h-3v-437h-142z" />
    <glyph glyph-name="Ncaron.sc" horiz-adv-x="718" 
d="M290 713l-110 174h109l69 -77h1l66 77h101l-110 -174h-126zM80 0v644h170l186 -317c37 -63 56 -109 56 -109h3v426h143v-644h-161l-193 324c-37 62 -59 113 -59 113h-3v-437h-142z" />
    <glyph glyph-name="Ncommaaccent.sc" horiz-adv-x="718" 
d="M259 -220l24 156h154l-73 -156h-105zM80 0v644h170l186 -317c37 -63 56 -109 56 -109h3v426h143v-644h-161l-193 324c-37 62 -59 113 -59 113h-3v-437h-142z" />
    <glyph glyph-name="Ntilde.sc" horiz-adv-x="718" 
d="M80 0v644h170l186 -317c37 -63 56 -109 56 -109h3v426h143v-644h-161l-193 324c-37 62 -59 113 -59 113h-3v-437h-142zM170 713c0 89 31 164 118 164c62 0 101 -51 140 -51c19 0 40 10 50 52h71c0 -91 -31 -165 -118 -165c-62 0 -100 51 -140 51c-18 0 -40 -10 -49 -51
h-72z" />
    <glyph glyph-name="Oacute.sc" horiz-adv-x="742" 
d="M57 320c0 209 123 333 314 333c200 0 314 -121 314 -333c0 -210 -120 -333 -314 -333c-206 0 -314 121 -314 333zM371 96c94 0 146 76 146 224c0 149 -61 226 -146 226c-94 0 -145 -75 -145 -226c0 -150 46 -224 145 -224zM311 713l51 174h158l-88 -174h-121z" />
    <glyph glyph-name="Obreve.sc" horiz-adv-x="742" 
d="M57 320c0 209 123 333 314 333c200 0 314 -121 314 -333c0 -210 -120 -333 -314 -333c-206 0 -314 121 -314 333zM371 96c94 0 146 76 146 224c0 149 -61 226 -146 226c-94 0 -145 -75 -145 -226c0 -150 46 -224 145 -224zM371 711c-92 0 -166 52 -166 176h105
c0 -49 26 -74 64 -74s65 25 65 74h99c0 -124 -74 -176 -167 -176z" />
    <glyph glyph-name="Ocircumflex.sc" horiz-adv-x="742" 
d="M439 887l110 -174h-109l-69 77h-1l-66 -77h-101l110 174h126zM57 320c0 209 123 333 314 333c200 0 314 -121 314 -333c0 -210 -120 -333 -314 -333c-206 0 -314 121 -314 333zM371 96c94 0 146 76 146 224c0 149 -61 226 -146 226c-94 0 -145 -75 -145 -226
c0 -150 46 -224 145 -224z" />
    <glyph glyph-name="Odieresis.sc" horiz-adv-x="742" 
d="M407 735v137h137v-137h-137zM199 735v137h136v-137h-136zM57 320c0 209 123 333 314 333c200 0 314 -121 314 -333c0 -210 -120 -333 -314 -333c-206 0 -314 121 -314 333zM371 96c94 0 146 76 146 224c0 149 -61 226 -146 226c-94 0 -145 -75 -145 -226
c0 -150 46 -224 145 -224z" />
    <glyph glyph-name="Ograve.sc" horiz-adv-x="742" 
d="M57 320c0 209 123 333 314 333c200 0 314 -121 314 -333c0 -210 -120 -333 -314 -333c-206 0 -314 121 -314 333zM371 96c94 0 146 76 146 224c0 149 -61 226 -146 226c-94 0 -145 -75 -145 -226c0 -150 46 -224 145 -224zM386 887l51 -174h-121l-88 174h158z" />
    <glyph glyph-name="Ohungarumlaut.sc" horiz-adv-x="742" 
d="M57 320c0 209 123 333 314 333c200 0 314 -121 314 -333c0 -210 -120 -333 -314 -333c-206 0 -314 121 -314 333zM371 96c94 0 146 76 146 224c0 149 -61 226 -146 226c-94 0 -145 -75 -145 -226c0 -150 46 -224 145 -224zM401 713l52 174h127l-86 -174h-93zM237 713
l39 174h128l-73 -174h-94z" />
    <glyph glyph-name="Omacron.sc" horiz-adv-x="742" 
d="M57 320c0 209 123 333 314 333c200 0 314 -121 314 -333c0 -210 -120 -333 -314 -333c-206 0 -314 121 -314 333zM371 96c94 0 146 76 146 224c0 149 -61 226 -146 226c-94 0 -145 -75 -145 -226c0 -150 46 -224 145 -224zM200 735v104h342v-104h-342z" />
    <glyph glyph-name="Oslashacute.sc" horiz-adv-x="742" 
d="M312 713l51 174h158l-88 -174h-121zM371 549c-98 0 -152 -76 -152 -229c0 -44 4 -80 11 -111l244 296c-26 30 -61 44 -103 44zM371 93c97 0 153 76 153 227c0 45 -5 83 -14 114l-246 -299c25 -28 60 -42 107 -42zM685 320c0 -210 -120 -333 -314 -333
c-74 0 -138 17 -187 51l-49 -59h-95l89 108c-47 56 -72 135 -72 233c0 209 123 333 314 333c73 0 135 -17 185 -49l53 64h95l-93 -113c48 -56 74 -136 74 -235z" />
    <glyph glyph-name="Otilde.sc" horiz-adv-x="742" 
d="M57 320c0 209 123 333 314 333c200 0 314 -121 314 -333c0 -210 -120 -333 -314 -333c-206 0 -314 121 -314 333zM371 96c94 0 146 76 146 224c0 149 -61 226 -146 226c-94 0 -145 -75 -145 -226c0 -150 46 -224 145 -224zM182 713c0 89 31 164 118 164
c62 0 101 -51 140 -51c19 0 40 10 50 52h71c0 -91 -31 -165 -118 -165c-62 0 -100 51 -140 51c-18 0 -40 -10 -49 -51h-72z" />
    <glyph glyph-name="Racute.sc" horiz-adv-x="663" 
d="M258 713l51 174h158l-88 -174h-121zM239 344h89c59 0 113 26 113 100c0 68 -52 97 -111 97h-91v-197zM457 0l-127 245h-91v-245h-159v644h268c41 0 86 -3 132 -20c63 -22 123 -77 123 -171c0 -103 -61 -153 -127 -177v-2l150 -274h-169z" />
    <glyph glyph-name="Rcaron.sc" horiz-adv-x="663" 
d="M249 713l-110 174h109l69 -77h1l66 77h101l-110 -174h-126zM239 344h89c59 0 113 26 113 100c0 68 -52 97 -111 97h-91v-197zM457 0l-127 245h-91v-245h-159v644h268c41 0 86 -3 132 -20c63 -22 123 -77 123 -171c0 -103 -61 -153 -127 -177v-2l150 -274h-169z" />
    <glyph glyph-name="Rcommaaccent.sc" horiz-adv-x="656" 
d="M238 -207l24 156h154l-73 -156h-105zM239 344h89c59 0 113 26 113 100c0 68 -52 97 -111 97h-91v-197zM457 0l-127 245h-91v-245h-159v644h268c41 0 86 -3 132 -20c63 -22 123 -77 123 -171c0 -103 -61 -153 -127 -177v-2l150 -274h-169z" />
    <glyph glyph-name="Sacute.sc" horiz-adv-x="630" 
d="M256 713l51 174h158l-88 -174h-121zM563 469h-156c-3 41 -31 77 -92 77c-53 0 -91 -27 -91 -72c0 -42 24 -65 81 -74l105 -17c115 -19 170 -84 170 -180c0 -143 -108 -217 -268 -217c-165 0 -262 81 -265 199h158c4 -54 42 -91 112 -91c74 0 105 35 105 81
c0 38 -23 66 -85 77l-104 18c-101 17 -166 78 -166 184c0 111 89 199 250 199c172 0 239 -81 246 -184z" />
    <glyph glyph-name="Scaron.sc" horiz-adv-x="630" 
d="M247 713l-110 174h109l69 -77h1l66 77h101l-110 -174h-126zM563 469h-156c-3 41 -31 77 -92 77c-53 0 -91 -27 -91 -72c0 -42 24 -65 81 -74l105 -17c115 -19 170 -84 170 -180c0 -143 -108 -217 -268 -217c-165 0 -262 81 -265 199h158c4 -54 42 -91 112 -91
c74 0 105 35 105 81c0 38 -23 66 -85 77l-104 18c-101 17 -166 78 -166 184c0 111 89 199 250 199c172 0 239 -81 246 -184z" />
    <glyph glyph-name="Scedilla.sc" horiz-adv-x="630" 
d="M316 -232c-69 0 -104 37 -106 79h77c4 -12 13 -21 31 -21c23 0 32 13 32 32s-11 31 -32 31c-13 0 -21 -5 -27 -13h-65l50 111c-143 11 -226 89 -229 198h158c4 -54 42 -91 112 -91c74 0 105 35 105 81c0 38 -23 66 -85 77l-104 18c-101 17 -166 78 -166 184
c0 111 89 199 250 199c172 0 239 -81 246 -184h-156c-3 41 -31 77 -92 77c-53 0 -91 -27 -91 -72c0 -42 24 -65 81 -74l105 -17c115 -19 170 -84 170 -180c0 -138 -101 -212 -252 -217l-21 -45h2c10 7 21 10 40 10c48 0 84 -34 84 -89c0 -48 -36 -94 -117 -94z" />
    <glyph glyph-name="Scircumflex.sc" horiz-adv-x="630" 
d="M384 887l110 -174h-109l-69 77h-1l-66 -77h-101l110 174h126zM563 469h-156c-3 41 -31 77 -92 77c-53 0 -91 -27 -91 -72c0 -42 24 -65 81 -74l105 -17c115 -19 170 -84 170 -180c0 -143 -108 -217 -268 -217c-165 0 -262 81 -265 199h158c4 -54 42 -91 112 -91
c74 0 105 35 105 81c0 38 -23 66 -85 77l-104 18c-101 17 -166 78 -166 184c0 111 89 199 250 199c172 0 239 -81 246 -184z" />
    <glyph glyph-name="Scommaaccent.sc" horiz-adv-x="630" 
d="M217 -220l24 156h154l-73 -156h-105zM563 469h-156c-3 41 -31 77 -92 77c-53 0 -91 -27 -91 -72c0 -42 24 -65 81 -74l105 -17c115 -19 170 -84 170 -180c0 -143 -108 -217 -268 -217c-165 0 -262 81 -265 199h158c4 -54 42 -91 112 -91c74 0 105 35 105 81
c0 38 -23 66 -85 77l-104 18c-101 17 -166 78 -166 184c0 111 89 199 250 199c172 0 239 -81 246 -184z" />
    <glyph glyph-name="Tcaron.sc" horiz-adv-x="592" 
d="M564 644v-120h-188v-524h-160v524h-188v120h536zM227 713l-110 174h109l69 -77h1l66 77h101l-110 -174h-126z" />
    <glyph glyph-name="Tcommaaccent.sc" horiz-adv-x="592" 
d="M564 644v-120h-188v-524h-160v524h-188v120h536zM196 -220l24 156h154l-73 -156h-105z" />
    <glyph glyph-name="Uacute.sc" horiz-adv-x="693" 
d="M286 713l51 174h158l-88 -174h-121zM74 228v416h158v-393c0 -39 3 -80 22 -106s49 -40 94 -40c46 0 77 14 96 41c18 25 20 66 20 105v393h155v-416c0 -164 -107 -242 -272 -242c-169 0 -273 74 -273 242z" />
    <glyph glyph-name="Ubreve.sc" horiz-adv-x="693" 
d="M74 228v416h158v-393c0 -39 3 -80 22 -106s49 -40 94 -40c46 0 77 14 96 41c18 25 20 66 20 105v393h155v-416c0 -164 -107 -242 -272 -242c-169 0 -273 74 -273 242zM346 711c-92 0 -166 52 -166 176h105c0 -49 26 -74 64 -74s65 25 65 74h99c0 -124 -74 -176 -167 -176
z" />
    <glyph glyph-name="Ucircumflex.sc" horiz-adv-x="693" 
d="M414 887l110 -174h-109l-69 77h-1l-66 -77h-101l110 174h126zM74 228v416h158v-393c0 -39 3 -80 22 -106s49 -40 94 -40c46 0 77 14 96 41c18 25 20 66 20 105v393h155v-416c0 -164 -107 -242 -272 -242c-169 0 -273 74 -273 242z" />
    <glyph glyph-name="Udieresis.sc" horiz-adv-x="693" 
d="M382 735v137h137v-137h-137zM174 735v137h136v-137h-136zM74 228v416h158v-393c0 -39 3 -80 22 -106s49 -40 94 -40c46 0 77 14 96 41c18 25 20 66 20 105v393h155v-416c0 -164 -107 -242 -272 -242c-169 0 -273 74 -273 242z" />
    <glyph glyph-name="Ugrave.sc" horiz-adv-x="693" 
d="M362 887l51 -174h-121l-88 174h158zM74 228v416h158v-393c0 -39 3 -80 22 -106s49 -40 94 -40c46 0 77 14 96 41c18 25 20 66 20 105v393h155v-416c0 -164 -107 -242 -272 -242c-169 0 -273 74 -273 242z" />
    <glyph glyph-name="Uhungarumlaut.sc" horiz-adv-x="693" 
d="M376 713l52 174h127l-86 -174h-93zM212 713l39 174h128l-73 -174h-94zM74 228v416h158v-393c0 -39 3 -80 22 -106s49 -40 94 -40c46 0 77 14 96 41c18 25 20 66 20 105v393h155v-416c0 -164 -107 -242 -272 -242c-169 0 -273 74 -273 242z" />
    <glyph glyph-name="Umacron.sc" horiz-adv-x="693" 
d="M175 735v104h342v-104h-342zM74 228v416h158v-393c0 -39 3 -80 22 -106s49 -40 94 -40c46 0 77 14 96 41c18 25 20 66 20 105v393h155v-416c0 -164 -107 -242 -272 -242c-169 0 -273 74 -273 242z" />
    <glyph glyph-name="Uogonek.sc" horiz-adv-x="693" 
d="M74 228v416h158v-393c0 -39 3 -80 22 -106s49 -40 94 -40c46 0 77 14 96 41c18 25 20 66 20 105v393h155v-416c0 -139 -76 -205 -173 -230c-65 -16 -87 -40 -87 -70c0 -23 18 -34 52 -34v-89h-29c-107 0 -143 37 -143 90c0 37 22 70 70 92v1c-147 11 -235 84 -235 240z
" />
    <glyph glyph-name="Uring.sc" horiz-adv-x="693" 
d="M346 701c-82 0 -131 49 -131 123c0 72 54 123 132 123c84 0 131 -51 131 -123c0 -74 -53 -123 -132 -123zM346 884c-32 0 -53 -24 -53 -61c0 -36 20 -60 54 -60c32 0 52 24 52 60c0 37 -19 61 -53 61zM74 228v416h158v-393c0 -39 3 -80 22 -106s49 -40 94 -40
c46 0 77 14 96 41c18 25 20 66 20 105v393h155v-416c0 -164 -107 -242 -272 -242c-169 0 -273 74 -273 242z" />
    <glyph glyph-name="Utilde.sc" horiz-adv-x="693" 
d="M74 228v416h158v-393c0 -39 3 -80 22 -106s49 -40 94 -40c46 0 77 14 96 41c18 25 20 66 20 105v393h155v-416c0 -164 -107 -242 -272 -242c-169 0 -273 74 -273 242zM157 713c0 89 31 164 118 164c62 0 101 -51 140 -51c19 0 40 10 50 52h71c0 -91 -31 -165 -118 -165
c-62 0 -100 51 -140 51c-18 0 -40 -10 -49 -51h-72z" />
    <glyph glyph-name="Wacute.sc" horiz-adv-x="927" 
d="M346 0h-156l-170 644h164l78 -337c15 -66 20 -128 20 -128h2s6 56 24 121l93 344h142l95 -347c18 -65 25 -118 25 -118h2s4 57 19 122l77 343h146l-169 -644h-153l-98 356c-17 63 -21 116 -21 116h-2s-4 -54 -21 -116zM412 713l51 174h158l-88 -174h-121z" />
    <glyph glyph-name="Wcircumflex.sc" horiz-adv-x="927" 
d="M531 887l110 -174h-109l-69 77h-1l-66 -77h-101l110 174h126zM346 0h-156l-170 644h164l78 -337c15 -66 20 -128 20 -128h2s6 56 24 121l93 344h142l95 -347c18 -65 25 -118 25 -118h2s4 57 19 122l77 343h146l-169 -644h-153l-98 356c-17 63 -21 116 -21 116h-2
s-4 -54 -21 -116z" />
    <glyph glyph-name="Wdieresis.sc" horiz-adv-x="927" 
d="M499 735v137h137v-137h-137zM291 735v137h136v-137h-136zM346 0h-156l-170 644h164l78 -337c15 -66 20 -128 20 -128h2s6 56 24 121l93 344h142l95 -347c18 -65 25 -118 25 -118h2s4 57 19 122l77 343h146l-169 -644h-153l-98 356c-17 63 -21 116 -21 116h-2
s-4 -54 -21 -116z" />
    <glyph glyph-name="Wgrave.sc" horiz-adv-x="927" 
d="M346 0h-156l-170 644h164l78 -337c15 -66 20 -128 20 -128h2s6 56 24 121l93 344h142l95 -347c18 -65 25 -118 25 -118h2s4 57 19 122l77 343h146l-169 -644h-153l-98 356c-17 63 -21 116 -21 116h-2s-4 -54 -21 -116zM479 887l51 -174h-121l-88 174h158z" />
    <glyph glyph-name="Yacute.sc" horiz-adv-x="623" 
d="M252 713l51 174h158l-88 -174h-121zM233 0v271l-220 373h171l133 -248h2l132 248h159l-219 -373v-271h-158z" />
    <glyph glyph-name="Ycircumflex.sc" horiz-adv-x="623" 
d="M380 887l110 -174h-109l-69 77h-1l-66 -77h-101l110 174h126zM233 0v271l-220 373h171l133 -248h2l132 248h159l-219 -373v-271h-158z" />
    <glyph glyph-name="Ydieresis.sc" horiz-adv-x="623" 
d="M348 735v137h137v-137h-137zM140 735v137h136v-137h-136zM233 0v271l-220 373h171l133 -248h2l132 248h159l-219 -373v-271h-158z" />
    <glyph glyph-name="Ygrave.sc" horiz-adv-x="623" 
d="M233 0v271l-220 373h171l133 -248h2l132 248h159l-219 -373v-271h-158zM328 887l51 -174h-121l-88 174h158z" />
    <glyph glyph-name="Zacute.sc" horiz-adv-x="606" 
d="M244 713l51 174h158l-88 -174h-121zM62 528v116h494v-104l-325 -423h328v-117h-513v104l326 424h-310z" />
    <glyph glyph-name="Zcaron.sc" horiz-adv-x="606" 
d="M235 713l-110 174h109l69 -77h1l66 77h101l-110 -174h-126zM62 528v116h494v-104l-325 -423h328v-117h-513v104l326 424h-310z" />
    <glyph glyph-name="Zdotaccent.sc" horiz-adv-x="606" 
d="M62 528v116h494v-104l-325 -423h328v-117h-513v104l326 424h-310zM236 735v137h137v-137h-137z" />
    <glyph glyph-name="Ldot.sc" horiz-adv-x="571" 
d="M379 298v129h133v-129h-133zM80 0v644h159v-525h274v-119h-433z" />
    <glyph glyph-name="napostrophe.sc" horiz-adv-x="718" 
d="M80 0v644h170l186 -317c38 -62 56 -109 56 -109h3v426h143v-644h-161l-193 324c-39 61 -59 113 -59 113h-3v-437h-142z" />
    <glyph glyph-name="Hbar.sc" horiz-adv-x="725" 
d="M485 378v95h-246v-95h246zM239 263v-263h-159v473h-65v84h65v87h159v-87h246v87h160v-87h66v-84h-66v-473h-160v263h-246z" />
    <glyph glyph-name="Idotaccent.sc" horiz-adv-x="319" 
d="M80 0v644h159v-644h-159zM91 735v137h137v-137h-137z" />
    <glyph glyph-name="Ebreve.sc" horiz-adv-x="594" 
d="M80 0v644h445v-113h-286v-154h271v-110h-271v-155h295v-112h-454zM300 711c-92 0 -166 52 -166 176h105c0 -49 26 -74 64 -74s65 25 65 74h99c0 -124 -74 -176 -167 -176z" />
    <glyph glyph-name="yen.tab" 
d="M222 0v148h-185v76h185v81h-187v76h173l-197 360h176l118 -240h2l121 240h161l-199 -360h173v-76h-185v-81h187v-76h-187v-148h-156z" />
    <glyph glyph-name="eight.den" horiz-adv-x="440" 
d="M52 319c0 70 55 118 168 118s168 -48 168 -119c0 -50 -27 -79 -66 -93v-2c50 -13 83 -43 83 -102c0 -75 -65 -130 -185 -130c-128 0 -184 52 -184 130c0 55 33 88 82 102v2c-39 13 -66 43 -66 94zM220 366c-34 0 -59 -17 -59 -56c0 -36 25 -56 59 -56s59 20 59 56
c0 39 -25 56 -59 56zM220 63c40 0 70 21 70 62c0 42 -29 63 -70 63s-71 -21 -71 -63c0 -41 32 -62 71 -62z" />
    <glyph glyph-name="five.den" horiz-adv-x="433" 
d="M280 140c0 39 -27 66 -66 66c-28 0 -49 -11 -63 -29h-100l20 254h293v-88h-205l-9 -104h1c17 23 50 44 101 44c84 0 141 -47 141 -136c0 -86 -57 -156 -182 -156c-133 0 -171 67 -176 134h115c3 -34 29 -51 63 -51c38 0 67 24 67 66z" />
    <glyph glyph-name="four.den" horiz-adv-x="450" 
d="M133 170h126v184h-3s-12 -32 -35 -63zM418 90h-56v-90h-107v90h-226v76l196 265h137v-256h56v-85z" />
    <glyph glyph-name="nine.den" horiz-adv-x="449" 
d="M219 357c-32 0 -68 -20 -68 -68c0 -47 31 -70 68 -70c38 0 68 23 68 70c0 46 -36 68 -68 68zM42 107c3 0 114 1 114 1c6 -26 26 -40 58 -40c54 0 78 48 78 127h-2c-20 -32 -56 -49 -105 -49c-76 0 -146 41 -146 139c0 81 62 151 184 151c118 0 189 -73 189 -211
c0 -155 -76 -234 -204 -234c-101 0 -160 50 -166 116z" />
    <glyph glyph-name="one.den" horiz-adv-x="305" 
d="M118 0v280h-94v76h14c26 0 49 5 66 17c15 11 24 31 24 58h105v-431h-115z" />
    <glyph glyph-name="seven.den" horiz-adv-x="390" 
d="M61 0l169 343h-202v88h337v-62l-183 -369h-121z" />
    <glyph glyph-name="six.den" horiz-adv-x="451" 
d="M405 325h-113c-5 22 -23 36 -52 36c-46 0 -80 -37 -82 -128h2c25 35 60 55 113 55c82 0 141 -47 141 -140c0 -82 -60 -157 -183 -157c-113 0 -190 61 -190 211c0 155 83 234 201 234c114 0 154 -48 163 -111zM234 69c34 0 68 22 68 73c0 46 -28 73 -68 73
c-41 0 -69 -24 -69 -73c0 -51 34 -73 69 -73z" />
    <glyph glyph-name="three.den" horiz-adv-x="437" 
d="M218 183h-50v71h41c33 0 61 19 61 52s-25 51 -57 51c-41 0 -58 -25 -59 -54h-113c2 63 46 136 179 136c108 0 166 -52 166 -117c0 -47 -28 -83 -85 -97v-2c63 -11 96 -47 96 -103c0 -67 -61 -129 -180 -129c-135 0 -178 69 -180 136h116c3 -35 30 -53 63 -53
c41 0 66 25 66 56c0 33 -24 53 -64 53z" />
    <glyph glyph-name="two.den" horiz-adv-x="430" 
d="M147 280h-113c2 96 63 157 180 157c120 0 171 -56 171 -126c0 -65 -37 -102 -105 -158l-79 -65v-2h187v-86h-358v61l174 151c46 40 63 61 63 92c0 32 -21 52 -54 52c-36 0 -66 -19 -66 -76z" />
    <glyph glyph-name="zero.den" horiz-adv-x="475" 
d="M40 213c0 151 79 225 196 225c127 0 199 -72 199 -225c0 -150 -75 -223 -199 -223c-127 0 -196 72 -196 223zM236 74c41 0 72 34 72 140c0 108 -34 142 -72 142c-39 0 -70 -34 -70 -142c0 -112 29 -140 70 -140z" />
    <glyph glyph-name="zero.num" horiz-adv-x="475" 
d="M40 547c0 151 79 225 196 225c127 0 199 -72 199 -225c0 -150 -75 -223 -199 -223c-127 0 -196 72 -196 223zM236 408c41 0 72 34 72 140c0 108 -34 142 -72 142c-39 0 -70 -34 -70 -142c0 -112 29 -140 70 -140z" />
    <glyph glyph-name="one.num" horiz-adv-x="305" 
d="M118 334v280h-94v76h14c26 0 49 5 66 17c15 11 24 31 24 58h105v-431h-115z" />
    <glyph glyph-name="two.num" horiz-adv-x="430" 
d="M147 614h-113c2 96 63 157 180 157c120 0 171 -56 171 -126c0 -65 -36 -103 -105 -158l-79 -65v-2h187v-86h-358v61l174 151c46 39 63 61 63 92c0 32 -21 52 -54 52c-36 0 -66 -19 -66 -76z" />
    <glyph glyph-name="three.num" horiz-adv-x="437" 
d="M218 517h-50v71h41c33 0 61 19 61 52s-25 51 -57 51c-41 0 -58 -25 -59 -54h-113c2 63 46 136 179 136c108 0 166 -52 166 -117c0 -47 -28 -83 -85 -97v-2c63 -11 96 -47 96 -103c0 -67 -61 -129 -180 -129c-135 0 -178 69 -180 136h116c3 -35 30 -53 63 -53
c41 0 66 25 66 56c0 33 -24 53 -64 53z" />
    <glyph glyph-name="four.num" horiz-adv-x="450" 
d="M133 504h126v184h-3s-12 -32 -35 -63zM418 424h-56v-90h-107v90h-226v76l196 265h137v-256h56v-85z" />
    <glyph glyph-name="five.num" horiz-adv-x="433" 
d="M280 474c0 39 -27 66 -66 66c-28 0 -49 -11 -63 -29h-100l20 254h293v-88h-205l-9 -104h1c17 23 50 44 101 44c84 0 141 -47 141 -136c0 -86 -57 -156 -182 -156c-133 0 -171 67 -176 134h115c3 -34 29 -51 63 -51c38 0 67 24 67 66z" />
    <glyph glyph-name="six.num" horiz-adv-x="451" 
d="M405 659h-113c-5 22 -23 36 -52 36c-46 0 -80 -37 -82 -128h2c25 35 60 55 113 55c82 0 141 -47 141 -140c0 -82 -60 -157 -183 -157c-113 0 -190 61 -190 211c0 155 83 234 201 234c114 0 154 -48 163 -111zM234 403c34 0 68 22 68 73c0 46 -28 73 -68 73
c-41 0 -69 -24 -69 -73c0 -51 34 -73 69 -73z" />
    <glyph glyph-name="seven.num" horiz-adv-x="390" 
d="M61 334l169 343h-202v88h337v-62l-183 -369h-121z" />
    <glyph glyph-name="eight.num" horiz-adv-x="440" 
d="M52 653c0 70 55 118 168 118s168 -48 168 -119c0 -50 -27 -79 -66 -93v-2c50 -13 83 -43 83 -102c0 -75 -65 -130 -185 -130c-128 0 -184 52 -184 130c0 55 33 88 82 102v2c-39 13 -66 43 -66 94zM220 700c-34 0 -59 -17 -59 -56c0 -36 25 -56 59 -56s59 20 59 56
c0 39 -25 56 -59 56zM220 397c40 0 70 21 70 62c0 42 -29 63 -70 63s-71 -21 -71 -63c0 -41 32 -62 71 -62z" />
    <glyph glyph-name="nine.num" horiz-adv-x="449" 
d="M219 691c-32 0 -68 -20 -68 -68c0 -47 31 -70 68 -70c38 0 68 23 68 70c0 46 -36 68 -68 68zM42 441c3 0 114 1 114 1c6 -26 26 -40 58 -40c54 0 78 48 78 127h-2c-20 -32 -56 -49 -105 -49c-76 0 -146 41 -146 139c0 81 62 151 184 151c118 0 189 -73 189 -211
c0 -155 -76 -234 -204 -234c-101 0 -160 50 -166 116z" />
    <glyph glyph-name="minus.num" horiz-adv-x="408" 
d="M58 512v59h294v-59h-294z" />
    <glyph glyph-name="plus.num" horiz-adv-x="410" 
d="M236 513v-113h-63v113h-119v57h119v112h63v-112h119v-57h-119z" />
    <glyph glyph-name="minus.den" horiz-adv-x="420" 
d="M57 169v78h305v-78h-305z" />
    <glyph glyph-name="plus.den" horiz-adv-x="420" 
d="M255 169v-115h-91v115h-118v78h118v114h91v-114h119v-78h-119z" />
    <glyph glyph-name="parenleft.tab" horiz-adv-x="300" 
d="M327 -130h-114c-70 100 -146 254 -146 459c0 206 76 359 146 459h114c-67 -122 -130 -272 -130 -459s63 -336 130 -459z" />
    <glyph glyph-name="parenright.tab" horiz-adv-x="300" 
d="M-27 -130c67 122 130 272 130 459s-63 336 -130 459h114c70 -100 147 -253 147 -459s-77 -359 -147 -459h-114z" />
    <glyph glyph-name="bracketleft.tab" horiz-adv-x="300" 
d="M71 -130v918h245v-96h-120v-726h120v-96h-245z" />
    <glyph glyph-name="bracketright.tab" horiz-adv-x="300" 
d="M229 788v-918h-245v96h120v726h-120v96h245z" />
    <glyph glyph-name="braceleft.tab" horiz-adv-x="300" 
d="M40 273h-22v109h22c46 0 61 19 60 68l-4 153c-5 147 44 189 221 189v-92c-107 0 -105 -29 -102 -112l4 -128c2 -60 -18 -116 -83 -129v-4c65 -14 86 -69 83 -132l-4 -125c-3 -83 -5 -112 102 -112v-92c-177 0 -225 42 -221 181l4 158c1 49 -14 68 -60 68z" />
    <glyph glyph-name="braceright.tab" horiz-adv-x="300" 
d="M282 385v-109h-22c-45 0 -61 -19 -60 -68l4 -153c5 -147 -44 -189 -221 -189v92c107 0 105 29 102 112l-4 129c-2 59 18 115 83 128v4c-65 14 -86 69 -83 132l4 125c3 83 5 112 -102 112v92c177 0 226 -42 221 -181l-4 -158c-1 -49 15 -68 60 -68h22z" />
    <glyph glyph-name="eight.sub" horiz-adv-x="440" 
d="M52 259c0 70 55 118 168 118s168 -48 168 -119c0 -50 -27 -79 -66 -93v-2c50 -13 83 -43 83 -102c0 -75 -65 -130 -185 -130c-128 0 -184 52 -184 130c0 55 33 88 82 102v2c-39 13 -66 43 -66 94zM220 306c-34 0 -59 -17 -59 -56c0 -36 25 -56 59 -56s59 20 59 56
c0 39 -25 56 -59 56zM220 3c40 0 70 21 70 62c0 42 -29 63 -70 63s-71 -21 -71 -63c0 -41 32 -62 71 -62z" />
    <glyph glyph-name="eight.sup" horiz-adv-x="440" 
d="M52 703c0 70 55 118 168 118s168 -48 168 -119c0 -50 -27 -79 -66 -93v-2c50 -13 83 -43 83 -102c0 -75 -65 -130 -185 -130c-128 0 -184 52 -184 130c0 55 33 88 82 102v2c-39 13 -66 43 -66 94zM220 750c-34 0 -59 -17 -59 -56c0 -36 25 -56 59 -56s59 20 59 56
c0 39 -25 56 -59 56zM220 447c40 0 70 21 70 62c0 42 -29 63 -70 63s-71 -21 -71 -63c0 -41 32 -62 71 -62z" />
    <glyph glyph-name="five.sub" horiz-adv-x="433" 
d="M280 80c0 39 -27 66 -66 66c-28 0 -49 -11 -63 -29h-100l20 254h293v-88h-205l-9 -104h1c17 23 50 44 101 44c84 0 141 -47 141 -136c0 -86 -57 -156 -182 -156c-133 0 -171 67 -176 134h115c3 -34 29 -51 63 -51c38 0 67 24 67 66z" />
    <glyph glyph-name="five.sup" horiz-adv-x="433" 
d="M280 524c0 39 -27 66 -66 66c-28 0 -49 -11 -63 -29h-100l20 254h293v-88h-205l-9 -104h1c17 23 50 44 101 44c84 0 141 -47 141 -136c0 -86 -57 -156 -182 -156c-133 0 -171 67 -176 134h115c3 -34 29 -51 63 -51c38 0 67 24 67 66z" />
    <glyph glyph-name="four.sub" horiz-adv-x="450" 
d="M133 110h126v184h-3s-12 -32 -35 -63zM418 30h-56v-90h-107v90h-226v76l196 265h137v-256h56v-85z" />
    <glyph glyph-name="four.sup" horiz-adv-x="450" 
d="M133 554h126v184h-3s-12 -32 -35 -63zM418 474h-56v-90h-107v90h-226v76l196 265h137v-256h56v-85z" />
    <glyph glyph-name="minus.sub" horiz-adv-x="420" 
d="M57 109v78h305v-78h-305z" />
    <glyph glyph-name="minus.sup" horiz-adv-x="420" 
d="M57 553v78h305v-78h-305z" />
    <glyph glyph-name="nine.sub" horiz-adv-x="449" 
d="M219 297c-32 0 -68 -20 -68 -68c0 -47 31 -70 68 -70c38 0 68 23 68 70c0 46 -36 68 -68 68zM42 47c3 0 114 1 114 1c6 -26 26 -40 58 -40c54 0 78 48 78 127h-2c-20 -32 -56 -49 -105 -49c-76 0 -146 41 -146 139c0 81 62 151 184 151c118 0 189 -73 189 -211
c0 -155 -76 -234 -204 -234c-101 0 -160 50 -166 116z" />
    <glyph glyph-name="nine.sup" horiz-adv-x="449" 
d="M219 741c-32 0 -68 -20 -68 -68c0 -47 31 -70 68 -70c38 0 68 23 68 70c0 46 -36 68 -68 68zM42 491c3 0 114 1 114 1c6 -26 26 -40 58 -40c54 0 78 48 78 127h-2c-20 -32 -56 -49 -105 -49c-76 0 -146 41 -146 139c0 81 62 151 184 151c118 0 189 -73 189 -211
c0 -155 -76 -234 -204 -234c-101 0 -160 50 -166 116z" />
    <glyph glyph-name="one.sub" horiz-adv-x="305" 
d="M118 -60v280h-94v76h14c26 0 49 5 66 17c15 11 24 31 24 58h105v-431h-115z" />
    <glyph glyph-name="one.sup" horiz-adv-x="305" 
d="M118 384v280h-94v76h14c26 0 49 5 66 17c15 11 24 31 24 58h105v-431h-115z" />
    <glyph glyph-name="plus.sub" horiz-adv-x="420" 
d="M255 109v-115h-91v115h-118v78h118v114h91v-114h119v-78h-119z" />
    <glyph glyph-name="plus.sup" horiz-adv-x="420" 
d="M255 553v-115h-91v115h-118v78h118v114h91v-114h119v-78h-119z" />
    <glyph glyph-name="seven.sub" horiz-adv-x="390" 
d="M61 -60l169 343h-202v88h337v-62l-183 -369h-121z" />
    <glyph glyph-name="seven.sup" horiz-adv-x="390" 
d="M61 384l169 343h-202v88h337v-62l-183 -369h-121z" />
    <glyph glyph-name="six.sub" horiz-adv-x="451" 
d="M405 265h-113c-5 22 -23 36 -52 36c-46 0 -80 -37 -82 -128h2c25 35 60 55 113 55c82 0 141 -47 141 -140c0 -82 -60 -157 -183 -157c-113 0 -190 61 -190 211c0 155 83 234 201 234c114 0 154 -48 163 -111zM234 9c34 0 68 22 68 73c0 46 -28 73 -68 73
c-41 0 -69 -24 -69 -73c0 -51 34 -73 69 -73z" />
    <glyph glyph-name="six.sup" horiz-adv-x="451" 
d="M405 709h-113c-5 22 -23 36 -52 36c-46 0 -80 -37 -82 -128h2c25 35 60 55 113 55c82 0 141 -47 141 -140c0 -82 -60 -157 -183 -157c-113 0 -190 61 -190 211c0 155 83 234 201 234c114 0 154 -48 163 -111zM234 453c34 0 68 22 68 73c0 46 -28 73 -68 73
c-41 0 -69 -24 -69 -73c0 -51 34 -73 69 -73z" />
    <glyph glyph-name="three.sub" horiz-adv-x="437" 
d="M218 123h-50v71h41c33 0 61 19 61 52s-25 51 -57 51c-41 0 -58 -25 -59 -54h-113c2 63 46 136 179 136c108 0 166 -52 166 -117c0 -47 -28 -83 -85 -97v-2c63 -11 96 -47 96 -103c0 -67 -61 -129 -180 -129c-135 0 -178 69 -180 136h116c3 -35 30 -53 63 -53
c41 0 66 25 66 56c0 33 -24 53 -64 53z" />
    <glyph glyph-name="three.sup" horiz-adv-x="437" 
d="M218 567h-50v71h41c33 0 61 19 61 52s-25 51 -57 51c-41 0 -58 -25 -59 -54h-113c2 63 46 136 179 136c108 0 166 -52 166 -117c0 -47 -28 -83 -85 -97v-2c63 -11 96 -47 96 -103c0 -67 -61 -129 -180 -129c-135 0 -178 69 -180 136h116c3 -35 30 -53 63 -53
c41 0 66 25 66 56c0 33 -24 53 -64 53z" />
    <glyph glyph-name="two.sub" horiz-adv-x="430" 
d="M147 220h-113c2 96 63 157 180 157c120 0 171 -56 171 -126c0 -65 -36 -103 -105 -158l-79 -65v-2h187v-86h-358v61l174 151c46 39 63 61 63 92c0 32 -21 52 -54 52c-36 0 -66 -19 -66 -76z" />
    <glyph glyph-name="two.sup" horiz-adv-x="430" 
d="M147 664h-113c2 96 63 157 180 157c120 0 171 -56 171 -126c0 -65 -36 -103 -105 -158l-79 -65v-2h187v-86h-358v61l174 151c46 39 63 61 63 92c0 32 -21 52 -54 52c-36 0 -66 -19 -66 -76z" />
    <glyph glyph-name="zero.sub" horiz-adv-x="475" 
d="M40 153c0 151 79 225 196 225c127 0 199 -72 199 -225c0 -150 -75 -223 -199 -223c-127 0 -196 72 -196 223zM236 14c41 0 72 34 72 140c0 108 -34 142 -72 142c-39 0 -70 -34 -70 -142c0 -112 29 -140 70 -140z" />
    <glyph glyph-name="zero.sup" horiz-adv-x="475" 
d="M40 597c0 151 79 225 196 225c127 0 199 -72 199 -225c0 -150 -75 -223 -199 -223c-127 0 -196 72 -196 223zM236 458c41 0 72 34 72 140c0 108 -34 142 -72 142c-39 0 -70 -34 -70 -142c0 -112 29 -140 70 -140z" />
    <glyph glyph-name="Q.old" horiz-adv-x="822" 
d="M597 -99l-76 99c-32 -10 -67 -16 -110 -16c-229 0 -361 142 -361 396c0 252 147 396 361 396c224 0 361 -141 361 -396c0 -157 -54 -265 -139 -326l62 -82zM228 380c0 -184 63 -279 183 -279c11 0 21 1 31 2l-62 80l99 72l69 -90c31 45 47 115 47 215
c0 183 -76 278 -184 278c-116 0 -183 -93 -183 -278z" />
    <glyph glyph-name="Q.scold" horiz-adv-x="742" 
d="M538 -89l-68 92c-30 -10 -62 -16 -99 -16c-206 0 -314 121 -314 333c0 209 123 333 314 333c200 0 314 -121 314 -333c0 -123 -46 -214 -121 -269l59 -80zM224 318c0 -150 47 -227 147 -227c11 0 22 1 32 3l-61 82l86 59l60 -81c20 37 31 91 31 164
c0 151 -62 228 -148 228c-96 0 -147 -76 -147 -228z" />
    <glyph glyph-name="Euro.tab" 
d="M577 215c-3 -126 -85 -230 -238 -230c-154 0 -232 89 -253 265h-71v77h65c-1 13 -1 26 -1 40s0 28 1 41h-65v77h72c24 173 108 266 261 266c147 0 221 -99 228 -234h-130c-11 64 -37 116 -101 116c-61 0 -95 -46 -108 -148h158v-77h-163c-1 -12 -1 -25 -1 -39
c0 -15 0 -29 1 -42h164v-77h-158c15 -104 52 -145 108 -145c61 0 90 44 100 110h131z" />
    <glyph glyph-name="dollar.tab" 
d="M265 456v184c-62 -10 -88 -49 -88 -92c0 -58 37 -82 86 -92h2zM330 102h4c67 11 95 52 95 97c0 55 -33 84 -95 96l-4 1v-194zM330 -116h-66v105c-143 11 -231 91 -242 226h144c7 -55 35 -101 101 -112v205l-23 5c-130 26 -206 87 -206 219c0 114 79 204 227 215v81h66
v-81c154 -11 219 -101 228 -212h-145c-4 48 -26 93 -86 104v-196l21 -4c156 -31 222 -96 222 -218c0 -135 -81 -222 -241 -232v-105z" />
    <glyph glyph-name="dieresis.uc" horiz-adv-x="369" 
d="M224 828v137h136v-137h-136zM9 828v137h136v-137h-136z" />
    <glyph glyph-name="zero.tab" 
d="M34 368c0 252 102 383 264 383c173 0 268 -128 268 -383c0 -252 -98 -383 -268 -383c-173 0 -264 129 -264 383zM299 109c70 0 110 79 110 258c0 186 -38 260 -109 260s-110 -77 -110 -260c0 -186 37 -258 109 -258z" />
    <glyph glyph-name="one.tab" 
d="M546 0h-452v123h155v385h-153v102h16c46 0 87 8 114 30c26 20 40 55 41 102h138v-619h141v-123z" />
    <glyph glyph-name="nine.tab" 
d="M291 631c-53 0 -104 -36 -104 -129c0 -85 47 -129 104 -129c62 0 106 43 106 129c0 88 -51 129 -106 129zM45 181h141c13 -48 47 -78 98 -78c85 0 124 79 127 237h-2c-27 -41 -79 -75 -155 -75c-116 0 -223 78 -223 235c0 137 97 252 266 252c173 0 268 -116 268 -357
c0 -273 -103 -410 -281 -410c-150 0 -224 78 -239 196z" />
    <glyph glyph-name="eight.tab" 
d="M51 550c0 113 88 202 249 202s249 -89 249 -202c0 -86 -48 -142 -111 -165v-3c77 -20 135 -79 135 -180c0 -124 -109 -218 -273 -218c-172 0 -273 91 -273 217c0 101 59 161 135 181v3c-63 21 -111 80 -111 165zM300 641c-56 0 -101 -35 -101 -105
c0 -68 46 -106 101 -106c56 0 100 38 100 106c0 70 -45 105 -100 105zM300 92c65 0 118 41 118 115c0 75 -52 114 -118 114c-65 0 -117 -39 -117 -114c0 -74 53 -115 117 -115z" />
    <glyph glyph-name="seven.tab" 
d="M99 0l284 614h-348v127h528v-90l-301 -651h-163z" />
    <glyph glyph-name="six.tab" 
d="M554 563h-148c-9 45 -43 73 -90 73c-83 0 -122 -79 -130 -238h3c34 52 87 85 166 85c119 0 213 -83 213 -235c0 -144 -84 -263 -264 -263c-157 0 -269 98 -269 350c0 275 102 417 286 417c145 0 223 -84 233 -189zM308 104c56 0 105 41 105 133c0 85 -45 131 -105 131
c-62 0 -106 -42 -106 -131c0 -92 47 -133 106 -133z" />
    <glyph glyph-name="five.tab" 
d="M40 209h151c6 -73 48 -105 111 -105c62 0 115 44 115 136c0 88 -49 136 -114 136c-49 0 -82 -19 -105 -57h-134l22 422h439v-126h-310l-10 -183h2c29 32 72 59 144 59c123 0 217 -87 217 -242c0 -146 -85 -264 -266 -264c-192 0 -255 113 -262 224z" />
    <glyph glyph-name="space_uni0326.alt" horiz-adv-x="369" 
d="M280 782l-27 -165h-157l79 165h105z" />
    <glyph glyph-name="four.tab" 
d="M163 284h189v320h-3s-12 -37 -44 -90zM578 164h-85v-164h-145v164h-325v111l296 466h174v-455h85v-122z" />
    <glyph glyph-name="three.tab" 
d="M294 319h-56v113h47c63 0 107 39 107 102c0 58 -36 98 -98 98c-70 0 -107 -42 -111 -108h-145c3 113 78 229 260 229c161 0 245 -89 245 -204c0 -75 -43 -135 -118 -163v-2c80 -23 138 -79 138 -178c0 -119 -92 -221 -266 -221c-192 0 -260 111 -267 228h153
c7 -71 56 -106 116 -106c65 0 115 41 115 106c0 67 -43 106 -120 106z" />
    <glyph glyph-name="uni021A.sc" horiz-adv-x="592" 
d="M564 644v-120h-188v-524h-160v524h-188v120h536zM196 -220l24 156h154l-73 -156h-105z" />
    <glyph glyph-name="two.tab" 
d="M198 497h-152c2 160 101 255 264 255c171 0 246 -97 246 -210c0 -109 -47 -172 -157 -275l-148 -139v-1h305v-127h-524v92l251 249c82 81 116 130 116 191c0 63 -35 100 -94 100c-52 0 -107 -28 -107 -135z" />
    </font>
</defs>
</svg>
