<?xml version="1.0" standalone="no"?>
<!DOCTYPE svg PUBLIC "-//W3C//DTD SVG 1.1//EN" "http://www.w3.org/Graphics/SVG/1.1/DTD/svg11.dtd" >
<svg>
<metadata>
Created by FontForge 20110222 at Thu Nov 13 15:39:04 2014
 By www-data
Copyright2012 Kai Bernau and Susana Carvalho with Christian Schwartz under exclusive license to Schwartzco Inc.Commercial Type. All rights reserved.
</metadata>
<defs>
<font id="AtlasGroteskDetail-Light" horiz-adv-x="600" >
  <font-face 
    font-family="Atlas Grotesk Detail"
    font-weight="300"
    font-stretch="normal"
    units-per-em="1000"
    panose-1="0 0 0 0 0 0 0 0 0 0"
    ascent="812"
    descent="-188"
    x-height="524"
    cap-height="765"
    bbox="-191 -211 1209 1165"
    underline-thickness="50"
    underline-position="-25"
    stemh="57"
    stemv="69"
    unicode-range="U+0020-FB02"
  />
<missing-glyph horiz-adv-x="500" 
 />
    <glyph glyph-name=".notdef" horiz-adv-x="500" 
 />
    <glyph glyph-name="Eth" unicode="&#xd0;" horiz-adv-x="794" 
d="M368 0h-243v360h-88v60h88v345h238c202 0 364 -106 364 -375c0 -271 -157 -390 -359 -390zM196 62h165c166 0 292 79 292 325c0 230 -127 316 -289 316h-168v-283h233v-60h-233v-298z" />
    <glyph glyph-name="eth" unicode="&#xf0;" horiz-adv-x="567" 
d="M284 -13c-159 0 -230 115 -230 275c0 159 84 275 223 275c55 0 92 -15 116 -42h2c-25 54 -61 104 -106 150l-145 -55l-17 45l123 47c-34 31 -74 61 -116 88l66 20c36 -22 75 -50 113 -84l113 43l16 -45l-92 -35c89 -94 162 -225 162 -395c0 -177 -79 -287 -228 -287z
M285 483c-105 0 -160 -86 -160 -221s50 -220 159 -220c106 0 156 86 156 221c0 151 -51 220 -155 220z" />
    <glyph glyph-name="Lslash" unicode="&#x141;" horiz-adv-x="616" 
d="M113 0v289l-82 -33v63l82 33v413h71v-384l254 103v-63l-254 -103v-255h395v-63h-466z" />
    <glyph glyph-name="lslash" unicode="&#x142;" horiz-adv-x="281" 
d="M176 0h-70v333l-85 -65v67l85 65v388h70v-334l88 67v-68l-88 -67v-386z" />
    <glyph glyph-name="Scaron" unicode="&#x160;" horiz-adv-x="712" 
d="M321 827l-113 133h67l83 -88h1l83 88h60l-110 -133h-71zM617 561h-70c-8 85 -53 158 -180 158c-111 0 -184 -56 -184 -147c0 -82 38 -120 138 -138l128 -23c127 -23 191 -91 191 -198c0 -135 -98 -229 -277 -229c-176 0 -276 109 -285 229h72c11 -84 70 -171 214 -171
c148 0 204 77 204 165c0 73 -35 118 -134 136l-123 22c-150 27 -201 96 -201 203c0 126 107 208 257 208c156 0 245 -84 250 -215z" />
    <glyph glyph-name="scaron" unicode="&#x161;" horiz-adv-x="506" 
d="M216 630l-114 158h66l85 -110h1l85 110h59l-111 -158h-71zM443 398h-67c-8 51 -51 85 -122 85c-72 0 -117 -41 -117 -94c0 -51 29 -75 82 -82l94 -13c100 -14 141 -65 141 -145c0 -99 -81 -162 -200 -162c-106 0 -192 43 -206 160h68c11 -62 50 -105 139 -105
c81 0 131 42 131 101c0 47 -15 77 -91 88l-86 12c-88 12 -138 54 -138 140c0 92 75 154 185 154c109 0 178 -51 187 -139z" />
    <glyph glyph-name="Yacute" unicode="&#xdd;" horiz-adv-x="640" 
d="M285 0v335l-272 430h82l225 -365h2l229 365h77l-272 -426v-339h-71zM293 827l67 133h81l-91 -133h-57z" />
    <glyph glyph-name="yacute" unicode="&#xfd;" horiz-adv-x="493" 
d="M216 -1l-182 525h70l121 -359c14 -42 24 -76 24 -76h2s11 36 24 76l120 359h69l-195 -566c-40 -116 -78 -157 -174 -157c-25 0 -45 5 -59 9v58c17 -5 37 -9 56 -9c63 0 85 32 108 96zM224 630l62 158h78l-86 -158h-54z" />
    <glyph glyph-name="Thorn" unicode="&#xde;" horiz-adv-x="633" 
d="M336 236h6c110 2 171 49 171 153c0 111 -63 151 -173 151h-156v-304h152zM332 177h-148v-177h-71v765h71v-166h155c142 0 246 -59 246 -210c0 -144 -104 -212 -253 -212z" />
    <glyph glyph-name="thorn" unicode="&#xfe;" horiz-adv-x="605" 
d="M165 228c0 -94 50 -185 159 -185c104 0 156 87 156 225c0 118 -38 213 -154 213c-106 0 -161 -86 -161 -177v-76zM97 -188v976h70v-355h2c29 63 90 104 171 104c109 0 211 -67 211 -269c0 -190 -102 -281 -221 -281c-81 0 -142 50 -161 100h-2v-275h-70z" />
    <glyph glyph-name="Zcaron" unicode="&#x17d;" horiz-adv-x="653" 
d="M298 827l-113 133h67l83 -88h1l83 88h60l-110 -133h-71zM66 704v61h535v-55l-469 -649h469v-61h-556v55l469 649h-448z" />
    <glyph glyph-name="zcaron" unicode="&#x17e;" horiz-adv-x="506" 
d="M222 630l-114 158h66l85 -110h1l85 110h59l-111 -158h-71zM63 467v57h390v-59l-327 -407h335v-58h-413v61l325 406h-310z" />
    <glyph glyph-name="onehalf" unicode="&#xbd;" horiz-adv-x="871" 
d="M75 -40l550 825h65l-550 -825h-65zM127 335v306h-93v41h14c30 0 53 7 67 20c15 14 20 33 21 63h51v-430h-60zM579 290h-61c1 95 67 146 154 146c103 0 146 -58 146 -119c0 -59 -26 -98 -100 -161l-121 -104v-1h226v-51h-313v43l159 142c64 57 85 83 85 128s-32 75 -83 75
c-47 0 -89 -25 -92 -98z" />
    <glyph glyph-name="onequarter" unicode="&#xbc;" horiz-adv-x="805" 
d="M127 335v306h-93v41h14c30 0 53 7 67 20c15 14 20 33 21 63h51v-430h-60zM75 -40l550 825h65l-550 -825h-65zM494 151h158v214h-2s-9 -18 -28 -45zM769 103h-60v-103h-59v103h-218v45l212 282h65v-278h60v-49z" />
    <glyph glyph-name="onesuperior" unicode="&#xb9;" horiz-adv-x="278" 
d="M127 412v306h-93v42h14c30 0 53 7 67 20c15 14 20 33 21 63h51v-431h-60z" />
    <glyph glyph-name="threequarters" unicode="&#xbe;" horiz-adv-x="885" 
d="M209 528h-44v50h42c48 0 79 32 79 73c0 44 -35 72 -83 72c-54 0 -88 -27 -90 -82h-61c0 68 50 130 152 130c90 0 144 -48 144 -115c0 -47 -32 -84 -79 -99v-1c49 -10 92 -42 92 -107c0 -66 -59 -123 -160 -123c-110 0 -154 62 -157 130h61c7 -55 47 -82 100 -82
s94 31 94 77c0 53 -38 77 -90 77zM173 -40l550 825h65l-550 -825h-65zM575 151h158v214h-2s-9 -18 -28 -45zM850 103h-60v-103h-59v103h-218v45l212 282h65v-278h60v-49z" />
    <glyph glyph-name="threesuperior" unicode="&#xb3;" horiz-adv-x="406" 
d="M209 606h-44v49h42c48 0 79 32 79 74c0 44 -35 71 -83 71c-54 0 -88 -26 -90 -82h-61c0 69 50 130 152 130c90 0 144 -47 144 -114c0 -47 -32 -84 -79 -99v-1c49 -10 92 -42 92 -107c0 -66 -59 -124 -160 -124c-110 0 -154 63 -157 131h61c7 -55 47 -82 100 -82
s94 31 94 77c0 52 -38 77 -90 77z" />
    <glyph glyph-name="twosuperior" unicode="&#xb2;" horiz-adv-x="396" 
d="M348 412h-313v43l159 142c65 55 85 84 85 128c0 46 -32 75 -83 75c-47 0 -89 -25 -92 -97h-61c1 94 67 145 154 145c103 0 146 -57 146 -119c0 -58 -26 -97 -100 -160l-121 -105v-1h226v-51z" />
    <glyph glyph-name="brokenbar" unicode="&#xa6;" horiz-adv-x="289" 
d="M174 788v-400h-59v400h59zM174 -130h-59v446h59v-446z" />
    <glyph glyph-name="minus" unicode="&#x2212;" horiz-adv-x="629" 
d="M88 327v61h457v-61h-457z" />
    <glyph glyph-name="multiply" unicode="&#xd7;" horiz-adv-x="632" 
d="M146 141l-43 42l171 170l-171 170l43 42l170 -171l169 171l43 -42l-171 -170l172 -171l-43 -43l-171 172z" />
    <glyph glyph-name="space" unicode=" " horiz-adv-x="265" 
 />
    <glyph glyph-name="exclam" unicode="!" horiz-adv-x="278" 
d="M139 -10c-31 0 -54 23 -54 54s23 55 54 55s55 -24 55 -55s-24 -54 -55 -54zM109 210l-7 578h75l-9 -578h-59z" />
    <glyph glyph-name="quotedbl" unicode="&#x22;" horiz-adv-x="325" 
d="M214 560l-17 205h80l-14 -205h-49zM64 560l-16 205h80l-15 -205h-49z" />
    <glyph glyph-name="numbersign" unicode="#" horiz-adv-x="656" 
d="M240 362h148l23 156h-148zM143 99l29 209h-109v54h118l22 156h-110v56h118l29 191h59l-28 -191h147l29 191h59l-28 -191h116v-56h-124l-22 -156h116v-54h-125l-30 -209h-59l30 209h-148l-30 -209h-59z" />
    <glyph glyph-name="dollar" unicode="$" horiz-adv-x="616" 
d="M278 414v280c-91 -9 -143 -66 -143 -141c0 -81 47 -124 128 -137zM332 52l5 1c109 11 152 74 152 147c0 71 -37 118 -140 136l-17 3v-287zM332 -116h-54v111c-161 8 -223 103 -230 220h68c8 -78 43 -155 162 -163v296l-23 4c-128 22 -187 89 -187 201
c0 106 83 187 210 196v90h54v-90c135 -10 206 -89 210 -208h-67c-6 73 -41 141 -143 152v-288l29 -5c139 -23 197 -87 197 -195c0 -115 -74 -200 -226 -210v-111z" />
    <glyph glyph-name="percent" unicode="%" horiz-adv-x="887" 
d="M138 -40l551 821h66l-551 -821h-66zM224 382c-94 0 -165 66 -165 180c0 115 74 179 165 179c92 0 165 -64 165 -179c0 -114 -73 -180 -165 -180zM224 432c55 0 100 43 100 129c0 88 -45 131 -100 131c-57 0 -101 -41 -101 -131c0 -87 44 -129 101 -129zM662 -6
c-94 0 -164 66 -164 180c0 115 73 179 164 179c93 0 165 -64 165 -179c0 -114 -72 -180 -165 -180zM662 44c55 0 100 43 100 129c0 88 -45 131 -100 131c-56 0 -101 -41 -101 -131c0 -87 45 -129 101 -129z" />
    <glyph glyph-name="ampersand" unicode="&#x26;" horiz-adv-x="684" 
d="M191 614c0 -60 25 -99 80 -165c97 67 137 112 137 179c0 54 -36 103 -104 103c-69 0 -113 -50 -113 -117zM252 372l-6 -4c-91 -62 -130 -111 -130 -183c0 -112 91 -146 166 -146c87 0 143 34 178 84c-14 17 -30 36 -47 57zM669 -3h-22c-63 0 -101 27 -150 82
c-45 -57 -113 -95 -215 -95c-151 0 -238 82 -238 199c0 90 47 150 172 232c-57 68 -92 113 -92 196c0 99 74 173 181 173c105 0 169 -67 170 -150s-59 -150 -169 -227l144 -172c15 -19 29 -35 42 -50c21 58 27 125 28 185h60c-3 -80 -15 -164 -48 -233
c65 -74 81 -80 137 -80v-60z" />
    <glyph glyph-name="quotesingle" unicode="'" horiz-adv-x="176" 
d="M64 560l-16 205h80l-15 -205h-49z" />
    <glyph glyph-name="parenleft" unicode="(" horiz-adv-x="301" 
d="M265 -130h-56c-58 118 -125 260 -125 459c0 201 67 341 125 459h56c-53 -122 -110 -250 -110 -459c0 -208 57 -336 110 -459z" />
    <glyph glyph-name="parenright" unicode=")" horiz-adv-x="301" 
d="M37 -130c53 122 109 250 109 459c0 208 -56 336 -109 459h56c57 -118 125 -259 125 -459s-68 -341 -125 -459h-56z" />
    <glyph glyph-name="asterisk" unicode="*" horiz-adv-x="449" 
d="M226 565h-2l-85 -142l-57 43l110 120v2l-153 39l25 66l141 -69l2 1l-17 163h70l-18 -162l2 -2l141 68l25 -64l-153 -39v-2l111 -120l-57 -44z" />
    <glyph glyph-name="plus" unicode="+" horiz-adv-x="633" 
d="M346 328v-197h-61v197h-197v59h197v196h61v-196h198v-59h-198z" />
    <glyph glyph-name="comma" unicode="," horiz-adv-x="212" 
d="M41 -117l41 226h89l-78 -226h-52z" />
    <glyph glyph-name="hyphen" unicode="-" horiz-adv-x="405" 
d="M60 303v62h285v-62h-285z" />
    <glyph glyph-name="period" unicode="." horiz-adv-x="225" 
d="M112 -10c-31 0 -54 23 -54 54s23 55 54 55s55 -24 55 -55s-24 -54 -55 -54z" />
    <glyph glyph-name="slash" unicode="/" horiz-adv-x="561" 
d="M8 -130l454 918h66l-454 -918h-66z" />
    <glyph glyph-name="zero" unicode="0" horiz-adv-x="661" 
d="M68 368c0 258 103 384 262 384c157 0 263 -127 263 -384c0 -256 -104 -384 -263 -384c-160 0 -262 128 -262 384zM330 40c115 0 189 122 189 327c0 212 -71 327 -189 327c-117 0 -188 -109 -188 -327c0 -208 70 -327 188 -327z" />
    <glyph glyph-name="one" unicode="1" horiz-adv-x="422" 
d="M212 0v569h-151v53h30c51 0 83 7 104 26c21 20 26 48 28 97h59v-745h-70z" />
    <glyph glyph-name="two" unicode="2" horiz-adv-x="607" 
d="M149 522h-71c-1 146 105 230 232 230c159 0 225 -98 225 -196c0 -105 -44 -164 -157 -272l-231 -220v-2h395v-62h-485v60l257 251c94 91 148 144 148 242c0 84 -57 141 -150 141c-87 0 -163 -54 -163 -172z" />
    <glyph glyph-name="three" unicode="3" horiz-adv-x="620" 
d="M317 346h-36v63h36c96 0 147 70 147 145c0 84 -56 140 -149 140c-95 0 -158 -52 -162 -166h-67c-1 123 79 224 231 224c131 0 217 -77 217 -193c0 -96 -67 -154 -127 -177v-1c67 -17 148 -66 148 -186c0 -115 -95 -210 -245 -210c-173 0 -240 106 -243 220h68
c10 -107 78 -162 181 -162c96 0 169 62 169 151c0 102 -73 152 -168 152z" />
    <glyph glyph-name="four" unicode="4" horiz-adv-x="607" 
d="M110 246h281v404h-2s-15 -31 -48 -77zM562 186h-103v-186h-68v186h-355v57l353 498h70v-494h103v-61z" />
    <glyph glyph-name="five" unicode="5" horiz-adv-x="615" 
d="M476 235c0 129 -79 187 -171 187c-64 0 -119 -25 -152 -71h-59l34 390h383v-61h-323l-23 -259h2c25 31 80 61 150 61c112 0 230 -61 230 -246c0 -159 -100 -251 -248 -251c-158 0 -228 104 -234 214h68c10 -103 77 -156 168 -156c79 0 175 50 175 192z" />
    <glyph glyph-name="six" unicode="6" horiz-adv-x="626" 
d="M545 587h-67c-11 65 -56 110 -140 110c-147 0 -195 -160 -199 -343h3c32 77 107 120 197 120c112 0 228 -72 228 -238c0 -148 -95 -252 -248 -252c-140 0 -249 94 -249 335c0 291 92 433 268 433c126 0 197 -62 207 -165zM322 43c84 0 174 55 174 185
c0 120 -74 185 -172 185c-99 0 -173 -60 -173 -181c0 -126 84 -189 171 -189z" />
    <glyph glyph-name="seven" unicode="7" horiz-adv-x="538" 
d="M109 0l310 678h-378v63h459v-47l-318 -694h-73z" />
    <glyph glyph-name="eight" unicode="8" horiz-adv-x="613" 
d="M81 553c0 112 85 199 225 199s225 -87 225 -199c0 -92 -62 -152 -130 -171v-2c69 -13 152 -73 152 -187c0 -119 -95 -209 -247 -209c-153 0 -247 89 -247 209c0 116 88 174 152 187v2c-68 20 -130 80 -130 171zM306 696c-82 0 -155 -43 -155 -144
c0 -100 75 -144 155 -144c77 0 154 44 154 144c0 101 -76 144 -154 144zM306 39c95 0 177 49 177 154c0 106 -86 159 -177 159c-89 0 -176 -53 -176 -159s83 -154 176 -154z" />
    <glyph glyph-name="nine" unicode="9" horiz-adv-x="620" 
d="M304 694c-83 0 -171 -53 -171 -180c0 -116 73 -179 168 -179c97 0 171 62 171 175c0 119 -79 184 -168 184zM78 154h68c11 -65 68 -114 143 -114c142 0 191 114 192 349h-3c-30 -73 -102 -114 -189 -114c-107 0 -227 70 -227 235c0 141 99 241 243 241
c154 0 247 -98 247 -335c0 -311 -81 -432 -261 -432c-114 0 -197 59 -213 170z" />
    <glyph glyph-name="colon" unicode=":" horiz-adv-x="257" 
d="M133 403c-31 0 -54 23 -54 54s23 55 54 55s55 -24 55 -55s-24 -54 -55 -54zM133 -10c-31 0 -54 23 -54 54s23 55 54 55s55 -24 55 -55s-24 -54 -55 -54z" />
    <glyph glyph-name="semicolon" unicode=";" horiz-adv-x="255" 
d="M81 406v96h95v-96h-95zM96 -117h-53l42 226h88z" />
    <glyph glyph-name="less" unicode="&#x3c;" horiz-adv-x="633" 
d="M544 83l-459 222v53l459 223v-68l-379 -181l379 -181v-68z" />
    <glyph glyph-name="equal" unicode="=" horiz-adv-x="633" 
d="M88 414v61h457v-61h-457zM545 242h-457v61h457v-61z" />
    <glyph glyph-name="greater" unicode="&#x3e;" horiz-adv-x="633" 
d="M89 570l459 -223v-51l-459 -223v67l379 181l-379 181v68z" />
    <glyph glyph-name="question" unicode="?" horiz-adv-x="535" 
d="M260 -10c-31 0 -54 23 -54 54s23 55 54 55s55 -24 55 -55s-24 -54 -55 -54zM427 599c0 85 -58 139 -154 139c-104 0 -171 -70 -168 -191h-65c-5 156 95 250 234 250c154 0 222 -94 222 -191c0 -102 -49 -150 -108 -203l-43 -39c-40 -37 -53 -44 -53 -103v-56h-63v63
c0 78 18 92 82 148l45 39c47 41 71 83 71 144z" />
    <glyph glyph-name="at" unicode="@" horiz-adv-x="1009" 
d="M723 61c-63 0 -114 22 -123 94h-3c-35 -66 -93 -100 -158 -100c-100 0 -151 71 -152 165c-1 158 82 291 223 291c67 0 113 -38 127 -88h3l13 72h62l-54 -273c-13 -66 4 -111 68 -111c67 0 159 59 159 234c0 196 -148 344 -373 344c-230 0 -402 -184 -402 -425
c0 -243 158 -396 380 -396c114 0 210 39 271 87l32 -37c-67 -55 -168 -102 -309 -102c-258 0 -440 180 -440 448c0 274 204 475 469 475c256 0 432 -158 432 -391c0 -221 -141 -287 -225 -287zM453 112c75 0 135 67 152 158l5 26c14 71 -5 158 -96 158
c-109 0 -157 -121 -157 -227c0 -67 28 -115 96 -115z" />
    <glyph glyph-name="A" unicode="A" horiz-adv-x="723" 
d="M360 696c-2 -5 -16 -50 -32 -94l-108 -294h279l-107 295c-17 46 -30 93 -30 93h-2zM611 0l-91 250h-321l-91 -250h-71l283 765h84l282 -765h-75z" />
    <glyph glyph-name="B" unicode="B" horiz-adv-x="722" 
d="M384 0h-271v765h298c124 0 226 -59 226 -183c0 -94 -52 -156 -143 -173v-2c101 -16 165 -93 165 -186c0 -165 -122 -221 -275 -221zM184 437h216c85 0 163 29 163 136c0 90 -64 133 -154 133h-225v-269zM184 59h197c132 0 204 50 204 162c0 109 -78 156 -191 156h-210
v-318z" />
    <glyph glyph-name="C" unicode="C" horiz-adv-x="768" 
d="M407 719c-173 0 -262 -143 -262 -339c0 -205 93 -337 265 -337c145 0 205 92 215 179h71c-12 -137 -121 -238 -292 -238c-192 0 -335 124 -335 396c0 252 146 397 338 397c130 0 272 -63 289 -232h-73c-11 84 -72 174 -216 174z" />
    <glyph glyph-name="D" unicode="D" horiz-adv-x="782" 
d="M113 0v765h238c202 0 364 -106 364 -375c0 -271 -158 -390 -359 -390h-243zM184 62h165c166 0 292 79 292 325c0 230 -127 316 -289 316h-168v-641z" />
    <glyph glyph-name="E" unicode="E" horiz-adv-x="679" 
d="M113 0v765h488v-63h-417v-281h380v-62h-380v-296h421v-63h-492z" />
    <glyph glyph-name="F" unicode="F" horiz-adv-x="612" 
d="M184 333v-333h-71v765h447v-63h-376v-307h342v-62h-342z" />
    <glyph glyph-name="G" unicode="G" horiz-adv-x="818" 
d="M412 719c-173 0 -269 -138 -269 -344c0 -208 98 -333 266 -333c150 0 240 94 240 232v41h-234v63h303v-378h-64v121h-3c-35 -72 -112 -137 -248 -137c-183 0 -334 115 -334 395c0 256 149 397 343 397c161 0 269 -85 288 -214h-73c-19 97 -103 157 -215 157z" />
    <glyph glyph-name="H" unicode="H" horiz-adv-x="798" 
d="M184 359v-359h-71v765h71v-344h430v344h71v-765h-71v359h-430z" />
    <glyph glyph-name="I" unicode="I" horiz-adv-x="298" 
d="M113 0v765h71v-765h-71z" />
    <glyph glyph-name="J" unicode="J" horiz-adv-x="423" 
d="M65 -1h-40v60h26c160 0 196 46 196 180v526h72v-536c0 -159 -78 -230 -254 -230z" />
    <glyph glyph-name="K" unicode="K" horiz-adv-x="715" 
d="M184 264v-264h-71v765h71v-414l397 414h88l-309 -322l329 -443h-86l-295 395z" />
    <glyph glyph-name="L" unicode="L" horiz-adv-x="616" 
d="M113 0v765h71v-702h395v-63h-466z" />
    <glyph glyph-name="M" unicode="M" horiz-adv-x="968" 
d="M113 0v765h98l244 -599c18 -45 29 -78 29 -78h2s10 33 28 78l245 599h96v-765h-72v660h-3s-12 -39 -36 -98l-231 -562h-63l-228 562c-23 57 -37 98 -37 98h-3v-660h-69z" />
    <glyph glyph-name="N" unicode="N" horiz-adv-x="801" 
d="M113 0v765h88l383 -607c23 -37 34 -62 34 -62h2v669h69v-765h-89l-380 605c-24 38 -36 63 -36 63h-2v-668h-69z" />
    <glyph glyph-name="O" unicode="O" horiz-adv-x="816" 
d="M69 379c0 278 160 397 338 397c180 0 340 -119 340 -397c0 -276 -159 -395 -340 -395s-338 119 -338 395zM407 41c153 0 266 116 266 338c0 224 -112 340 -266 340c-152 0 -264 -113 -264 -340c0 -223 110 -338 264 -338z" />
    <glyph glyph-name="P" unicode="P" horiz-adv-x="646" 
d="M337 304h-153v-304h-71v765h228c158 0 256 -81 256 -227c0 -148 -97 -234 -260 -234zM184 361h155c107 0 185 52 185 175c0 112 -68 170 -183 170h-157v-345z" />
    <glyph glyph-name="Q" unicode="Q" horiz-adv-x="816" 
d="M69 379c0 278 160 397 338 397c180 0 340 -119 340 -397c0 -164 -55 -273 -145 -330v-4c82 -4 126 -35 168 -96l-58 -44c-47 70 -90 93 -167 93c-44 0 -73 -12 -138 -12c-181 0 -338 117 -338 393zM407 41c155 0 266 109 266 338c0 224 -112 340 -266 340
c-152 0 -264 -113 -264 -340c0 -223 110 -338 264 -338z" />
    <glyph glyph-name="R" unicode="R" horiz-adv-x="708" 
d="M184 385h201c98 0 177 48 177 166c0 101 -69 154 -175 154h-203v-320zM560 0l-166 326h-210v-326h-71v765h274c55 0 107 -11 150 -34c59 -33 98 -91 98 -179c0 -129 -82 -193 -167 -214v-2l174 -336h-82z" />
    <glyph glyph-name="S" unicode="S" horiz-adv-x="712" 
d="M617 561h-70c-8 85 -53 158 -180 158c-111 0 -184 -56 -184 -147c0 -82 38 -120 138 -138l128 -23c127 -23 191 -91 191 -198c0 -135 -98 -229 -277 -229c-176 0 -276 109 -285 229h72c11 -84 70 -171 214 -171c148 0 204 77 204 165c0 73 -35 118 -134 136l-123 22
c-150 27 -201 96 -201 203c0 126 107 208 257 208c156 0 245 -84 250 -215z" />
    <glyph glyph-name="T" unicode="T" horiz-adv-x="651" 
d="M636 765v-62h-275v-703h-71v703h-274v62h620z" />
    <glyph glyph-name="U" unicode="U" horiz-adv-x="765" 
d="M99 255v510h72v-436c0 -76 0 -165 41 -217c39 -48 98 -69 173 -69s133 21 171 69c41 52 40 141 40 217v436h70v-510c0 -192 -114 -270 -283 -270c-171 0 -284 77 -284 270z" />
    <glyph glyph-name="V" unicode="V" horiz-adv-x="708" 
d="M315 0l-283 765h75l217 -596c22 -61 30 -99 30 -99h2s9 38 31 98l218 597h71l-282 -765h-79z" />
    <glyph glyph-name="W" unicode="W" horiz-adv-x="1047" 
d="M330 0h-75l-221 765h72l166 -584c16 -55 21 -92 21 -92h2s5 37 21 92l165 584h85l165 -583c15 -53 23 -95 23 -95h2s7 42 22 94l165 584h70l-220 -765h-79l-162 566c-22 77 -29 120 -29 120h-2s-8 -42 -30 -118z" />
    <glyph glyph-name="X" unicode="X" horiz-adv-x="714" 
d="M50 0l262 396l-244 369h85l200 -309h2l204 309h77l-243 -364l270 -401h-86l-223 341h-2l-224 -341h-78z" />
    <glyph glyph-name="Y" unicode="Y" horiz-adv-x="640" 
d="M285 0v335l-272 430h82l225 -365h2l229 365h77l-272 -426v-339h-71z" />
    <glyph glyph-name="Z" unicode="Z" horiz-adv-x="653" 
d="M66 704v61h535v-55l-469 -649h469v-61h-556v55l469 649h-448z" />
    <glyph glyph-name="bracketleft" unicode="[" horiz-adv-x="342" 
d="M114 -132v922h204v-52h-138v-818h138v-52h-204z" />
    <glyph glyph-name="backslash" unicode="\" horiz-adv-x="561" 
d="M487 -130l-454 918h66l454 -918h-66z" />
    <glyph glyph-name="bracketright" unicode="]" horiz-adv-x="342" 
d="M228 790v-922h-204v52h138v818h-138v52h204z" />
    <glyph glyph-name="asciicircum" unicode="^" horiz-adv-x="408" 
d="M236 788l160 -282h-69l-123 215h-1l-127 -215h-64l164 282h60z" />
    <glyph glyph-name="underscore" unicode="_" horiz-adv-x="398" 
d="M-2 -189v53h402v-53h-402z" />
    <glyph glyph-name="grave" unicode="`" horiz-adv-x="369" 
d="M183 788l64 -158h-54l-87 158h77z" />
    <glyph glyph-name="a" unicode="a" horiz-adv-x="552" 
d="M229 48c75 0 161 59 161 188v22c-130 -8 -196 -16 -229 -40c-24 -17 -36 -43 -36 -76c0 -62 41 -94 104 -94zM147 385h-66c1 82 72 152 190 152c145 0 186 -80 186 -193v-228c0 -48 14 -65 51 -66v-55h-9c-75 0 -102 33 -106 103h-2c-32 -68 -96 -106 -176 -106
c-98 0 -161 54 -161 147c0 60 26 103 72 128c52 29 138 38 265 45v33c0 82 -29 139 -122 139c-80 0 -118 -45 -122 -99z" />
    <glyph glyph-name="b" unicode="b" horiz-adv-x="605" 
d="M97 0v788h70v-354h1c31 64 91 103 172 103c109 0 211 -70 211 -272c0 -190 -101 -278 -221 -278c-85 0 -141 50 -166 103h-2v-90h-65zM324 43c104 0 156 84 156 222c0 119 -38 216 -154 216c-107 0 -161 -85 -161 -173v-82c0 -92 50 -183 159 -183z" />
    <glyph glyph-name="c" unicode="c" horiz-adv-x="530" 
d="M486 378h-69c-6 53 -49 104 -131 104c-101 0 -161 -82 -161 -219c0 -135 46 -220 158 -220c98 0 128 65 137 118h67c-16 -115 -97 -174 -205 -174c-152 0 -229 107 -229 271c0 160 85 280 232 280c95 0 188 -44 201 -160z" />
    <glyph glyph-name="d" unicode="d" horiz-adv-x="605" 
d="M440 219v82c0 98 -58 180 -154 180c-110 0 -161 -91 -161 -218c0 -130 44 -220 155 -220c106 0 160 87 160 176zM508 788v-788h-66v91h-3c-27 -54 -81 -104 -166 -104c-105 0 -220 63 -220 272c0 179 90 278 225 278c78 0 134 -41 158 -99h2v350h70z" />
    <glyph glyph-name="e" unicode="e" horiz-adv-x="545" 
d="M423 299v5c-1 82 -29 179 -140 179c-98 0 -150 -76 -159 -184h299zM485 131c-19 -80 -96 -144 -199 -144c-160 0 -233 107 -233 271c0 159 81 279 230 279c155 0 210 -124 210 -248v-43h-370c4 -127 54 -204 164 -204c92 0 123 60 132 89h66z" />
    <glyph glyph-name="f" unicode="f" horiz-adv-x="346" 
d="M191 470v-470h-70v470h-102v54h102v132c0 90 57 135 146 135c17 0 34 -1 53 -5v-58c-12 3 -28 5 -50 5c-54 0 -79 -25 -79 -89v-120h133v-54h-133z" />
    <glyph glyph-name="g" unicode="g" horiz-adv-x="607" 
d="M442 230v73c0 92 -54 178 -162 178c-105 0 -155 -88 -155 -212c0 -121 41 -211 159 -211c100 0 158 82 158 172zM281 -199c-111 0 -195 53 -208 143h68c10 -47 54 -88 142 -88s158 40 158 166v83h-1c-30 -60 -94 -102 -175 -102c-100 0 -212 66 -212 266
c0 175 94 268 226 268c87 0 141 -51 163 -102h2v89h65v-503c0 -151 -96 -220 -228 -220z" />
    <glyph glyph-name="h" unicode="h" horiz-adv-x="596" 
d="M433 0v332c0 43 -4 83 -23 109c-18 25 -47 37 -88 37c-108 0 -155 -80 -155 -169v-309h-70v788h70v-356h2c24 58 82 105 169 105c113 0 164 -61 164 -181v-356h-69z" />
    <glyph glyph-name="i" unicode="i" horiz-adv-x="265" 
d="M133 647c-28 0 -50 22 -50 50c0 27 22 49 50 49s49 -22 49 -49c0 -28 -21 -50 -49 -50zM97 0v524h70v-524h-70z" />
    <glyph glyph-name="j" unicode="j" horiz-adv-x="265" 
d="M133 647c-28 0 -50 22 -50 50c0 27 22 49 50 49s49 -22 49 -49c0 -28 -21 -50 -49 -50zM28 -197c-18 0 -34 2 -52 6v59c13 -4 28 -6 48 -6c52 0 73 25 73 88v574h70v-584c0 -93 -56 -137 -139 -137z" />
    <glyph glyph-name="k" unicode="k" horiz-adv-x="549" 
d="M167 170v-170h-70v788h70v-531l239 267h83l-180 -197l210 -327h-82l-175 275z" />
    <glyph glyph-name="l" unicode="l" horiz-adv-x="264" 
d="M97 0v788h70v-788h-70z" />
    <glyph glyph-name="m" unicode="m" horiz-adv-x="930" 
d="M97 0v524h65v-93h2c27 59 87 106 173 106c81 0 138 -34 156 -113h2c26 62 89 113 177 113c112 0 164 -61 164 -181v-356h-69v331c0 44 -4 84 -23 111c-18 25 -47 36 -88 36c-108 0 -155 -79 -155 -169v-309h-69v332c0 43 -4 83 -23 109c-18 25 -46 37 -87 37
c-108 0 -155 -79 -155 -168v-310h-70z" />
    <glyph glyph-name="n" unicode="n" horiz-adv-x="596" 
d="M433 0v331c0 44 -4 84 -23 110c-18 25 -47 37 -88 37c-107 0 -155 -79 -155 -169v-309h-70v524h65v-93h2c28 59 87 106 174 106c113 0 164 -61 164 -181v-356h-69z" />
    <glyph glyph-name="o" unicode="o" horiz-adv-x="565" 
d="M283 -13c-157 0 -230 115 -230 275c0 158 85 275 230 275c158 0 229 -117 229 -275c0 -161 -83 -275 -229 -275zM283 483c-103 0 -159 -86 -159 -221s50 -220 160 -220c106 0 156 85 156 220s-48 221 -157 221z" />
    <glyph glyph-name="p" unicode="p" horiz-adv-x="605" 
d="M165 228c0 -94 50 -185 159 -185c104 0 156 87 156 225c0 118 -38 213 -154 213c-105 0 -161 -86 -161 -177v-76zM97 -188v712h66v-93h2c33 65 94 106 175 106c109 0 211 -67 211 -269c0 -190 -102 -281 -222 -281c-80 0 -141 50 -160 100h-2v-275h-70z" />
    <glyph glyph-name="q" unicode="q" horiz-adv-x="605" 
d="M508 524v-712h-70v274h-3c-24 -49 -77 -99 -162 -99c-105 0 -220 62 -220 272c0 179 90 278 225 278c78 0 137 -39 161 -101h2v88h67zM280 43c106 0 160 87 160 176v82c0 98 -58 180 -154 180c-110 0 -161 -91 -161 -218c0 -130 44 -220 155 -220z" />
    <glyph glyph-name="r" unicode="r" horiz-adv-x="378" 
d="M97 0v524h65v-109h2c22 61 86 119 165 119h9v-69h-14c-82 0 -157 -54 -157 -178v-287h-70z" />
    <glyph glyph-name="s" unicode="s" horiz-adv-x="506" 
d="M443 398h-67c-8 51 -51 85 -122 85c-72 0 -117 -41 -117 -94c0 -51 29 -75 82 -82l94 -13c100 -14 141 -65 141 -145c0 -99 -81 -162 -200 -162c-106 0 -192 43 -206 160h68c11 -62 50 -105 139 -105c81 0 131 42 131 101c0 47 -15 77 -91 88l-86 12
c-88 12 -138 54 -138 140c0 92 75 154 185 154c109 0 178 -51 187 -139z" />
    <glyph glyph-name="t" unicode="t" horiz-adv-x="362" 
d="M127 681h65v-157h134v-54h-134v-339c0 -56 24 -80 84 -80c30 0 60 6 60 6v-58s-30 -8 -77 -8c-101 0 -136 54 -136 132v347h-100v52h23c67 0 81 15 81 111v48z" />
    <glyph glyph-name="u" unicode="u" horiz-adv-x="595" 
d="M164 524v-335c0 -42 4 -82 23 -107c18 -24 48 -37 91 -37c101 0 151 78 151 196v283h69v-524h-65v97h-2c-25 -58 -81 -110 -168 -110c-112 0 -168 59 -168 179v358h69z" />
    <glyph glyph-name="v" unicode="v" horiz-adv-x="492" 
d="M209 0l-182 524h71l124 -367c13 -37 24 -75 24 -75h2s11 38 24 75l126 367h66l-181 -524h-74z" />
    <glyph glyph-name="w" unicode="w" horiz-adv-x="817" 
d="M196 0l-165 524h71l117 -388c8 -28 15 -55 15 -55h2s8 28 17 56l121 387h73l121 -387c7 -23 17 -56 17 -56h2s7 33 14 56l117 387h68l-165 -524h-75l-109 349c-13 42 -27 92 -27 92h-2s-14 -50 -27 -92l-109 -349h-76z" />
    <glyph glyph-name="x" unicode="x" horiz-adv-x="494" 
d="M21 0l185 271l-172 253h81l131 -198h2l133 198h76l-170 -250l188 -274h-81l-148 220h-2l-146 -220h-77z" />
    <glyph glyph-name="y" unicode="y" horiz-adv-x="493" 
d="M216 -1l-182 525h70l121 -359c14 -42 24 -76 24 -76h2s11 36 24 76l120 359h69l-195 -566c-40 -116 -78 -157 -174 -157c-25 0 -45 5 -59 9v58c17 -5 37 -9 56 -9c63 0 85 32 108 96z" />
    <glyph glyph-name="z" unicode="z" horiz-adv-x="506" 
d="M63 467v57h390v-59l-327 -407h335v-58h-413v61l325 406h-310z" />
    <glyph glyph-name="braceleft" unicode="{" horiz-adv-x="334" 
d="M45 299h-22v61h22c61 0 83 21 83 79v220c0 95 53 133 182 133v-50c-107 0 -118 -29 -118 -112v-179c0 -51 -8 -110 -73 -120v-4c65 -10 73 -69 73 -118v-181c0 -83 11 -112 118 -112v-50c-129 0 -182 38 -182 137v217c0 58 -22 79 -83 79z" />
    <glyph glyph-name="bar" unicode="|" horiz-adv-x="289" 
d="M115 -130v918h59v-918h-59z" />
    <glyph glyph-name="braceright" unicode="}" horiz-adv-x="334" 
d="M311 359v-61h-22c-62 0 -83 -21 -83 -79v-220c0 -95 -53 -133 -182 -133v50c107 0 118 29 118 112v180c0 50 8 109 73 119v4c-65 10 -73 69 -73 118v181c0 83 -11 112 -118 112v50c129 0 182 -38 182 -137v-217c0 -58 21 -79 83 -79h22z" />
    <glyph glyph-name="asciitilde" unicode="~" horiz-adv-x="390" 
d="M16 303c0 67 37 123 102 123c66 0 114 -67 157 -67c25 0 46 19 49 68h48c1 -67 -36 -122 -101 -122c-67 0 -113 66 -157 66c-25 0 -47 -19 -49 -68h-49z" />
    <glyph glyph-name="Adieresis" unicode="&#xc4;" horiz-adv-x="723" 
d="M360 696c-2 -5 -16 -50 -32 -94l-108 -294h279l-107 295c-17 46 -30 93 -30 93h-2zM611 0l-91 250h-321l-91 -250h-71l283 765h84l282 -765h-75zM429 839v84h78v-84h-78zM213 839v84h78v-84h-78z" />
    <glyph glyph-name="Aring" unicode="&#xc5;" horiz-adv-x="723" 
d="M360 696c-2 -5 -16 -50 -32 -94l-108 -294h279l-107 295c-17 46 -30 93 -30 93h-2zM611 0l-91 250h-321l-91 -250h-71l283 765h84l282 -765h-75zM361 814c-63 0 -102 41 -102 101c0 59 41 101 102 101c65 0 103 -42 103 -101c0 -60 -41 -101 -103 -101zM361 978
c-33 0 -54 -27 -54 -63c0 -37 19 -62 54 -62c34 0 55 25 55 62c0 36 -20 63 -55 63z" />
    <glyph glyph-name="Ccedilla" unicode="&#xc7;" horiz-adv-x="768" 
d="M402 -209c-54 0 -76 29 -79 62h51c2 -13 12 -23 31 -23c22 0 33 14 33 39c0 23 -11 38 -33 38c-12 0 -21 -5 -27 -12h-48l42 90c-176 14 -303 138 -303 395c0 252 146 397 338 397c130 0 272 -63 289 -232h-73c-11 84 -72 174 -216 174c-173 0 -262 -143 -262 -339
c0 -205 93 -337 265 -337c145 0 205 92 215 179h71c-12 -135 -118 -235 -284 -238l-26 -54h2c8 7 19 12 35 12c42 0 67 -28 67 -74c0 -38 -26 -77 -88 -77z" />
    <glyph glyph-name="Eacute" unicode="&#xc9;" horiz-adv-x="679" 
d="M331 827l67 133h81l-91 -133h-57zM113 0v765h488v-63h-417v-281h380v-62h-380v-296h421v-63h-492z" />
    <glyph glyph-name="Ntilde" unicode="&#xd1;" horiz-adv-x="801" 
d="M229 828c0 62 28 123 98 123c67 0 106 -67 147 -67c30 0 45 27 49 70h48c0 -62 -30 -124 -99 -124c-66 0 -105 67 -147 67c-30 0 -44 -27 -49 -69h-47zM113 0v765h88l383 -607c23 -37 34 -62 34 -62h2v669h69v-765h-89l-380 605c-24 38 -36 63 -36 63h-2v-668h-69z" />
    <glyph glyph-name="Odieresis" unicode="&#xd6;" horiz-adv-x="816" 
d="M476 839v84h78v-84h-78zM260 839v84h78v-84h-78zM69 379c0 278 160 397 338 397c180 0 340 -119 340 -397c0 -276 -159 -395 -340 -395s-338 119 -338 395zM407 41c153 0 266 116 266 338c0 224 -112 340 -266 340c-152 0 -264 -113 -264 -340c0 -223 110 -338 264 -338z
" />
    <glyph glyph-name="Udieresis" unicode="&#xdc;" horiz-adv-x="765" 
d="M99 255v510h72v-436c0 -76 0 -165 41 -217c39 -48 98 -69 173 -69s133 21 171 69c41 52 40 141 40 217v436h70v-510c0 -192 -114 -270 -283 -270c-171 0 -284 77 -284 270zM450 839v84h78v-84h-78zM234 839v84h78v-84h-78z" />
    <glyph glyph-name="aacute" unicode="&#xe1;" horiz-adv-x="552" 
d="M229 48c75 0 161 59 161 188v22c-130 -8 -196 -16 -229 -40c-24 -17 -36 -43 -36 -76c0 -62 41 -94 104 -94zM147 385h-66c1 82 72 152 190 152c145 0 186 -80 186 -193v-228c0 -48 14 -65 51 -66v-55h-9c-75 0 -102 33 -106 103h-2c-32 -68 -96 -106 -176 -106
c-98 0 -161 54 -161 147c0 60 26 103 72 128c52 29 138 38 265 45v33c0 82 -29 139 -122 139c-80 0 -118 -45 -122 -99zM242 630l62 158h78l-86 -158h-54z" />
    <glyph glyph-name="agrave" unicode="&#xe0;" horiz-adv-x="552" 
d="M229 48c75 0 161 59 161 188v22c-130 -8 -196 -16 -229 -40c-24 -17 -36 -43 -36 -76c0 -62 41 -94 104 -94zM147 385h-66c1 82 72 152 190 152c145 0 186 -80 186 -193v-228c0 -48 14 -65 51 -66v-55h-9c-75 0 -102 33 -106 103h-2c-32 -68 -96 -106 -176 -106
c-98 0 -161 54 -161 147c0 60 26 103 72 128c52 29 138 38 265 45v33c0 82 -29 139 -122 139c-80 0 -118 -45 -122 -99zM230 788l64 -158h-54l-87 158h77z" />
    <glyph glyph-name="acircumflex" unicode="&#xe2;" horiz-adv-x="552" 
d="M229 48c75 0 161 59 161 188v22c-130 -8 -196 -16 -229 -40c-24 -17 -36 -43 -36 -76c0 -62 41 -94 104 -94zM147 385h-66c1 82 72 152 190 152c145 0 186 -80 186 -193v-228c0 -48 14 -65 51 -66v-55h-9c-75 0 -102 33 -106 103h-2c-32 -68 -96 -106 -176 -106
c-98 0 -161 54 -161 147c0 60 26 103 72 128c52 29 138 38 265 45v33c0 82 -29 139 -122 139c-80 0 -118 -45 -122 -99zM306 788l114 -158h-66l-85 111h-1l-85 -111h-59l111 158h71z" />
    <glyph glyph-name="adieresis" unicode="&#xe4;" horiz-adv-x="552" 
d="M229 48c75 0 161 59 161 188v22c-130 -8 -196 -16 -229 -40c-24 -17 -36 -43 -36 -76c0 -62 41 -94 104 -94zM147 385h-66c1 82 72 152 190 152c145 0 186 -80 186 -193v-228c0 -48 14 -65 51 -66v-55h-9c-75 0 -102 33 -106 103h-2c-32 -68 -96 -106 -176 -106
c-98 0 -161 54 -161 147c0 60 26 103 72 128c52 29 138 38 265 45v33c0 82 -29 139 -122 139c-80 0 -118 -45 -122 -99zM326 650v84h80v-84h-80zM134 650v84h79v-84h-79z" />
    <glyph glyph-name="atilde" unicode="&#xe3;" horiz-adv-x="552" 
d="M229 48c75 0 161 59 161 188v22c-130 -8 -196 -16 -229 -40c-24 -17 -36 -43 -36 -76c0 -62 41 -94 104 -94zM147 385h-66c1 82 72 152 190 152c145 0 186 -80 186 -193v-228c0 -48 14 -65 51 -66v-55h-9c-75 0 -102 33 -106 103h-2c-32 -68 -96 -106 -176 -106
c-98 0 -161 54 -161 147c0 60 26 103 72 128c52 29 138 38 265 45v33c0 82 -29 139 -122 139c-80 0 -118 -45 -122 -99zM99 628c0 63 28 124 98 124c67 0 106 -68 147 -68c30 0 45 28 49 70h48c0 -62 -30 -124 -99 -124c-66 0 -105 67 -147 67c-30 0 -44 -27 -49 -69h-47z
" />
    <glyph glyph-name="aring" unicode="&#xe5;" horiz-adv-x="552" 
d="M229 48c75 0 161 59 161 188v22c-130 -8 -196 -16 -229 -40c-24 -17 -36 -43 -36 -76c0 -62 41 -94 104 -94zM147 385h-66c1 82 72 152 190 152c145 0 186 -80 186 -193v-228c0 -48 14 -65 51 -66v-55h-9c-75 0 -102 33 -106 103h-2c-32 -68 -96 -106 -176 -106
c-98 0 -161 54 -161 147c0 60 26 103 72 128c52 29 138 38 265 45v33c0 82 -29 139 -122 139c-80 0 -118 -45 -122 -99zM279 632c-63 0 -102 42 -102 101s41 101 102 101c65 0 103 -42 103 -101s-41 -101 -103 -101zM279 796c-33 0 -54 -27 -54 -63s19 -62 54 -62
c34 0 55 26 55 62s-20 63 -55 63z" />
    <glyph glyph-name="ccedilla" unicode="&#xe7;" horiz-adv-x="530" 
d="M274 -209c-54 0 -76 29 -79 62h51c2 -13 12 -23 31 -23c22 0 33 14 33 39c0 23 -11 38 -33 38c-12 0 -21 -5 -27 -12h-48l44 94c-128 16 -193 119 -193 269c0 160 85 280 232 280c95 0 188 -44 201 -160h-69c-6 53 -49 104 -131 104c-101 0 -161 -82 -161 -219
c0 -135 46 -220 158 -220c98 0 128 65 137 118h67c-16 -115 -97 -174 -202 -174l-27 -57h2c8 7 19 12 35 12c42 0 67 -28 67 -74c0 -38 -26 -77 -88 -77z" />
    <glyph glyph-name="eacute" unicode="&#xe9;" horiz-adv-x="545" 
d="M256 630l62 158h78l-86 -158h-54zM423 299v5c-1 82 -29 179 -140 179c-98 0 -150 -76 -159 -184h299zM485 131c-19 -80 -96 -144 -199 -144c-160 0 -233 107 -233 271c0 159 81 279 230 279c155 0 210 -124 210 -248v-43h-370c4 -127 54 -204 164 -204
c92 0 123 60 132 89h66z" />
    <glyph glyph-name="egrave" unicode="&#xe8;" horiz-adv-x="545" 
d="M423 299v5c-1 82 -29 179 -140 179c-98 0 -150 -76 -159 -184h299zM485 131c-19 -80 -96 -144 -199 -144c-160 0 -233 107 -233 271c0 159 81 279 230 279c155 0 210 -124 210 -248v-43h-370c4 -127 54 -204 164 -204c92 0 123 60 132 89h66zM247 788l64 -158h-54
l-87 158h77z" />
    <glyph glyph-name="ecircumflex" unicode="&#xea;" horiz-adv-x="545" 
d="M321 788l114 -158h-66l-85 111h-1l-85 -111h-59l111 158h71zM423 299v5c-1 82 -29 179 -140 179c-98 0 -150 -76 -159 -184h299zM485 131c-19 -80 -96 -144 -199 -144c-160 0 -233 107 -233 271c0 159 81 279 230 279c155 0 210 -124 210 -248v-43h-370
c4 -127 54 -204 164 -204c92 0 123 60 132 89h66z" />
    <glyph glyph-name="edieresis" unicode="&#xeb;" horiz-adv-x="545" 
d="M339 650v84h80v-84h-80zM147 650v84h79v-84h-79zM423 299v5c-1 82 -29 179 -140 179c-98 0 -150 -76 -159 -184h299zM485 131c-19 -80 -96 -144 -199 -144c-160 0 -233 107 -233 271c0 159 81 279 230 279c155 0 210 -124 210 -248v-43h-370c4 -127 54 -204 164 -204
c92 0 123 60 132 89h66z" />
    <glyph glyph-name="iacute" unicode="&#xed;" horiz-adv-x="265" 
d="M105 630l62 158h78l-86 -158h-54zM97 0v524h70v-524h-70z" />
    <glyph glyph-name="igrave" unicode="&#xec;" horiz-adv-x="265" 
d="M97 0v524h70v-524h-70zM95 788l64 -158h-54l-87 158h77z" />
    <glyph glyph-name="icircumflex" unicode="&#xee;" horiz-adv-x="265" 
d="M162 788l101 -158h-59l-75 111h-1l-76 -111h-52l99 158h63zM97 0v524h70v-524h-70z" />
    <glyph glyph-name="idieresis" unicode="&#xef;" horiz-adv-x="265" 
d="M183 650v84h72v-84h-72zM10 650v84h71v-84h-71zM97 0v524h70v-524h-70z" />
    <glyph glyph-name="ntilde" unicode="&#xf1;" horiz-adv-x="596" 
d="M433 0v331c0 44 -4 84 -23 110c-18 25 -47 37 -88 37c-107 0 -155 -79 -155 -169v-309h-70v524h65v-93h2c28 59 87 106 174 106c113 0 164 -61 164 -181v-356h-69zM133 627c0 63 28 124 98 124c67 0 106 -68 147 -68c30 0 45 28 49 70h48c0 -62 -30 -124 -99 -124
c-66 0 -105 67 -147 67c-30 0 -44 -27 -49 -69h-47z" />
    <glyph glyph-name="oacute" unicode="&#xf3;" horiz-adv-x="565" 
d="M256 630l62 158h78l-86 -158h-54zM283 -13c-157 0 -230 115 -230 275c0 158 85 275 230 275c158 0 229 -117 229 -275c0 -161 -83 -275 -229 -275zM283 483c-103 0 -159 -86 -159 -221s50 -220 160 -220c106 0 156 85 156 220s-48 221 -157 221z" />
    <glyph glyph-name="ograve" unicode="&#xf2;" horiz-adv-x="565" 
d="M283 -13c-157 0 -230 115 -230 275c0 158 85 275 230 275c158 0 229 -117 229 -275c0 -161 -83 -275 -229 -275zM283 483c-103 0 -159 -86 -159 -221s50 -220 160 -220c106 0 156 85 156 220s-48 221 -157 221zM246 788l64 -158h-54l-87 158h77z" />
    <glyph glyph-name="ocircumflex" unicode="&#xf4;" horiz-adv-x="565" 
d="M320 788l114 -158h-66l-85 111h-1l-85 -111h-59l111 158h71zM283 -13c-157 0 -230 115 -230 275c0 158 85 275 230 275c158 0 229 -117 229 -275c0 -161 -83 -275 -229 -275zM283 483c-103 0 -159 -86 -159 -221s50 -220 160 -220c106 0 156 85 156 220s-48 221 -157 221
z" />
    <glyph glyph-name="odieresis" unicode="&#xf6;" horiz-adv-x="565" 
d="M338 650v84h80v-84h-80zM146 650v84h79v-84h-79zM283 -13c-157 0 -230 115 -230 275c0 158 85 275 230 275c158 0 229 -117 229 -275c0 -161 -83 -275 -229 -275zM283 483c-103 0 -159 -86 -159 -221s50 -220 160 -220c106 0 156 85 156 220s-48 221 -157 221z" />
    <glyph glyph-name="otilde" unicode="&#xf5;" horiz-adv-x="565" 
d="M283 -13c-157 0 -230 115 -230 275c0 158 85 275 230 275c158 0 229 -117 229 -275c0 -161 -83 -275 -229 -275zM283 483c-103 0 -159 -86 -159 -221s50 -220 160 -220c106 0 156 85 156 220s-48 221 -157 221zM112 628c0 63 28 124 98 124c67 0 106 -68 147 -68
c30 0 45 28 49 70h48c0 -62 -30 -124 -99 -124c-66 0 -105 67 -147 67c-30 0 -44 -27 -49 -69h-47z" />
    <glyph glyph-name="uacute" unicode="&#xfa;" horiz-adv-x="595" 
d="M270 630l62 158h78l-86 -158h-54zM164 524v-335c0 -42 4 -82 23 -107c18 -24 48 -37 91 -37c101 0 151 78 151 196v283h69v-524h-65v97h-2c-25 -58 -81 -110 -168 -110c-112 0 -168 59 -168 179v358h69z" />
    <glyph glyph-name="ugrave" unicode="&#xf9;" horiz-adv-x="595" 
d="M164 524v-335c0 -42 4 -82 23 -107c18 -24 48 -37 91 -37c101 0 151 78 151 196v283h69v-524h-65v97h-2c-25 -58 -81 -110 -168 -110c-112 0 -168 59 -168 179v358h69zM260 788l64 -158h-54l-87 158h77z" />
    <glyph glyph-name="ucircumflex" unicode="&#xfb;" horiz-adv-x="595" 
d="M334 788l114 -158h-66l-85 111h-1l-85 -111h-59l111 158h71zM164 524v-335c0 -42 4 -82 23 -107c18 -24 48 -37 91 -37c101 0 151 78 151 196v283h69v-524h-65v97h-2c-25 -58 -81 -110 -168 -110c-112 0 -168 59 -168 179v358h69z" />
    <glyph glyph-name="udieresis" unicode="&#xfc;" horiz-adv-x="595" 
d="M352 650v84h80v-84h-80zM160 650v84h79v-84h-79zM164 524v-335c0 -42 4 -82 23 -107c18 -24 48 -37 91 -37c101 0 151 78 151 196v283h69v-524h-65v97h-2c-25 -58 -81 -110 -168 -110c-112 0 -168 59 -168 179v358h69z" />
    <glyph glyph-name="dagger" unicode="&#x2020;" horiz-adv-x="323" 
d="M190 611v-321h-58v321h-96v52h96v102h58v-102h96v-52h-96z" />
    <glyph glyph-name="degree" unicode="&#xb0;" horiz-adv-x="445" 
d="M61 594c0 92 68 162 161 162c94 0 162 -70 162 -162s-68 -161 -162 -161c-93 0 -161 69 -161 161zM222 478c64 0 107 49 107 116s-43 117 -107 117c-63 0 -106 -50 -106 -117s43 -116 106 -116z" />
    <glyph glyph-name="cent" unicode="&#xa2;" horiz-adv-x="530" 
d="M420 161h67c-15 -106 -84 -164 -179 -173v-104h-54v104c-133 13 -201 116 -201 270c0 148 73 262 201 278v99h54v-98c87 -7 166 -52 178 -159h-69c-5 48 -41 95 -109 104v-438c78 10 104 69 112 117zM254 44v436c-82 -16 -130 -95 -130 -217c0 -123 39 -205 130 -219z
" />
    <glyph glyph-name="sterling" unicode="&#xa3;" horiz-adv-x="620" 
d="M560 62v-62h-479v60l41 35c77 66 92 112 49 232h-115v55h95l-16 42c-79 209 45 328 199 328c145 0 221 -80 222 -216h-69c-3 79 -32 159 -151 159c-118 0 -193 -85 -131 -257l20 -56h233v-55h-213c36 -117 17 -180 -55 -241l-26 -22v-2h396z" />
    <glyph glyph-name="section" unicode="&#xa7;" horiz-adv-x="550" 
d="M118 364c0 -48 26 -77 73 -101l122 -63c22 -11 38 -20 51 -29c43 14 73 45 73 95c0 45 -23 73 -76 100l-118 61c-24 12 -36 20 -49 29c-45 -14 -76 -43 -76 -92zM48 356c0 68 47 113 103 135v2c-27 31 -37 61 -37 100c0 88 70 153 180 153c104 0 167 -62 170 -160h-68
c-4 56 -27 104 -105 104c-72 0 -108 -43 -108 -94c0 -49 25 -74 68 -97l141 -73c83 -43 114 -88 114 -154c0 -68 -44 -112 -99 -136v-2c29 -30 38 -61 38 -100c0 -87 -62 -148 -185 -148c-127 0 -186 72 -189 171h68c6 -68 37 -115 122 -115c84 0 115 42 115 93
c0 50 -26 70 -81 99l-127 66c-76 40 -120 76 -120 156z" />
    <glyph glyph-name="bullet" unicode="&#x2022;" horiz-adv-x="335" 
d="M166 208c-57 0 -97 40 -97 100c0 58 44 100 98 100c59 0 99 -42 99 -100c0 -60 -44 -100 -100 -100z" />
    <glyph glyph-name="paragraph" unicode="&#xb6;" horiz-adv-x="578" 
d="M401 765h64v-765h-64v765zM252 417c-111 3 -189 59 -189 175c0 122 85 173 194 173h60v-765h-65v417z" />
    <glyph glyph-name="germandbls" unicode="&#xdf;" horiz-adv-x="596" 
d="M97 0v566c0 160 99 217 200 217c118 0 203 -62 203 -192c0 -78 -37 -141 -111 -169v-2c81 -15 152 -70 152 -196c0 -149 -98 -224 -244 -224h-37v58h38c101 0 172 51 172 163c0 99 -58 164 -169 164h-22v61h21c80 0 128 56 128 142c0 93 -53 138 -131 138
c-73 0 -130 -44 -130 -168v-558h-70z" />
    <glyph glyph-name="registered" unicode="&#xae;" horiz-adv-x="524" 
d="M46 557c0 123 92 219 216 219c125 0 217 -96 217 -219s-92 -218 -217 -218c-124 0 -216 95 -216 218zM262 374c101 0 176 78 176 183s-75 184 -176 184c-102 0 -176 -79 -176 -184s74 -183 176 -183zM224 577h44c24 0 40 10 40 36c0 20 -15 32 -39 32h-45v-68zM224 544
v-92h-40v225h88c39 0 77 -18 77 -64c0 -45 -28 -60 -49 -64l52 -97h-45l-48 92h-35z" />
    <glyph glyph-name="copyright" unicode="&#xa9;" horiz-adv-x="899" 
d="M55 380c0 224 168 397 394 397s395 -173 395 -397s-169 -396 -395 -396s-394 172 -394 396zM449 28c196 0 342 153 342 352s-146 353 -342 353s-341 -154 -341 -353s145 -352 341 -352zM615 307c-10 -87 -73 -132 -162 -132c-121 0 -183 80 -183 204
c0 121 68 212 186 212c80 0 152 -37 159 -123h-58c-5 41 -35 78 -101 78c-80 0 -127 -61 -127 -163s34 -163 126 -163c77 0 101 48 105 87h55z" />
    <glyph glyph-name="trademark" unicode="&#x2122;" horiz-adv-x="722" 
d="M273 765v-41h-99v-265h-50v265h-98v41h247zM334 459v306h72l68 -192c10 -27 11 -45 11 -45h3s3 18 12 45l68 192h71v-306h-47v250h-4s-6 -27 -18 -62l-65 -188h-39l-68 190c-12 35 -16 60 -16 60h-3v-250h-45z" />
    <glyph glyph-name="acute" unicode="&#xb4;" horiz-adv-x="369" 
d="M122 630l62 158h78l-86 -158h-54z" />
    <glyph glyph-name="dieresis" unicode="&#xa8;" horiz-adv-x="369" 
d="M240 650v84h80v-84h-80zM48 650v84h79v-84h-79z" />
    <glyph glyph-name="notequal" unicode="&#x2260;" horiz-adv-x="633" 
d="M287 242l-64 -125h-60l64 125h-139v61h170l57 111h-227v61h258l63 124h60l-63 -124h139v-61h-170l-57 -111h227v-61h-258z" />
    <glyph glyph-name="AE" unicode="&#xc6;" horiz-adv-x="1074" 
d="M512 308v394h-80l-180 -394h260zM225 250l-115 -251l-74 1l352 765h608v-63h-412v-281h375v-62h-375v-296h416v-63h-488v250h-287z" />
    <glyph glyph-name="Oslash" unicode="&#xd8;" horiz-adv-x="816" 
d="M407 719c-152 0 -264 -113 -264 -340c0 -95 18 -169 50 -223l384 504c-44 40 -102 59 -170 59zM407 41c153 0 266 116 266 338c0 103 -21 182 -58 237l-387 -507c45 -46 107 -68 179 -68zM747 379c0 -276 -159 -395 -340 -395c-81 0 -157 24 -217 75l-64 -84h-71l96 125
c-51 64 -82 156 -82 279c0 278 160 397 338 397c76 0 149 -21 208 -67l64 84h71l-94 -124c56 -64 91 -160 91 -290z" />
    <glyph glyph-name="plusminus" unicode="&#xb1;" horiz-adv-x="633" 
d="M346 341v-196h-61v196h-197v59h197v196h61v-196h198v-59h-198zM88 0v59h456v-59h-456z" />
    <glyph glyph-name="lessequal" unicode="&#x2264;" horiz-adv-x="633" 
d="M544 132l-459 197v56l459 196v-68l-376 -156l376 -157v-68zM544 0h-459v59h459v-59z" />
    <glyph glyph-name="greaterequal" unicode="&#x2265;" horiz-adv-x="633" 
d="M89 581l459 -196v-56l-459 -197v68l376 156l-376 157v68zM548 0h-459v59h459v-59z" />
    <glyph glyph-name="yen" unicode="&#xa5;" horiz-adv-x="616" 
d="M275 0v183h-212v54h212v97h-214v55h192l-224 352h81l198 -321h2l201 321h76l-226 -352h189v-55h-208v-97h210v-54h-210v-183h-67z" />
    <glyph glyph-name="ordfeminine" unicode="&#xaa;" horiz-adv-x="452" 
d="M186 362c73 0 125 56 125 150v13c-92 -7 -151 -14 -177 -35c-16 -12 -25 -32 -25 -54c0 -49 31 -74 77 -74zM125 624h-61c1 73 61 127 156 127c89 0 152 -36 152 -162v-172c0 -35 8 -51 41 -51v-51h-7c-66 0 -88 27 -93 77h-2c-26 -50 -74 -81 -137 -81
c-81 0 -130 44 -130 121c0 47 24 84 63 104c44 22 113 29 204 35v24c0 72 -29 107 -94 107c-61 0 -89 -37 -92 -78z" />
    <glyph glyph-name="ordmasculine" unicode="&#xba;" horiz-adv-x="453" 
d="M225 309c-123 0 -184 91 -184 221c0 128 70 221 185 221c127 0 185 -92 185 -221c0 -130 -68 -221 -186 -221zM225 700c-74 0 -117 -62 -117 -170s38 -169 120 -169c76 0 117 61 117 169s-39 170 -120 170z" />
    <glyph glyph-name="ae" unicode="&#xe6;" horiz-adv-x="863" 
d="M744 306v5c-1 89 -38 173 -139 173c-98 0 -145 -85 -153 -178h292zM227 48c77 0 163 59 163 195v11c-122 -1 -193 -6 -234 -37c-20 -15 -32 -40 -32 -73c0 -62 41 -96 103 -96zM807 131c-20 -82 -96 -144 -199 -144c-106 0 -173 57 -194 129h-4
c-36 -72 -93 -124 -195 -124c-99 0 -162 56 -162 149c0 60 25 102 74 128c54 29 124 38 264 38v38c0 79 -30 139 -123 139c-80 0 -118 -45 -122 -99h-66c1 86 69 152 192 152c95 0 142 -39 163 -97h4c32 59 86 97 171 97c150 0 204 -124 204 -247v-40l-363 -1
c2 -136 51 -207 161 -207c89 0 119 56 128 89h67z" />
    <glyph glyph-name="oslash" unicode="&#xf8;" horiz-adv-x="565" 
d="M283 483c-103 0 -159 -86 -159 -221c0 -55 7 -101 23 -137l243 317c-25 27 -60 41 -107 41zM284 42c106 0 156 85 156 220c0 54 -7 99 -21 134l-243 -314c26 -26 61 -40 108 -40zM512 262c0 -161 -83 -275 -229 -275c-60 0 -108 17 -144 47l-42 -55h-62l70 91
c-35 48 -52 115 -52 192c0 158 85 275 230 275c60 0 108 -17 144 -47l40 52h64l-69 -90c34 -48 50 -115 50 -190z" />
    <glyph glyph-name="questiondown" unicode="&#xbf;" horiz-adv-x="535" 
d="M277 676c31 0 54 -23 54 -54s-23 -55 -54 -55s-55 24 -55 55s24 54 55 54zM110 67c0 -85 58 -139 154 -139c104 0 171 70 168 191h65c5 -156 -95 -250 -234 -250c-154 0 -222 94 -222 191c0 102 49 150 108 203l43 39c40 37 53 44 53 103v56h63v-63
c0 -78 -18 -92 -82 -148l-45 -39c-47 -41 -71 -83 -71 -144z" />
    <glyph glyph-name="exclamdown" unicode="&#xa1;" horiz-adv-x="278" 
d="M139 676c31 0 55 -23 55 -54s-24 -55 -55 -55s-54 24 -54 55s23 54 54 54zM109 456h59l9 -578h-75z" />
    <glyph glyph-name="logicalnot" unicode="&#xac;" horiz-adv-x="629" 
d="M545 131h-61v196h-396v61h457v-257z" />
    <glyph glyph-name="florin" unicode="&#x192;" horiz-adv-x="403" 
d="M190 374l-76 -563h-70l77 563h-104v54h111l27 199c15 108 80 156 168 156c20 0 31 -1 51 -5v-58c-12 3 -23 5 -48 5c-52 0 -92 -23 -103 -105l-26 -192h135v-54h-142z" />
    <glyph glyph-name="approxequal" unicode="&#x2248;" horiz-adv-x="616" 
d="M98 389c2 66 39 120 113 120c76 0 131 -62 191 -62c32 0 53 18 58 63h52c-3 -66 -42 -120 -111 -120c-80 0 -134 64 -194 64c-32 0 -54 -19 -58 -65h-51zM98 221c2 66 39 120 113 120c76 0 131 -63 191 -63c32 0 53 18 58 64h52c-3 -66 -42 -120 -111 -120
c-80 0 -134 63 -194 63c-32 0 -54 -18 -58 -64h-51z" />
    <glyph glyph-name="guillemotleft" unicode="&#xab;" horiz-adv-x="517" 
d="M371 464h69l-112 -205l113 -202h-69l-116 203zM176 464h68l-111 -205l112 -202h-68l-117 203z" />
    <glyph glyph-name="guillemotright" unicode="&#xbb;" horiz-adv-x="517" 
d="M147 57h-69l111 205l-112 202h69l115 -203zM342 57h-68l110 205l-111 202h68l116 -203z" />
    <glyph glyph-name="ellipsis" unicode="&#x2026;" horiz-adv-x="710" 
d="M597 -10c-31 0 -54 23 -54 54s23 55 54 55s55 -24 55 -55s-24 -54 -55 -54zM355 -10c-31 0 -54 23 -54 54s23 55 54 55s55 -24 55 -55s-24 -54 -55 -54zM112 -10c-31 0 -54 23 -54 54s23 55 54 55s55 -24 55 -55s-24 -54 -55 -54z" />
    <glyph glyph-name="Agrave" unicode="&#xc0;" horiz-adv-x="723" 
d="M360 696c-2 -5 -16 -50 -32 -94l-108 -294h279l-107 295c-17 46 -30 93 -30 93h-2zM611 0l-91 250h-321l-91 -250h-71l283 765h84l282 -765h-75zM322 960l68 -133h-57l-91 133h80z" />
    <glyph glyph-name="Atilde" unicode="&#xc3;" horiz-adv-x="723" 
d="M360 696c-2 -5 -16 -50 -32 -94l-108 -294h279l-107 295c-17 46 -30 93 -30 93h-2zM611 0l-91 250h-321l-91 -250h-71l283 765h84l282 -765h-75zM191 828c0 62 28 123 98 123c67 0 106 -67 147 -67c30 0 45 27 49 70h48c0 -62 -30 -124 -99 -124c-66 0 -105 67 -147 67
c-30 0 -44 -27 -49 -69h-47z" />
    <glyph glyph-name="Otilde" unicode="&#xd5;" horiz-adv-x="816" 
d="M237 828c0 62 28 123 98 123c67 0 106 -67 147 -67c30 0 45 27 49 70h48c0 -62 -30 -124 -99 -124c-66 0 -105 67 -147 67c-30 0 -44 -27 -49 -69h-47zM69 379c0 278 160 397 338 397c180 0 340 -119 340 -397c0 -276 -159 -395 -340 -395s-338 119 -338 395zM407 41
c153 0 266 116 266 338c0 224 -112 340 -266 340c-152 0 -264 -113 -264 -340c0 -223 110 -338 264 -338z" />
    <glyph glyph-name="OE" unicode="&#x152;" horiz-adv-x="1221" 
d="M660 337v101c0 169 -95 281 -254 281c-152 0 -263 -113 -263 -340c0 -220 110 -338 263 -338c163 0 254 113 254 296zM658 124c-57 -96 -136 -140 -251 -140c-181 0 -338 119 -338 396s160 396 338 396c124 0 208 -55 251 -139h2v128h483v-63h-412v-281h375v-62h-375
v-296h416v-63h-487v124h-2z" />
    <glyph glyph-name="oe" unicode="&#x153;" horiz-adv-x="931" 
d="M810 299v5c-1 83 -30 179 -141 179c-98 0 -150 -76 -159 -184h300zM283 483c-103 0 -159 -86 -159 -221s50 -220 160 -220c106 0 156 85 156 220s-48 221 -157 221zM871 131c-19 -83 -92 -144 -199 -144c-108 0 -170 49 -199 133c-30 -82 -92 -133 -190 -133
c-157 0 -230 115 -230 275c0 158 85 275 230 275c106 0 166 -53 194 -136c30 83 93 136 192 136c155 0 210 -126 210 -248v-43h-370c4 -127 53 -204 165 -204c91 0 122 60 131 89h66z" />
    <glyph glyph-name="endash" unicode="&#x2013;" horiz-adv-x="539" 
d="M60 306v56h419v-56h-419z" />
    <glyph glyph-name="emdash" unicode="&#x2014;" horiz-adv-x="900" 
d="M60 306v56h780v-56h-780z" />
    <glyph glyph-name="quotedblleft" unicode="&#x201c;" horiz-adv-x="362" 
d="M323 765l-47 -205h-83l79 205h51zM171 765l-47 -205h-83l79 205h51z" />
    <glyph glyph-name="quotedblright" unicode="&#x201d;" horiz-adv-x="362" 
d="M196 560l47 205h83l-78 -205h-52zM45 560l46 205h84l-79 -205h-51z" />
    <glyph glyph-name="quoteleft" unicode="&#x2018;" horiz-adv-x="210" 
d="M171 765l-47 -205h-83l79 205h51z" />
    <glyph glyph-name="quoteright" unicode="&#x2019;" horiz-adv-x="210" 
d="M45 560l46 205h84l-79 -205h-51z" />
    <glyph glyph-name="divide" unicode="&#xf7;" horiz-adv-x="633" 
d="M276 501v78h78v-78h-78zM88 328v59h456v-59h-456zM354 136h-78v79h78v-79z" />
    <glyph glyph-name="ydieresis" unicode="&#xff;" horiz-adv-x="493" 
d="M216 -1l-182 525h70l121 -359c14 -42 24 -76 24 -76h2s11 36 24 76l120 359h69l-195 -566c-40 -116 -78 -157 -174 -157c-25 0 -45 5 -59 9v58c17 -5 37 -9 56 -9c63 0 85 32 108 96zM307 650v84h80v-84h-80zM115 650v84h79v-84h-79z" />
    <glyph glyph-name="Ydieresis" unicode="&#x178;" horiz-adv-x="640" 
d="M285 0v335l-272 430h82l225 -365h2l229 365h77l-272 -426v-339h-71zM390 839v84h78v-84h-78zM174 839v84h78v-84h-78z" />
    <glyph glyph-name="fraction" unicode="&#x2044;" horiz-adv-x="231" 
d="M-191 -40l550 825h65l-550 -825h-65z" />
    <glyph glyph-name="currency" unicode="&#xa4;" horiz-adv-x="632" 
d="M139 346c0 39 12 74 31 102l-71 72l43 43l71 -72c29 20 63 32 102 32s74 -12 103 -33l72 73l42 -42l-73 -73c21 -28 33 -63 33 -102c0 -38 -12 -73 -32 -102l72 -72l-42 -43l-73 73c-28 -21 -64 -32 -102 -32c-39 0 -73 11 -102 32l-71 -72l-43 43l72 71
c-20 29 -32 64 -32 102zM315 217c71 0 124 56 124 129c0 74 -53 130 -124 130c-70 0 -124 -56 -124 -130c0 -73 54 -129 124 -129z" />
    <glyph glyph-name="guilsinglleft" unicode="&#x2039;" horiz-adv-x="322" 
d="M176 464h68l-111 -205l112 -202h-68l-117 203z" />
    <glyph glyph-name="guilsinglright" unicode="&#x203a;" horiz-adv-x="322" 
d="M147 57h-69l111 205l-112 202h69l115 -203z" />
    <glyph glyph-name="fi" unicode="&#xfb01;" 
d="M430 654v79h75v-79h-75zM432 0v524h70v-524h-70zM189 470v-470h-70v470h-100v54h100v132c0 90 57 135 146 135c17 0 34 -1 53 -5v-58c-12 3 -28 5 -50 5c-54 0 -79 -25 -79 -89v-120h131v-54h-131z" />
    <glyph glyph-name="fl" unicode="&#xfb02;" horiz-adv-x="599" 
d="M432 0v788h70v-788h-70zM189 470v-470h-70v470h-100v54h100v132c0 90 57 135 146 135c17 0 34 -1 53 -5v-58c-12 3 -28 5 -50 5c-54 0 -79 -25 -79 -89v-120h131v-54h-131z" />
    <glyph glyph-name="daggerdbl" unicode="&#x2021;" horiz-adv-x="323" 
d="M190 395v-105h-58v105h-96v52h96v164h-96v52h96v102h58v-102h97v-52h-97v-164h97v-52h-97z" />
    <glyph glyph-name="periodcentered" unicode="&#xb7;" horiz-adv-x="222" 
d="M64 254v95h95v-95h-95z" />
    <glyph glyph-name="quotesinglbase" unicode="&#x201a;" horiz-adv-x="210" 
d="M50 -112l47 205h83l-79 -205h-51z" />
    <glyph glyph-name="quotedblbase" unicode="&#x201e;" horiz-adv-x="362" 
d="M202 -112l47 205h83l-79 -205h-51zM50 -112l47 205h83l-79 -205h-51z" />
    <glyph glyph-name="perthousand" unicode="&#x2030;" horiz-adv-x="1271" 
d="M134 -40l550 821h67l-551 -821h-66zM224 382c-94 0 -165 66 -165 180c0 115 74 179 165 179c92 0 165 -64 165 -179c0 -114 -73 -180 -165 -180zM224 432c55 0 100 43 100 129c0 88 -45 131 -100 131c-57 0 -101 -41 -101 -131c0 -87 44 -129 101 -129zM1044 -6
c-95 0 -165 66 -165 180c0 115 73 179 165 179s165 -64 165 -179c0 -114 -73 -180 -165 -180zM653 -6c-94 0 -164 66 -164 180c0 115 73 179 164 179c93 0 165 -64 165 -179c0 -114 -72 -180 -165 -180zM1043 44c55 0 101 43 101 129c0 88 -46 131 -101 131
c-56 0 -100 -41 -100 -131c0 -87 44 -129 100 -129zM653 44c55 0 100 43 100 129c0 88 -45 131 -100 131c-56 0 -100 -41 -100 -131c0 -87 44 -129 100 -129z" />
    <glyph glyph-name="Acircumflex" unicode="&#xc2;" horiz-adv-x="723" 
d="M360 696c-2 -5 -16 -50 -32 -94l-108 -294h279l-107 295c-17 46 -30 93 -30 93h-2zM611 0l-91 250h-321l-91 -250h-71l283 765h84l282 -765h-75zM399 960l113 -133h-67l-83 88h-1l-83 -88h-60l110 133h71z" />
    <glyph glyph-name="Ecircumflex" unicode="&#xca;" horiz-adv-x="679" 
d="M397 960l113 -133h-67l-83 88h-1l-83 -88h-60l110 133h71zM113 0v765h488v-63h-417v-281h380v-62h-380v-296h421v-63h-492z" />
    <glyph glyph-name="Aacute" unicode="&#xc1;" horiz-adv-x="723" 
d="M360 696c-2 -5 -16 -50 -32 -94l-108 -294h279l-107 295c-17 46 -30 93 -30 93h-2zM611 0l-91 250h-321l-91 -250h-71l283 765h84l282 -765h-75zM333 827l67 133h81l-91 -133h-57z" />
    <glyph glyph-name="Edieresis" unicode="&#xcb;" horiz-adv-x="679" 
d="M113 0v765h488v-63h-417v-281h380v-62h-380v-296h421v-63h-492zM428 839v84h78v-84h-78zM212 839v84h78v-84h-78z" />
    <glyph glyph-name="Egrave" unicode="&#xc8;" horiz-adv-x="679" 
d="M319 960l68 -133h-57l-91 133h80zM113 0v765h488v-63h-417v-281h380v-62h-380v-296h421v-63h-492z" />
    <glyph glyph-name="Iacute" unicode="&#xcd;" horiz-adv-x="298" 
d="M113 0v765h71v-765h-71zM120 827l67 133h81l-91 -133h-57z" />
    <glyph glyph-name="Icircumflex" unicode="&#xce;" horiz-adv-x="298" 
d="M113 0v765h71v-765h-71zM186 960l113 -133h-67l-83 88h-1l-83 -88h-60l110 133h71z" />
    <glyph glyph-name="Idieresis" unicode="&#xcf;" horiz-adv-x="298" 
d="M113 0v765h71v-765h-71zM217 839v84h78v-84h-78zM1 839v84h78v-84h-78z" />
    <glyph glyph-name="Igrave" unicode="&#xcc;" horiz-adv-x="298" 
d="M113 0v765h71v-765h-71zM109 960l68 -133h-57l-91 133h80z" />
    <glyph glyph-name="Oacute" unicode="&#xd3;" horiz-adv-x="816" 
d="M377 827l67 133h81l-91 -133h-57zM69 379c0 278 160 397 338 397c180 0 340 -119 340 -397c0 -276 -159 -395 -340 -395s-338 119 -338 395zM407 41c153 0 266 116 266 338c0 224 -112 340 -266 340c-152 0 -264 -113 -264 -340c0 -223 110 -338 264 -338z" />
    <glyph glyph-name="Ocircumflex" unicode="&#xd4;" horiz-adv-x="816" 
d="M444 960l113 -133h-67l-83 88h-1l-83 -88h-60l110 133h71zM69 379c0 278 160 397 338 397c180 0 340 -119 340 -397c0 -276 -159 -395 -340 -395s-338 119 -338 395zM407 41c153 0 266 116 266 338c0 224 -112 340 -266 340c-152 0 -264 -113 -264 -340
c0 -223 110 -338 264 -338z" />
    <glyph glyph-name="Ograve" unicode="&#xd2;" horiz-adv-x="816" 
d="M367 960l68 -133h-57l-91 133h80zM69 379c0 278 160 397 338 397c180 0 340 -119 340 -397c0 -276 -159 -395 -340 -395s-338 119 -338 395zM407 41c153 0 266 116 266 338c0 224 -112 340 -266 340c-152 0 -264 -113 -264 -340c0 -223 110 -338 264 -338z" />
    <glyph glyph-name="Uacute" unicode="&#xda;" horiz-adv-x="765" 
d="M354 827l67 133h81l-91 -133h-57zM99 255v510h72v-436c0 -76 0 -165 41 -217c39 -48 98 -69 173 -69s133 21 171 69c41 52 40 141 40 217v436h70v-510c0 -192 -114 -270 -283 -270c-171 0 -284 77 -284 270z" />
    <glyph glyph-name="Ucircumflex" unicode="&#xdb;" horiz-adv-x="765" 
d="M421 960l113 -133h-67l-83 88h-1l-83 -88h-60l110 133h71zM99 255v510h72v-436c0 -76 0 -165 41 -217c39 -48 98 -69 173 -69s133 21 171 69c41 52 40 141 40 217v436h70v-510c0 -192 -114 -270 -283 -270c-171 0 -284 77 -284 270z" />
    <glyph glyph-name="Ugrave" unicode="&#xd9;" horiz-adv-x="765" 
d="M343 960l68 -133h-57l-91 133h80zM99 255v510h72v-436c0 -76 0 -165 41 -217c39 -48 98 -69 173 -69s133 21 171 69c41 52 40 141 40 217v436h70v-510c0 -192 -114 -270 -283 -270c-171 0 -284 77 -284 270z" />
    <glyph glyph-name="dotlessi" unicode="&#x131;" horiz-adv-x="264" 
d="M97 0v524h70v-524h-70z" />
    <glyph glyph-name="circumflex" unicode="&#x2c6;" horiz-adv-x="369" 
d="M219 788l114 -158h-66l-85 111h-1l-85 -111h-59l111 158h71z" />
    <glyph glyph-name="tilde" unicode="&#x2dc;" horiz-adv-x="369" 
d="M13 628c0 63 28 124 98 124c67 0 106 -68 147 -68c30 0 45 28 49 70h48c0 -62 -30 -124 -99 -124c-66 0 -105 67 -147 67c-30 0 -44 -27 -49 -69h-47z" />
    <glyph glyph-name="macron" unicode="&#xaf;" horiz-adv-x="369" 
d="M45 654v57h277v-57h-277z" />
    <glyph glyph-name="breve" unicode="&#x2d8;" horiz-adv-x="369" 
d="M184 625c-80 0 -142 44 -142 152h55c0 -70 38 -101 90 -101s90 31 90 101h51c0 -108 -63 -152 -144 -152z" />
    <glyph glyph-name="dotaccent" unicode="&#x2d9;" horiz-adv-x="369" 
d="M146 654v79h76v-79h-76z" />
    <glyph glyph-name="ring" unicode="&#x2da;" horiz-adv-x="369" 
d="M188 632c-63 0 -102 42 -102 101s41 101 102 101c65 0 103 -42 103 -101s-41 -101 -103 -101zM188 796c-33 0 -54 -27 -54 -63s19 -62 54 -62c34 0 55 26 55 62s-20 63 -55 63z" />
    <glyph glyph-name="cedilla" unicode="&#xb8;" horiz-adv-x="536" 
d="M250 20h41l-43 -90h2c8 7 19 12 35 12c42 0 67 -28 67 -74c0 -38 -26 -77 -88 -77c-54 0 -76 29 -79 62h51c2 -13 12 -23 31 -23c22 0 33 14 33 39c0 23 -11 38 -33 38c-12 0 -21 -5 -27 -12h-48z" />
    <glyph glyph-name="hungarumlaut" unicode="&#x2dd;" horiz-adv-x="356" 
d="M181 630l62 158h72l-85 -158h-49zM48 630l62 158h72l-86 -158h-48z" />
    <glyph glyph-name="ogonek" unicode="&#x2db;" horiz-adv-x="369" 
d="M209 2l58 -2c-37 -24 -74 -53 -74 -90c0 -36 27 -47 74 -48v-50h-19c-68 0 -117 26 -117 89c0 51 45 86 78 101z" />
    <glyph glyph-name="caron" unicode="&#x2c7;" horiz-adv-x="369" 
d="M151 630l-114 158h66l85 -110h1l85 110h59l-111 -158h-71z" />
    <glyph glyph-name="uni00A0" unicode="&#xa0;" horiz-adv-x="289" 
 />
    <glyph glyph-name="Amacron" unicode="&#x100;" horiz-adv-x="723" 
d="M360 696c-2 -5 -16 -50 -32 -94l-108 -294h279l-107 295c-17 46 -30 93 -30 93h-2zM611 0l-91 250h-321l-91 -250h-71l283 765h84l282 -765h-75zM223 859v57h277v-57h-277z" />
    <glyph glyph-name="amacron" unicode="&#x101;" horiz-adv-x="552" 
d="M229 48c75 0 161 59 161 188v22c-130 -8 -196 -16 -229 -40c-24 -17 -36 -43 -36 -76c0 -62 41 -94 104 -94zM147 385h-66c1 82 72 152 190 152c145 0 186 -80 186 -193v-228c0 -48 14 -65 51 -66v-55h-9c-75 0 -102 33 -106 103h-2c-32 -68 -96 -106 -176 -106
c-98 0 -161 54 -161 147c0 60 26 103 72 128c52 29 138 38 265 45v33c0 82 -29 139 -122 139c-80 0 -118 -45 -122 -99zM131 654v57h277v-57h-277z" />
    <glyph glyph-name="Abreve" unicode="&#x102;" horiz-adv-x="723" 
d="M360 696c-2 -5 -16 -50 -32 -94l-108 -294h279l-107 295c-17 46 -30 93 -30 93h-2zM611 0l-91 250h-321l-91 -250h-71l283 765h84l282 -765h-75zM219 969h56c6 -56 41 -82 89 -82c47 0 83 25 89 82h51c-6 -94 -67 -133 -143 -133s-135 39 -142 133z" />
    <glyph glyph-name="abreve" unicode="&#x103;" horiz-adv-x="552" 
d="M229 48c75 0 161 59 161 188v22c-130 -8 -196 -16 -229 -40c-24 -17 -36 -43 -36 -76c0 -62 41 -94 104 -94zM147 385h-66c1 82 72 152 190 152c145 0 186 -80 186 -193v-228c0 -48 14 -65 51 -66v-55h-9c-75 0 -102 33 -106 103h-2c-32 -68 -96 -106 -176 -106
c-98 0 -161 54 -161 147c0 60 26 103 72 128c52 29 138 38 265 45v33c0 82 -29 139 -122 139c-80 0 -118 -45 -122 -99zM269 625c-80 0 -142 44 -142 152h55c0 -70 38 -101 90 -101s90 31 90 101h51c0 -108 -63 -152 -144 -152z" />
    <glyph glyph-name="Aogonek" unicode="&#x104;" horiz-adv-x="723" 
d="M682 -188h-19c-68 0 -118 26 -118 89c0 45 34 77 68 95l-93 254h-321l-91 -250h-71l283 765h84l282 -762c-41 -27 -78 -56 -78 -93c0 -36 27 -47 74 -48v-50zM328 602l-108 -294h278l-106 295c-16 46 -30 93 -30 93h-2s-15 -48 -32 -94z" />
    <glyph glyph-name="aogonek" unicode="&#x105;" horiz-adv-x="552" 
d="M147 385h-66c1 81 73 152 190 152c145 0 186 -80 186 -193v-228c0 -48 14 -65 51 -66v-50c-44 -27 -77 -56 -77 -91s26 -46 74 -47v-50h-19c-68 0 -118 26 -118 89c0 48 41 82 81 100v1c-37 13 -53 44 -56 96h-2c-32 -68 -96 -106 -176 -106c-98 0 -161 54 -161 147
c0 60 26 103 72 128c52 29 138 38 265 45v33c0 82 -29 139 -122 139c-80 0 -118 -45 -122 -99zM229 48c75 0 161 59 161 188v22c-130 -8 -196 -16 -229 -40c-24 -17 -36 -43 -36 -76c0 -62 41 -94 104 -94z" />
    <glyph glyph-name="Cacute" unicode="&#x106;" horiz-adv-x="768" 
d="M407 719c-173 0 -262 -143 -262 -339c0 -205 93 -337 265 -337c145 0 205 92 215 179h71c-12 -137 -121 -238 -292 -238c-192 0 -335 124 -335 396c0 252 146 397 338 397c130 0 272 -63 289 -232h-73c-11 84 -72 174 -216 174zM378 827l67 133h81l-91 -133h-57z" />
    <glyph glyph-name="cacute" unicode="&#x107;" horiz-adv-x="530" 
d="M259 630l62 158h78l-86 -158h-54zM486 378h-69c-6 53 -49 104 -131 104c-101 0 -161 -82 -161 -219c0 -135 46 -220 158 -220c98 0 128 65 137 118h67c-16 -115 -97 -174 -205 -174c-152 0 -229 107 -229 271c0 160 85 280 232 280c95 0 188 -44 201 -160z" />
    <glyph glyph-name="Ccircumflex" unicode="&#x108;" horiz-adv-x="768" 
d="M444 960l113 -133h-67l-83 88h-1l-83 -88h-60l110 133h71zM407 719c-173 0 -262 -143 -262 -339c0 -205 93 -337 265 -337c145 0 205 92 215 179h71c-12 -137 -121 -238 -292 -238c-192 0 -335 124 -335 396c0 252 146 397 338 397c130 0 272 -63 289 -232h-73
c-11 84 -72 174 -216 174z" />
    <glyph glyph-name="ccircumflex" unicode="&#x109;" horiz-adv-x="530" 
d="M324 788l114 -158h-66l-85 111h-1l-85 -111h-59l111 158h71zM486 378h-69c-6 53 -49 104 -131 104c-101 0 -161 -82 -161 -219c0 -135 46 -220 158 -220c98 0 128 65 137 118h67c-16 -115 -97 -174 -205 -174c-152 0 -229 107 -229 271c0 160 85 280 232 280
c95 0 188 -44 201 -160z" />
    <glyph glyph-name="Cdotaccent" unicode="&#x10a;" horiz-adv-x="768" 
d="M407 719c-173 0 -262 -143 -262 -339c0 -205 93 -337 265 -337c145 0 205 92 215 179h71c-12 -137 -121 -238 -292 -238c-192 0 -335 124 -335 396c0 252 146 397 338 397c130 0 272 -63 289 -232h-73c-11 84 -72 174 -216 174zM368 839v79h76v-79h-76z" />
    <glyph glyph-name="cdotaccent" unicode="&#x10b;" horiz-adv-x="530" 
d="M486 378h-69c-6 53 -49 104 -131 104c-101 0 -161 -82 -161 -219c0 -135 46 -220 158 -220c98 0 128 65 137 118h67c-16 -115 -97 -174 -205 -174c-152 0 -229 107 -229 271c0 160 85 280 232 280c95 0 188 -44 201 -160zM248 654v79h76v-79h-76z" />
    <glyph glyph-name="Ccaron" unicode="&#x10c;" horiz-adv-x="768" 
d="M366 827l-113 133h67l83 -88h1l83 88h60l-110 -133h-71zM407 719c-173 0 -262 -143 -262 -339c0 -205 93 -337 265 -337c145 0 205 92 215 179h71c-12 -137 -121 -238 -292 -238c-192 0 -335 124 -335 396c0 252 146 397 338 397c130 0 272 -63 289 -232h-73
c-11 84 -72 174 -216 174z" />
    <glyph glyph-name="ccaron" unicode="&#x10d;" horiz-adv-x="530" 
d="M246 630l-114 158h66l85 -110h1l85 110h59l-111 -158h-71zM486 378h-69c-6 53 -49 104 -131 104c-101 0 -161 -82 -161 -219c0 -135 46 -220 158 -220c98 0 128 65 137 118h67c-16 -115 -97 -174 -205 -174c-152 0 -229 107 -229 271c0 160 85 280 232 280
c95 0 188 -44 201 -160z" />
    <glyph glyph-name="Dcaron" unicode="&#x10e;" horiz-adv-x="782" 
d="M315 827l-113 133h67l83 -88h1l83 88h60l-110 -133h-71zM113 0v765h238c202 0 364 -106 364 -375c0 -271 -158 -390 -359 -390h-243zM184 62h165c166 0 292 79 292 325c0 230 -127 316 -289 316h-168v-641z" />
    <glyph glyph-name="dcaron" unicode="&#x10f;" horiz-adv-x="605" 
d="M564 624l15 164h69l-37 -164h-47zM440 219v82c0 98 -58 180 -154 180c-110 0 -161 -91 -161 -218c0 -130 44 -220 155 -220c106 0 160 87 160 176zM508 788v-788h-66v91h-3c-27 -54 -81 -104 -166 -104c-105 0 -220 63 -220 272c0 179 90 278 225 278
c78 0 134 -41 158 -99h2v350h70z" />
    <glyph glyph-name="Dcroat" unicode="&#x110;" horiz-adv-x="794" 
d="M368 0h-243v360h-88v60h88v345h238c202 0 364 -106 364 -375c0 -271 -157 -390 -359 -390zM196 62h165c166 0 292 79 292 325c0 230 -127 316 -289 316h-168v-283h233v-60h-233v-298z" />
    <glyph glyph-name="dcroat" unicode="&#x111;" horiz-adv-x="605" 
d="M440 219v82c0 98 -58 180 -154 180c-110 0 -161 -91 -161 -218c0 -130 44 -220 155 -220c106 0 160 87 160 176zM439 91c-27 -54 -81 -104 -166 -104c-105 0 -220 63 -220 272c0 179 90 278 225 278c78 0 134 -41 158 -99h2v193h-171v51h171v106h70v-106h65v-51h-65v-631
h-66v91h-3z" />
    <glyph glyph-name="Emacron" unicode="&#x112;" horiz-adv-x="679" 
d="M113 0v765h488v-63h-417v-281h380v-62h-380v-296h421v-63h-492zM220 859v57h277v-57h-277z" />
    <glyph glyph-name="emacron" unicode="&#x113;" horiz-adv-x="545" 
d="M423 299v5c-1 82 -29 179 -140 179c-98 0 -150 -76 -159 -184h299zM485 131c-19 -80 -96 -144 -199 -144c-160 0 -233 107 -233 271c0 159 81 279 230 279c155 0 210 -124 210 -248v-43h-370c4 -127 54 -204 164 -204c92 0 123 60 132 89h66zM144 654v57h277v-57h-277z
" />
    <glyph glyph-name="Ebreve" unicode="&#x114;" horiz-adv-x="679" 
d="M113 0v765h488v-63h-417v-281h380v-62h-380v-296h421v-63h-492zM216 969h56c6 -56 41 -82 89 -82c47 0 83 25 89 82h51c-6 -94 -67 -133 -143 -133s-135 39 -142 133z" />
    <glyph glyph-name="ebreve" unicode="&#x115;" horiz-adv-x="545" 
d="M423 299v5c-1 82 -29 179 -140 179c-98 0 -150 -76 -159 -184h299zM485 131c-19 -80 -96 -144 -199 -144c-160 0 -233 107 -233 271c0 159 81 279 230 279c155 0 210 -124 210 -248v-43h-370c4 -127 54 -204 164 -204c92 0 123 60 132 89h66zM282 625
c-80 0 -142 44 -142 152h55c0 -70 38 -101 90 -101s90 31 90 101h51c0 -108 -63 -152 -144 -152z" />
    <glyph glyph-name="Edotaccent" unicode="&#x116;" horiz-adv-x="679" 
d="M321 839v79h76v-79h-76zM113 0v765h488v-63h-417v-281h380v-62h-380v-296h421v-63h-492z" />
    <glyph glyph-name="edotaccent" unicode="&#x117;" horiz-adv-x="545" 
d="M423 299v5c-1 82 -29 179 -140 179c-98 0 -150 -76 -159 -184h299zM485 131c-19 -80 -96 -144 -199 -144c-160 0 -233 107 -233 271c0 159 81 279 230 279c155 0 210 -124 210 -248v-43h-370c4 -127 54 -204 164 -204c92 0 123 60 132 89h66zM245 654v79h76v-79h-76z" />
    <glyph glyph-name="Eogonek" unicode="&#x118;" horiz-adv-x="679" 
d="M605 -138v-50h-19c-68 0 -117 26 -117 89c0 49 41 83 74 99h-430v765h488v-63h-417v-281h380v-62h-380v-296h421v-63c-37 -24 -74 -53 -74 -90c0 -36 27 -47 74 -48z" />
    <glyph glyph-name="eogonek" unicode="&#x119;" horiz-adv-x="545" 
d="M419 131h66c-12 -49 -43 -85 -75 -107c-56 -39 -98 -70 -98 -114c0 -36 27 -47 74 -48v-50h-19c-68 0 -117 26 -117 84c0 42 32 74 64 93v1c-6 -1 -18 -3 -28 -3c-159 0 -233 107 -233 271c0 159 81 279 230 279c155 0 210 -126 210 -248v-43h-370
c4 -127 52 -204 164 -204c92 0 123 60 132 89zM124 299h300c-1 84 -28 184 -141 184c-99 0 -150 -76 -159 -184z" />
    <glyph glyph-name="Ecaron" unicode="&#x11a;" horiz-adv-x="679" 
d="M319 827l-113 133h67l83 -88h1l83 88h60l-110 -133h-71zM113 0v765h488v-63h-417v-281h380v-62h-380v-296h421v-63h-492z" />
    <glyph glyph-name="ecaron" unicode="&#x11b;" horiz-adv-x="545" 
d="M243 630l-114 158h66l85 -110h1l85 110h59l-111 -158h-71zM423 299v5c-1 82 -29 179 -140 179c-98 0 -150 -76 -159 -184h299zM485 131c-19 -80 -96 -144 -199 -144c-160 0 -233 107 -233 271c0 159 81 279 230 279c155 0 210 -124 210 -248v-43h-370
c4 -127 54 -204 164 -204c92 0 123 60 132 89h66z" />
    <glyph glyph-name="Gcircumflex" unicode="&#x11c;" horiz-adv-x="818" 
d="M451 960l113 -133h-67l-83 88h-1l-83 -88h-60l110 133h71zM412 719c-173 0 -269 -138 -269 -344c0 -208 98 -333 266 -333c150 0 240 94 240 232v41h-234v63h303v-378h-64v121h-3c-35 -72 -112 -137 -248 -137c-183 0 -334 115 -334 395c0 256 149 397 343 397
c161 0 269 -85 288 -214h-73c-19 97 -103 157 -215 157z" />
    <glyph glyph-name="gcircumflex" unicode="&#x11d;" horiz-adv-x="607" 
d="M317 788l114 -158h-66l-85 111h-1l-85 -111h-59l111 158h71zM442 230v73c0 92 -54 178 -162 178c-105 0 -155 -88 -155 -212c0 -121 41 -211 159 -211c100 0 158 82 158 172zM281 -199c-111 0 -195 53 -208 143h68c10 -47 54 -88 142 -88s158 40 158 166v83h-1
c-30 -60 -94 -102 -175 -102c-100 0 -212 66 -212 266c0 175 94 268 226 268c87 0 141 -51 163 -102h2v89h65v-503c0 -151 -96 -220 -228 -220z" />
    <glyph glyph-name="Gbreve" unicode="&#x11e;" horiz-adv-x="818" 
d="M270 969h56c6 -56 41 -82 89 -82c47 0 83 25 89 82h51c-6 -94 -67 -133 -143 -133s-135 39 -142 133zM412 719c-173 0 -269 -138 -269 -344c0 -208 98 -333 266 -333c150 0 240 94 240 232v41h-234v63h303v-378h-64v121h-3c-35 -72 -112 -137 -248 -137
c-183 0 -334 115 -334 395c0 256 149 397 343 397c161 0 269 -85 288 -214h-73c-19 97 -103 157 -215 157z" />
    <glyph glyph-name="gbreve" unicode="&#x11f;" horiz-adv-x="607" 
d="M442 230v73c0 92 -54 178 -162 178c-105 0 -155 -88 -155 -212c0 -121 41 -211 159 -211c100 0 158 82 158 172zM281 -199c-111 0 -195 53 -208 143h68c10 -47 54 -88 142 -88s158 40 158 166v83h-1c-30 -60 -94 -102 -175 -102c-100 0 -212 66 -212 266
c0 175 94 268 226 268c87 0 141 -51 163 -102h2v89h65v-503c0 -151 -96 -220 -228 -220zM278 625c-80 0 -142 44 -142 152h55c0 -70 38 -101 90 -101s90 31 90 101h51c0 -108 -63 -152 -144 -152z" />
    <glyph glyph-name="Gdotaccent" unicode="&#x120;" horiz-adv-x="818" 
d="M373 839v79h76v-79h-76zM412 719c-173 0 -269 -138 -269 -344c0 -208 98 -333 266 -333c150 0 240 94 240 232v41h-234v63h303v-378h-64v121h-3c-35 -72 -112 -137 -248 -137c-183 0 -334 115 -334 395c0 256 149 397 343 397c161 0 269 -85 288 -214h-73
c-19 97 -103 157 -215 157z" />
    <glyph glyph-name="gdotaccent" unicode="&#x121;" horiz-adv-x="607" 
d="M442 230v73c0 92 -54 178 -162 178c-105 0 -155 -88 -155 -212c0 -121 41 -211 159 -211c100 0 158 82 158 172zM281 -199c-111 0 -195 53 -208 143h68c10 -47 54 -88 142 -88s158 40 158 166v83h-1c-30 -60 -94 -102 -175 -102c-100 0 -212 66 -212 266
c0 175 94 268 226 268c87 0 141 -51 163 -102h2v89h65v-503c0 -151 -96 -220 -228 -220zM241 654v79h76v-79h-76z" />
    <glyph glyph-name="Gcommaaccent" unicode="&#x122;" horiz-adv-x="818" 
d="M354 -211l27 135h73l-55 -135h-45zM412 719c-173 0 -269 -138 -269 -344c0 -208 98 -333 266 -333c150 0 240 94 240 232v41h-234v63h303v-378h-64v121h-3c-35 -72 -112 -137 -248 -137c-183 0 -334 115 -334 395c0 256 149 397 343 397c161 0 269 -85 288 -214h-73
c-19 97 -103 157 -215 157z" />
    <glyph glyph-name="gcommaaccent" unicode="&#x123;" horiz-adv-x="607" 
d="M336 773l-26 -132h-73l56 132h43zM442 230v73c0 92 -54 178 -162 178c-105 0 -155 -88 -155 -212c0 -121 41 -211 159 -211c100 0 158 82 158 172zM281 -199c-111 0 -195 53 -208 143h68c10 -47 54 -88 142 -88s158 40 158 166v83h-1c-30 -60 -94 -102 -175 -102
c-100 0 -212 66 -212 266c0 175 94 268 226 268c87 0 141 -51 163 -102h2v89h65v-503c0 -151 -96 -220 -228 -220z" />
    <glyph glyph-name="Hcircumflex" unicode="&#x124;" horiz-adv-x="798" 
d="M184 359v-359h-71v765h71v-344h430v344h71v-765h-71v359h-430zM437 960l113 -133h-67l-83 88h-1l-83 -88h-60l110 133h71z" />
    <glyph glyph-name="hcircumflex" unicode="&#x125;" horiz-adv-x="596" 
d="M433 0v332c0 43 -4 83 -23 109c-18 25 -47 37 -88 37c-108 0 -155 -80 -155 -169v-309h-70v788h70v-356h2c24 58 82 105 169 105c113 0 164 -61 164 -181v-356h-69zM336 960l113 -133h-67l-83 88h-1l-83 -88h-60l110 133h71z" />
    <glyph glyph-name="Hbar" unicode="&#x126;" horiz-adv-x="798" 
d="M614 421v156h-430v-156h430zM184 359v-359h-71v577h-92v52h92v136h71v-136h430v136h71v-136h90v-52h-90v-577h-71v359h-430z" />
    <glyph glyph-name="hbar" unicode="&#x127;" horiz-adv-x="596" 
d="M167 309v-309h-70v631h-65v51h65v106h68v-106h173v-51h-173v-199h2c25 58 84 105 171 105c113 0 164 -61 164 -181v-356h-69v332c0 43 -4 83 -23 109c-18 25 -47 37 -88 37c-108 0 -155 -80 -155 -169z" />
    <glyph glyph-name="Itilde" unicode="&#x128;" horiz-adv-x="298" 
d="M113 0v765h71v-765h-71zM-22 828c0 62 28 123 98 123c67 0 106 -67 147 -67c30 0 45 27 49 70h48c0 -62 -30 -124 -99 -124c-66 0 -105 67 -147 67c-30 0 -44 -27 -49 -69h-47z" />
    <glyph glyph-name="itilde" unicode="&#x129;" horiz-adv-x="265" 
d="M97 0v524h70v-524h-70zM-13 628c0 63 24 124 83 124c57 0 90 -68 125 -68c26 0 39 28 42 70h41c0 -62 -26 -124 -84 -124c-56 0 -90 67 -125 67c-26 0 -38 -27 -42 -69h-40z" />
    <glyph glyph-name="Imacron" unicode="&#x12a;" horiz-adv-x="298" 
d="M113 0v765h71v-765h-71zM10 859v57h277v-57h-277z" />
    <glyph glyph-name="imacron" unicode="&#x12b;" horiz-adv-x="265" 
d="M97 0v524h70v-524h-70zM17 654v57h230v-57h-230z" />
    <glyph glyph-name="Ibreve" unicode="&#x12c;" horiz-adv-x="298" 
d="M113 0v765h71v-765h-71zM6 969h56c6 -56 41 -82 89 -82c47 0 83 25 89 82h51c-6 -94 -67 -133 -143 -133s-135 39 -142 133z" />
    <glyph glyph-name="ibreve" unicode="&#x12d;" horiz-adv-x="265" 
d="M97 0v524h70v-524h-70zM132 625c-72 0 -128 44 -128 152h49c0 -70 34 -101 81 -101s81 31 81 101h46c0 -108 -57 -152 -129 -152z" />
    <glyph glyph-name="Iogonek" unicode="&#x12e;" horiz-adv-x="298" 
d="M180 -188h-19c-68 0 -117 26 -117 89c0 46 35 78 69 96v768h71v-762c-41 -27 -78 -55 -78 -93c0 -36 27 -47 74 -48v-50z" />
    <glyph glyph-name="iogonek" unicode="&#x12f;" horiz-adv-x="265" 
d="M94 654v79h76v-79h-76zM157 -188h-19c-68 0 -118 26 -118 89c0 50 44 85 77 100v523h70v-517c-50 -33 -84 -60 -84 -97c0 -36 26 -47 74 -48v-50z" />
    <glyph glyph-name="Idotaccent" unicode="&#x130;" horiz-adv-x="298" 
d="M113 0v765h71v-765h-71zM110 839v79h76v-79h-76z" />
    <glyph glyph-name="IJ" unicode="&#x132;" horiz-adv-x="687" 
d="M338 -1h-24v60h11c153 0 187 46 187 180v526h71v-536c0 -159 -72 -230 -245 -230zM113 0v765h71v-765h-71z" />
    <glyph glyph-name="ij" unicode="&#x133;" horiz-adv-x="534" 
d="M99 654v79h75v-79h-75zM101 0v524h70v-524h-70zM364 654v79h76v-79h-76zM298 -197c-18 0 -34 2 -52 6v59c13 -4 28 -6 48 -6c52 0 73 25 73 88v574h70v-584c0 -93 -56 -137 -139 -137z" />
    <glyph glyph-name="Jcircumflex" unicode="&#x134;" horiz-adv-x="423" 
d="M322 960l113 -133h-67l-83 88h-1l-83 -88h-60l110 133h71zM65 -1h-40v60h26c160 0 196 46 196 180v526h72v-536c0 -159 -78 -230 -254 -230z" />
    <glyph glyph-name="jcircumflex" unicode="&#x135;" horiz-adv-x="265" 
d="M-24 -191v59c13 -4 28 -6 48 -6c52 0 73 25 73 88v574h70v-584c0 -93 -56 -137 -139 -137c-18 0 -34 2 -52 6zM163 788l101 -158h-59l-75 111h-1l-76 -111h-52l99 158h63z" />
    <glyph glyph-name="Kcommaaccent" unicode="&#x136;" horiz-adv-x="715" 
d="M312 -211l27 135h73l-55 -135h-45zM184 264v-264h-71v765h71v-414l397 414h88l-309 -322l329 -443h-86l-295 395z" />
    <glyph glyph-name="kcommaaccent" unicode="&#x137;" horiz-adv-x="549" 
d="M234 -211l27 135h73l-55 -135h-45zM167 170v-170h-70v788h70v-531l239 267h83l-180 -197l210 -327h-82l-175 275z" />
    <glyph glyph-name="kgreenlandic" unicode="&#x138;" horiz-adv-x="546" 
d="M167 170v-170h-70v524h70v-267l239 267h83l-180 -197l210 -327h-83l-175 273z" />
    <glyph glyph-name="Lacute" unicode="&#x139;" horiz-adv-x="616" 
d="M124 827l67 133h81l-91 -133h-57zM113 0v765h71v-702h395v-63h-466z" />
    <glyph glyph-name="lacute" unicode="&#x13a;" horiz-adv-x="264" 
d="M103 829l67 133h81l-91 -133h-57zM97 0v788h70v-788h-70z" />
    <glyph glyph-name="Lcommaaccent" unicode="&#x13b;" horiz-adv-x="616" 
d="M285 -211l27 135h73l-55 -135h-45zM113 0v765h71v-702h395v-63h-466z" />
    <glyph glyph-name="lcommaaccent" unicode="&#x13c;" horiz-adv-x="264" 
d="M67 -211l27 135h73l-55 -135h-45zM97 0v788h70v-788h-70z" />
    <glyph glyph-name="Lcaron" unicode="&#x13d;" horiz-adv-x="616" 
d="M290 593l32 195h75l-54 -195h-53zM112 0v765h71v-702h395v-63h-466z" />
    <glyph glyph-name="lcaron" unicode="&#x13e;" horiz-adv-x="264" 
d="M223 624l15 164h69l-37 -164h-47zM97 0v788h70v-788h-70z" />
    <glyph glyph-name="Ldot" unicode="&#x13f;" horiz-adv-x="616" 
d="M113 0v765h71v-702h395v-63h-466zM413 342v89h90v-89h-90z" />
    <glyph glyph-name="ldot" unicode="&#x140;" horiz-adv-x="344" 
d="M97 0v788h70v-788h-70zM266 358v75h75v-75h-75z" />
    <glyph glyph-name="Nacute" unicode="&#x143;" horiz-adv-x="801" 
d="M372 827l67 133h81l-91 -133h-57zM113 0v765h88l383 -607c23 -37 34 -62 34 -62h2v669h69v-765h-89l-380 605c-24 38 -36 63 -36 63h-2v-668h-69z" />
    <glyph glyph-name="nacute" unicode="&#x144;" horiz-adv-x="596" 
d="M287 630l62 158h78l-86 -158h-54zM433 0v331c0 44 -4 84 -23 110c-18 25 -47 37 -88 37c-107 0 -155 -79 -155 -169v-309h-70v524h65v-93h2c28 59 87 106 174 106c113 0 164 -61 164 -181v-356h-69z" />
    <glyph glyph-name="Ncommaaccent" unicode="&#x145;" horiz-adv-x="801" 
d="M339 -211l27 135h73l-55 -135h-45zM113 0v765h88l383 -607c23 -37 34 -62 34 -62h2v669h69v-765h-89l-380 605c-24 38 -36 63 -36 63h-2v-668h-69z" />
    <glyph glyph-name="ncommaaccent" unicode="&#x146;" horiz-adv-x="596" 
d="M239 -211l27 135h73l-55 -135h-45zM433 0v331c0 44 -4 84 -23 110c-18 25 -47 37 -88 37c-107 0 -155 -79 -155 -169v-309h-70v524h65v-93h2c28 59 87 106 174 106c113 0 164 -61 164 -181v-356h-69z" />
    <glyph glyph-name="Ncaron" unicode="&#x147;" horiz-adv-x="801" 
d="M360 827l-113 133h67l83 -88h1l83 88h60l-110 -133h-71zM113 0v765h88l383 -607c23 -37 34 -62 34 -62h2v669h69v-765h-89l-380 605c-24 38 -36 63 -36 63h-2v-668h-69z" />
    <glyph glyph-name="ncaron" unicode="&#x148;" horiz-adv-x="596" 
d="M263 630l-114 158h66l85 -110h1l85 110h59l-111 -158h-71zM433 0v331c0 44 -4 84 -23 110c-18 25 -47 37 -88 37c-107 0 -155 -79 -155 -169v-309h-70v524h65v-93h2c28 59 87 106 174 106c113 0 164 -61 164 -181v-356h-69z" />
    <glyph glyph-name="napostrophe" unicode="&#x149;" horiz-adv-x="596" 
d="M48 653l27 135h73l-55 -135h-45zM433 0v331c0 44 -4 84 -23 110c-18 25 -47 37 -88 37c-107 0 -155 -79 -155 -169v-309h-70v524h65v-93h2c28 59 87 106 174 106c113 0 164 -61 164 -181v-356h-69z" />
    <glyph glyph-name="Eng" unicode="&#x14a;" horiz-adv-x="801" 
d="M689 17c0 -123 -55 -204 -241 -205h-19v61h11c135 1 174 40 179 116l-398 616c-24 38 -37 63 -37 63h-2v-668h-69v765h86l383 -590c23 -36 36 -63 36 -63h2v653h69v-748z" />
    <glyph glyph-name="eng" unicode="&#x14b;" horiz-adv-x="596" 
d="M364 -197c-18 0 -33 2 -50 6v58c12 -3 26 -5 46 -5c51 0 73 25 73 88v381c0 44 -4 84 -23 110c-18 25 -47 37 -88 37c-107 0 -155 -79 -155 -169v-309h-70v524h65v-93h2c28 59 87 106 174 106c113 0 164 -61 164 -181v-416c0 -93 -56 -137 -138 -137z" />
    <glyph glyph-name="Omacron" unicode="&#x14c;" horiz-adv-x="816" 
d="M269 859v57h277v-57h-277zM69 379c0 278 160 397 338 397c180 0 340 -119 340 -397c0 -276 -159 -395 -340 -395s-338 119 -338 395zM407 41c153 0 266 116 266 338c0 224 -112 340 -266 340c-152 0 -264 -113 -264 -340c0 -223 110 -338 264 -338z" />
    <glyph glyph-name="omacron" unicode="&#x14d;" horiz-adv-x="565" 
d="M144 654v57h277v-57h-277zM283 -13c-157 0 -230 115 -230 275c0 158 85 275 230 275c158 0 229 -117 229 -275c0 -161 -83 -275 -229 -275zM283 483c-103 0 -159 -86 -159 -221s50 -220 160 -220c106 0 156 85 156 220s-48 221 -157 221z" />
    <glyph glyph-name="Obreve" unicode="&#x14e;" horiz-adv-x="816" 
d="M265 969h56c6 -56 41 -82 89 -82c47 0 83 25 89 82h51c-6 -94 -67 -133 -143 -133s-135 39 -142 133zM69 379c0 278 160 397 338 397c180 0 340 -119 340 -397c0 -276 -159 -395 -340 -395s-338 119 -338 395zM407 41c153 0 266 116 266 338c0 224 -112 340 -266 340
c-152 0 -264 -113 -264 -340c0 -223 110 -338 264 -338z" />
    <glyph glyph-name="obreve" unicode="&#x14f;" horiz-adv-x="565" 
d="M283 -13c-157 0 -230 115 -230 275c0 158 85 275 230 275c158 0 229 -117 229 -275c0 -161 -83 -275 -229 -275zM283 483c-103 0 -159 -86 -159 -221s50 -220 160 -220c106 0 156 85 156 220s-48 221 -157 221zM282 625c-80 0 -142 44 -142 152h55c0 -70 38 -101 90 -101
s90 31 90 101h51c0 -108 -63 -152 -144 -152z" />
    <glyph glyph-name="Ohungarumlaut" unicode="&#x150;" horiz-adv-x="816" 
d="M445 840l39 133h74l-66 -133h-47zM313 840l43 133h73l-70 -133h-46zM69 379c0 278 160 397 338 397c180 0 340 -119 340 -397c0 -276 -159 -395 -340 -395s-338 119 -338 395zM407 41c153 0 266 116 266 338c0 224 -112 340 -266 340c-152 0 -264 -113 -264 -340
c0 -223 110 -338 264 -338z" />
    <glyph glyph-name="ohungarumlaut" unicode="&#x151;" horiz-adv-x="565" 
d="M320 630l62 158h72l-85 -158h-49zM187 630l62 158h72l-86 -158h-48zM283 -13c-157 0 -230 115 -230 275c0 158 85 275 230 275c158 0 229 -117 229 -275c0 -161 -83 -275 -229 -275zM283 483c-103 0 -159 -86 -159 -221s50 -220 160 -220c106 0 156 85 156 220
s-48 221 -157 221z" />
    <glyph glyph-name="Racute" unicode="&#x154;" horiz-adv-x="708" 
d="M310 827l67 133h81l-91 -133h-57zM184 385h201c98 0 177 48 177 166c0 101 -69 154 -175 154h-203v-320zM560 0l-166 326h-210v-326h-71v765h274c55 0 107 -11 150 -34c59 -33 98 -91 98 -179c0 -129 -82 -193 -167 -214v-2l174 -336h-82z" />
    <glyph glyph-name="racute" unicode="&#x155;" horiz-adv-x="378" 
d="M191 630l62 158h78l-86 -158h-54zM97 0v524h65v-109h2c22 61 86 119 165 119h9v-69h-14c-82 0 -157 -54 -157 -178v-287h-70z" />
    <glyph glyph-name="Rcommaaccent" unicode="&#x156;" horiz-adv-x="705" 
d="M297 -211l27 135h73l-55 -135h-45zM184 385h201c98 0 177 48 177 166c0 101 -69 154 -175 154h-203v-320zM560 0l-166 326h-210v-326h-71v765h274c55 0 107 -11 150 -34c59 -33 98 -91 98 -179c0 -129 -82 -193 -167 -214v-2l174 -336h-82z" />
    <glyph glyph-name="rcommaaccent" unicode="&#x157;" horiz-adv-x="378" 
d="M68 -211l27 135h73l-55 -135h-45zM97 0v524h65v-109h2c22 61 86 119 165 119h9v-69h-14c-82 0 -157 -54 -157 -178v-287h-70z" />
    <glyph glyph-name="Rcaron" unicode="&#x158;" horiz-adv-x="708" 
d="M298 827l-113 133h67l83 -88h1l83 88h60l-110 -133h-71zM184 385h201c98 0 177 48 177 166c0 101 -69 154 -175 154h-203v-320zM560 0l-166 326h-210v-326h-71v765h274c55 0 107 -11 150 -34c59 -33 98 -91 98 -179c0 -129 -82 -193 -167 -214v-2l174 -336h-82z" />
    <glyph glyph-name="rcaron" unicode="&#x159;" horiz-adv-x="378" 
d="M177 630l-114 158h66l85 -110h1l85 110h59l-111 -158h-71zM97 0v524h65v-109h2c22 61 86 119 165 119h9v-69h-14c-82 0 -157 -54 -157 -178v-287h-70z" />
    <glyph glyph-name="Sacute" unicode="&#x15a;" horiz-adv-x="712" 
d="M617 561h-70c-8 85 -53 158 -180 158c-111 0 -184 -56 -184 -147c0 -82 38 -120 138 -138l128 -23c127 -23 191 -91 191 -198c0 -135 -98 -229 -277 -229c-176 0 -276 109 -285 229h72c11 -84 70 -171 214 -171c148 0 204 77 204 165c0 73 -35 118 -134 136l-123 22
c-150 27 -201 96 -201 203c0 126 107 208 257 208c156 0 245 -84 250 -215zM331 827l67 133h81l-91 -133h-57z" />
    <glyph glyph-name="sacute" unicode="&#x15b;" horiz-adv-x="506" 
d="M229 630l62 158h78l-86 -158h-54zM443 398h-67c-8 51 -51 85 -122 85c-72 0 -117 -41 -117 -94c0 -51 29 -75 82 -82l94 -13c100 -14 141 -65 141 -145c0 -99 -81 -162 -200 -162c-106 0 -192 43 -206 160h68c11 -62 50 -105 139 -105c81 0 131 42 131 101
c0 47 -15 77 -91 88l-86 12c-88 12 -138 54 -138 140c0 92 75 154 185 154c109 0 178 -51 187 -139z" />
    <glyph glyph-name="Scircumflex" unicode="&#x15c;" horiz-adv-x="712" 
d="M397 960l113 -133h-67l-83 88h-1l-83 -88h-60l110 133h71zM617 561h-70c-8 85 -53 158 -180 158c-111 0 -184 -56 -184 -147c0 -82 38 -120 138 -138l128 -23c127 -23 191 -91 191 -198c0 -135 -98 -229 -277 -229c-176 0 -276 109 -285 229h72c11 -84 70 -171 214 -171
c148 0 204 77 204 165c0 73 -35 118 -134 136l-123 22c-150 27 -201 96 -201 203c0 126 107 208 257 208c156 0 245 -84 250 -215z" />
    <glyph glyph-name="scircumflex" unicode="&#x15d;" horiz-adv-x="506" 
d="M294 788l114 -158h-66l-85 111h-1l-85 -111h-59l111 158h71zM443 398h-67c-8 51 -51 85 -122 85c-72 0 -117 -41 -117 -94c0 -51 29 -75 82 -82l94 -13c100 -14 141 -65 141 -145c0 -99 -81 -162 -200 -162c-106 0 -192 43 -206 160h68c11 -62 50 -105 139 -105
c81 0 131 42 131 101c0 47 -15 77 -91 88l-86 12c-88 12 -138 54 -138 140c0 92 75 154 185 154c109 0 178 -51 187 -139z" />
    <glyph glyph-name="Scedilla" unicode="&#x15e;" horiz-adv-x="712" 
d="M354 -209c-54 0 -76 29 -79 62h51c2 -13 12 -23 31 -23c22 0 33 14 33 39c0 23 -11 38 -33 38c-12 0 -21 -5 -27 -12h-48l42 91c-152 15 -238 116 -246 227h72c11 -84 70 -171 214 -171c148 0 204 77 204 165c0 73 -35 118 -134 136l-123 22c-150 27 -201 96 -201 203
c0 126 107 208 257 208c156 0 245 -84 250 -215h-70c-8 85 -53 158 -180 158c-111 0 -184 -56 -184 -147c0 -82 38 -120 138 -138l128 -23c127 -23 191 -91 191 -198c0 -135 -98 -229 -276 -229l-26 -54h2c8 7 19 12 35 12c42 0 67 -28 67 -74c0 -38 -26 -77 -88 -77z" />
    <glyph glyph-name="scedilla" unicode="&#x15f;" horiz-adv-x="506" 
d="M251 -209c-54 0 -76 29 -79 62h51c2 -13 12 -23 31 -23c22 0 33 14 33 39c0 23 -11 38 -33 38c-12 0 -21 -5 -27 -12h-48l43 93c-91 9 -161 54 -174 159h68c11 -62 50 -105 139 -105c81 0 131 42 131 101c0 47 -15 77 -91 88l-86 12c-88 12 -138 54 -138 140
c0 92 75 154 185 154c109 0 178 -51 187 -139h-67c-8 51 -51 85 -122 85c-72 0 -117 -41 -117 -94c0 -51 29 -75 82 -82l94 -13c100 -14 141 -65 141 -145c0 -97 -77 -159 -192 -162l-27 -57h2c8 7 19 12 35 12c42 0 67 -28 67 -74c0 -38 -26 -77 -88 -77z" />
    <glyph glyph-name="Tcommaaccent" unicode="&#x162;" horiz-adv-x="651" 
d="M261 -211l27 135h73l-55 -135h-45zM636 765v-62h-275v-703h-71v703h-274v62h620z" />
    <glyph glyph-name="tcommaaccent" unicode="&#x163;" horiz-adv-x="362" 
d="M165 -211l27 135h73l-55 -135h-45zM127 681h65v-157h134v-54h-134v-339c0 -56 24 -80 84 -80c30 0 60 6 60 6v-58s-30 -8 -77 -8c-101 0 -136 54 -136 132v347h-100v52h23c67 0 81 15 81 111v48z" />
    <glyph glyph-name="Tcaron" unicode="&#x164;" horiz-adv-x="651" 
d="M285 827l-113 133h67l83 -88h1l83 88h60l-110 -133h-71zM636 765v-62h-275v-703h-71v703h-274v62h620z" />
    <glyph glyph-name="tcaron" unicode="&#x165;" horiz-adv-x="362" 
d="M265 624l15 164h69l-37 -164h-47zM127 681h65v-157h134v-54h-134v-339c0 -56 24 -80 84 -80c30 0 60 6 60 6v-58s-30 -8 -77 -8c-101 0 -136 54 -136 132v347h-100v52h23c67 0 81 15 81 111v48z" />
    <glyph glyph-name="Tbar" unicode="&#x166;" horiz-adv-x="651" 
d="M360 441v-441h-71v441h-206v53h206v209h-274v62h620v-62h-275v-209h208v-53h-208z" />
    <glyph glyph-name="tbar" unicode="&#x167;" horiz-adv-x="362" 
d="M336 -1c0 0 -30 -8 -77 -8c-101 0 -136 54 -136 132v137h-100v55h100v155h-100v52h23c67 0 81 15 81 111v48h65v-157h134v-54h-134v-155h134v-55h-134v-129c0 -56 24 -80 84 -80c30 0 60 6 60 6v-58z" />
    <glyph glyph-name="Utilde" unicode="&#x168;" horiz-adv-x="765" 
d="M99 255v510h72v-436c0 -76 0 -165 41 -217c39 -48 98 -69 173 -69s133 21 171 69c41 52 40 141 40 217v436h70v-510c0 -192 -114 -270 -283 -270c-171 0 -284 77 -284 270zM212 828c0 62 28 123 98 123c67 0 106 -67 147 -67c30 0 45 27 49 70h48
c0 -62 -30 -124 -99 -124c-66 0 -105 67 -147 67c-30 0 -44 -27 -49 -69h-47z" />
    <glyph glyph-name="utilde" unicode="&#x169;" horiz-adv-x="595" 
d="M164 524v-335c0 -42 4 -82 23 -107c18 -24 48 -37 91 -37c101 0 151 78 151 196v283h69v-524h-65v97h-2c-25 -58 -81 -110 -168 -110c-112 0 -168 59 -168 179v358h69zM126 628c0 63 28 124 98 124c67 0 106 -68 147 -68c30 0 45 28 49 70h48c0 -62 -30 -124 -99 -124
c-66 0 -105 67 -147 67c-30 0 -44 -27 -49 -69h-47z" />
    <glyph glyph-name="Umacron" unicode="&#x16a;" horiz-adv-x="765" 
d="M99 255v510h72v-436c0 -76 0 -165 41 -217c39 -48 98 -69 173 -69s133 21 171 69c41 52 40 141 40 217v436h70v-510c0 -192 -114 -270 -283 -270c-171 0 -284 77 -284 270zM244 859v57h277v-57h-277z" />
    <glyph glyph-name="umacron" unicode="&#x16b;" horiz-adv-x="595" 
d="M164 524v-335c0 -42 4 -82 23 -107c18 -24 48 -37 91 -37c101 0 151 78 151 196v283h69v-524h-65v97h-2c-25 -58 -81 -110 -168 -110c-112 0 -168 59 -168 179v358h69zM158 654v57h277v-57h-277z" />
    <glyph glyph-name="Ubreve" unicode="&#x16c;" horiz-adv-x="765" 
d="M99 255v510h72v-436c0 -76 0 -165 41 -217c39 -48 98 -69 173 -69s133 21 171 69c41 52 40 141 40 217v436h70v-510c0 -192 -114 -270 -283 -270c-171 0 -284 77 -284 270zM240 969h56c6 -56 41 -82 89 -82c47 0 83 25 89 82h51c-6 -94 -67 -133 -143 -133
s-135 39 -142 133z" />
    <glyph glyph-name="ubreve" unicode="&#x16d;" horiz-adv-x="595" 
d="M164 524v-335c0 -42 4 -82 23 -107c18 -24 48 -37 91 -37c101 0 151 78 151 196v283h69v-524h-65v97h-2c-25 -58 -81 -110 -168 -110c-112 0 -168 59 -168 179v358h69zM296 625c-80 0 -142 44 -142 152h55c0 -70 38 -101 90 -101s90 31 90 101h51
c0 -108 -63 -152 -144 -152z" />
    <glyph glyph-name="Uring" unicode="&#x16e;" horiz-adv-x="765" 
d="M99 255v510h72v-436c0 -76 0 -165 41 -217c39 -48 98 -69 173 -69s133 21 171 69c41 52 40 141 40 217v436h70v-510c0 -192 -114 -270 -283 -270c-171 0 -284 77 -284 270zM383 814c-63 0 -102 41 -102 101c0 59 41 101 102 101c65 0 103 -42 103 -101
c0 -60 -41 -101 -103 -101zM383 978c-33 0 -54 -27 -54 -63c0 -37 19 -62 54 -62c34 0 55 25 55 62c0 36 -20 63 -55 63z" />
    <glyph glyph-name="uring" unicode="&#x16f;" horiz-adv-x="595" 
d="M296 632c-63 0 -102 42 -102 101s41 101 102 101c65 0 103 -42 103 -101s-41 -101 -103 -101zM296 796c-33 0 -54 -27 -54 -63s19 -62 54 -62c34 0 55 26 55 62s-20 63 -55 63zM164 524v-335c0 -42 4 -82 23 -107c18 -24 48 -37 91 -37c101 0 151 78 151 196v283h69v-524
h-65v97h-2c-25 -58 -81 -110 -168 -110c-112 0 -168 59 -168 179v358h69z" />
    <glyph glyph-name="Uhungarumlaut" unicode="&#x170;" horiz-adv-x="765" 
d="M421 840l39 133h74l-66 -133h-47zM289 840l43 133h73l-70 -133h-46zM99 255v510h72v-436c0 -76 0 -165 41 -217c39 -48 98 -69 173 -69s133 21 171 69c41 52 40 141 40 217v436h70v-510c0 -192 -114 -270 -283 -270c-171 0 -284 77 -284 270z" />
    <glyph glyph-name="uhungarumlaut" unicode="&#x171;" horiz-adv-x="595" 
d="M164 524v-335c0 -42 4 -82 23 -107c18 -24 48 -37 91 -37c101 0 151 78 151 196v283h69v-524h-65v97h-2c-25 -58 -81 -110 -168 -110c-112 0 -168 59 -168 179v358h69zM334 630l62 158h72l-85 -158h-49zM201 630l62 158h72l-86 -158h-48z" />
    <glyph glyph-name="Uogonek" unicode="&#x172;" horiz-adv-x="765" 
d="M99 255v510h72v-436c0 -76 -1 -166 41 -217c38 -49 98 -69 173 -69s133 21 171 69c41 52 40 141 40 217v436h70v-510c0 -171 -90 -235 -186 -259c-58 -14 -96 -48 -96 -86c0 -36 27 -47 74 -48v-50h-19c-68 0 -118 26 -118 89c0 38 24 66 51 84c-165 4 -273 81 -273 270z
" />
    <glyph glyph-name="uogonek" unicode="&#x173;" horiz-adv-x="595" 
d="M498 -188h-19c-68 0 -122 22 -122 89c0 50 41 85 76 102v94h-2c-25 -58 -81 -110 -168 -110c-112 0 -168 59 -168 179v358h69v-335c0 -42 4 -82 23 -107c18 -24 48 -37 91 -37c101 0 151 78 151 196v283h69v-519c-46 -29 -78 -58 -78 -95c0 -39 31 -47 78 -48v-50z" />
    <glyph glyph-name="Wcircumflex" unicode="&#x174;" horiz-adv-x="1047" 
d="M561 960l113 -133h-67l-83 88h-1l-83 -88h-60l110 133h71zM330 0h-75l-221 765h72l166 -584c16 -55 21 -92 21 -92h2s5 37 21 92l165 584h85l165 -583c15 -53 23 -95 23 -95h2s7 42 22 94l165 584h70l-220 -765h-79l-162 566c-22 77 -29 120 -29 120h-2s-8 -42 -30 -118z
" />
    <glyph glyph-name="wcircumflex" unicode="&#x175;" horiz-adv-x="817" 
d="M446 788l114 -158h-66l-85 111h-1l-85 -111h-59l111 158h71zM196 0l-165 524h71l117 -388c8 -28 15 -55 15 -55h2s8 28 17 56l121 387h73l121 -387c7 -23 17 -56 17 -56h2s7 33 14 56l117 387h68l-165 -524h-75l-109 349c-13 42 -27 92 -27 92h-2s-14 -50 -27 -92
l-109 -349h-76z" />
    <glyph glyph-name="Ycircumflex" unicode="&#x176;" horiz-adv-x="640" 
d="M285 0v335l-272 430h82l225 -365h2l229 365h77l-272 -426v-339h-71zM359 960l113 -133h-67l-83 88h-1l-83 -88h-60l110 133h71z" />
    <glyph glyph-name="ycircumflex" unicode="&#x177;" horiz-adv-x="493" 
d="M216 -1l-182 525h70l121 -359c14 -42 24 -76 24 -76h2s11 36 24 76l120 359h69l-195 -566c-40 -116 -78 -157 -174 -157c-25 0 -45 5 -59 9v58c17 -5 37 -9 56 -9c63 0 85 32 108 96zM289 788l114 -158h-66l-85 111h-1l-85 -111h-59l111 158h71z" />
    <glyph glyph-name="Zacute" unicode="&#x179;" horiz-adv-x="653" 
d="M310 827l67 133h81l-91 -133h-57zM66 704v61h535v-55l-469 -649h469v-61h-556v55l469 649h-448z" />
    <glyph glyph-name="zacute" unicode="&#x17a;" horiz-adv-x="506" 
d="M236 630l62 158h78l-86 -158h-54zM63 467v57h390v-59l-327 -407h335v-58h-413v61l325 406h-310z" />
    <glyph glyph-name="Zdotaccent" unicode="&#x17b;" horiz-adv-x="653" 
d="M66 704v61h535v-55l-469 -649h469v-61h-556v55l469 649h-448zM300 839v79h76v-79h-76z" />
    <glyph glyph-name="zdotaccent" unicode="&#x17c;" horiz-adv-x="506" 
d="M63 467v57h390v-59l-327 -407h335v-58h-413v61l325 406h-310zM224 654v79h76v-79h-76z" />
    <glyph glyph-name="Aringacute" unicode="&#x1fa;" horiz-adv-x="723" 
d="M360 696c-2 -5 -16 -50 -32 -94l-108 -294h279l-107 295c-17 46 -30 93 -30 93h-2zM611 0l-91 250h-321l-91 -250h-71l283 765h84l282 -765h-75zM338 1032l67 133h81l-91 -133h-57zM361 802c-63 0 -102 41 -102 101c0 59 41 101 102 101c65 0 103 -42 103 -101
c0 -60 -41 -101 -103 -101zM361 966c-33 0 -54 -27 -54 -63c0 -37 19 -62 54 -62c34 0 55 25 55 62c0 36 -20 63 -55 63z" />
    <glyph glyph-name="aringacute" unicode="&#x1fb;" horiz-adv-x="552" 
d="M229 48c75 0 161 59 161 188v22c-130 -8 -196 -16 -229 -40c-24 -17 -36 -43 -36 -76c0 -62 41 -94 104 -94zM147 385h-66c1 82 72 152 190 152c145 0 186 -80 186 -193v-228c0 -48 14 -65 51 -66v-55h-9c-75 0 -102 33 -106 103h-2c-32 -68 -96 -106 -176 -106
c-98 0 -161 54 -161 147c0 60 26 103 72 128c52 29 138 38 265 45v33c0 82 -29 139 -122 139c-80 0 -118 -45 -122 -99zM279 589c-63 0 -102 42 -102 101s41 101 102 101c65 0 103 -42 103 -101s-41 -101 -103 -101zM279 753c-33 0 -54 -27 -54 -63s19 -62 54 -62
c34 0 55 26 55 62s-20 63 -55 63zM256 832l67 133h81l-91 -133h-57z" />
    <glyph glyph-name="AEacute" unicode="&#x1fc;" horiz-adv-x="1074" 
d="M512 827l67 133h81l-91 -133h-57zM512 308v394h-80l-180 -394h260zM225 250l-115 -251l-74 1l352 765h608v-63h-412v-281h375v-62h-375v-296h416v-63h-488v250h-287z" />
    <glyph glyph-name="aeacute" unicode="&#x1fd;" horiz-adv-x="863" 
d="M429 630l62 158h78l-86 -158h-54zM744 306v5c-1 89 -38 173 -139 173c-98 0 -145 -85 -153 -178h292zM227 48c77 0 163 59 163 195v11c-122 -1 -193 -6 -234 -37c-20 -15 -32 -40 -32 -73c0 -62 41 -96 103 -96zM807 131c-20 -82 -96 -144 -199 -144
c-106 0 -173 57 -194 129h-4c-36 -72 -93 -124 -195 -124c-99 0 -162 56 -162 149c0 60 25 102 74 128c54 29 124 38 264 38v38c0 79 -30 139 -123 139c-80 0 -118 -45 -122 -99h-66c1 86 69 152 192 152c95 0 142 -39 163 -97h4c32 59 86 97 171 97
c150 0 204 -124 204 -247v-40l-363 -1c2 -136 51 -207 161 -207c89 0 119 56 128 89h67z" />
    <glyph glyph-name="Oslashacute" unicode="&#x1fe;" horiz-adv-x="816" 
d="M407 719c-152 0 -264 -113 -264 -340c0 -95 18 -169 50 -223l384 504c-44 40 -102 59 -170 59zM407 41c153 0 266 116 266 338c0 103 -21 182 -58 237l-387 -507c45 -46 107 -68 179 -68zM747 379c0 -276 -159 -395 -340 -395c-81 0 -157 24 -217 75l-64 -84h-71l96 125
c-51 64 -82 156 -82 279c0 278 160 397 338 397c76 0 149 -21 208 -67l64 84h71l-94 -124c56 -64 91 -160 91 -290zM374 827l67 133h81l-91 -133h-57z" />
    <glyph glyph-name="oslashacute" unicode="&#x1ff;" horiz-adv-x="565" 
d="M283 483c-103 0 -159 -86 -159 -221c0 -55 7 -101 23 -137l243 317c-25 27 -60 41 -107 41zM284 42c106 0 156 85 156 220c0 54 -7 99 -21 134l-243 -314c26 -26 61 -40 108 -40zM512 262c0 -161 -83 -275 -229 -275c-60 0 -108 17 -144 47l-42 -55h-62l70 91
c-35 48 -52 115 -52 192c0 158 85 275 230 275c60 0 108 -17 144 -47l40 52h64l-69 -90c34 -48 50 -115 50 -190zM255 630l62 158h78l-86 -158h-54z" />
    <glyph glyph-name="Scommaaccent" unicode="&#x218;" horiz-adv-x="712" 
d="M298 -211l27 135h73l-55 -135h-45zM617 561h-70c-8 85 -53 158 -180 158c-111 0 -184 -56 -184 -147c0 -82 38 -120 138 -138l128 -23c127 -23 191 -91 191 -198c0 -135 -98 -229 -277 -229c-176 0 -276 109 -285 229h72c11 -84 70 -171 214 -171c148 0 204 77 204 165
c0 73 -35 118 -134 136l-123 22c-150 27 -201 96 -201 203c0 126 107 208 257 208c156 0 245 -84 250 -215z" />
    <glyph glyph-name="scommaaccent" unicode="&#x219;" horiz-adv-x="506" 
d="M195 -211l27 135h73l-55 -135h-45zM443 398h-67c-8 51 -51 85 -122 85c-72 0 -117 -41 -117 -94c0 -51 29 -75 82 -82l94 -13c100 -14 141 -65 141 -145c0 -99 -81 -162 -200 -162c-106 0 -192 43 -206 160h68c11 -62 50 -105 139 -105c81 0 131 42 131 101
c0 47 -15 77 -91 88l-86 12c-88 12 -138 54 -138 140c0 92 75 154 185 154c109 0 178 -51 187 -139z" />
    <glyph glyph-name="uni021A" unicode="&#x21a;" horiz-adv-x="651" 
d="M261 -211l27 135h73l-55 -135h-45zM636 765v-62h-275v-703h-71v703h-274v62h620z" />
    <glyph glyph-name="uni021B" unicode="&#x21b;" horiz-adv-x="362" 
d="M165 -211l27 135h73l-55 -135h-45zM127 681h65v-157h134v-54h-134v-339c0 -56 24 -80 84 -80c30 0 60 6 60 6v-58s-30 -8 -77 -8c-101 0 -136 54 -136 132v347h-100v52h23c67 0 81 15 81 111v48z" />
    <glyph glyph-name="uni0237" unicode="&#x237;" horiz-adv-x="265" 
d="M-24 -191v59c13 -4 28 -6 48 -6c52 0 73 25 73 88v574h70v-584c0 -93 -56 -137 -139 -137c-18 0 -34 2 -52 6z" />
    <glyph glyph-name="Wgrave" unicode="&#x1e80;" horiz-adv-x="1047" 
d="M484 960l68 -133h-57l-91 133h80zM330 0h-75l-221 765h72l166 -584c16 -55 21 -92 21 -92h2s5 37 21 92l165 584h85l165 -583c15 -53 23 -95 23 -95h2s7 42 22 94l165 584h70l-220 -765h-79l-162 566c-22 77 -29 120 -29 120h-2s-8 -42 -30 -118z" />
    <glyph glyph-name="wgrave" unicode="&#x1e81;" horiz-adv-x="817" 
d="M196 0l-165 524h71l117 -388c8 -28 15 -55 15 -55h2s8 28 17 56l121 387h73l121 -387c7 -23 17 -56 17 -56h2s7 33 14 56l117 387h68l-165 -524h-75l-109 349c-13 42 -27 92 -27 92h-2s-14 -50 -27 -92l-109 -349h-76zM372 788l64 -158h-54l-87 158h77z" />
    <glyph glyph-name="Wacute" unicode="&#x1e82;" horiz-adv-x="1047" 
d="M495 827l67 133h81l-91 -133h-57zM330 0h-75l-221 765h72l166 -584c16 -55 21 -92 21 -92h2s5 37 21 92l165 584h85l165 -583c15 -53 23 -95 23 -95h2s7 42 22 94l165 584h70l-220 -765h-79l-162 566c-22 77 -29 120 -29 120h-2s-8 -42 -30 -118z" />
    <glyph glyph-name="wacute" unicode="&#x1e83;" horiz-adv-x="817" 
d="M382 630l62 158h78l-86 -158h-54zM196 0l-165 524h71l117 -388c8 -28 15 -55 15 -55h2s8 28 17 56l121 387h73l121 -387c7 -23 17 -56 17 -56h2s7 33 14 56l117 387h68l-165 -524h-75l-109 349c-13 42 -27 92 -27 92h-2s-14 -50 -27 -92l-109 -349h-76z" />
    <glyph glyph-name="Wdieresis" unicode="&#x1e84;" horiz-adv-x="1047" 
d="M592 839v84h78v-84h-78zM376 839v84h78v-84h-78zM330 0h-75l-221 765h72l166 -584c16 -55 21 -92 21 -92h2s5 37 21 92l165 584h85l165 -583c15 -53 23 -95 23 -95h2s7 42 22 94l165 584h70l-220 -765h-79l-162 566c-22 77 -29 120 -29 120h-2s-8 -42 -30 -118z" />
    <glyph glyph-name="wdieresis" unicode="&#x1e85;" horiz-adv-x="817" 
d="M464 650v84h80v-84h-80zM272 650v84h79v-84h-79zM196 0l-165 524h71l117 -388c8 -28 15 -55 15 -55h2s8 28 17 56l121 387h73l121 -387c7 -23 17 -56 17 -56h2s7 33 14 56l117 387h68l-165 -524h-75l-109 349c-13 42 -27 92 -27 92h-2s-14 -50 -27 -92l-109 -349h-76z
" />
    <glyph glyph-name="Ygrave" unicode="&#x1ef2;" horiz-adv-x="640" 
d="M285 0v335l-272 430h82l225 -365h2l229 365h77l-272 -426v-339h-71zM281 960l68 -133h-57l-91 133h80z" />
    <glyph glyph-name="ygrave" unicode="&#x1ef3;" horiz-adv-x="493" 
d="M216 -1l-182 525h70l121 -359c14 -42 24 -76 24 -76h2s11 36 24 76l120 359h69l-195 -566c-40 -116 -78 -157 -174 -157c-25 0 -45 5 -59 9v58c17 -5 37 -9 56 -9c63 0 85 32 108 96zM214 788l64 -158h-54l-87 158h77z" />
    <glyph glyph-name="uni2009" unicode="&#x2009;" horiz-adv-x="61" 
 />
    <glyph glyph-name="uni2032" unicode="&#x2032;" horiz-adv-x="211" 
d="M63 560l6 205h86l-40 -205h-52z" />
    <glyph glyph-name="uni2033" unicode="&#x2033;" horiz-adv-x="363" 
d="M215 560l8 205h85l-39 -205h-54zM63 560l6 205h86l-40 -205h-52z" />
    <glyph glyph-name="Euro" unicode="&#x20ac;" horiz-adv-x="654" 
d="M600 204c-8 -132 -89 -220 -229 -220c-155 0 -237 106 -259 279h-84v57h79c-1 15 -1 32 -1 48s0 32 1 47h-80v56h86c23 172 111 281 258 281c110 0 220 -67 228 -220h-69c-6 82 -62 163 -159 163c-116 0 -169 -99 -186 -224h252v-56h-258c-1 -16 -1 -31 -1 -47
s0 -32 1 -48h260v-57h-254c18 -130 73 -224 185 -224c105 0 154 71 162 165h68z" />
    <glyph glyph-name="onethird" unicode="&#x2153;" horiz-adv-x="862" 
d="M665 193h-44v50h42c48 0 79 32 79 73c0 44 -35 72 -83 72c-54 0 -88 -27 -90 -82h-61c0 69 50 130 152 130c90 0 144 -48 144 -114c0 -48 -32 -84 -79 -99v-2c49 -9 92 -41 92 -106c0 -67 -59 -124 -160 -124c-110 0 -154 62 -157 130h61c7 -55 47 -82 100 -82
s94 32 94 78c0 52 -38 76 -90 76zM127 335v306h-93v41h14c30 0 53 7 67 20c15 14 20 33 21 63h51v-430h-60zM64 -40l550 825h65l-550 -825h-65z" />
    <glyph glyph-name="twothirds" unicode="&#x2154;" horiz-adv-x="955" 
d="M758 193h-44v50h42c48 0 79 32 79 73c0 44 -35 72 -83 72c-54 0 -88 -27 -90 -82h-61c0 69 50 130 152 130c90 0 144 -48 144 -114c0 -48 -32 -84 -79 -99v-2c49 -9 92 -41 92 -106c0 -67 -59 -124 -160 -124c-110 0 -154 62 -157 130h61c7 -55 47 -82 100 -82
s94 32 94 78c0 52 -38 76 -90 76zM348 335h-313v42l159 142c65 55 85 84 85 129s-32 75 -83 75c-47 0 -89 -26 -92 -98h-61c1 94 67 146 154 146c103 0 146 -58 146 -120c0 -58 -26 -97 -100 -160l-121 -105v-1h226v-50zM171 -40l550 825h65l-550 -825h-65z" />
    <glyph glyph-name="oneeighth" unicode="&#x215b;" horiz-adv-x="867" 
d="M518 320c0 64 53 116 145 116c93 0 147 -52 147 -117c0 -52 -35 -87 -73 -99v-1c42 -9 86 -42 86 -105c0 -69 -60 -123 -160 -123c-102 0 -159 52 -159 123c0 63 46 96 85 105v1c-37 12 -71 47 -71 100zM663 391c-46 0 -85 -24 -85 -75s40 -76 85 -76s85 25 85 76
s-39 75 -85 75zM663 36c55 0 99 24 99 79s-45 80 -99 80c-51 0 -97 -25 -97 -80s45 -79 97 -79zM127 335v306h-93v41h14c30 0 53 7 67 20c15 14 20 33 21 63h51v-430h-60zM71 -40l550 825h65l-550 -825h-65z" />
    <glyph glyph-name="threeeighths" unicode="&#x215c;" horiz-adv-x="948" 
d="M599 325c0 64 53 116 145 116c93 0 147 -52 147 -117c0 -52 -35 -87 -73 -99v-1c42 -9 86 -42 86 -105c0 -69 -60 -123 -160 -123c-102 0 -159 52 -159 123c0 63 46 96 85 105v1c-37 12 -71 47 -71 100zM744 396c-46 0 -85 -24 -85 -75s40 -76 85 -76s85 25 85 76
s-39 75 -85 75zM744 41c55 0 99 24 99 79s-45 80 -99 80c-51 0 -97 -25 -97 -80s45 -79 97 -79zM168 -40l550 825h65l-550 -825h-65zM209 528h-44v50h42c48 0 79 32 79 73c0 44 -35 72 -83 72c-54 0 -88 -27 -90 -82h-61c0 68 50 130 152 130c90 0 144 -48 144 -115
c0 -47 -32 -84 -79 -99v-1c49 -10 92 -42 92 -107c0 -66 -59 -123 -160 -123c-110 0 -154 62 -157 130h61c7 -55 47 -82 100 -82s94 31 94 77c0 53 -38 77 -90 77z" />
    <glyph glyph-name="fiveeighths" unicode="&#x215d;" horiz-adv-x="935" 
d="M587 320c0 64 53 116 145 116c93 0 147 -52 147 -117c0 -52 -35 -87 -73 -99v-1c42 -9 86 -42 86 -105c0 -69 -60 -123 -160 -123c-102 0 -159 52 -159 123c0 63 46 96 85 105v1c-37 12 -71 47 -71 100zM732 391c-46 0 -85 -24 -85 -75s40 -76 85 -76s85 25 85 76
s-39 75 -85 75zM732 36c55 0 99 24 99 79s-45 80 -99 80c-51 0 -97 -25 -97 -80s45 -79 97 -79zM290 472c0 64 -41 98 -93 98c-40 0 -68 -14 -87 -38h-52l20 233h255v-52h-207l-11 -132h1c20 19 52 36 96 36c71 0 140 -43 140 -144c0 -88 -61 -147 -161 -147
c-106 0 -145 62 -150 123h61c5 -51 40 -76 91 -76c49 0 97 30 97 99zM152 -40l550 825h65l-550 -825h-65z" />
    <glyph glyph-name="seveneighths" unicode="&#x215e;" horiz-adv-x="867" 
d="M519 320c0 64 53 116 145 116c93 0 147 -52 147 -117c0 -52 -35 -87 -73 -99v-1c42 -9 86 -42 86 -105c0 -69 -60 -123 -160 -123c-102 0 -159 52 -159 123c0 63 46 96 85 105v1c-37 12 -71 47 -71 100zM664 391c-46 0 -85 -24 -85 -75s40 -76 85 -76s85 25 85 76
s-39 75 -85 75zM664 36c55 0 99 24 99 79s-45 80 -99 80c-51 0 -97 -25 -97 -80s45 -79 97 -79zM70 335l187 378h-229v52h298v-38l-194 -392h-62zM66 -40l550 825h65l-550 -825h-65z" />
    <glyph glyph-name="uni24C5" unicode="&#x24c5;" horiz-adv-x="899" 
d="M55 380c0 224 168 397 394 397s395 -173 395 -397s-169 -396 -395 -396s-394 172 -394 396zM449 28c196 0 342 153 342 352s-146 353 -342 353s-341 -154 -341 -353s145 -352 341 -352zM393 182h-53v404h127c87 0 141 -43 141 -123c0 -81 -55 -127 -143 -127h-72v-154z
M393 379h76c49 0 86 25 86 83c0 54 -31 81 -86 81h-76v-164z" />
    <glyph glyph-name="f_f" unicode="&#xfb00;" horiz-adv-x="674" 
d="M191 470v-470h-70v470h-102v54h102v126c0 90 57 135 146 135c17 0 34 -1 53 -5v-58c-12 3 -28 5 -50 5c-54 0 -79 -25 -79 -89v-114h258v132c0 90 57 135 146 135c17 0 34 -1 53 -5v-58c-12 3 -28 5 -50 5c-54 0 -79 -25 -79 -89v-120h133v-54h-133v-470h-70v470h-258z
" />
    <glyph glyph-name="quotedblright.sc" horiz-adv-x="362" 
d="M196 439l47 205h83l-78 -205h-52zM45 439l46 205h84l-79 -205h-51z" />
    <glyph glyph-name="Ibreve.sc" horiz-adv-x="295" 
d="M113 0v644h69v-644h-69zM147 726c-80 0 -142 44 -142 152h55c0 -70 38 -101 90 -101s90 31 90 101h51c0 -108 -63 -152 -144 -152z" />
    <glyph glyph-name="exclamdown.uc" horiz-adv-x="278" 
d="M170 555l7 -578h-75l9 578h59zM140 775c31 0 54 -23 54 -54s-23 -55 -54 -55s-55 24 -55 55s24 54 55 54z" />
    <glyph glyph-name="hyphen.uc" horiz-adv-x="405" 
d="M60 345v62h285v-62h-285z" />
    <glyph glyph-name="endash.uc" horiz-adv-x="539" 
d="M60 348v56h419v-56h-419z" />
    <glyph glyph-name="emdash.uc" horiz-adv-x="900" 
d="M60 348v56h780v-56h-780z" />
    <glyph glyph-name="guilsinglleft.uc" horiz-adv-x="322" 
d="M176 524h68l-111 -205l112 -202h-68l-117 203z" />
    <glyph glyph-name="guilsinglright.uc" horiz-adv-x="322" 
d="M147 117h-69l111 205l-112 202h69l115 -203z" />
    <glyph glyph-name="guillemotleft.uc" horiz-adv-x="517" 
d="M371 524h69l-112 -205l113 -202h-69l-116 203zM176 524h68l-111 -205l112 -202h-68l-117 203z" />
    <glyph glyph-name="guillemotright.uc" horiz-adv-x="517" 
d="M147 117h-69l111 205l-112 202h69l115 -203zM342 117h-68l110 205l-111 202h68l116 -203z" />
    <glyph glyph-name="parenleft.uc" horiz-adv-x="312" 
d="M265 -100h-56c-58 118 -125 260 -125 459c0 201 67 341 125 459h56c-53 -122 -110 -250 -110 -459c0 -208 57 -336 110 -459z" />
    <glyph glyph-name="parenright.uc" horiz-adv-x="312" 
d="M47 -100c53 122 110 250 110 459c0 208 -57 336 -110 459h57c57 -118 124 -259 124 -459s-67 -341 -124 -459h-57z" />
    <glyph glyph-name="space_uni0326" horiz-adv-x="369" 
d="M154 -211l27 135h73l-55 -135h-45z" />
    <glyph glyph-name="grave.uc" horiz-adv-x="366" 
d="M175 960l68 -133h-57l-91 133h80z" />
    <glyph glyph-name="bracketleft.uc" horiz-adv-x="342" 
d="M114 -102v922h204v-52h-138v-818h138v-52h-204z" />
    <glyph glyph-name="bracketright.uc" horiz-adv-x="342" 
d="M228 820v-922h-204v52h138v818h-138v52h204z" />
    <glyph glyph-name="braceleft.uc" horiz-adv-x="334" 
d="M45 329h-22v61h22c61 0 83 21 83 79v220c0 95 53 133 182 133v-50c-107 0 -118 -29 -118 -112v-179c0 -51 -8 -110 -73 -120v-4c65 -10 73 -69 73 -118v-181c0 -83 11 -112 118 -112v-50c-129 0 -182 38 -182 137v217c0 58 -22 79 -83 79z" />
    <glyph glyph-name="braceright.uc" horiz-adv-x="334" 
d="M311 389v-61h-22c-62 0 -83 -21 -83 -79v-220c0 -95 -53 -133 -182 -133v50c107 0 118 29 118 112v180c0 50 8 109 73 119v4c-65 10 -73 69 -73 118v181c0 83 -11 112 -118 112v50c129 0 182 -38 182 -137v-217c0 -58 21 -79 83 -79h22z" />
    <glyph glyph-name="slash.uc" horiz-adv-x="506" 
d="M17 -67l407 859h66l-407 -859h-66z" />
    <glyph glyph-name="backslash.uc" horiz-adv-x="506" 
d="M424 -67l-407 859h66l407 -859h-66z" />
    <glyph glyph-name="bar.uc" horiz-adv-x="289" 
d="M115 -67v859h59v-859h-59z" />
    <glyph glyph-name="acute.uc" horiz-adv-x="366" 
d="M93 827l67 133h81l-91 -133h-57z" />
    <glyph glyph-name="at.uc" horiz-adv-x="1005" 
d="M733 132c-63 0 -114 22 -123 94h-3c-35 -66 -93 -100 -158 -100c-100 0 -151 71 -152 165c-1 158 82 291 223 291c67 0 113 -38 127 -88h3l13 72h62l-54 -273c-13 -66 4 -111 68 -111c67 0 159 59 159 234c0 196 -148 344 -373 344c-230 0 -402 -184 -402 -425
c0 -243 158 -396 380 -396c114 0 210 39 271 87l32 -37c-67 -55 -168 -102 -309 -102c-258 0 -440 180 -440 448c0 274 204 475 469 475c256 0 432 -158 432 -391c0 -221 -141 -287 -225 -287zM463 183c75 0 135 67 152 158l5 26c14 71 -5 158 -96 158
c-109 0 -157 -121 -157 -227c0 -67 28 -115 96 -115z" />
    <glyph glyph-name="f.short" horiz-adv-x="346" 
d="M191 470v-470h-70v470h-102v54h102v132c0 90 57 135 146 135c17 0 34 -1 53 -5v-58c-12 3 -28 5 -50 5c-54 0 -79 -25 -79 -89v-120h133v-54h-133z" />
    <glyph glyph-name="f_f.short" horiz-adv-x="674" 
d="M191 470v-470h-70v470h-102v54h102v126c0 90 57 135 146 135c17 0 34 -1 53 -5v-58c-12 3 -28 5 -50 5c-54 0 -79 -25 -79 -89v-114h258v132c0 90 57 135 146 135c17 0 34 -1 53 -5v-58c-12 3 -28 5 -50 5c-54 0 -79 -25 -79 -89v-120h133v-54h-133v-470h-70v470h-258z
" />
    <glyph glyph-name="macron.uc" horiz-adv-x="369" 
d="M45 859v57h277v-57h-277z" />
    <glyph glyph-name="circumflex.uc" horiz-adv-x="369" 
d="M219 960l113 -133h-67l-83 88h-1l-83 -88h-60l110 133h71z" />
    <glyph glyph-name="caron.uc" horiz-adv-x="369" 
d="M151 827l-113 133h67l83 -88h1l83 88h60l-110 -133h-71z" />
    <glyph glyph-name="breve.uc" horiz-adv-x="369" 
d="M42 969h56c6 -56 41 -82 89 -82c47 0 83 25 89 82h51c-6 -94 -67 -133 -143 -133s-135 39 -142 133z" />
    <glyph glyph-name="caron.alt" horiz-adv-x="369" 
d="M150 624l15 164h69l-37 -164h-47z" />
    <glyph glyph-name="dotaccent.uc" horiz-adv-x="369" 
d="M146 839v79h76v-79h-76z" />
    <glyph glyph-name="ring.uc" horiz-adv-x="369" 
d="M188 814c-63 0 -102 41 -102 101c0 59 41 101 102 101c65 0 103 -42 103 -101c0 -60 -41 -101 -103 -101zM188 978c-33 0 -54 -27 -54 -63c0 -37 19 -62 54 -62c34 0 55 25 55 62c0 36 -20 63 -55 63z" />
    <glyph glyph-name="sterling.tab" 
d="M554 62v-62h-480v60l40 33c81 67 96 115 52 234h-107v55h85l-16 42c-82 210 45 328 199 328c142 0 216 -80 218 -216h-70c-2 79 -30 159 -148 159c-116 0 -192 -84 -129 -257l20 -56h233v-55h-213c37 -116 18 -181 -56 -241l-27 -22v-2h399z" />
    <glyph glyph-name="tilde.uc" horiz-adv-x="369" 
d="M13 828c0 62 28 123 98 123c67 0 106 -67 147 -67c30 0 45 27 49 70h48c0 -62 -30 -124 -99 -124c-66 0 -105 67 -147 67c-30 0 -44 -27 -49 -69h-47z" />
    <glyph glyph-name="cent.tab" 
d="M452 161h66c-14 -106 -84 -164 -179 -173v-104h-54v104c-133 13 -201 116 -201 270c0 148 73 262 201 278v99h54v-98c87 -7 166 -52 178 -159h-68c-6 48 -42 95 -110 104v-438c78 10 104 69 113 117zM285 44v436c-82 -16 -130 -95 -130 -217c0 -123 39 -205 130 -219z
" />
    <glyph glyph-name="plus.tab" 
d="M330 328v-197h-61v197h-197v59h197v196h61v-196h198v-59h-198z" />
    <glyph glyph-name="minus.tab" 
d="M71 327v61h457v-61h-457z" />
    <glyph glyph-name="multiply.tab" 
d="M130 141l-43 42l171 170l-171 170l43 42l170 -171l169 171l43 -42l-171 -170l172 -171l-43 -43l-171 172z" />
    <glyph glyph-name="divide.tab" 
d="M260 501v78h78v-78h-78zM72 328v59h456v-59h-456zM338 136h-78v79h78v-79z" />
    <glyph glyph-name="equal.tab" 
d="M71 414v61h457v-61h-457zM528 242h-457v61h457v-61z" />
    <glyph glyph-name="less.tab" 
d="M528 83l-459 222v53l459 223v-68l-379 -181l379 -181v-68z" />
    <glyph glyph-name="greater.tab" 
d="M72 570l459 -223v-51l-459 -223v67l379 181l-379 181v68z" />
    <glyph glyph-name="florin.tab" 
d="M323 374l-77 -563h-69l76 563h-103v54h110l27 199c15 108 80 156 168 156c21 0 32 -1 51 -5v-58c-12 3 -23 5 -48 5c-51 0 -91 -23 -102 -105l-26 -192h134v-54h-141z" />
    <glyph glyph-name="plusminus.tab" 
d="M330 341v-196h-61v196h-197v59h197v196h61v-196h198v-59h-198zM72 0v59h456v-59h-456z" />
    <glyph glyph-name="notequal.tab" 
d="M270 242l-64 -125h-60l64 125h-139v61h170l57 111h-227v61h258l63 124h60l-63 -124h139v-61h-170l-57 -111h227v-61h-258z" />
    <glyph glyph-name="approxequal.tab" 
d="M98 389c0 64 32 117 105 117c74 0 139 -62 196 -62c32 0 48 18 52 62h50c0 -64 -35 -116 -103 -116c-77 0 -141 61 -199 61c-31 0 -49 -18 -51 -62h-50zM98 225c0 64 32 117 105 117c74 0 139 -61 196 -61c32 0 48 17 52 62h50c0 -65 -35 -117 -103 -117
c-77 0 -141 61 -199 61c-31 0 -49 -17 -51 -62h-50z" />
    <glyph glyph-name="lessequal.tab" 
d="M528 132l-459 197v56l459 196v-68l-377 -156l377 -157v-68zM528 0h-459v59h459v-59z" />
    <glyph glyph-name="greaterequal.tab" horiz-adv-x="618" 
d="M82 581l459 -196v-56l-459 -197v68l377 156l-377 157v68zM541 0h-459v59h459v-59z" />
    <glyph glyph-name="period.tab" horiz-adv-x="300" 
d="M149 -10c-31 0 -54 23 -54 54s23 55 54 55s55 -24 55 -55s-24 -54 -55 -54z" />
    <glyph glyph-name="comma.tab" horiz-adv-x="300" 
d="M72 -117l41 226h89l-78 -226h-52z" />
    <glyph glyph-name="colon.tab" horiz-adv-x="300" 
d="M150 -10c-31 0 -54 23 -54 54s23 55 54 55s55 -24 55 -55s-24 -54 -55 -54zM150 403c-31 0 -54 23 -54 54s23 55 54 55s55 -24 55 -55s-24 -54 -55 -54z" />
    <glyph glyph-name="semicolon.tab" horiz-adv-x="300" 
d="M108 406v96h95v-96h-95zM123 -117h-53l42 226h88z" />
    <glyph glyph-name="hungarumlaut.uc" horiz-adv-x="356" 
d="M191 840l39 133h74l-66 -133h-47zM59 840l43 133h73l-70 -133h-46z" />
    <glyph glyph-name="currency.tab" 
d="M123 346c0 39 12 74 31 102l-71 72l43 43l71 -72c29 20 63 32 102 32s74 -12 103 -33l72 73l42 -42l-73 -73c21 -28 33 -63 33 -102c0 -38 -12 -73 -32 -102l72 -72l-42 -43l-73 73c-28 -21 -64 -32 -102 -32c-39 0 -73 11 -102 32l-71 -72l-43 43l72 71
c-20 29 -32 64 -32 102zM299 217c71 0 124 56 124 129c0 74 -53 130 -124 130c-70 0 -124 -56 -124 -130c0 -73 54 -129 124 -129z" />
    <glyph glyph-name="percent.tab" horiz-adv-x="900" 
d="M143 -40l551 821h66l-551 -821h-66zM231 382c-93 0 -163 66 -163 180c0 115 73 179 163 179c91 0 162 -64 162 -179c0 -114 -71 -180 -162 -180zM230 432c54 0 100 43 100 129c0 88 -46 131 -100 131c-55 0 -99 -41 -99 -131c0 -87 44 -129 99 -129zM668 -6
c-93 0 -162 66 -162 180c0 115 72 179 162 179c91 0 163 -64 163 -179c0 -114 -72 -180 -163 -180zM668 44c54 0 99 43 99 129c0 88 -45 131 -99 131c-55 0 -99 -41 -99 -131c0 -87 44 -129 99 -129z" />
    <glyph glyph-name="perthousand.tab" horiz-adv-x="1200" 
d="M109 -40l551 821h66l-551 -821h-66zM69 562c0 115 69 179 153 179c86 0 154 -64 154 -179c0 -114 -68 -180 -154 -180c-87 0 -153 66 -153 180zM222 432c50 0 91 43 91 129c0 88 -41 131 -91 131s-91 -41 -91 -131c0 -87 41 -129 91 -129zM984 -6c-88 0 -153 66 -153 180
c0 115 68 179 153 179c86 0 153 -64 153 -179c0 -114 -67 -180 -153 -180zM609 -6c-88 0 -153 66 -153 180c0 115 68 179 153 179s152 -64 152 -179c0 -114 -67 -180 -152 -180zM983 44c50 0 92 43 92 129c0 88 -42 131 -92 131s-91 -41 -91 -131c0 -87 41 -129 91 -129z
M608 44c50 0 92 43 92 129c0 88 -42 131 -92 131s-91 -41 -91 -131c0 -87 41 -129 91 -129z" />
    <glyph glyph-name="idotaccent" horiz-adv-x="265" 
d="M94 654v79h75v-79h-75zM96 0v524h70v-524h-70z" />
    <glyph glyph-name="A.sc" horiz-adv-x="644" 
d="M319 578c-1 -5 -12 -45 -26 -84l-87 -237h227l-86 237c-15 42 -26 84 -26 84h-2zM527 0l-74 201h-268l-73 -201h-69l238 644h81l239 -644h-74z" />
    <glyph glyph-name="AE.sc" horiz-adv-x="927" 
d="M433 258v326h-64l-151 -326h215zM192 202l-93 -202h-71l300 644h516v-60h-343v-227h313v-59h-313v-238h347v-60h-415v202h-241z" />
    <glyph glyph-name="B.sc" horiz-adv-x="654" 
d="M348 0h-235v644h255c110 0 195 -50 195 -155c0 -79 -45 -130 -120 -144v-2c85 -13 141 -78 141 -155c0 -139 -104 -188 -236 -188zM182 370h175c72 0 135 26 135 110c0 72 -52 106 -127 106h-183v-216zM182 58h163c107 0 167 38 167 130c0 87 -64 124 -159 124h-171v-254
z" />
    <glyph glyph-name="C.sc" horiz-adv-x="686" 
d="M365 597c-143 0 -219 -114 -219 -278c0 -168 79 -276 219 -276c118 0 167 75 176 149h69c-7 -118 -96 -205 -247 -205c-167 0 -289 107 -289 332c0 214 123 334 289 334c124 0 243 -64 247 -199h-69c-10 70 -55 143 -176 143z" />
    <glyph glyph-name="D.sc" horiz-adv-x="701" 
d="M113 0v644h204c174 0 311 -90 311 -315c0 -227 -133 -329 -307 -329h-208zM182 59h133c138 0 242 66 242 267c0 189 -105 259 -239 259h-136v-526z" />
    <glyph glyph-name="Dcroat.sc" horiz-adv-x="706" 
d="M327 0h-208v299h-74v57h74v288h204c173 0 311 -90 311 -315c0 -227 -133 -329 -307 -329zM188 59h133c138 0 241 66 241 267c0 189 -104 259 -238 259h-136v-229h192v-57h-192v-240z" />
    <glyph glyph-name="E.sc" horiz-adv-x="612" 
d="M113 0v644h416v-60h-347v-227h318v-59h-318v-238h351v-60h-420z" />
    <glyph glyph-name="Eng.sc" horiz-adv-x="721" 
d="M608 22c0 -119 -54 -181 -214 -182h-27v60h19c109 1 144 27 153 84l-320 499c-23 36 -38 67 -38 67h-2v-550h-66v644h83l308 -483c23 -36 35 -66 35 -66h2v7h1v542h66v-622z" />
    <glyph glyph-name="Eth.sc" horiz-adv-x="706" 
d="M327 0h-208v299h-74v57h74v288h204c173 0 311 -90 311 -315c0 -227 -133 -329 -307 -329zM188 59h133c138 0 241 66 241 267c0 189 -104 259 -238 259h-136v-229h192v-57h-192v-240z" />
    <glyph glyph-name="F.sc" horiz-adv-x="560" 
d="M182 277v-277h-69v644h386v-60h-317v-248h289v-59h-289z" />
    <glyph glyph-name="G.sc" horiz-adv-x="726" 
d="M371 598c-147 0 -226 -108 -226 -282s80 -273 219 -273c116 0 196 75 196 189v30h-194v59h261v-321h-60v99h-3c-29 -60 -94 -112 -208 -112c-159 0 -283 100 -283 328c0 217 122 338 299 338c135 0 231 -68 241 -183h-69c-11 82 -83 128 -173 128z" />
    <glyph glyph-name="H.sc" horiz-adv-x="723" 
d="M182 299v-299h-69v644h69v-287h358v287h70v-644h-70v299h-358z" />
    <glyph glyph-name="I.sc" horiz-adv-x="295" 
d="M113 0v644h69v-644h-69z" />
    <glyph glyph-name="IJ.sc" horiz-adv-x="640" 
d="M319 0h-19v60h4c134 0 163 38 163 145v439h69v-446c0 -140 -70 -198 -217 -198zM113 0v644h69v-644h-69z" />
    <glyph glyph-name="J.sc" horiz-adv-x="396" 
d="M74 0h-41v60h28c133 0 162 38 162 145v439h69v-446c0 -140 -69 -198 -218 -198z" />
    <glyph glyph-name="K.sc" horiz-adv-x="644" 
d="M182 215v-215h-69v644h69v-344l326 344h85l-259 -273l273 -371h-83l-239 324z" />
    <glyph glyph-name="L.sc" horiz-adv-x="564" 
d="M113 0v644h69v-584h332v-60h-401z" />
    <glyph glyph-name="M.sc" horiz-adv-x="860" 
d="M113 0v644h96l195 -491c17 -43 25 -75 25 -75h3s7 32 24 75l197 491h94v-644h-67v555h-4s-9 -39 -31 -94l-186 -461h-62l-184 461c-22 54 -32 94 -32 94h-4v-555h-64z" />
    <glyph glyph-name="N.sc" horiz-adv-x="721" 
d="M113 0v644h82l308 -484c24 -37 36 -67 36 -67h3v551h66v-644h-83l-306 483c-23 36 -38 68 -38 68h-2v-551h-66z" />
    <glyph glyph-name="O.sc" horiz-adv-x="728" 
d="M74 319c0 232 137 334 290 334c156 0 290 -101 290 -334c0 -232 -135 -332 -291 -332c-155 0 -289 100 -289 332zM363 43c127 0 220 95 220 276c0 184 -92 279 -220 279c-125 0 -218 -93 -218 -279c0 -183 91 -276 218 -276z" />
    <glyph glyph-name="OE.sc" horiz-adv-x="1067" 
d="M573 283v84c0 142 -79 231 -210 231c-126 0 -218 -92 -218 -279c0 -182 90 -277 218 -277c136 0 210 93 210 241zM569 98c-47 -75 -112 -111 -206 -111c-157 0 -289 102 -289 333c0 229 135 333 288 333c100 0 171 -43 207 -111h2v102h413v-60h-344v-227h314v-59h-314
v-238h347v-60h-416v98h-2z" />
    <glyph glyph-name="Oslash.sc" horiz-adv-x="728" 
d="M363 598c-126 0 -218 -92 -218 -279c0 -78 15 -139 41 -183l320 413c-38 33 -86 49 -143 49zM363 42c128 0 221 95 221 277c0 82 -16 144 -45 189l-320 -413c37 -36 86 -53 144 -53zM654 319c0 -232 -135 -332 -291 -332c-67 0 -131 19 -181 60l-53 -68h-64l80 104
c-44 54 -71 132 -71 236c0 232 137 334 290 334c66 0 129 -18 178 -57l56 72h65l-84 -108c46 -54 75 -134 75 -241z" />
    <glyph glyph-name="P.sc" horiz-adv-x="582" 
d="M306 250h-124v-250h-69v644h197c135 0 221 -66 221 -193c0 -130 -86 -201 -225 -201zM182 307h125c90 0 154 43 154 142c0 93 -57 138 -153 138h-126v-280z" />
    <glyph glyph-name="Q.sc" horiz-adv-x="726" 
d="M74 320c0 230 135 333 290 333c156 0 290 -103 290 -333c0 -136 -46 -229 -123 -277v-4c69 -3 108 -30 143 -82l-56 -41c-41 61 -78 82 -143 82c-37 0 -59 -10 -112 -10c-157 0 -289 101 -289 332zM364 42c127 0 219 88 219 277c0 184 -92 279 -219 279
c-126 0 -219 -93 -219 -279c0 -183 91 -277 219 -277z" />
    <glyph glyph-name="R.sc" horiz-adv-x="641" 
d="M182 327h165c81 0 146 39 146 135c0 83 -59 125 -144 125h-167v-260zM494 0l-141 270h-171v-270h-69v644h237c47 0 92 -8 130 -29c49 -28 84 -75 84 -151c0 -109 -70 -163 -140 -181v-2l147 -281h-77z" />
    <glyph glyph-name="S.sc" horiz-adv-x="636" 
d="M544 472h-66c-7 69 -47 126 -151 126c-91 0 -151 -45 -151 -118c0 -66 33 -99 117 -112l107 -17c116 -18 160 -76 160 -168c0 -118 -84 -196 -237 -196c-156 0 -237 88 -244 193h69c7 -68 54 -137 176 -137c121 0 168 60 168 131c0 60 -25 98 -110 112l-109 18
c-123 20 -167 81 -167 168c0 110 90 181 221 181c139 0 214 -75 217 -181z" />
    <glyph glyph-name="T.sc" horiz-adv-x="587" 
d="M557 644v-59h-229v-585h-69v585h-229v59h527z" />
    <glyph glyph-name="Tbar.sc" horiz-adv-x="587" 
d="M557 644v-59h-229v-172h173v-50h-173v-363h-69v363h-173v50h173v172h-229v59h527z" />
    <glyph glyph-name="Thorn.sc" horiz-adv-x="570" 
d="M309 203h6c89 2 138 41 138 125c0 90 -51 123 -142 123h-129v-248h127zM306 147h-124v-147h-69v644h69v-137h131c121 0 210 -51 210 -179c0 -124 -89 -181 -217 -181z" />
    <glyph glyph-name="U.sc" horiz-adv-x="691" 
d="M102 216v428h69v-368c0 -61 0 -135 34 -177c32 -39 81 -55 143 -55s109 17 141 56c33 41 31 115 31 176v368h69v-428c0 -162 -98 -229 -244 -229c-147 0 -243 66 -243 229z" />
    <glyph glyph-name="V.sc" horiz-adv-x="630" 
d="M278 0l-239 644h74l176 -483c20 -55 26 -88 26 -88h3s6 33 26 89l177 482h69l-237 -644h-75z" />
    <glyph glyph-name="W.sc" horiz-adv-x="922" 
d="M299 0h-73l-184 644h70l132 -476c15 -53 20 -92 20 -92h2s5 39 20 91l136 477h77l138 -481c14 -50 20 -88 20 -88h2s5 38 19 87l133 482h67l-184 -644h-75l-135 466c-18 62 -24 104 -24 104h-2s-6 -42 -24 -103z" />
    <glyph glyph-name="X.sc" horiz-adv-x="644" 
d="M47 0l231 336l-209 308h82l167 -254h2l173 254h74l-208 -304l237 -340h-83l-194 285h-2l-195 -285h-75z" />
    <glyph glyph-name="Y.sc" horiz-adv-x="592" 
d="M262 0v280l-235 364h79l190 -301h2l194 301h73l-234 -360v-284h-69z" />
    <glyph glyph-name="Z.sc" horiz-adv-x="599" 
d="M72 585v59h467v-53l-399 -532h401v-59h-484v53l400 532h-385z" />
    <glyph glyph-name="ampersand.sc" horiz-adv-x="642" 
d="M191 514c0 -52 20 -80 71 -138c78 51 110 84 110 141c0 47 -32 86 -88 86c-57 0 -93 -38 -93 -89zM242 304l-6 -4c-73 -46 -109 -77 -109 -141c0 -92 64 -119 136 -119c70 0 117 27 148 68c-10 12 -20 24 -31 37zM599 -1h-20c-55 0 -88 21 -131 67
c-42 -48 -102 -79 -188 -79c-132 0 -201 66 -201 169c0 81 42 126 148 189c-48 56 -79 93 -79 164c0 84 62 144 157 144c92 0 151 -56 151 -128c1 -79 -41 -125 -140 -190l123 -139c8 -10 16 -19 24 -28c16 46 23 99 26 149h61c-3 -68 -16 -138 -46 -196
c53 -59 67 -64 115 -64v-58z" />
    <glyph glyph-name="uni0237.sc" horiz-adv-x="396" 
d="M74 0h-41v60h28c133 0 162 38 162 145v439h69v-446c0 -140 -69 -198 -218 -198z" />
    <glyph glyph-name="exclam.sc" horiz-adv-x="281" 
d="M140 -10c-29 0 -50 21 -50 50s21 51 50 51s51 -23 51 -51c0 -29 -22 -50 -51 -50zM113 182l-10 462h74l-10 -462h-54z" />
    <glyph glyph-name="exclamdown.sc" horiz-adv-x="281" 
d="M167 462l10 -462h-74l10 462h54zM140 654c29 0 50 -21 50 -50s-21 -51 -50 -51s-51 23 -51 51c0 29 22 50 51 50z" />
    <glyph glyph-name="germandbls.sc" horiz-adv-x="1272" 
d="M544 472h-66c-7 69 -47 126 -151 126c-91 0 -151 -45 -151 -118c0 -66 33 -99 117 -112l107 -17c116 -18 160 -76 160 -168c0 -118 -84 -196 -237 -196c-156 0 -237 88 -244 193h69c7 -68 54 -137 176 -137c121 0 168 60 168 131c0 60 -25 98 -110 112l-109 18
c-123 20 -167 81 -167 168c0 110 90 181 221 181c139 0 214 -75 217 -181zM1180 472h-66c-7 69 -47 126 -151 126c-91 0 -151 -45 -151 -118c0 -66 33 -99 117 -112l107 -17c116 -18 160 -76 160 -168c0 -118 -84 -196 -237 -196c-156 0 -237 88 -244 193h69
c7 -68 54 -137 176 -137c121 0 168 60 168 131c0 60 -25 98 -110 112l-109 18c-123 20 -167 81 -167 168c0 110 90 181 221 181c139 0 214 -75 217 -181z" />
    <glyph glyph-name="question.sc" horiz-adv-x="526" 
d="M255 -10c-29 0 -50 21 -50 50s21 51 50 51s51 -23 51 -51c0 -29 -22 -50 -51 -50zM287 173h-62v38c0 73 16 83 66 125l35 30c44 37 66 67 66 118c0 68 -50 114 -127 114c-91 0 -141 -51 -143 -148h-62c-3 129 84 205 205 205c133 0 194 -80 194 -163
c0 -85 -45 -125 -94 -168l-33 -29c-38 -33 -45 -45 -45 -86v-36z" />
    <glyph glyph-name="questiondown.sc" horiz-adv-x="526" 
d="M270 661c29 0 50 -21 50 -50s-21 -51 -50 -51s-51 23 -51 51c0 29 22 50 51 50zM238 478h62v-38c0 -73 -16 -83 -66 -125l-35 -30c-44 -37 -66 -67 -66 -118c0 -68 50 -114 127 -114c91 0 141 51 143 148h62c3 -129 -84 -205 -205 -205c-133 0 -194 80 -194 163
c0 85 45 125 94 168l33 29c38 33 45 45 45 86v36z" />
    <glyph glyph-name="quotedblleft.sc" horiz-adv-x="362" 
d="M323 644l-47 -205h-83l79 205h51zM171 644l-47 -205h-83l79 205h51z" />
    <glyph glyph-name="space.tab" horiz-adv-x="300" 
 />
    <glyph glyph-name="quoteleft.sc" horiz-adv-x="210" 
d="M171 644l-47 -205h-83l79 205h51z" />
    <glyph glyph-name="quoteright.sc" horiz-adv-x="210" 
d="M45 439l46 205h84l-79 -205h-51z" />
    <glyph glyph-name="Lslash.sc" horiz-adv-x="564" 
d="M113 0v241l-65 -26v59l65 26v344h69v-317l217 86v-59l-217 -86v-208h332v-60h-401z" />
    <glyph glyph-name="AEacute.sc" horiz-adv-x="927" 
d="M447 731l62 158h78l-86 -158h-54zM433 258v326h-64l-151 -326h215zM192 202l-93 -202h-71l300 644h516v-60h-343v-227h313v-59h-313v-238h347v-60h-415v202h-241z" />
    <glyph glyph-name="Aacute.sc" horiz-adv-x="644" 
d="M293 731l62 158h78l-86 -158h-54zM319 578c-1 -5 -12 -45 -26 -84l-87 -237h227l-86 237c-15 42 -26 84 -26 84h-2zM527 0l-74 201h-268l-73 -201h-69l238 644h81l239 -644h-74z" />
    <glyph glyph-name="Abreve.sc" horiz-adv-x="644" 
d="M319 578c-1 -5 -12 -45 -26 -84l-87 -237h227l-86 237c-15 42 -26 84 -26 84h-2zM527 0l-74 201h-268l-73 -201h-69l238 644h81l239 -644h-74zM320 726c-80 0 -142 44 -142 152h55c0 -70 38 -101 90 -101s90 31 90 101h51c0 -108 -63 -152 -144 -152z" />
    <glyph glyph-name="Acircumflex.sc" horiz-adv-x="644" 
d="M359 889l114 -158h-66l-85 111h-1l-85 -111h-59l111 158h71zM319 578c-1 -5 -12 -45 -26 -84l-87 -237h227l-86 237c-15 42 -26 84 -26 84h-2zM527 0l-74 201h-268l-73 -201h-69l238 644h81l239 -644h-74z" />
    <glyph glyph-name="Adieresis.sc" horiz-adv-x="644" 
d="M377 751v84h80v-84h-80zM185 751v84h79v-84h-79zM319 578c-1 -5 -12 -45 -26 -84l-87 -237h227l-86 237c-15 42 -26 84 -26 84h-2zM527 0l-74 201h-268l-73 -201h-69l238 644h81l239 -644h-74z" />
    <glyph glyph-name="Agrave.sc" horiz-adv-x="644" 
d="M319 578c-1 -5 -12 -45 -26 -84l-87 -237h227l-86 237c-15 42 -26 84 -26 84h-2zM527 0l-74 201h-268l-73 -201h-69l238 644h81l239 -644h-74zM285 889l64 -158h-54l-87 158h77z" />
    <glyph glyph-name="Amacron.sc" horiz-adv-x="644" 
d="M319 578c-1 -5 -12 -45 -26 -84l-87 -237h227l-86 237c-15 42 -26 84 -26 84h-2zM527 0l-74 201h-268l-73 -201h-69l238 644h81l239 -644h-74zM182 755v57h277v-57h-277z" />
    <glyph glyph-name="Aogonek.sc" horiz-adv-x="644" 
d="M597 -188h-19c-68 0 -117 26 -117 89c0 46 36 79 68 96l-76 204h-268l-73 -201h-69l238 644h81l238 -642c-40 -26 -77 -55 -77 -92c0 -36 27 -47 74 -48v-50zM319 578c-1 -5 -13 -45 -26 -84l-87 -237h227l-86 237c-15 42 -26 84 -26 84h-2z" />
    <glyph glyph-name="Aring.sc" horiz-adv-x="644" 
d="M321 733c-63 0 -102 42 -102 101s41 101 102 101c65 0 103 -42 103 -101s-41 -101 -103 -101zM321 897c-33 0 -54 -27 -54 -63s19 -62 54 -62c34 0 55 26 55 62s-20 63 -55 63zM319 578c-1 -5 -12 -45 -26 -84l-87 -237h227l-86 237c-15 42 -26 84 -26 84h-2zM527 0
l-74 201h-268l-73 -201h-69l238 644h81l239 -644h-74z" />
    <glyph glyph-name="uni01FA.sc" horiz-adv-x="644" 
d="M321 733c-63 0 -102 42 -102 101s41 101 102 101c65 0 103 -42 103 -101s-41 -101 -103 -101zM321 897c-33 0 -54 -27 -54 -63s19 -62 54 -62c34 0 55 26 55 62s-20 63 -55 63zM319 578c-1 -5 -12 -45 -26 -84l-87 -237h227l-86 237c-15 42 -26 84 -26 84h-2zM527 0
l-74 201h-268l-73 -201h-69l238 644h81l239 -644h-74zM295 987l67 133h81l-91 -133h-57z" />
    <glyph glyph-name="Atilde.sc" horiz-adv-x="644" 
d="M319 578c-1 -5 -12 -45 -26 -84l-87 -237h227l-86 237c-15 42 -26 84 -26 84h-2zM527 0l-74 201h-268l-73 -201h-69l238 644h81l239 -644h-74zM150 729c0 63 28 124 98 124c67 0 106 -68 147 -68c30 0 45 28 49 70h48c0 -62 -30 -124 -99 -124c-66 0 -105 67 -147 67
c-30 0 -44 -27 -49 -69h-47z" />
    <glyph glyph-name="Cacute.sc" horiz-adv-x="686" 
d="M336 731l62 158h78l-86 -158h-54zM365 597c-143 0 -219 -114 -219 -278c0 -168 79 -276 219 -276c118 0 167 75 176 149h69c-7 -118 -96 -205 -247 -205c-167 0 -289 107 -289 332c0 214 123 334 289 334c124 0 243 -64 247 -199h-69c-10 70 -55 143 -176 143z" />
    <glyph glyph-name="Ccaron.sc" horiz-adv-x="686" 
d="M327 731l-114 158h66l85 -110h1l85 110h59l-111 -158h-71zM365 597c-143 0 -219 -114 -219 -278c0 -168 79 -276 219 -276c118 0 167 75 176 149h69c-7 -118 -96 -205 -247 -205c-167 0 -289 107 -289 332c0 214 123 334 289 334c124 0 243 -64 247 -199h-69
c-10 70 -55 143 -176 143z" />
    <glyph glyph-name="Ccedilla.sc" horiz-adv-x="686" 
d="M359 -209c-54 0 -76 29 -79 62h51c2 -13 12 -23 31 -23c22 0 33 14 33 39c0 23 -11 38 -33 38c-12 0 -21 -5 -27 -12h-48l43 93c-150 14 -256 121 -256 331c0 214 123 334 289 334c124 0 243 -64 247 -199h-69c-10 70 -55 143 -176 143c-143 0 -219 -114 -219 -278
c0 -168 79 -276 219 -276c118 0 167 75 176 149h69c-7 -116 -93 -202 -240 -205l-27 -57h2c8 7 19 12 35 12c42 0 67 -28 67 -74c0 -38 -26 -77 -88 -77z" />
    <glyph glyph-name="Ccircumflex.sc" horiz-adv-x="686" 
d="M402 889l114 -158h-66l-85 111h-1l-85 -111h-59l111 158h71zM365 597c-143 0 -219 -114 -219 -278c0 -168 79 -276 219 -276c118 0 167 75 176 149h69c-7 -118 -96 -205 -247 -205c-167 0 -289 107 -289 332c0 214 123 334 289 334c124 0 243 -64 247 -199h-69
c-10 70 -55 143 -176 143z" />
    <glyph glyph-name="Cdotaccent.sc" horiz-adv-x="686" 
d="M365 597c-143 0 -219 -114 -219 -278c0 -168 79 -276 219 -276c118 0 167 75 176 149h69c-7 -118 -96 -205 -247 -205c-167 0 -289 107 -289 332c0 214 123 334 289 334c124 0 243 -64 247 -199h-69c-10 70 -55 143 -176 143zM326 755v79h76v-79h-76z" />
    <glyph glyph-name="Dcaron.sc" horiz-adv-x="701" 
d="M113 0v644h204c174 0 311 -90 311 -315c0 -227 -133 -329 -307 -329h-208zM182 59h133c138 0 242 66 242 267c0 189 -105 259 -239 259h-136v-526zM300 731l-114 158h66l85 -110h1l85 110h59l-111 -158h-71z" />
    <glyph glyph-name="Eacute.sc" horiz-adv-x="612" 
d="M295 731l62 158h78l-86 -158h-54zM113 0v644h416v-60h-347v-227h318v-59h-318v-238h351v-60h-420z" />
    <glyph glyph-name="Ecaron.sc" horiz-adv-x="612" 
d="M286 731l-114 158h66l85 -110h1l85 110h59l-111 -158h-71zM113 0v644h416v-60h-347v-227h318v-59h-318v-238h351v-60h-420z" />
    <glyph glyph-name="Ecircumflex.sc" horiz-adv-x="612" 
d="M361 889l114 -158h-66l-85 111h-1l-85 -111h-59l111 158h71zM113 0v644h416v-60h-347v-227h318v-59h-318v-238h351v-60h-420z" />
    <glyph glyph-name="Edieresis.sc" horiz-adv-x="612" 
d="M379 751v84h80v-84h-80zM187 751v84h79v-84h-79zM113 0v644h416v-60h-347v-227h318v-59h-318v-238h351v-60h-420z" />
    <glyph glyph-name="Edotaccent.sc" horiz-adv-x="612" 
d="M285 755v79h76v-79h-76zM113 0v644h416v-60h-347v-227h318v-59h-318v-238h351v-60h-420z" />
    <glyph glyph-name="Egrave.sc" horiz-adv-x="612" 
d="M287 889l64 -158h-54l-87 158h77zM113 0v644h416v-60h-347v-227h318v-59h-318v-238h351v-60h-420z" />
    <glyph glyph-name="Emacron.sc" horiz-adv-x="612" 
d="M184 755v57h277v-57h-277zM113 0v644h416v-60h-347v-227h318v-59h-318v-238h351v-60h-420z" />
    <glyph glyph-name="Eogonek.sc" horiz-adv-x="612" 
d="M533 -138v-50h-19c-68 0 -117 26 -117 89c0 49 41 83 74 99h-358v644h416v-60h-347v-227h318v-59h-318v-238h351v-60c-37 -24 -74 -53 -74 -90c0 -36 27 -47 74 -48z" />
    <glyph glyph-name="Gbreve.sc" horiz-adv-x="726" 
d="M371 598c-147 0 -226 -108 -226 -282s80 -273 219 -273c116 0 196 75 196 189v30h-194v59h261v-321h-60v99h-3c-29 -60 -94 -112 -208 -112c-159 0 -283 100 -283 328c0 217 122 338 299 338c135 0 231 -68 241 -183h-69c-11 82 -83 128 -173 128zM367 726
c-80 0 -142 44 -142 152h55c0 -70 38 -101 90 -101s90 31 90 101h51c0 -108 -63 -152 -144 -152z" />
    <glyph glyph-name="Gcircumflex.sc" horiz-adv-x="726" 
d="M406 889l114 -158h-66l-85 111h-1l-85 -111h-59l111 158h71zM371 598c-147 0 -226 -108 -226 -282s80 -273 219 -273c116 0 196 75 196 189v30h-194v59h261v-321h-60v99h-3c-29 -60 -94 -112 -208 -112c-159 0 -283 100 -283 328c0 217 122 338 299 338
c135 0 231 -68 241 -183h-69c-11 82 -83 128 -173 128z" />
    <glyph glyph-name="Gcommaaccent.sc" horiz-adv-x="726" 
d="M306 -211l27 135h73l-55 -135h-45zM371 598c-147 0 -226 -108 -226 -282s80 -273 219 -273c116 0 196 75 196 189v30h-194v59h261v-321h-60v99h-3c-29 -60 -94 -112 -208 -112c-159 0 -283 100 -283 328c0 217 122 338 299 338c135 0 231 -68 241 -183h-69
c-11 82 -83 128 -173 128z" />
    <glyph glyph-name="Gdotaccent.sc" horiz-adv-x="726" 
d="M371 598c-147 0 -226 -108 -226 -282s80 -273 219 -273c116 0 196 75 196 189v30h-194v59h261v-321h-60v99h-3c-29 -60 -94 -112 -208 -112c-159 0 -283 100 -283 328c0 217 122 338 299 338c135 0 231 -68 241 -183h-69c-11 82 -83 128 -173 128zM330 755v79h76v-79h-76
z" />
    <glyph glyph-name="Hcircumflex.sc" horiz-adv-x="723" 
d="M399 889l114 -158h-66l-85 111h-1l-85 -111h-59l111 158h71zM182 299v-299h-69v644h69v-287h358v287h70v-644h-70v299h-358z" />
    <glyph glyph-name="Iacute.sc" horiz-adv-x="295" 
d="M119 731l62 158h78l-86 -158h-54zM113 0v644h69v-644h-69z" />
    <glyph glyph-name="questiondown.uc" horiz-adv-x="535" 
d="M110 166c0 -85 58 -139 154 -139c104 0 171 70 168 191h65c5 -156 -95 -250 -234 -250c-154 0 -222 94 -222 191c0 102 49 150 108 203l43 39c40 37 53 44 53 103v56h63v-63c0 -78 -18 -92 -82 -148l-45 -39c-47 -41 -71 -83 -71 -144zM277 775c31 0 54 -23 54 -54
s-23 -55 -54 -55s-55 24 -55 55s24 54 55 54z" />
    <glyph glyph-name="Icircumflex.sc" horiz-adv-x="295" 
d="M185 889l114 -158h-66l-85 111h-1l-85 -111h-59l111 158h71zM113 0v644h69v-644h-69z" />
    <glyph glyph-name="Idieresis.sc" horiz-adv-x="295" 
d="M203 751v84h80v-84h-80zM11 751v84h79v-84h-79zM113 0v644h69v-644h-69z" />
    <glyph glyph-name="Igrave.sc" horiz-adv-x="295" 
d="M113 0v644h69v-644h-69zM112 889l64 -158h-54l-87 158h77z" />
    <glyph glyph-name="Imacron.sc" horiz-adv-x="295" 
d="M113 0v644h69v-644h-69zM9 755v57h277v-57h-277z" />
    <glyph glyph-name="Iogonek.sc" horiz-adv-x="295" 
d="M180 -188h-19c-68 0 -118 26 -118 89c0 46 38 80 70 97v646h69v-640c-37 -24 -76 -52 -76 -93c0 -37 27 -48 74 -49v-50z" />
    <glyph glyph-name="Itilde.sc" horiz-adv-x="295" 
d="M113 0v644h69v-644h-69zM-23 729c0 63 28 124 98 124c67 0 106 -68 147 -68c30 0 45 28 49 70h48c0 -62 -30 -124 -99 -124c-66 0 -105 67 -147 67c-30 0 -44 -27 -49 -69h-47z" />
    <glyph glyph-name="Jcircumflex.sc" horiz-adv-x="396" 
d="M296 889l114 -158h-66l-85 111h-1l-85 -111h-59l111 158h71zM74 0h-41v60h28c133 0 162 38 162 145v439h69v-446c0 -140 -69 -198 -218 -198z" />
    <glyph glyph-name="Kcommaaccent.sc" horiz-adv-x="644" 
d="M277 -211l27 135h73l-55 -135h-45zM182 215v-215h-69v644h69v-344l326 344h85l-259 -273l273 -371h-83l-239 324z" />
    <glyph glyph-name="Lacute.sc" horiz-adv-x="564" 
d="M113 0v644h69v-584h332v-60h-401zM124 731l62 158h78l-86 -158h-54z" />
    <glyph glyph-name="Lcaron.sc" horiz-adv-x="564" 
d="M113 0v644h69v-584h332v-60h-401zM259 480l15 164h69l-37 -164h-47z" />
    <glyph glyph-name="Lcommaaccent.sc" horiz-adv-x="564" 
d="M113 0v644h69v-584h332v-60h-401zM252 -211l27 135h73l-55 -135h-45z" />
    <glyph glyph-name="Nacute.sc" horiz-adv-x="721" 
d="M332 731l62 158h78l-86 -158h-54zM113 0v644h82l308 -484c24 -37 36 -67 36 -67h3v551h66v-644h-83l-306 483c-23 36 -38 68 -38 68h-2v-551h-66z" />
    <glyph glyph-name="Ncaron.sc" horiz-adv-x="721" 
d="M323 731l-114 158h66l85 -110h1l85 110h59l-111 -158h-71zM113 0v644h82l308 -484c24 -37 36 -67 36 -67h3v551h66v-644h-83l-306 483c-23 36 -38 68 -38 68h-2v-551h-66z" />
    <glyph glyph-name="Ncommaaccent.sc" horiz-adv-x="721" 
d="M299 -211l27 135h73l-55 -135h-45zM113 0v644h82l308 -484c24 -37 36 -67 36 -67h3v551h66v-644h-83l-306 483c-23 36 -38 68 -38 68h-2v-551h-66z" />
    <glyph glyph-name="Ntilde.sc" horiz-adv-x="721" 
d="M113 0v644h82l308 -484c24 -37 36 -67 36 -67h3v551h66v-644h-83l-306 483c-23 36 -38 68 -38 68h-2v-551h-66zM190 729c0 63 28 124 98 124c67 0 106 -68 147 -68c30 0 45 28 49 70h48c0 -62 -30 -124 -99 -124c-66 0 -105 67 -147 67c-30 0 -44 -27 -49 -69h-47z" />
    <glyph glyph-name="Oacute.sc" horiz-adv-x="728" 
d="M74 319c0 232 137 334 290 334c156 0 290 -101 290 -334c0 -232 -135 -332 -291 -332c-155 0 -289 100 -289 332zM363 43c127 0 220 95 220 276c0 184 -92 279 -220 279c-125 0 -218 -93 -218 -279c0 -183 91 -276 218 -276zM336 731l62 158h78l-86 -158h-54z" />
    <glyph glyph-name="Obreve.sc" horiz-adv-x="728" 
d="M74 319c0 232 137 334 290 334c156 0 290 -101 290 -334c0 -232 -135 -332 -291 -332c-155 0 -289 100 -289 332zM363 43c127 0 220 95 220 276c0 184 -92 279 -220 279c-125 0 -218 -93 -218 -279c0 -183 91 -276 218 -276zM363 726c-80 0 -142 44 -142 152h55
c0 -70 38 -101 90 -101s90 31 90 101h51c0 -108 -63 -152 -144 -152z" />
    <glyph glyph-name="Ocircumflex.sc" horiz-adv-x="728" 
d="M402 889l114 -158h-66l-85 111h-1l-85 -111h-59l111 158h71zM74 319c0 232 137 334 290 334c156 0 290 -101 290 -334c0 -232 -135 -332 -291 -332c-155 0 -289 100 -289 332zM363 43c127 0 220 95 220 276c0 184 -92 279 -220 279c-125 0 -218 -93 -218 -279
c0 -183 91 -276 218 -276z" />
    <glyph glyph-name="Odieresis.sc" horiz-adv-x="728" 
d="M420 751v84h80v-84h-80zM228 751v84h79v-84h-79zM74 319c0 232 137 334 290 334c156 0 290 -101 290 -334c0 -232 -135 -332 -291 -332c-155 0 -289 100 -289 332zM363 43c127 0 220 95 220 276c0 184 -92 279 -220 279c-125 0 -218 -93 -218 -279
c0 -183 91 -276 218 -276z" />
    <glyph glyph-name="Ograve.sc" horiz-adv-x="728" 
d="M74 319c0 232 137 334 290 334c156 0 290 -101 290 -334c0 -232 -135 -332 -291 -332c-155 0 -289 100 -289 332zM363 43c127 0 220 95 220 276c0 184 -92 279 -220 279c-125 0 -218 -93 -218 -279c0 -183 91 -276 218 -276zM328 889l64 -158h-54l-87 158h77z" />
    <glyph glyph-name="Ohungarumlaut.sc" horiz-adv-x="728" 
d="M74 319c0 232 137 334 290 334c156 0 290 -101 290 -334c0 -232 -135 -332 -291 -332c-155 0 -289 100 -289 332zM363 43c127 0 220 95 220 276c0 184 -92 279 -220 279c-125 0 -218 -93 -218 -279c0 -183 91 -276 218 -276zM402 731l62 158h72l-85 -158h-49zM269 731
l62 158h72l-86 -158h-48z" />
    <glyph glyph-name="Omacron.sc" horiz-adv-x="728" 
d="M74 319c0 232 137 334 290 334c156 0 290 -101 290 -334c0 -232 -135 -332 -291 -332c-155 0 -289 100 -289 332zM363 43c127 0 220 95 220 276c0 184 -92 279 -220 279c-125 0 -218 -93 -218 -279c0 -183 91 -276 218 -276zM225 755v57h277v-57h-277z" />
    <glyph glyph-name="Oslashacute.sc" horiz-adv-x="728" 
d="M336 731l62 158h78l-86 -158h-54zM363 598c-126 0 -218 -92 -218 -279c0 -78 15 -139 41 -183l320 413c-38 33 -86 49 -143 49zM363 42c128 0 221 95 221 277c0 82 -16 144 -45 189l-320 -413c37 -36 86 -53 144 -53zM654 319c0 -232 -135 -332 -291 -332
c-67 0 -131 19 -181 60l-53 -68h-64l80 104c-44 54 -71 132 -71 236c0 232 137 334 290 334c66 0 129 -18 178 -57l56 72h65l-84 -108c46 -54 75 -134 75 -241z" />
    <glyph glyph-name="Otilde.sc" horiz-adv-x="728" 
d="M74 319c0 232 137 334 290 334c156 0 290 -101 290 -334c0 -232 -135 -332 -291 -332c-155 0 -289 100 -289 332zM363 43c127 0 220 95 220 276c0 184 -92 279 -220 279c-125 0 -218 -93 -218 -279c0 -183 91 -276 218 -276zM193 729c0 63 28 124 98 124
c67 0 106 -68 147 -68c30 0 45 28 49 70h48c0 -62 -30 -124 -99 -124c-66 0 -105 67 -147 67c-30 0 -44 -27 -49 -69h-47z" />
    <glyph glyph-name="Racute.sc" horiz-adv-x="641" 
d="M289 731l62 158h78l-86 -158h-54zM182 327h165c81 0 146 39 146 135c0 83 -59 125 -144 125h-167v-260zM494 0l-141 270h-171v-270h-69v644h237c47 0 92 -8 130 -29c49 -28 84 -75 84 -151c0 -109 -70 -163 -140 -181v-2l147 -281h-77z" />
    <glyph glyph-name="Rcaron.sc" horiz-adv-x="641" 
d="M280 731l-114 158h66l85 -110h1l85 110h59l-111 -158h-71zM182 327h165c81 0 146 39 146 135c0 83 -59 125 -144 125h-167v-260zM494 0l-141 270h-171v-270h-69v644h237c47 0 92 -8 130 -29c49 -28 84 -75 84 -151c0 -109 -70 -163 -140 -181v-2l147 -281h-77z" />
    <glyph glyph-name="Rcommaaccent.sc" horiz-adv-x="641" 
d="M256 -211l27 135h73l-55 -135h-45zM182 327h165c81 0 146 39 146 135c0 83 -59 125 -144 125h-167v-260zM494 0l-141 270h-171v-270h-69v644h237c47 0 92 -8 130 -29c49 -28 84 -75 84 -151c0 -109 -70 -163 -140 -181v-2l147 -281h-77z" />
    <glyph glyph-name="Sacute.sc" horiz-adv-x="636" 
d="M295 731l62 158h78l-86 -158h-54zM544 472h-66c-7 69 -47 126 -151 126c-91 0 -151 -45 -151 -118c0 -66 33 -99 117 -112l107 -17c116 -18 160 -76 160 -168c0 -118 -84 -196 -237 -196c-156 0 -237 88 -244 193h69c7 -68 54 -137 176 -137c121 0 168 60 168 131
c0 60 -25 98 -110 112l-109 18c-123 20 -167 81 -167 168c0 110 90 181 221 181c139 0 214 -75 217 -181z" />
    <glyph glyph-name="Scaron.sc" horiz-adv-x="636" 
d="M287 731l-114 158h66l85 -110h1l85 110h59l-111 -158h-71zM544 472h-66c-7 69 -47 126 -151 126c-91 0 -151 -45 -151 -118c0 -66 33 -99 117 -112l107 -17c116 -18 160 -76 160 -168c0 -118 -84 -196 -237 -196c-156 0 -237 88 -244 193h69c7 -68 54 -137 176 -137
c121 0 168 60 168 131c0 60 -25 98 -110 112l-109 18c-123 20 -167 81 -167 168c0 110 90 181 221 181c139 0 214 -75 217 -181z" />
    <glyph glyph-name="Scedilla.sc" horiz-adv-x="636" 
d="M318 -209c-54 0 -76 29 -79 62h51c2 -13 12 -23 31 -23c22 0 33 14 33 39c0 23 -11 38 -33 38c-12 0 -21 -5 -27 -12h-48l43 93c-134 12 -204 95 -210 192h69c7 -68 54 -137 176 -137c121 0 168 60 168 131c0 60 -25 98 -110 112l-109 18c-123 20 -167 81 -167 168
c0 110 90 181 221 181c139 0 214 -75 217 -181h-66c-7 69 -47 126 -151 126c-91 0 -151 -45 -151 -118c0 -66 33 -99 117 -112l107 -17c116 -18 160 -76 160 -168c0 -118 -84 -196 -231 -196l-27 -57h2c8 7 19 12 35 12c42 0 67 -28 67 -74c0 -38 -26 -77 -88 -77z" />
    <glyph glyph-name="Scircumflex.sc" horiz-adv-x="636" 
d="M361 889l114 -158h-66l-85 111h-1l-85 -111h-59l111 158h71zM544 472h-66c-7 69 -47 126 -151 126c-91 0 -151 -45 -151 -118c0 -66 33 -99 117 -112l107 -17c116 -18 160 -76 160 -168c0 -118 -84 -196 -237 -196c-156 0 -237 88 -244 193h69c7 -68 54 -137 176 -137
c121 0 168 60 168 131c0 60 -25 98 -110 112l-109 18c-123 20 -167 81 -167 168c0 110 90 181 221 181c139 0 214 -75 217 -181z" />
    <glyph glyph-name="Scommaaccent.sc" horiz-adv-x="636" 
d="M262 -211l27 135h73l-55 -135h-45zM544 472h-66c-7 69 -47 126 -151 126c-91 0 -151 -45 -151 -118c0 -66 33 -99 117 -112l107 -17c116 -18 160 -76 160 -168c0 -118 -84 -196 -237 -196c-156 0 -237 88 -244 193h69c7 -68 54 -137 176 -137c121 0 168 60 168 131
c0 60 -25 98 -110 112l-109 18c-123 20 -167 81 -167 168c0 110 90 181 221 181c139 0 214 -75 217 -181z" />
    <glyph glyph-name="Tcaron.sc" horiz-adv-x="587" 
d="M557 644v-59h-229v-585h-69v585h-229v59h527zM257 731l-114 158h66l85 -110h1l85 110h59l-111 -158h-71z" />
    <glyph glyph-name="Tcommaaccent.sc" horiz-adv-x="587" 
d="M557 644v-59h-229v-585h-69v585h-229v59h527zM232 -211l27 135h73l-55 -135h-45z" />
    <glyph glyph-name="Uacute.sc" horiz-adv-x="691" 
d="M317 731l62 158h78l-86 -158h-54zM102 216v428h69v-368c0 -61 0 -135 34 -177c32 -39 81 -55 143 -55s109 17 141 56c33 41 31 115 31 176v368h69v-428c0 -162 -98 -229 -244 -229c-147 0 -243 66 -243 229z" />
    <glyph glyph-name="Ubreve.sc" horiz-adv-x="691" 
d="M102 216v428h69v-368c0 -61 0 -135 34 -177c32 -39 81 -55 143 -55s109 17 141 56c33 41 31 115 31 176v368h69v-428c0 -162 -98 -229 -244 -229c-147 0 -243 66 -243 229zM344 726c-80 0 -142 44 -142 152h55c0 -70 38 -101 90 -101s90 31 90 101h51
c0 -108 -63 -152 -144 -152z" />
    <glyph glyph-name="Ucircumflex.sc" horiz-adv-x="691" 
d="M383 889l114 -158h-66l-85 111h-1l-85 -111h-59l111 158h71zM102 216v428h69v-368c0 -61 0 -135 34 -177c32 -39 81 -55 143 -55s109 17 141 56c33 41 31 115 31 176v368h69v-428c0 -162 -98 -229 -244 -229c-147 0 -243 66 -243 229z" />
    <glyph glyph-name="Udieresis.sc" horiz-adv-x="691" 
d="M401 751v84h80v-84h-80zM209 751v84h79v-84h-79zM102 216v428h69v-368c0 -61 0 -135 34 -177c32 -39 81 -55 143 -55s109 17 141 56c33 41 31 115 31 176v368h69v-428c0 -162 -98 -229 -244 -229c-147 0 -243 66 -243 229z" />
    <glyph glyph-name="Ugrave.sc" horiz-adv-x="691" 
d="M309 889l64 -158h-54l-87 158h77zM102 216v428h69v-368c0 -61 0 -135 34 -177c32 -39 81 -55 143 -55s109 17 141 56c33 41 31 115 31 176v368h69v-428c0 -162 -98 -229 -244 -229c-147 0 -243 66 -243 229z" />
    <glyph glyph-name="Uhungarumlaut.sc" horiz-adv-x="691" 
d="M383 731l62 158h72l-85 -158h-49zM250 731l62 158h72l-86 -158h-48zM102 216v428h69v-368c0 -61 0 -135 34 -177c32 -39 81 -55 143 -55s109 17 141 56c33 41 31 115 31 176v368h69v-428c0 -162 -98 -229 -244 -229c-147 0 -243 66 -243 229z" />
    <glyph glyph-name="Umacron.sc" horiz-adv-x="691" 
d="M207 755v57h277v-57h-277zM102 216v428h69v-368c0 -61 0 -135 34 -177c32 -39 81 -55 143 -55s109 17 141 56c33 41 31 115 31 176v368h69v-428c0 -162 -98 -229 -244 -229c-147 0 -243 66 -243 229z" />
    <glyph glyph-name="Uogonek.sc" horiz-adv-x="691" 
d="M102 216v428h69v-368c0 -61 0 -135 34 -177c32 -39 81 -55 143 -55s109 17 141 56c33 41 31 115 31 176v368h69v-428c0 -129 -62 -196 -164 -221c-51 -13 -90 -44 -90 -84c0 -35 24 -48 74 -49v-50h-19c-68 0 -117 26 -117 88c0 40 27 68 55 86v1
c-138 6 -226 73 -226 229z" />
    <glyph glyph-name="Uring.sc" horiz-adv-x="691" 
d="M345 733c-63 0 -102 42 -102 101s41 101 102 101c65 0 103 -42 103 -101s-41 -101 -103 -101zM345 897c-33 0 -54 -27 -54 -63s19 -62 54 -62c34 0 55 26 55 62s-20 63 -55 63zM102 216v428h69v-368c0 -61 0 -135 34 -177c32 -39 81 -55 143 -55s109 17 141 56
c33 41 31 115 31 176v368h69v-428c0 -162 -98 -229 -244 -229c-147 0 -243 66 -243 229z" />
    <glyph glyph-name="Utilde.sc" horiz-adv-x="691" 
d="M102 216v428h69v-368c0 -61 0 -135 34 -177c32 -39 81 -55 143 -55s109 17 141 56c33 41 31 115 31 176v368h69v-428c0 -162 -98 -229 -244 -229c-147 0 -243 66 -243 229zM175 729c0 63 28 124 98 124c67 0 106 -68 147 -68c30 0 45 28 49 70h48
c0 -62 -30 -124 -99 -124c-66 0 -105 67 -147 67c-30 0 -44 -27 -49 -69h-47z" />
    <glyph glyph-name="Wacute.sc" horiz-adv-x="922" 
d="M299 0h-73l-184 644h70l132 -476c15 -53 20 -92 20 -92h2s5 39 20 91l136 477h77l138 -481c14 -50 20 -88 20 -88h2s5 38 19 87l133 482h67l-184 -644h-75l-135 466c-18 62 -24 104 -24 104h-2s-6 -42 -24 -103zM432 731l62 158h78l-86 -158h-54z" />
    <glyph glyph-name="Wcircumflex.sc" horiz-adv-x="922" 
d="M498 889l114 -158h-66l-85 111h-1l-85 -111h-59l111 158h71zM299 0h-73l-184 644h70l132 -476c15 -53 20 -92 20 -92h2s5 39 20 91l136 477h77l138 -481c14 -50 20 -88 20 -88h2s5 38 19 87l133 482h67l-184 -644h-75l-135 466c-18 62 -24 104 -24 104h-2
s-6 -42 -24 -103z" />
    <glyph glyph-name="Wdieresis.sc" horiz-adv-x="922" 
d="M516 751v84h80v-84h-80zM324 751v84h79v-84h-79zM299 0h-73l-184 644h70l132 -476c15 -53 20 -92 20 -92h2s5 39 20 91l136 477h77l138 -481c14 -50 20 -88 20 -88h2s5 38 19 87l133 482h67l-184 -644h-75l-135 466c-18 62 -24 104 -24 104h-2s-6 -42 -24 -103z" />
    <glyph glyph-name="Wgrave.sc" horiz-adv-x="922" 
d="M299 0h-73l-184 644h70l132 -476c15 -53 20 -92 20 -92h2s5 39 20 91l136 477h77l138 -481c14 -50 20 -88 20 -88h2s5 38 19 87l133 482h67l-184 -644h-75l-135 466c-18 62 -24 104 -24 104h-2s-6 -42 -24 -103zM424 889l64 -158h-54l-87 158h77z" />
    <glyph glyph-name="Yacute.sc" horiz-adv-x="592" 
d="M270 731l62 158h78l-86 -158h-54zM262 0v280l-235 364h79l190 -301h2l194 301h73l-234 -360v-284h-69z" />
    <glyph glyph-name="Ycircumflex.sc" horiz-adv-x="592" 
d="M336 889l114 -158h-66l-85 111h-1l-85 -111h-59l111 158h71zM262 0v280l-235 364h79l190 -301h2l194 301h73l-234 -360v-284h-69z" />
    <glyph glyph-name="Ydieresis.sc" horiz-adv-x="592" 
d="M354 751v84h80v-84h-80zM162 751v84h79v-84h-79zM262 0v280l-235 364h79l190 -301h2l194 301h73l-234 -360v-284h-69z" />
    <glyph glyph-name="Ygrave.sc" horiz-adv-x="592" 
d="M262 0v280l-235 364h79l190 -301h2l194 301h73l-234 -360v-284h-69zM262 889l64 -158h-54l-87 158h77z" />
    <glyph glyph-name="Zacute.sc" horiz-adv-x="599" 
d="M273 731l62 158h78l-86 -158h-54zM72 585v59h467v-53l-399 -532h401v-59h-484v53l400 532h-385z" />
    <glyph glyph-name="Zcaron.sc" horiz-adv-x="599" 
d="M264 731l-114 158h66l85 -110h1l85 110h59l-111 -158h-71zM72 585v59h467v-53l-399 -532h401v-59h-484v53l400 532h-385z" />
    <glyph glyph-name="Zdotaccent.sc" horiz-adv-x="599" 
d="M72 585v59h467v-53l-399 -532h401v-59h-484v53l400 532h-385zM263 755v79h76v-79h-76z" />
    <glyph glyph-name="Ldot.sc" horiz-adv-x="564" 
d="M389 287v80h82v-80h-82zM113 0v644h69v-584h332v-60h-401z" />
    <glyph glyph-name="napostrophe.sc" horiz-adv-x="721" 
d="M113 0v644h82l308 -484c23 -38 36 -67 36 -67h3v551h66v-644h-83l-306 483c-23 36 -38 68 -38 68h-2v-551h-66z" />
    <glyph glyph-name="Hbar.sc" horiz-adv-x="723" 
d="M540 357v126h-358v-126h358zM182 299v-299h-69v483h-79v48h79v113h69v-113h358v113h70v-113h78v-48h-78v-483h-70v299h-358z" />
    <glyph glyph-name="Idotaccent.sc" horiz-adv-x="295" 
d="M113 0v644h69v-644h-69zM110 755v79h76v-79h-76z" />
    <glyph glyph-name="Ebreve.sc" horiz-adv-x="612" 
d="M113 0v644h416v-60h-347v-227h318v-59h-318v-238h351v-60h-420zM319 726c-80 0 -142 44 -142 152h55c0 -70 38 -101 90 -101s90 31 90 101h51c0 -108 -63 -152 -144 -152z" />
    <glyph glyph-name="yen.tab" 
d="M267 0v183h-207v54h207v97h-209v55h187l-224 352h81l198 -321h2l201 321h76l-226 -352h184v-55h-203v-97h205v-54h-205v-183h-67z" />
    <glyph glyph-name="eight.den" horiz-adv-x="405" 
d="M57 320c0 64 53 116 145 116c93 0 147 -52 147 -117c0 -52 -35 -87 -73 -99v-1c42 -9 86 -42 86 -105c0 -69 -60 -123 -160 -123c-102 0 -159 52 -159 123c0 63 46 96 85 105v1c-37 12 -71 47 -71 100zM202 391c-46 0 -85 -24 -85 -75s40 -76 85 -76s85 25 85 76
s-39 75 -85 75zM202 36c55 0 99 24 99 79s-45 80 -99 80c-51 0 -97 -25 -97 -80s45 -79 97 -79z" />
    <glyph glyph-name="five.den" horiz-adv-x="397" 
d="M290 138c0 64 -41 97 -93 97c-40 0 -68 -14 -87 -38h-52l20 233h255v-51h-207l-11 -133h1c20 20 52 37 96 37c71 0 140 -43 140 -144c0 -88 -61 -148 -161 -148c-106 0 -145 63 -150 124h61c5 -52 40 -76 91 -76c49 0 97 30 97 99z" />
    <glyph glyph-name="four.den" horiz-adv-x="406" 
d="M96 151h158v214h-2s-9 -18 -28 -45zM371 103h-60v-103h-59v103h-218v45l212 282h65v-278h60v-49z" />
    <glyph glyph-name="nine.den" horiz-adv-x="408" 
d="M197 389c-46 0 -94 -31 -94 -96c0 -63 40 -96 94 -96c56 0 97 35 97 95c0 62 -47 97 -97 97zM50 97h57c9 -39 41 -60 83 -60c75 0 108 56 109 176h-2c-18 -34 -56 -64 -112 -64c-71 0 -143 42 -143 140c0 85 63 147 156 147c103 0 163 -61 163 -204
c0 -173 -63 -241 -171 -241c-82 0 -133 42 -140 106z" />
    <glyph glyph-name="one.den" horiz-adv-x="278" 
d="M127 0v306h-93v42h14c30 0 53 7 67 20c15 13 20 33 21 62h51v-430h-60z" />
    <glyph glyph-name="seven.den" horiz-adv-x="354" 
d="M70 0l187 379h-229v51h298v-37l-194 -393h-62z" />
    <glyph glyph-name="six.den" horiz-adv-x="409" 
d="M362 334h-60c-8 29 -35 57 -81 57c-78 0 -111 -73 -113 -172h2c21 37 64 66 119 66c74 0 140 -47 140 -142c0 -84 -60 -152 -158 -152c-91 0 -163 51 -163 203c0 162 65 242 178 242c88 0 131 -49 136 -102zM211 38c47 0 97 33 97 100c0 62 -41 99 -97 99
c-57 0 -97 -36 -97 -96c0 -69 47 -103 97 -103z" />
    <glyph glyph-name="three.den" horiz-adv-x="406" 
d="M209 193h-44v50h42c48 0 79 32 79 73c0 44 -35 72 -83 72c-54 0 -88 -27 -90 -82h-61c0 69 50 130 152 130c90 0 144 -48 144 -114c0 -48 -32 -84 -79 -99v-2c49 -9 92 -41 92 -106c0 -67 -59 -124 -160 -124c-110 0 -154 62 -157 130h61c7 -55 47 -82 100 -82
s94 32 94 78c0 52 -38 76 -90 76z" />
    <glyph glyph-name="two.den" horiz-adv-x="396" 
d="M104 290h-61c1 95 67 146 154 146c103 0 146 -58 146 -119c0 -59 -26 -98 -100 -161l-121 -104v-1h226v-51h-313v43l159 142c64 57 85 83 85 128s-32 75 -83 75c-47 0 -89 -25 -92 -98z" />
    <glyph glyph-name="zero.den" horiz-adv-x="433" 
d="M47 213c0 150 67 223 169 223c104 0 170 -73 170 -223c0 -148 -65 -222 -170 -222s-169 73 -169 222zM216 38c64 0 106 59 106 175c0 118 -41 176 -106 176c-64 0 -104 -56 -104 -176c0 -118 39 -175 104 -175z" />
    <glyph glyph-name="zero.num" horiz-adv-x="433" 
d="M47 548c0 150 67 223 169 223c104 0 170 -73 170 -223c0 -149 -65 -222 -170 -222s-169 73 -169 222zM216 372c64 0 106 60 106 176c0 118 -41 175 -106 175c-64 0 -104 -55 -104 -175c0 -119 39 -176 104 -176z" />
    <glyph glyph-name="one.num" horiz-adv-x="278" 
d="M127 335v306h-93v41h14c30 0 53 7 67 20c15 14 20 33 21 63h51v-430h-60z" />
    <glyph glyph-name="two.num" horiz-adv-x="396" 
d="M348 335h-313v42l159 142c65 55 85 84 85 129s-32 75 -83 75c-47 0 -89 -26 -92 -98h-61c1 94 67 146 154 146c103 0 146 -58 146 -120c0 -58 -26 -97 -100 -160l-121 -105v-1h226v-50z" />
    <glyph glyph-name="three.num" horiz-adv-x="406" 
d="M209 528h-44v50h42c48 0 79 32 79 73c0 44 -35 72 -83 72c-54 0 -88 -27 -90 -82h-61c0 68 50 130 152 130c90 0 144 -48 144 -115c0 -47 -32 -84 -79 -99v-1c49 -10 92 -42 92 -107c0 -66 -59 -123 -160 -123c-110 0 -154 62 -157 130h61c7 -55 47 -82 100 -82
s94 31 94 77c0 53 -38 77 -90 77z" />
    <glyph glyph-name="four.num" horiz-adv-x="406" 
d="M96 486h158v214h-2s-9 -19 -28 -45zM371 437h-60v-102h-59v102h-218v45l212 283h65v-278h60v-50z" />
    <glyph glyph-name="five.num" horiz-adv-x="397" 
d="M290 472c0 64 -41 98 -93 98c-40 0 -68 -14 -87 -38h-52l20 233h255v-52h-207l-11 -132h1c20 19 52 36 96 36c71 0 140 -43 140 -144c0 -88 -61 -147 -161 -147c-106 0 -145 62 -150 123h61c5 -51 40 -76 91 -76c49 0 97 30 97 99z" />
    <glyph glyph-name="six.num" horiz-adv-x="409" 
d="M362 669h-60c-8 29 -35 56 -81 56c-78 0 -111 -73 -113 -172h2c21 38 64 66 119 66c74 0 140 -46 140 -141c0 -85 -60 -152 -158 -152c-91 0 -163 50 -163 203c0 162 65 242 178 242c88 0 131 -50 136 -102zM211 372c47 0 97 33 97 100c0 62 -41 100 -97 100
c-57 0 -97 -37 -97 -97c0 -69 47 -103 97 -103z" />
    <glyph glyph-name="seven.num" horiz-adv-x="354" 
d="M70 335l187 378h-229v52h298v-38l-194 -392h-62z" />
    <glyph glyph-name="eight.num" horiz-adv-x="405" 
d="M57 654c0 65 53 117 145 117c93 0 147 -52 147 -117c0 -53 -35 -87 -73 -99v-2c42 -8 86 -41 86 -104c0 -70 -60 -123 -160 -123c-102 0 -159 52 -159 123c0 62 46 96 85 104v2c-37 12 -71 46 -71 99zM202 726c-46 0 -85 -24 -85 -76c0 -51 40 -75 85 -75s85 24 85 75
c0 52 -39 76 -85 76zM202 371c55 0 99 24 99 79s-45 80 -99 80c-51 0 -97 -25 -97 -80s45 -79 97 -79z" />
    <glyph glyph-name="nine.num" horiz-adv-x="408" 
d="M197 723c-46 0 -94 -30 -94 -96c0 -63 40 -95 94 -95c56 0 97 34 97 95c0 62 -47 96 -97 96zM50 431h57c9 -38 41 -59 83 -59c75 0 108 56 109 176h-2c-18 -35 -56 -64 -112 -64c-71 0 -143 42 -143 139c0 85 63 148 156 148c103 0 163 -61 163 -204
c0 -173 -63 -241 -171 -241c-82 0 -133 41 -140 105z" />
    <glyph glyph-name="minus.num" horiz-adv-x="408" 
d="M58 512v59h294v-59h-294z" />
    <glyph glyph-name="plus.num" horiz-adv-x="410" 
d="M236 513v-113h-63v113h-119v57h119v112h63v-112h119v-57h-119z" />
    <glyph glyph-name="minus.den" horiz-adv-x="406" 
d="M59 183v49h290v-49h-290z" />
    <glyph glyph-name="plus.den" horiz-adv-x="408" 
d="M229 183v-112h-52v112h-120v48h120v112h52v-112h120v-48h-120z" />
    <glyph glyph-name="parenleft.tab" horiz-adv-x="300" 
d="M281 -130h-56c-58 118 -125 260 -125 459c0 201 67 341 125 459h56c-53 -122 -109 -250 -109 -459c0 -208 56 -336 109 -459z" />
    <glyph glyph-name="parenright.tab" horiz-adv-x="300" 
d="M20 -130c53 122 109 250 109 459c0 208 -56 336 -109 459h56c58 -118 125 -259 125 -459s-67 -341 -125 -459h-56z" />
    <glyph glyph-name="bracketleft.tab" horiz-adv-x="300" 
d="M110 -132v922h204v-52h-138v-818h138v-52h-204z" />
    <glyph glyph-name="bracketright.tab" horiz-adv-x="300" 
d="M190 790v-922h-204v52h138v818h-138v52h204z" />
    <glyph glyph-name="braceleft.tab" horiz-adv-x="300" 
d="M50 299h-20v61h20c62 0 83 21 83 79v220c0 95 49 133 178 133v-50c-107 0 -114 -29 -114 -112v-179c0 -51 -8 -110 -73 -120v-4c65 -10 73 -69 73 -118v-181c0 -83 7 -112 114 -112v-50c-129 0 -178 38 -178 137v217c0 58 -21 79 -83 79z" />
    <glyph glyph-name="braceright.tab" horiz-adv-x="300" 
d="M270 359v-61h-20c-62 0 -83 -21 -83 -79v-220c0 -95 -49 -133 -178 -133v50c107 0 114 29 114 112v180c0 50 8 109 73 119v4c-65 10 -73 69 -73 118v181c0 83 -7 112 -114 112v50c129 0 178 -38 178 -137v-217c0 -58 21 -79 83 -79h20z" />
    <glyph glyph-name="eight.sub" horiz-adv-x="405" 
d="M57 260c0 64 53 116 145 116c93 0 147 -52 147 -117c0 -52 -35 -87 -73 -99v-1c42 -9 86 -42 86 -105c0 -69 -60 -123 -160 -123c-102 0 -159 52 -159 123c0 63 46 96 85 105v1c-37 12 -71 47 -71 100zM202 331c-46 0 -85 -24 -85 -75s40 -76 85 -76s85 25 85 76
s-39 75 -85 75zM202 -24c55 0 99 24 99 79s-45 80 -99 80c-51 0 -97 -25 -97 -80s45 -79 97 -79z" />
    <glyph glyph-name="eight.sup" horiz-adv-x="405" 
d="M57 732c0 65 53 116 145 116c93 0 147 -51 147 -117c0 -52 -35 -86 -73 -98v-2c42 -9 86 -41 86 -104c0 -70 -60 -124 -160 -124c-102 0 -159 53 -159 124c0 62 46 95 85 104v2c-37 12 -71 46 -71 99zM202 803c-46 0 -85 -23 -85 -75c0 -51 40 -76 85 -76s85 25 85 76
c0 52 -39 75 -85 75zM202 448c55 0 99 25 99 80s-45 80 -99 80c-51 0 -97 -25 -97 -80s45 -80 97 -80z" />
    <glyph glyph-name="five.sub" horiz-adv-x="397" 
d="M290 78c0 64 -41 97 -93 97c-40 0 -68 -14 -87 -38h-52l20 233h255v-51h-207l-11 -133h1c20 20 52 37 96 37c71 0 140 -43 140 -144c0 -88 -61 -148 -161 -148c-106 0 -145 63 -150 124h61c5 -52 40 -76 91 -76c49 0 97 30 97 99z" />
    <glyph glyph-name="five.sup" horiz-adv-x="397" 
d="M290 550c0 64 -41 97 -93 97c-40 0 -68 -13 -87 -38h-52l20 233h255v-51h-207l-11 -132h1c20 19 52 36 96 36c71 0 140 -43 140 -144c0 -88 -61 -148 -161 -148c-106 0 -145 63 -150 124h61c5 -51 40 -76 91 -76c49 0 97 30 97 99z" />
    <glyph glyph-name="four.sub" horiz-adv-x="406" 
d="M96 91h158v214h-2s-9 -18 -28 -45zM371 43h-60v-103h-59v103h-218v45l212 282h65v-278h60v-49z" />
    <glyph glyph-name="four.sup" horiz-adv-x="406" 
d="M96 564h158v214h-2s-9 -19 -28 -45zM371 515h-60v-103h-59v103h-218v45l212 282h65v-277h60v-50z" />
    <glyph glyph-name="minus.sub" horiz-adv-x="406" 
d="M59 123v49h290v-49h-290z" />
    <glyph glyph-name="minus.sup" horiz-adv-x="406" 
d="M59 567v49h290v-49h-290z" />
    <glyph glyph-name="nine.sub" horiz-adv-x="408" 
d="M197 329c-46 0 -94 -31 -94 -96c0 -63 40 -96 94 -96c56 0 97 35 97 95c0 62 -47 97 -97 97zM50 37h57c9 -39 41 -60 83 -60c75 0 108 56 109 176h-2c-18 -34 -56 -64 -112 -64c-71 0 -143 42 -143 140c0 85 63 147 156 147c103 0 163 -61 163 -204
c0 -173 -63 -241 -171 -241c-82 0 -133 42 -140 106z" />
    <glyph glyph-name="nine.sup" horiz-adv-x="408" 
d="M197 801c-46 0 -94 -30 -94 -96c0 -63 40 -96 94 -96c56 0 97 35 97 95c0 63 -47 97 -97 97zM50 509h57c9 -39 41 -59 83 -59c75 0 108 56 109 176h-2c-18 -35 -56 -65 -112 -65c-71 0 -143 42 -143 140c0 85 63 147 156 147c103 0 163 -60 163 -204
c0 -172 -63 -241 -171 -241c-82 0 -133 42 -140 106z" />
    <glyph glyph-name="one.sub" horiz-adv-x="278" 
d="M127 -60v306h-93v42h14c30 0 53 7 67 20c15 13 20 33 21 62h51v-430h-60z" />
    <glyph glyph-name="one.sup" horiz-adv-x="278" 
d="M127 412v306h-93v42h14c30 0 53 7 67 20c15 14 20 33 21 63h51v-431h-60z" />
    <glyph glyph-name="plus.sub" horiz-adv-x="408" 
d="M229 123v-112h-52v112h-120v48h120v112h52v-112h120v-48h-120z" />
    <glyph glyph-name="plus.sup" horiz-adv-x="408" 
d="M229 567v-112h-52v112h-120v48h120v112h52v-112h120v-48h-120z" />
    <glyph glyph-name="seven.sub" horiz-adv-x="354" 
d="M70 -60l187 379h-229v51h298v-37l-194 -393h-62z" />
    <glyph glyph-name="seven.sup" horiz-adv-x="354" 
d="M70 412l187 379h-229v51h298v-37l-194 -393h-62z" />
    <glyph glyph-name="six.sub" horiz-adv-x="409" 
d="M362 274h-60c-8 29 -35 57 -81 57c-78 0 -111 -73 -113 -172h2c21 37 64 66 119 66c74 0 140 -47 140 -142c0 -84 -60 -152 -158 -152c-91 0 -163 51 -163 203c0 162 65 242 178 242c88 0 131 -49 136 -102zM211 -22c47 0 97 33 97 100c0 62 -41 99 -97 99
c-57 0 -97 -36 -97 -96c0 -69 47 -103 97 -103z" />
    <glyph glyph-name="six.sup" horiz-adv-x="409" 
d="M362 747h-60c-8 29 -35 56 -81 56c-78 0 -111 -73 -113 -172h2c21 38 64 66 119 66c74 0 140 -47 140 -141c0 -85 -60 -153 -158 -153c-91 0 -163 51 -163 204c0 162 65 241 178 241c88 0 131 -49 136 -101zM211 450c47 0 97 33 97 100c0 62 -41 99 -97 99
c-57 0 -97 -36 -97 -96c0 -69 47 -103 97 -103z" />
    <glyph glyph-name="three.sub" horiz-adv-x="406" 
d="M209 133h-44v50h42c48 0 79 32 79 73c0 44 -35 72 -83 72c-54 0 -88 -27 -90 -82h-61c0 69 50 130 152 130c90 0 144 -48 144 -114c0 -48 -32 -84 -79 -99v-2c49 -9 92 -41 92 -106c0 -67 -59 -124 -160 -124c-110 0 -154 62 -157 130h61c7 -55 47 -82 100 -82
s94 32 94 78c0 52 -38 76 -90 76z" />
    <glyph glyph-name="three.sup" horiz-adv-x="406" 
d="M209 606h-44v49h42c48 0 79 32 79 74c0 44 -35 71 -83 71c-54 0 -88 -26 -90 -82h-61c0 69 50 130 152 130c90 0 144 -47 144 -114c0 -47 -32 -84 -79 -99v-1c49 -10 92 -42 92 -107c0 -66 -59 -124 -160 -124c-110 0 -154 63 -157 131h61c7 -55 47 -82 100 -82
s94 31 94 77c0 52 -38 77 -90 77z" />
    <glyph glyph-name="two.sub" horiz-adv-x="396" 
d="M348 -60h-313v43l159 142c65 55 85 83 85 128s-32 75 -83 75c-47 0 -89 -25 -92 -98h-61c1 95 67 146 154 146c103 0 146 -58 146 -119c0 -59 -26 -98 -100 -161l-121 -104v-1h226v-51z" />
    <glyph glyph-name="two.sup" horiz-adv-x="396" 
d="M348 412h-313v43l159 142c65 55 85 84 85 128c0 46 -32 75 -83 75c-47 0 -89 -25 -92 -97h-61c1 94 67 145 154 145c103 0 146 -57 146 -119c0 -58 -26 -97 -100 -160l-121 -105v-1h226v-51z" />
    <glyph glyph-name="zero.sub" horiz-adv-x="433" 
d="M47 153c0 150 67 223 169 223c104 0 170 -73 170 -223c0 -148 -65 -222 -170 -222s-169 73 -169 222zM216 -22c64 0 106 59 106 175c0 118 -41 176 -106 176c-64 0 -104 -56 -104 -176c0 -118 39 -175 104 -175z" />
    <glyph glyph-name="zero.sup" horiz-adv-x="433" 
d="M47 625c0 150 67 223 169 223c104 0 170 -72 170 -223c0 -148 -65 -222 -170 -222s-169 73 -169 222zM216 450c64 0 106 60 106 175c0 119 -41 176 -106 176c-64 0 -104 -55 -104 -176c0 -118 39 -175 104 -175z" />
    <glyph glyph-name="Q.old" horiz-adv-x="816" 
d="M629 -106l-80 119c-43 -19 -92 -29 -142 -29c-181 0 -338 119 -338 395c0 278 160 397 338 397c180 0 340 -119 340 -397c0 -164 -59 -274 -144 -336l77 -116zM143 379c0 -223 110 -338 264 -338c40 0 77 7 109 21l-78 117l52 34l79 -119c65 54 104 149 104 285
c0 224 -112 340 -266 340c-152 0 -264 -113 -264 -340z" />
    <glyph glyph-name="Q.scold" horiz-adv-x="728" 
d="M556 -92l-71 104c-38 -17 -79 -25 -122 -25c-155 0 -289 100 -289 332s137 334 290 334c156 0 290 -101 290 -334c0 -136 -47 -226 -118 -278l68 -101zM145 319c0 -183 91 -277 218 -277c33 0 64 6 90 17l-69 102l48 33l71 -104c51 44 80 121 80 229
c0 184 -92 279 -220 279c-125 0 -218 -93 -218 -279z" />
    <glyph glyph-name="Euro.tab" 
d="M573 204c-7 -126 -87 -220 -220 -220c-151 0 -226 106 -246 279h-80v57h75c-1 16 -1 32 -1 48s0 32 1 47h-76v56h81c22 172 102 281 248 281c112 0 211 -73 219 -220h-69c-6 82 -51 163 -150 163c-117 0 -164 -99 -179 -224h237v-56h-241c-1 -15 -1 -31 -1 -47
s0 -32 1 -48h243v-57h-238c15 -130 65 -224 175 -224c102 0 145 75 154 165h67z" />
    <glyph glyph-name="dollar.tab" 
d="M274 413v281c-90 -8 -140 -66 -140 -141c0 -86 51 -125 131 -138zM327 52l6 1c109 11 150 73 150 146c0 72 -38 120 -141 138l-15 3v-288zM327 -116h-53v111c-154 7 -217 96 -227 220h67c8 -78 40 -155 160 -163v297l-18 3c-104 18 -189 73 -189 201
c0 107 81 187 207 196v90h53v-90c135 -10 204 -89 209 -208h-68c-6 73 -39 141 -141 152v-288l27 -5c139 -23 198 -91 198 -198c0 -112 -73 -197 -225 -207v-111z" />
    <glyph glyph-name="dieresis.uc" horiz-adv-x="369" 
d="M253 820v84h78v-84h-78zM37 820v84h78v-84h-78z" />
    <glyph glyph-name="zero.tab" 
d="M48 368c0 258 96 384 252 384c153 0 252 -127 252 -384s-96 -384 -252 -384s-252 128 -252 384zM300 41c113 0 179 122 179 326c0 210 -62 327 -179 327c-115 0 -179 -111 -179 -327c0 -207 62 -326 179 -326z" />
    <glyph glyph-name="one.tab" 
d="M508 0h-372v58h162v511h-155v53h39c47 0 78 7 99 26s27 47 28 97h59v-687h140v-58z" />
    <glyph glyph-name="nine.tab" 
d="M296 694c-83 0 -170 -53 -170 -180c0 -115 75 -179 168 -179c97 0 172 61 172 175c0 119 -81 184 -170 184zM70 154h67c12 -65 70 -114 146 -114c142 0 193 112 193 347h-2c-31 -73 -104 -112 -192 -112c-105 0 -228 72 -228 237c0 139 99 239 244 239
c154 0 248 -100 248 -336c0 -309 -82 -431 -262 -431c-114 0 -198 59 -214 170z" />
    <glyph glyph-name="eight.tab" 
d="M74 553c0 112 86 199 226 199s225 -87 225 -199c0 -92 -62 -152 -130 -171v-2c69 -13 152 -73 152 -187c0 -119 -95 -209 -247 -209c-153 0 -247 89 -247 209c0 116 88 174 152 187v2c-68 20 -131 80 -131 171zM300 696c-82 0 -155 -43 -155 -144
c0 -100 75 -144 155 -144c77 0 154 44 154 144c0 101 -76 144 -154 144zM300 39c95 0 176 49 176 154c0 106 -86 159 -176 159c-89 0 -176 -53 -176 -159s83 -154 176 -154z" />
    <glyph glyph-name="seven.tab" 
d="M145 0l326 678h-419v63h498v-47l-332 -694h-73z" />
    <glyph glyph-name="six.tab" 
d="M533 583h-67c-11 65 -57 114 -142 114c-146 0 -195 -160 -198 -343h2c33 75 109 118 199 118c111 0 226 -70 226 -236c0 -147 -94 -252 -246 -252c-140 0 -251 91 -251 335c0 285 93 433 268 433c127 0 197 -67 209 -169zM310 43c99 0 172 67 172 185
c0 120 -74 184 -170 184c-99 0 -175 -59 -175 -180c0 -126 86 -189 173 -189z" />
    <glyph glyph-name="five.tab" 
d="M64 199h69c10 -103 76 -156 170 -156c84 0 176 50 176 192c0 129 -78 187 -172 187c-65 0 -121 -25 -154 -71h-59l22 390h394v-61h-333l-13 -259h2c26 31 82 61 153 61c111 0 231 -63 231 -246c0 -159 -102 -251 -250 -251c-156 0 -229 104 -236 214z" />
    <glyph glyph-name="space_uni0326.alt" horiz-adv-x="369" 
d="M233 773l-26 -132h-73l56 132h43z" />
    <glyph glyph-name="four.tab" 
d="M116 246h272v406h-2s-15 -32 -47 -79zM556 186h-100v-186h-68v186h-345v57l343 498h70v-494h100v-61z" />
    <glyph glyph-name="three.tab" 
d="M305 346h-36v63h36c96 0 147 70 147 145c0 84 -56 140 -149 140c-95 0 -158 -52 -162 -166h-67c-1 123 79 224 231 224c131 0 217 -77 217 -193c0 -96 -67 -154 -127 -177v-1c67 -17 148 -66 148 -186c0 -115 -95 -210 -245 -210c-173 0 -240 106 -243 220h68
c10 -107 78 -162 181 -162c96 0 169 62 169 151c0 102 -73 152 -168 152z" />
    <glyph glyph-name="uni021A.sc" horiz-adv-x="587" 
d="M557 644v-59h-229v-585h-69v585h-229v59h527zM232 -211l27 135h73l-55 -135h-45z" />
    <glyph glyph-name="two.tab" 
d="M145 522h-72c0 146 106 230 234 230c156 0 224 -98 224 -196c0 -105 -45 -164 -158 -272l-230 -220v-2h395v-62h-485v60l257 251c94 92 149 144 149 242c0 84 -58 141 -151 141c-86 0 -163 -54 -163 -172z" />
    </font>
</defs>
</svg>
