<?xml version="1.0" standalone="no"?>
<!DOCTYPE svg PUBLIC "-//W3C//DTD SVG 1.1//EN" "http://www.w3.org/Graphics/SVG/1.1/DTD/svg11.dtd" >
<svg>
<metadata>
Created by FontForge 20110222 at Thu Nov 13 15:39:17 2014
 By www-data
Copyright2012 Kai Bernau and Susana Carvalho with Christian Schwartz under exclusive license to Schwartzco Inc.Commercial Type. All rights reserved.
</metadata>
<defs>
<font id="AtlasGroteskDetail-Black" horiz-adv-x="600" >
  <font-face 
    font-family="Atlas Grotesk Detail"
    font-weight="900"
    font-stretch="normal"
    units-per-em="1000"
    panose-1="0 0 0 0 0 0 0 0 0 0"
    ascent="812"
    descent="-188"
    x-height="541"
    cap-height="765"
    bbox="-220 -242 1284 1211"
    underline-thickness="50"
    underline-position="-25"
    stemh="138"
    stemv="196"
    unicode-range="U+0020-FB02"
  />
<missing-glyph horiz-adv-x="500" 
 />
    <glyph glyph-name=".notdef" horiz-adv-x="500" 
 />
    <glyph glyph-name="Eth" unicode="&#xd0;" horiz-adv-x="793" 
d="M364 0h-276v318h-70v129h70v318h276c234 0 389 -116 389 -373c0 -259 -157 -392 -389 -392zM291 147h60c116 0 187 57 187 241c0 175 -71 232 -182 232h-65v-173h138v-129h-138v-171z" />
    <glyph glyph-name="eth" unicode="&#xf0;" horiz-adv-x="650" 
d="M322 -14c-177 0 -289 95 -289 279c0 175 97 283 236 283c56 0 80 -19 107 -45h2c-23 43 -60 80 -104 112l-131 -53l-27 68l85 35c-39 23 -77 44 -111 63l138 69c51 -17 98 -39 140 -64l106 43l27 -68l-63 -26c113 -94 174 -225 174 -384c0 -224 -122 -312 -290 -312z
M323 430c-70 0 -87 -62 -87 -165c0 -85 20 -152 86 -152c70 0 87 67 87 153c0 93 -20 164 -86 164z" />
    <glyph glyph-name="Lslash" unicode="&#x141;" horiz-adv-x="613" 
d="M62 0v248l-78 -27v139l78 27v378h203v-306l208 73v-139l-208 -73v-168h303v-152h-506z" />
    <glyph glyph-name="lslash" unicode="&#x142;" horiz-adv-x="304" 
d="M250 0h-196v279l-70 -38v139l70 38v370h196v-264l70 38v-139l-70 -38v-385z" />
    <glyph glyph-name="Scaron" unicode="&#x160;" horiz-adv-x="691" 
d="M645 556h-207c-2 38 -31 76 -91 76c-53 0 -90 -26 -90 -70c0 -41 22 -65 87 -77l120 -22c129 -24 202 -97 202 -212c0 -177 -121 -267 -323 -267c-196 0 -308 73 -316 237h211c6 -58 46 -93 110 -93c68 0 107 35 107 80c0 46 -25 67 -97 80l-118 23
c-100 20 -193 87 -193 220c0 141 104 245 301 245c214 0 293 -96 297 -220zM261 827l-109 133h132l61 -45h1l58 45h124l-109 -133h-158z" />
    <glyph glyph-name="scaron" unicode="&#x161;" horiz-adv-x="553" 
d="M508 382h-170c-2 27 -20 53 -62 53s-59 -17 -59 -41c0 -23 11 -37 53 -43l96 -13c92 -11 157 -60 157 -160c0 -126 -103 -194 -247 -194c-182 0 -244 75 -251 175h177c2 -35 27 -56 74 -56c41 0 69 15 69 45c0 26 -17 37 -55 42l-88 11c-104 13 -164 68 -164 168
c0 93 70 185 238 185c160 0 226 -74 232 -172zM197 608l-112 180h125l63 -64h1l60 64h117l-112 -180h-142z" />
    <glyph glyph-name="Yacute" unicode="&#xdd;" horiz-adv-x="720" 
d="M259 0v319l-248 446h220l137 -273h2l134 273h205l-247 -444v-321h-203zM293 827l66 133h187l-108 -133h-145z" />
    <glyph glyph-name="yacute" unicode="&#xfd;" horiz-adv-x="599" 
d="M215 -4l-209 545h203l76 -257c18 -61 24 -116 24 -116h2s5 55 22 116l70 257h190l-187 -549c-44 -128 -104 -191 -257 -191c-68 0 -95 8 -92 8v138c4 -1 28 -5 59 -5c55 0 85 13 97 48zM224 608l49 180h189l-88 -180h-150z" />
    <glyph glyph-name="Thorn" unicode="&#xde;" horiz-adv-x="683" 
d="M348 292h6c67 2 109 35 109 101c0 70 -44 98 -114 98h-84v-199h83zM370 155h-105v-155h-203v765h203v-141h117c158 0 274 -63 274 -229c0 -179 -121 -240 -286 -240z" />
    <glyph glyph-name="thorn" unicode="&#xfe;" horiz-adv-x="665" 
d="M248 236c0 -73 29 -124 88 -124c57 0 95 52 95 155c0 113 -36 156 -95 156c-48 0 -88 -39 -88 -127v-60zM54 -188v976h196v-324h3c26 45 80 88 161 88c130 0 216 -85 216 -283c0 -172 -86 -282 -236 -282c-77 0 -118 36 -141 74h-3v-249h-196z" />
    <glyph glyph-name="Zcaron" unicode="&#x17d;" horiz-adv-x="660" 
d="M48 613v152h573v-135l-356 -477h360v-153h-595v135l357 478h-339zM252 827l-109 133h132l61 -45h1l58 45h124l-109 -133h-158z" />
    <glyph glyph-name="zcaron" unicode="&#x17e;" horiz-adv-x="559" 
d="M48 403v138h475v-116l-246 -285h250v-140h-488v117l248 286h-239zM206 608l-112 180h125l63 -64h1l60 64h117l-112 -180h-142z" />
    <glyph glyph-name="onehalf" unicode="&#xbd;" horiz-adv-x="939" 
d="M117 334v268h-96v91h15c24 0 49 4 67 15c15 10 25 30 25 57h127v-431h-138zM76 -40l547 821h128l-547 -821h-128zM661 274h-132c2 99 62 164 191 164c127 0 181 -56 181 -130c0 -67 -39 -106 -106 -157l-64 -49v-3h171v-99h-377v67l184 155c42 35 53 52 53 78
c0 28 -16 44 -42 44c-33 0 -58 -17 -59 -70z" />
    <glyph glyph-name="onequarter" unicode="&#xbc;" horiz-adv-x="900" 
d="M117 334v268h-96v91h15c24 0 49 4 67 15c15 10 25 30 25 57h127v-431h-138zM78 -40l547 821h128l-547 -821h-128zM581 176h115v176h-3s-13 -38 -38 -73zM872 85h-55v-85h-125v85h-230v88l192 258h163v-248h55v-98z" />
    <glyph glyph-name="onesuperior" unicode="&#xb9;" horiz-adv-x="317" 
d="M117 384v268h-96v91h15c24 0 49 4 67 15c15 10 25 30 25 57h127v-431h-138z" />
    <glyph glyph-name="threequarters" unicode="&#xbe;" horiz-adv-x="975" 
d="M224 514h-55v77h42c29 0 53 15 53 45c0 29 -20 44 -46 44c-35 0 -47 -25 -48 -44h-133c4 61 44 138 191 138c115 0 174 -53 174 -117c0 -48 -27 -85 -89 -97v-2c71 -11 100 -49 100 -102c0 -68 -63 -131 -189 -131c-146 0 -188 71 -189 138h137c1 -28 23 -42 49 -42
c37 0 55 22 55 48c0 27 -20 45 -52 45zM170 -40l547 821h128l-547 -821h-128zM656 176h115v176h-3s-13 -38 -38 -73zM947 85h-55v-85h-125v85h-230v88l192 258h163v-248h55v-98z" />
    <glyph glyph-name="threesuperior" unicode="&#xb3;" horiz-adv-x="450" 
d="M224 564h-55v77h42c29 0 53 15 53 45c0 29 -20 44 -46 44c-35 0 -47 -25 -48 -44h-133c4 61 44 138 191 138c115 0 174 -53 174 -117c0 -48 -27 -85 -89 -97v-2c71 -11 100 -49 100 -102c0 -68 -63 -131 -189 -131c-146 0 -188 71 -189 138h137c1 -28 23 -42 49 -42
c37 0 55 22 55 48c0 27 -20 45 -52 45z" />
    <glyph glyph-name="twosuperior" unicode="&#xb2;" horiz-adv-x="444" 
d="M166 658h-132c2 99 62 164 191 164c127 0 181 -56 181 -130c0 -67 -39 -106 -106 -157l-64 -49v-3h171v-99h-377v67l184 155c42 35 53 52 53 78c0 28 -16 44 -42 44c-33 0 -58 -17 -59 -70z" />
    <glyph glyph-name="brokenbar" unicode="&#xa6;" horiz-adv-x="289" 
d="M206 788v-406h-127v406h127zM206 -130h-127v405h127v-405z" />
    <glyph glyph-name="minus" unicode="&#x2212;" horiz-adv-x="633" 
d="M71 290v136h490v-136h-490z" />
    <glyph glyph-name="multiply" unicode="&#xd7;" horiz-adv-x="633" 
d="M151 81l-102 102l167 165l-167 165l102 102l165 -167l164 167l102 -102l-166 -165l167 -165l-102 -102l-165 167z" />
    <glyph glyph-name="space" unicode=" " horiz-adv-x="205" 
 />
    <glyph glyph-name="exclam" unicode="!" horiz-adv-x="357" 
d="M177 -16c-63 0 -114 47 -114 105c0 59 51 106 114 106s115 -47 115 -106c0 -58 -52 -105 -115 -105zM108 246l-43 542h227l-44 -542h-140z" />
    <glyph glyph-name="quotedbl" unicode="&#x22;" horiz-adv-x="550" 
d="M328 482l-20 283h164l-27 -283h-117zM98 482l-20 283h164l-27 -283h-117z" />
    <glyph glyph-name="numbersign" unicode="#" horiz-adv-x="667" 
d="M271 373h101l21 142h-101zM132 99l24 169h-106v105h122l20 142h-112v105h127l22 145h99l-21 -145h100l22 145h100l-22 -145h110v-105h-125l-20 -142h115v-105h-131l-24 -169h-100l24 169h-101l-24 -169h-99z" />
    <glyph glyph-name="dollar" unicode="$" horiz-adv-x="682" 
d="M303 470v143c-57 -8 -73 -37 -73 -67c0 -36 22 -63 73 -76zM375 128l4 1c52 9 76 40 76 77c0 41 -28 60 -80 73v-151zM375 -116h-72v103c-161 9 -266 84 -273 229h192c5 -45 32 -75 81 -86v162l-42 7c-131 22 -226 76 -226 222c0 120 95 214 268 225v82h72v-82
c175 -10 248 -95 260 -214h-192c-2 32 -22 66 -68 79v-153l42 -7c151 -24 234 -93 234 -211c0 -151 -99 -242 -276 -253v-103z" />
    <glyph glyph-name="percent" unicode="%" horiz-adv-x="922" 
d="M135 -40l527 821h130l-527 -821h-130zM228 381c-98 0 -178 61 -178 181c0 121 84 180 178 180c96 0 180 -59 180 -180c0 -120 -84 -181 -180 -181zM227 478c36 0 58 28 58 84s-22 85 -58 85c-35 0 -56 -27 -56 -85c0 -56 21 -84 56 -84zM691 -7c-98 0 -178 61 -178 181
c0 121 83 180 178 180c96 0 179 -59 179 -180c0 -120 -83 -181 -179 -181zM690 90c35 0 58 28 58 84s-23 85 -58 85c-36 0 -57 -27 -57 -85c0 -56 21 -84 57 -84z" />
    <glyph glyph-name="ampersand" unicode="&#x26;" horiz-adv-x="805" 
d="M297 594c0 -35 12 -58 55 -101c46 33 83 64 83 110c0 43 -28 66 -68 66c-43 0 -70 -31 -70 -75zM280 337l-3 -3c-20 -19 -44 -51 -44 -100c0 -62 47 -109 114 -109c34 0 64 16 91 42zM750 0h-42c-86 0 -118 11 -173 64c-55 -49 -122 -80 -207 -80
c-177 0 -282 88 -282 227c0 92 50 160 152 223c-52 53 -71 96 -71 163c0 107 86 191 241 191c145 0 227 -70 227 -171c0 -96 -64 -150 -151 -215l89 -96c21 39 41 80 62 122h167c-40 -78 -78 -162 -124 -235c41 -44 44 -46 112 -46v-147z" />
    <glyph glyph-name="quotesingle" unicode="'" horiz-adv-x="320" 
d="M98 482l-20 283h164l-27 -283h-117z" />
    <glyph glyph-name="parenleft" unicode="(" horiz-adv-x="372" 
d="M369 -130h-139c-80 93 -176 247 -176 459c0 213 96 366 176 459h139c-76 -122 -145 -275 -145 -459c0 -183 69 -336 145 -459z" />
    <glyph glyph-name="parenright" unicode=")" horiz-adv-x="358" 
d="M3 -130c76 123 145 276 145 459c0 184 -69 337 -145 459h138c81 -93 176 -246 176 -459c0 -212 -95 -366 -176 -459h-138z" />
    <glyph glyph-name="asterisk" unicode="*" horiz-adv-x="455" 
d="M230 533h-4l-55 -117l-108 73l100 89v4l-130 14l41 127l114 -67l2 2l-29 130h133l-28 -132l2 -2l114 67l41 -127l-130 -14v-4l100 -89l-108 -73z" />
    <glyph glyph-name="plus" unicode="+" horiz-adv-x="633" 
d="M390 290v-198h-149v198h-190v136h190v196h149v-196h191v-136h-191z" />
    <glyph glyph-name="comma" unicode="," horiz-adv-x="319" 
d="M35 -117l62 296h192l-126 -296h-128z" />
    <glyph glyph-name="hyphen" unicode="-" horiz-adv-x="440" 
d="M55 237v144h330v-144h-330z" />
    <glyph glyph-name="period" unicode="." horiz-adv-x="319" 
d="M158 -16c-63 0 -110 47 -110 108c0 59 47 107 110 107c64 0 112 -48 112 -107c0 -61 -48 -108 -112 -108z" />
    <glyph glyph-name="slash" unicode="/" horiz-adv-x="572" 
d="M-24 -130l454 918h141l-454 -918h-141z" />
    <glyph glyph-name="zero" unicode="0" horiz-adv-x="719" 
d="M40 367c0 260 128 383 318 383c206 0 321 -120 321 -383c0 -258 -121 -381 -321 -381c-207 0 -318 120 -318 381zM358 131c62 0 104 55 104 238c0 184 -48 240 -104 240c-60 0 -103 -56 -103 -240c0 -193 40 -238 103 -238z" />
    <glyph glyph-name="one" unicode="1" horiz-adv-x="432" 
d="M153 0v488h-144v122h18c40 0 79 8 106 29c24 19 39 54 39 102h177v-741h-196z" />
    <glyph glyph-name="two" unicode="2" horiz-adv-x="652" 
d="M241 484h-194c3 165 99 268 293 268s273 -94 273 -215c0 -112 -60 -173 -168 -271l-124 -112v-2h291v-152h-578v105l266 249c84 79 110 122 110 171c0 56 -30 86 -77 86c-42 0 -92 -25 -92 -127z" />
    <glyph glyph-name="three" unicode="3" horiz-adv-x="662" 
d="M330 312h-81v127h60c56 0 96 32 96 87c0 54 -44 83 -84 83c-62 0 -85 -41 -88 -88h-190c5 108 72 231 286 231c182 0 274 -91 274 -198c0 -81 -40 -144 -125 -167v-3c95 -22 143 -81 143 -177c0 -117 -98 -222 -291 -222c-218 0 -287 118 -295 234h203
c6 -60 44 -87 91 -87c58 0 95 38 95 91c0 54 -37 89 -94 89z" />
    <glyph glyph-name="four" unicode="4" horiz-adv-x="688" 
d="M212 299h176v289h-2s-13 -39 -41 -82zM662 156h-86v-156h-193v156h-352v131l309 454h236v-440h86v-145z" />
    <glyph glyph-name="five" unicode="5" horiz-adv-x="656" 
d="M422 242c0 67 -35 110 -97 110c-46 0 -79 -14 -104 -48h-163l40 437h469v-152h-322l-15 -163h2c28 35 84 66 156 66c145 0 230 -94 230 -246c0 -134 -95 -261 -294 -261c-226 0 -281 116 -289 232h189c7 -60 42 -85 95 -85c62 0 103 43 103 110z" />
    <glyph glyph-name="six" unicode="6" horiz-adv-x="674" 
d="M620 557h-182c-10 38 -36 58 -74 58c-60 0 -117 -49 -121 -214h4c28 59 91 91 167 91c126 0 225 -86 225 -239c0 -141 -93 -268 -293 -268c-183 0 -306 115 -306 354c0 272 128 413 327 413c175 0 242 -92 253 -195zM351 128c45 0 91 34 91 113c0 72 -39 112 -91 112
c-54 0 -91 -37 -91 -112c0 -79 44 -113 91 -113z" />
    <glyph glyph-name="seven" unicode="7" horiz-adv-x="578" 
d="M67 0l269 589h-321v152h543v-106l-291 -635h-200z" />
    <glyph glyph-name="eight" unicode="8" horiz-adv-x="674" 
d="M63 548c0 121 92 204 274 204s274 -83 274 -205c0 -89 -50 -133 -118 -158v-4c91 -22 145 -74 145 -179c0 -125 -122 -222 -301 -222c-191 0 -301 91 -301 222c0 99 56 156 145 179v4c-67 23 -118 69 -118 159zM337 620c-49 0 -88 -29 -88 -90c0 -59 38 -90 88 -90
s88 31 88 90c0 61 -38 90 -88 90zM337 112c57 0 104 35 104 100c0 68 -44 100 -104 100s-104 -32 -104 -100c0 -65 47 -100 104 -100z" />
    <glyph glyph-name="nine" unicode="9" horiz-adv-x="671" 
d="M325 602c-44 0 -96 -30 -96 -105c0 -70 46 -106 96 -106c52 0 95 34 95 106s-50 105 -95 105zM46 185h180c9 -42 43 -59 83 -59c78 0 117 80 121 209h-4c-26 -51 -85 -81 -154 -81c-131 0 -241 86 -241 239c0 136 100 259 298 259c189 0 302 -128 302 -366
c0 -264 -137 -401 -327 -401c-162 0 -245 86 -258 200z" />
    <glyph glyph-name="colon" unicode=":" horiz-adv-x="319" 
d="M158 322c-63 0 -110 47 -110 108c0 59 47 107 110 107c64 0 112 -48 112 -107c0 -61 -48 -108 -112 -108zM158 -16c-63 0 -110 47 -110 108c0 59 47 107 110 107c64 0 112 -48 112 -107c0 -61 -48 -108 -112 -108z" />
    <glyph glyph-name="semicolon" unicode=";" horiz-adv-x="344" 
d="M98 348v179h191v-179h-191zM163 -117h-128l62 296h192z" />
    <glyph glyph-name="less" unicode="&#x3c;" horiz-adv-x="633" 
d="M567 31l-512 264v77l512 265v-153l-293 -146l293 -148v-159z" />
    <glyph glyph-name="equal" unicode="=" horiz-adv-x="633" 
d="M71 395v136h490v-136h-490zM561 177h-490v136h490v-136z" />
    <glyph glyph-name="greater" unicode="&#x3e;" horiz-adv-x="633" 
d="M66 637l512 -264v-77l-512 -265v153l293 146l-293 148v159z" />
    <glyph glyph-name="question" unicode="?" horiz-adv-x="621" 
d="M312 -16c-65 0 -116 47 -116 105c0 59 51 106 116 106c63 0 114 -47 114 -106c0 -58 -51 -105 -114 -105zM400 575c0 45 -27 72 -83 72c-45 0 -97 -20 -98 -123h-189c-1 157 95 272 292 272c193 0 271 -89 271 -214c0 -85 -31 -135 -101 -192l-84 -69
c-10 -8 -14 -19 -14 -36v-39h-167v64c0 59 3 77 54 119l61 49c34 30 58 50 58 97z" />
    <glyph glyph-name="at" unicode="@" horiz-adv-x="1009" 
d="M714 52c-75 0 -134 36 -142 101h-3c-30 -56 -74 -97 -155 -97c-97 0 -155 73 -155 184c0 139 90 271 225 271c64 0 100 -33 113 -68h2l11 52h156l-62 -283c-11 -53 9 -80 51 -80c64 0 123 66 123 210c0 189 -147 332 -354 332c-217 0 -394 -178 -394 -410
c0 -234 158 -383 368 -383c108 0 199 37 257 84l44 -46c-67 -56 -167 -104 -308 -104c-253 0 -437 181 -437 449c0 274 207 476 472 476c248 0 433 -159 433 -392c0 -204 -107 -296 -245 -296zM473 159c39 0 78 40 90 106l9 45c11 59 -12 100 -51 100
c-70 0 -102 -100 -102 -170c0 -53 18 -81 54 -81z" />
    <glyph glyph-name="A" unicode="A" horiz-adv-x="775" 
d="M378 598c-1 -3 -7 -46 -29 -120l-58 -195h174l-57 194c-23 78 -28 121 -28 121h-2zM555 0l-44 138h-266l-45 -138h-191l265 765h224l268 -765h-211z" />
    <glyph glyph-name="B" unicode="B" horiz-adv-x="731" 
d="M413 0h-351v765h327c196 0 279 -67 279 -200c0 -88 -73 -139 -129 -153v-4c96 -16 167 -78 167 -184c0 -135 -109 -224 -293 -224zM265 452h103c66 0 102 29 102 89c0 57 -36 89 -102 89h-103v-178zM265 140h128c68 0 108 25 108 97c0 58 -40 90 -108 90h-128v-187z" />
    <glyph glyph-name="C" unicode="C" horiz-adv-x="765" 
d="M401 629c-74 0 -142 -75 -142 -252c0 -163 56 -246 142 -246c65 0 114 40 122 140h206c-7 -176 -128 -287 -323 -287c-258 0 -366 153 -366 383c0 254 127 409 361 409c217 0 322 -114 329 -287h-207c-5 96 -59 140 -122 140z" />
    <glyph glyph-name="D" unicode="D" horiz-adv-x="767" 
d="M62 0v765h276c234 0 389 -116 389 -373c0 -259 -157 -392 -389 -392h-276zM265 147h60c116 0 187 57 187 241c0 175 -71 232 -182 232h-65v-473z" />
    <glyph glyph-name="E" unicode="E" horiz-adv-x="633" 
d="M62 0v765h512v-148h-309v-165h299v-144h-299v-162h320v-146h-523z" />
    <glyph glyph-name="F" unicode="F" horiz-adv-x="597" 
d="M265 279v-279h-203v765h495v-148h-292v-192h281v-146h-281z" />
    <glyph glyph-name="G" unicode="G" horiz-adv-x="800" 
d="M410 634c-95 0 -154 -79 -154 -254c0 -194 64 -254 158 -254c84 0 132 54 143 141l2 16h-159v137h346v-420h-157v100h-3c-37 -69 -106 -116 -214 -116c-231 0 -332 165 -332 382c0 248 142 410 370 410c198 0 308 -92 325 -258h-204c-9 66 -51 116 -121 116z" />
    <glyph glyph-name="H" unicode="H" horiz-adv-x="790" 
d="M265 304v-304h-203v765h203v-310h258v310h205v-765h-205v304h-258z" />
    <glyph glyph-name="I" unicode="I" horiz-adv-x="327" 
d="M62 0v765h203v-765h-203z" />
    <glyph glyph-name="J" unicode="J" horiz-adv-x="461" 
d="M111 -3h-74v158h45c109 0 124 48 124 128v482h200v-508c0 -203 -113 -260 -295 -260z" />
    <glyph glyph-name="K" unicode="K" horiz-adv-x="747" 
d="M265 223v-223h-203v765h203v-304l236 304h221l-265 -318l273 -447h-230l-178 292z" />
    <glyph glyph-name="L" unicode="L" horiz-adv-x="613" 
d="M62 0v765h203v-613h303v-152h-506z" />
    <glyph glyph-name="M" unicode="M" horiz-adv-x="982" 
d="M62 0v765h291l108 -338c20 -61 30 -120 30 -120h3s11 59 30 121l105 337h291v-765h-199v567h-3s-20 -87 -49 -184l-116 -383h-141l-120 383c-31 98 -47 183 -47 183h-3v-566h-180z" />
    <glyph glyph-name="N" unicode="N" horiz-adv-x="785" 
d="M62 0v765h215l197 -331c46 -78 64 -134 64 -134h3v465h182v-765h-202l-207 343c-47 77 -69 139 -69 139h-3v-482h-180z" />
    <glyph glyph-name="O" unicode="O" horiz-adv-x="821" 
d="M40 380c0 240 140 396 372 396c244 0 369 -151 369 -396c0 -241 -134 -396 -369 -396c-251 0 -372 152 -372 396zM411 128c101 0 150 83 150 252s-62 254 -150 254c-101 0 -150 -85 -150 -254c0 -170 44 -252 150 -252z" />
    <glyph glyph-name="P" unicode="P" horiz-adv-x="683" 
d="M330 246h-65v-246h-203v765h286c175 0 308 -70 308 -253c0 -199 -147 -266 -326 -266zM265 391h83c71 0 111 39 111 118c0 82 -40 115 -110 115h-84v-233z" />
    <glyph glyph-name="Q" unicode="Q" horiz-adv-x="821" 
d="M40 380c0 244 135 396 372 396c239 0 369 -155 369 -396c0 -145 -52 -265 -138 -312v-5c74 -19 106 -48 141 -118l-182 -95c-48 99 -88 139 -177 139h-16c-251 0 -369 147 -369 391zM411 125c105 0 150 79 150 253c0 173 -59 256 -150 256c-97 0 -150 -88 -150 -256
c0 -171 44 -253 150 -253z" />
    <glyph glyph-name="R" unicode="R" horiz-adv-x="726" 
d="M265 411h80c62 0 122 27 122 111c0 91 -74 109 -120 109h-82v-220zM491 0l-137 273h-89v-273h-203v765h311c46 0 105 -4 157 -25c78 -31 143 -90 143 -205c0 -109 -67 -177 -140 -210v-2l173 -323h-215z" />
    <glyph glyph-name="S" unicode="S" horiz-adv-x="691" 
d="M645 556h-207c-2 38 -31 76 -91 76c-53 0 -90 -26 -90 -70c0 -41 22 -65 87 -77l120 -22c129 -24 202 -97 202 -212c0 -177 -121 -267 -323 -267c-196 0 -308 73 -316 237h211c6 -58 46 -93 110 -93c68 0 107 35 107 80c0 46 -25 67 -97 80l-118 23
c-100 20 -193 87 -193 220c0 141 104 245 301 245c214 0 293 -96 297 -220z" />
    <glyph glyph-name="T" unicode="T" horiz-adv-x="667" 
d="M640 765v-155h-205v-610h-203v610h-205v155h613z" />
    <glyph glyph-name="U" unicode="U" horiz-adv-x="759" 
d="M56 274v491h203l-1 -450c0 -46 1 -99 24 -130c24 -30 56 -43 98 -43c46 0 80 13 103 43c22 31 20 84 20 130v450h200v-491c0 -194 -130 -290 -325 -290s-322 96 -322 290z" />
    <glyph glyph-name="V" unicode="V" horiz-adv-x="745" 
d="M258 0l-249 765h211l136 -460c22 -72 23 -112 23 -112h2s4 40 24 111l139 461h192l-247 -765h-231z" />
    <glyph glyph-name="W" unicode="W" horiz-adv-x="1064" 
d="M404 0h-198l-194 765h210l83 -378c17 -77 21 -132 21 -132h2s5 55 26 131l104 379h172l106 -378c21 -76 30 -132 30 -132h1s5 55 21 131l81 379h183l-193 -765h-192l-108 408c-20 77 -23 120 -23 120h-2s-3 -43 -23 -119z" />
    <glyph glyph-name="X" unicode="X" horiz-adv-x="758" 
d="M11 0l250 395l-232 370h230l127 -219h1l127 219h210l-233 -364l256 -401h-237l-146 248h-1l-143 -248h-209z" />
    <glyph glyph-name="Y" unicode="Y" horiz-adv-x="720" 
d="M259 0v319l-248 446h220l137 -273h2l134 273h205l-247 -444v-321h-203z" />
    <glyph glyph-name="Z" unicode="Z" horiz-adv-x="660" 
d="M48 613v152h573v-135l-356 -477h360v-153h-595v135l357 478h-339z" />
    <glyph glyph-name="bracketleft" unicode="[" horiz-adv-x="404" 
d="M90 -130v918h289v-112h-132v-694h132v-112h-289z" />
    <glyph glyph-name="backslash" unicode="\" horiz-adv-x="572" 
d="M455 -130l-454 918h141l454 -918h-141z" />
    <glyph glyph-name="bracketright" unicode="]" horiz-adv-x="404" 
d="M314 788v-918h-289v112h132v694h-132v112h289z" />
    <glyph glyph-name="asciicircum" unicode="^" horiz-adv-x="473" 
d="M297 788l156 -299h-125l-97 163h-1l-93 -163h-117l155 299h122z" />
    <glyph glyph-name="underscore" unicode="_" horiz-adv-x="386" 
d="M-2 -190v115h390v-115h-390z" />
    <glyph glyph-name="grave" unicode="`" horiz-adv-x="369" 
d="M241 788l49 -180h-150l-88 180h189z" />
    <glyph glyph-name="a" unicode="a" horiz-adv-x="601" 
d="M270 110c48 0 82 42 82 109v19c-68 -4 -97 -10 -117 -23c-17 -11 -24 -29 -24 -48c0 -31 22 -57 59 -57zM226 374h-187c7 114 101 179 248 179c196 0 253 -80 253 -224v-170c0 -21 10 -29 40 -29v-130h-75c-73 0 -115 7 -136 64h-3c-37 -43 -82 -69 -158 -69
c-115 0 -189 61 -189 164c0 64 29 107 82 135c58 31 138 33 249 38v32c0 40 -19 68 -61 68c-39 0 -61 -21 -63 -58z" />
    <glyph glyph-name="b" unicode="b" horiz-adv-x="665" 
d="M54 0v788h196v-324h3c26 45 80 88 161 88c130 0 216 -85 216 -283c0 -177 -83 -282 -232 -282c-78 0 -125 31 -154 81h-2v-68h-188zM336 112c57 0 95 52 95 155c0 113 -36 156 -95 156c-48 0 -88 -39 -88 -127v-60c0 -73 29 -124 88 -124z" />
    <glyph glyph-name="c" unicode="c" horiz-adv-x="627" 
d="M592 331h-193c-4 58 -25 97 -77 97c-76 0 -88 -84 -88 -156c0 -61 7 -156 88 -156c54 0 78 39 80 97h192c0 -150 -116 -227 -272 -227c-184 0 -289 106 -289 286s112 282 290 282c164 0 267 -82 269 -223z" />
    <glyph glyph-name="d" unicode="d" horiz-adv-x="670" 
d="M422 228v68c0 84 -33 127 -90 127c-54 0 -98 -43 -98 -156c0 -103 33 -155 96 -155c62 0 92 49 92 116zM616 788v-788h-188v74h-2c-27 -44 -70 -88 -157 -88c-158 0 -234 99 -234 276c0 193 104 289 238 289c63 0 117 -26 145 -76h2v313h196z" />
    <glyph glyph-name="e" unicode="e" horiz-adv-x="629" 
d="M395 328l-1 7c-6 69 -33 103 -82 103c-51 0 -77 -36 -83 -110h166zM591 166c-15 -117 -110 -180 -279 -180c-179 0 -279 107 -279 287c0 169 105 281 279 281c199 0 282 -118 282 -288v-39h-364c6 -87 37 -114 89 -114c49 0 68 20 78 53h194z" />
    <glyph glyph-name="f" unicode="f" horiz-adv-x="378" 
d="M276 408v-408h-191v408h-66v133h66v47c0 161 86 207 211 207c53 0 91 -6 91 -6v-131s-17 3 -42 3c-44 0 -69 -20 -69 -79v-41h93v-133h-93z" />
    <glyph glyph-name="g" unicode="g" horiz-adv-x="666" 
d="M425 246v62c0 76 -38 115 -92 115c-51 0 -98 -39 -98 -141c0 -94 37 -141 96 -141c57 0 94 44 94 105zM327 -199c-203 0 -268 82 -273 179h189c9 -38 27 -58 86 -58c66 0 96 34 96 118v74h-3c-16 -37 -55 -92 -150 -92c-157 0 -237 88 -237 260c0 176 107 269 237 269
c81 0 129 -38 150 -78h2v68h188v-482c0 -169 -82 -258 -285 -258z" />
    <glyph glyph-name="h" unicode="h" horiz-adv-x="659" 
d="M415 0v307c0 38 -3 63 -14 80c-13 19 -34 28 -62 28c-56 0 -89 -35 -89 -108v-307h-196v788h196v-332h2c24 48 80 95 170 95c144 0 189 -77 189 -213v-338h-196z" />
    <glyph glyph-name="i" unicode="i" horiz-adv-x="304" 
d="M152 596c-62 0 -109 42 -109 99c0 58 47 100 109 100c61 0 108 -42 108 -100c0 -57 -47 -99 -108 -99zM54 0v541h196v-541h-196z" />
    <glyph glyph-name="j" unicode="j" horiz-adv-x="310" 
d="M158 596c-62 0 -109 42 -109 99c0 58 47 100 109 100c61 0 108 -42 108 -100c0 -57 -47 -99 -108 -99zM44 -210c-57 0 -87 11 -87 11v129s13 -5 35 -5c48 0 68 24 68 78v538h196v-537c0 -167 -90 -214 -212 -214z" />
    <glyph glyph-name="k" unicode="k" horiz-adv-x="620" 
d="M246 128v-128h-192v788h192v-449l163 202h202l-181 -217l182 -324h-207l-106 195z" />
    <glyph glyph-name="l" unicode="l" horiz-adv-x="304" 
d="M54 0v788h196v-788h-196z" />
    <glyph glyph-name="m" unicode="m" horiz-adv-x="1004" 
d="M54 0v541h189v-88h2c31 52 81 98 171 98c109 0 151 -48 171 -112h2c22 47 76 112 180 112c140 0 187 -77 187 -213v-338h-196v307c0 38 -3 63 -14 80c-13 19 -33 28 -60 28c-50 0 -83 -35 -83 -108v-307h-196v307c0 38 -3 63 -14 80c-13 19 -33 28 -60 28
c-50 0 -83 -35 -83 -108v-307h-196z" />
    <glyph glyph-name="n" unicode="n" horiz-adv-x="659" 
d="M415 0v307c0 38 -3 63 -14 80c-13 19 -34 28 -62 28c-56 0 -89 -35 -89 -108v-307h-196v541h189v-88h2c32 54 81 98 177 98c144 0 189 -77 189 -213v-338h-196z" />
    <glyph glyph-name="o" unicode="o" horiz-adv-x="647" 
d="M324 -14c-177 0 -291 103 -291 284c0 183 112 284 291 284c167 0 290 -99 290 -284c0 -180 -122 -284 -290 -284zM324 427c-70 0 -88 -74 -88 -157c0 -90 22 -157 88 -157c70 0 87 74 87 157c0 89 -21 157 -87 157z" />
    <glyph glyph-name="p" unicode="p" horiz-adv-x="665" 
d="M248 236c0 -73 29 -124 88 -124c57 0 95 52 95 155c0 113 -36 156 -95 156c-48 0 -88 -39 -88 -127v-60zM54 -188v729h188v-87h2c23 44 80 98 170 98c130 0 216 -85 216 -283c0 -172 -86 -282 -236 -282c-77 0 -118 36 -141 74h-3v-249h-196z" />
    <glyph glyph-name="q" unicode="q" horiz-adv-x="670" 
d="M616 541v-729h-196v248h-2c-19 -30 -66 -74 -149 -74c-158 0 -234 96 -234 276c0 193 104 289 238 289c63 0 121 -28 153 -79h2v69h188zM330 112c62 0 92 49 92 116v68c0 84 -33 127 -90 127c-54 0 -98 -43 -98 -156c0 -103 33 -155 96 -155z" />
    <glyph glyph-name="r" unicode="r" horiz-adv-x="447" 
d="M54 0v541h185v-121h2c33 96 113 129 182 129h9v-170h-34c-98 0 -150 -22 -150 -126v-253h-194z" />
    <glyph glyph-name="s" unicode="s" horiz-adv-x="553" 
d="M508 382h-170c-2 27 -20 53 -62 53s-59 -17 -59 -41c0 -23 11 -37 53 -43l96 -13c92 -11 157 -60 157 -160c0 -126 -103 -194 -247 -194c-182 0 -244 75 -251 175h177c2 -35 27 -56 74 -56c41 0 69 15 69 45c0 26 -17 37 -55 42l-88 11c-104 13 -164 68 -164 168
c0 93 70 185 238 185c160 0 226 -74 232 -172z" />
    <glyph glyph-name="t" unicode="t" horiz-adv-x="421" 
d="M117 690h165v-149h114v-133h-111v-196c0 -54 18 -78 70 -78c16 0 38 3 38 3v-137c-31 -4 -73 -7 -117 -7c-107 0 -184 43 -184 181v234h-71v133h20c66 0 76 13 76 107v42z" />
    <glyph glyph-name="u" unicode="u" horiz-adv-x="653" 
d="M244 541v-308c0 -38 4 -60 15 -77c12 -19 32 -29 61 -29c54 0 83 39 83 116v298h196v-541h-189v85h-2c-30 -53 -79 -94 -168 -94c-144 0 -192 71 -192 198v352h196z" />
    <glyph glyph-name="v" unicode="v" horiz-adv-x="604" 
d="M201 0l-195 541h196l71 -235c20 -67 33 -138 33 -138h2s12 71 32 138l69 235h189l-196 -541h-201z" />
    <glyph glyph-name="w" unicode="w" horiz-adv-x="875" 
d="M164 0l-152 541h185l54 -225c16 -66 23 -137 23 -137h3s11 71 30 137l63 225h149l64 -225c19 -67 30 -137 30 -137h4s12 71 27 137l52 225h167l-151 -541h-185l-48 160c-22 74 -39 190 -39 190h-2s-23 -117 -45 -189l-49 -161h-180z" />
    <glyph glyph-name="x" unicode="x" horiz-adv-x="604" 
d="M5 0l183 283l-169 258h207l80 -139h1l69 139h205l-168 -258l186 -283h-210l-93 160h-1l-84 -160h-206z" />
    <glyph glyph-name="y" unicode="y" horiz-adv-x="599" 
d="M215 -4l-209 545h203l76 -257c18 -61 24 -116 24 -116h2s5 55 22 116l70 257h190l-187 -549c-44 -128 -104 -191 -257 -191c-68 0 -95 8 -92 8v138c4 -1 28 -5 59 -5c55 0 85 13 97 48z" />
    <glyph glyph-name="z" unicode="z" horiz-adv-x="559" 
d="M48 403v138h475v-116l-246 -285h250v-140h-488v117l248 286h-239z" />
    <glyph glyph-name="braceleft" unicode="{" horiz-adv-x="446" 
d="M83 263h-33v128h33c39 0 51 18 51 64v126c0 167 91 211 287 211v-108c-107 0 -136 -29 -136 -112v-109c0 -63 -18 -118 -83 -132v-4c65 -15 83 -69 83 -138v-103c0 -83 29 -112 136 -112v-108c-196 0 -287 44 -287 198v135c0 46 -12 64 -51 64z" />
    <glyph glyph-name="bar" unicode="|" horiz-adv-x="289" 
d="M79 -130v918h127v-918h-127z" />
    <glyph glyph-name="braceright" unicode="}" horiz-adv-x="446" 
d="M396 395v-128h-33c-39 0 -51 -18 -51 -64v-126c0 -167 -91 -211 -287 -211v108c107 0 136 29 136 112v109c0 63 18 118 83 132v4c-65 15 -83 69 -83 138v103c0 83 -29 112 -136 112v108c196 0 287 -44 287 -198v-135c0 -46 12 -64 51 -64h33z" />
    <glyph glyph-name="asciitilde" unicode="~" horiz-adv-x="473" 
d="M15 234c0 100 39 189 129 189c61 0 126 -47 166 -47c20 0 37 12 39 47h109c0 -101 -29 -189 -119 -189c-61 0 -126 47 -165 47c-24 0 -36 -19 -38 -47h-121z" />
    <glyph glyph-name="Adieresis" unicode="&#xc4;" horiz-adv-x="775" 
d="M378 598c-1 -3 -7 -46 -29 -120l-58 -195h174l-57 194c-23 78 -28 121 -28 121h-2zM555 0l-44 138h-266l-45 -138h-191l265 765h224l268 -765h-211zM416 831v157h160v-157h-160zM201 831v157h160v-157h-160z" />
    <glyph glyph-name="Aring" unicode="&#xc5;" horiz-adv-x="775" 
d="M378 598c-1 -3 -7 -46 -29 -120l-58 -195h174l-57 194c-23 78 -28 121 -28 121h-2zM555 0l-44 138h-266l-45 -138h-191l265 765h224l268 -765h-211zM385 790c-89 0 -143 53 -143 131s59 132 144 132c91 0 143 -54 143 -132s-58 -131 -144 -131zM385 981
c-33 0 -53 -24 -53 -61c0 -36 20 -60 54 -60c32 0 52 24 52 60c0 37 -19 61 -53 61z" />
    <glyph glyph-name="Ccedilla" unicode="&#xc7;" horiz-adv-x="765" 
d="M382 -242c-73 0 -116 40 -118 85h88c5 -11 13 -20 32 -20c23 0 32 13 32 29c0 18 -12 29 -32 29c-13 0 -22 -5 -28 -13h-70l52 120c-209 25 -298 170 -298 379c0 254 127 409 361 409c217 0 322 -114 329 -287h-207c-5 96 -53 140 -122 140c-74 0 -142 -75 -142 -252
c0 -163 56 -246 142 -246c72 0 114 40 122 140h206c-7 -176 -128 -287 -323 -287h-13l-17 -39h2c12 8 23 9 42 9c51 0 92 -37 92 -95c0 -52 -40 -101 -130 -101z" />
    <glyph glyph-name="Eacute" unicode="&#xc9;" horiz-adv-x="633" 
d="M62 0v765h512v-148h-309v-165h299v-144h-299v-162h320v-146h-523zM246 827l66 133h187l-108 -133h-145z" />
    <glyph glyph-name="Ntilde" unicode="&#xd1;" horiz-adv-x="785" 
d="M62 0v765h215l197 -331c46 -78 64 -134 64 -134h3v465h182v-765h-202l-207 343c-47 77 -69 139 -69 139h-3v-482h-180zM196 815c4 92 28 166 123 166c61 0 99 -47 141 -47c16 0 36 9 50 47h79c-4 -93 -28 -166 -123 -166c-61 0 -99 46 -141 46c-14 0 -36 -8 -48 -46h-81z
" />
    <glyph glyph-name="Odieresis" unicode="&#xd6;" horiz-adv-x="821" 
d="M40 380c0 240 140 396 372 396c244 0 369 -151 369 -396c0 -241 -134 -396 -369 -396c-251 0 -372 152 -372 396zM411 128c101 0 150 83 150 252s-62 254 -150 254c-101 0 -150 -85 -150 -254c0 -170 44 -252 150 -252zM438 831v157h160v-157h-160zM223 831v157h160v-157
h-160z" />
    <glyph glyph-name="Udieresis" unicode="&#xdc;" horiz-adv-x="759" 
d="M56 274v491h203l-1 -450c0 -46 1 -99 24 -130c24 -30 56 -43 98 -43c46 0 80 13 103 43c22 31 20 84 20 130v450h200v-491c0 -194 -130 -290 -325 -290s-322 96 -322 290zM407 831v157h160v-157h-160zM192 831v157h160v-157h-160z" />
    <glyph glyph-name="aacute" unicode="&#xe1;" horiz-adv-x="601" 
d="M270 110c48 0 82 42 82 109v19c-68 -4 -97 -10 -117 -23c-17 -11 -24 -29 -24 -48c0 -31 22 -57 59 -57zM226 374h-187c7 114 101 179 248 179c196 0 253 -80 253 -224v-170c0 -21 10 -29 40 -29v-130h-75c-73 0 -115 7 -136 64h-3c-37 -43 -82 -69 -158 -69
c-115 0 -189 61 -189 164c0 64 29 107 82 135c58 31 138 33 249 38v32c0 40 -19 68 -61 68c-39 0 -61 -21 -63 -58zM211 608l49 180h189l-88 -180h-150z" />
    <glyph glyph-name="agrave" unicode="&#xe0;" horiz-adv-x="601" 
d="M270 110c48 0 82 42 82 109v19c-68 -4 -97 -10 -117 -23c-17 -11 -24 -29 -24 -48c0 -31 22 -57 59 -57zM226 374h-187c7 114 101 179 248 179c196 0 253 -80 253 -224v-170c0 -21 10 -29 40 -29v-130h-75c-73 0 -115 7 -136 64h-3c-37 -43 -82 -69 -158 -69
c-115 0 -189 61 -189 164c0 64 29 107 82 135c58 31 138 33 249 38v32c0 40 -19 68 -61 68c-39 0 -61 -21 -63 -58zM332 788l49 -180h-150l-88 180h189z" />
    <glyph glyph-name="acircumflex" unicode="&#xe2;" horiz-adv-x="601" 
d="M270 110c48 0 82 42 82 109v19c-68 -4 -97 -10 -117 -23c-17 -11 -24 -29 -24 -48c0 -31 22 -57 59 -57zM226 374h-187c7 114 101 179 248 179c196 0 253 -80 253 -224v-170c0 -21 10 -29 40 -29v-130h-75c-73 0 -115 7 -136 64h-3c-37 -43 -82 -69 -158 -69
c-115 0 -189 61 -189 164c0 64 29 107 82 135c58 31 138 33 249 38v32c0 40 -19 68 -61 68c-39 0 -61 -21 -63 -58zM374 788l112 -180h-125l-63 64h-1l-60 -64h-117l112 180h142z" />
    <glyph glyph-name="adieresis" unicode="&#xe4;" horiz-adv-x="601" 
d="M270 110c48 0 82 42 82 109v19c-68 -4 -97 -10 -117 -23c-17 -11 -24 -29 -24 -48c0 -31 22 -57 59 -57zM226 374h-187c7 114 101 179 248 179c196 0 253 -80 253 -224v-170c0 -21 10 -29 40 -29v-130h-75c-73 0 -115 7 -136 64h-3c-37 -43 -82 -69 -158 -69
c-115 0 -189 61 -189 164c0 64 29 107 82 135c58 31 138 33 249 38v32c0 40 -19 68 -61 68c-39 0 -61 -21 -63 -58zM326 631v157h160v-157h-160zM111 631v157h160v-157h-160z" />
    <glyph glyph-name="atilde" unicode="&#xe3;" horiz-adv-x="601" 
d="M270 110c48 0 82 42 82 109v19c-68 -4 -97 -10 -117 -23c-17 -11 -24 -29 -24 -48c0 -31 22 -57 59 -57zM226 374h-187c7 114 101 179 248 179c196 0 253 -80 253 -224v-170c0 -21 10 -29 40 -29v-130h-75c-73 0 -115 7 -136 64h-3c-37 -43 -82 -69 -158 -69
c-115 0 -189 61 -189 164c0 64 29 107 82 135c58 31 138 33 249 38v32c0 40 -19 68 -61 68c-39 0 -61 -21 -63 -58zM102 608c0 100 30 180 125 180c61 0 95 -45 137 -45c16 0 38 4 52 45h79c0 -101 -30 -180 -125 -180c-61 0 -95 45 -137 45c-14 0 -38 -4 -50 -45h-81z" />
    <glyph glyph-name="aring" unicode="&#xe5;" horiz-adv-x="601" 
d="M270 110c48 0 82 42 82 109v19c-68 -4 -97 -10 -117 -23c-17 -11 -24 -29 -24 -48c0 -31 22 -57 59 -57zM226 374h-187c7 114 101 179 248 179c196 0 253 -80 253 -224v-170c0 -21 10 -29 40 -29v-130h-75c-73 0 -115 7 -136 64h-3c-37 -43 -82 -69 -158 -69
c-115 0 -189 61 -189 164c0 64 29 107 82 135c58 31 138 33 249 38v32c0 40 -19 68 -61 68c-39 0 -61 -21 -63 -58zM298 590c-89 0 -143 53 -143 131s59 132 144 132c91 0 143 -54 143 -132s-58 -131 -144 -131zM298 781c-33 0 -53 -24 -53 -61c0 -36 20 -60 54 -60
c32 0 52 24 52 60c0 37 -19 61 -53 61z" />
    <glyph glyph-name="ccedilla" unicode="&#xe7;" horiz-adv-x="627" 
d="M320 -242c-73 0 -116 40 -118 85h88c5 -11 13 -20 32 -20c23 0 32 13 32 29c0 18 -12 29 -32 29c-13 0 -22 -5 -28 -13h-70l52 120c-155 17 -243 119 -243 284c0 180 112 282 290 282c164 0 267 -82 269 -223h-193c-4 58 -25 97 -77 97c-76 0 -88 -84 -88 -156
c0 -61 7 -156 88 -156c54 0 78 39 80 97h192c0 -147 -111 -224 -262 -227l-18 -41h2c12 8 23 9 42 9c51 0 92 -37 92 -95c0 -52 -40 -101 -130 -101z" />
    <glyph glyph-name="eacute" unicode="&#xe9;" horiz-adv-x="629" 
d="M395 328l-1 7c-6 69 -33 103 -82 103c-51 0 -77 -36 -83 -110h166zM591 166c-15 -117 -110 -180 -279 -180c-179 0 -279 107 -279 287c0 169 105 281 279 281c199 0 282 -118 282 -288v-39h-364c6 -87 37 -114 89 -114c49 0 68 20 78 53h194zM226 608l49 180h189
l-88 -180h-150z" />
    <glyph glyph-name="egrave" unicode="&#xe8;" horiz-adv-x="629" 
d="M395 328l-1 7c-6 69 -33 103 -82 103c-51 0 -77 -36 -83 -110h166zM591 166c-15 -117 -110 -180 -279 -180c-179 0 -279 107 -279 287c0 169 105 281 279 281c199 0 282 -118 282 -288v-39h-364c6 -87 37 -114 89 -114c49 0 68 20 78 53h194zM347 788l49 -180h-150
l-88 180h189z" />
    <glyph glyph-name="ecircumflex" unicode="&#xea;" horiz-adv-x="629" 
d="M395 328l-1 7c-6 69 -33 103 -82 103c-51 0 -77 -36 -83 -110h166zM591 166c-15 -117 -110 -180 -279 -180c-179 0 -279 107 -279 287c0 169 105 281 279 281c199 0 282 -118 282 -288v-39h-364c6 -87 37 -114 89 -114c49 0 68 20 78 53h194zM389 788l112 -180h-125
l-63 64h-1l-60 -64h-117l112 180h142z" />
    <glyph glyph-name="edieresis" unicode="&#xeb;" horiz-adv-x="629" 
d="M395 328l-1 7c-6 69 -33 103 -82 103c-51 0 -77 -36 -83 -110h166zM591 166c-15 -117 -110 -180 -279 -180c-179 0 -279 107 -279 287c0 169 105 281 279 281c199 0 282 -118 282 -288v-39h-364c6 -87 37 -114 89 -114c49 0 68 20 78 53h194zM341 631v157h160v-157h-160z
M126 631v157h160v-157h-160z" />
    <glyph glyph-name="iacute" unicode="&#xed;" horiz-adv-x="304" 
d="M54 0v541h196v-541h-196zM65 608l49 180h189l-88 -180h-150z" />
    <glyph glyph-name="igrave" unicode="&#xec;" horiz-adv-x="304" 
d="M54 0v541h196v-541h-196zM186 788l49 -180h-150l-88 180h189z" />
    <glyph glyph-name="icircumflex" unicode="&#xee;" horiz-adv-x="304" 
d="M54 0v541h196v-541h-196zM217 788l101 -180h-112l-57 64h-1l-54 -64h-105l101 180h127z" />
    <glyph glyph-name="idieresis" unicode="&#xef;" horiz-adv-x="304" 
d="M54 0v541h196v-541h-196zM177 631v157h144v-157h-144zM-17 631v157h144v-157h-144z" />
    <glyph glyph-name="ntilde" unicode="&#xf1;" horiz-adv-x="659" 
d="M415 0v307c0 38 -3 63 -14 80c-13 19 -34 28 -62 28c-56 0 -89 -35 -89 -108v-307h-196v541h189v-88h2c32 54 81 98 177 98c144 0 189 -77 189 -213v-338h-196zM140 608c0 100 30 180 125 180c61 0 95 -45 137 -45c16 0 38 4 52 45h79c0 -101 -30 -180 -125 -180
c-61 0 -95 45 -137 45c-14 0 -38 -4 -50 -45h-81z" />
    <glyph glyph-name="oacute" unicode="&#xf3;" horiz-adv-x="647" 
d="M324 -14c-177 0 -291 103 -291 284c0 183 112 284 291 284c167 0 290 -99 290 -284c0 -180 -122 -284 -290 -284zM324 427c-70 0 -88 -74 -88 -157c0 -90 22 -157 88 -157c70 0 87 74 87 157c0 89 -21 157 -87 157zM236 608l49 180h189l-88 -180h-150z" />
    <glyph glyph-name="ograve" unicode="&#xf2;" horiz-adv-x="647" 
d="M324 -14c-177 0 -291 103 -291 284c0 183 112 284 291 284c167 0 290 -99 290 -284c0 -180 -122 -284 -290 -284zM324 427c-70 0 -88 -74 -88 -157c0 -90 22 -157 88 -157c70 0 87 74 87 157c0 89 -21 157 -87 157zM357 788l49 -180h-150l-88 180h189z" />
    <glyph glyph-name="ocircumflex" unicode="&#xf4;" horiz-adv-x="647" 
d="M324 -14c-177 0 -291 103 -291 284c0 183 112 284 291 284c167 0 290 -99 290 -284c0 -180 -122 -284 -290 -284zM324 427c-70 0 -88 -74 -88 -157c0 -90 22 -157 88 -157c70 0 87 74 87 157c0 89 -21 157 -87 157zM399 788l112 -180h-125l-63 64h-1l-60 -64h-117
l112 180h142z" />
    <glyph glyph-name="odieresis" unicode="&#xf6;" horiz-adv-x="647" 
d="M324 -14c-177 0 -291 103 -291 284c0 183 112 284 291 284c167 0 290 -99 290 -284c0 -180 -122 -284 -290 -284zM324 427c-70 0 -88 -74 -88 -157c0 -90 22 -157 88 -157c70 0 87 74 87 157c0 89 -21 157 -87 157zM351 631v157h160v-157h-160zM136 631v157h160v-157
h-160z" />
    <glyph glyph-name="otilde" unicode="&#xf5;" horiz-adv-x="647" 
d="M324 -14c-177 0 -291 103 -291 284c0 183 112 284 291 284c167 0 290 -99 290 -284c0 -180 -122 -284 -290 -284zM324 427c-70 0 -88 -74 -88 -157c0 -90 22 -157 88 -157c70 0 87 74 87 157c0 89 -21 157 -87 157zM127 608c0 100 30 180 125 180c61 0 95 -45 137 -45
c16 0 38 4 52 45h79c0 -101 -30 -180 -125 -180c-61 0 -95 45 -137 45c-14 0 -38 -4 -50 -45h-81z" />
    <glyph glyph-name="uacute" unicode="&#xfa;" horiz-adv-x="653" 
d="M244 541v-308c0 -38 4 -60 15 -77c12 -19 32 -29 61 -29c54 0 83 39 83 116v298h196v-541h-189v85h-2c-30 -53 -79 -94 -168 -94c-144 0 -192 71 -192 198v352h196zM236 608l49 180h189l-88 -180h-150z" />
    <glyph glyph-name="ugrave" unicode="&#xf9;" horiz-adv-x="653" 
d="M244 541v-308c0 -38 4 -60 15 -77c12 -19 32 -29 61 -29c54 0 83 39 83 116v298h196v-541h-189v85h-2c-30 -53 -79 -94 -168 -94c-144 0 -192 71 -192 198v352h196zM357 788l49 -180h-150l-88 180h189z" />
    <glyph glyph-name="ucircumflex" unicode="&#xfb;" horiz-adv-x="653" 
d="M244 541v-308c0 -38 4 -60 15 -77c12 -19 32 -29 61 -29c54 0 83 39 83 116v298h196v-541h-189v85h-2c-30 -53 -79 -94 -168 -94c-144 0 -192 71 -192 198v352h196zM399 788l112 -180h-125l-63 64h-1l-60 -64h-117l112 180h142z" />
    <glyph glyph-name="udieresis" unicode="&#xfc;" horiz-adv-x="653" 
d="M244 541v-308c0 -38 4 -60 15 -77c12 -19 32 -29 61 -29c54 0 83 39 83 116v298h196v-541h-189v85h-2c-30 -53 -79 -94 -168 -94c-144 0 -192 71 -192 198v352h196zM354 631v157h160v-157h-160zM139 631v157h160v-157h-160z" />
    <glyph glyph-name="dagger" unicode="&#x2020;" horiz-adv-x="339" 
d="M235 537v-247h-131v247h-84v126h84v102h131v-102h84v-126h-84z" />
    <glyph glyph-name="degree" unicode="&#xb0;" horiz-adv-x="445" 
d="M51 594c0 98 72 172 171 172c100 0 172 -74 172 -172s-72 -171 -172 -171c-99 0 -171 73 -171 171zM222 513c47 0 77 34 77 81c0 48 -30 82 -77 82c-46 0 -76 -34 -76 -82c0 -47 30 -81 76 -81z" />
    <glyph glyph-name="cent" unicode="&#xa2;" horiz-adv-x="639" 
d="M299 116v312c-56 -21 -66 -93 -66 -156c0 -54 6 -134 66 -156zM427 213h179c0 -138 -98 -214 -235 -225v-104h-72v103c-162 13 -254 117 -254 285s97 268 254 281v82h72v-82c143 -12 231 -92 233 -222h-180c-4 46 -19 82 -53 96v-311c37 13 54 49 56 97z" />
    <glyph glyph-name="sterling" unicode="&#xa3;" horiz-adv-x="661" 
d="M600 151v-151h-553v105l25 16c63 41 103 85 82 174h-134v110h97l-14 42c-59 172 42 305 248 305c188 0 265 -86 262 -223h-197c0 55 -16 97 -68 97c-51 0 -93 -39 -57 -160l18 -61h162v-110h-135c4 -53 -17 -97 -73 -139l-4 -3v-2h341z" />
    <glyph glyph-name="section" unicode="&#xa7;" horiz-adv-x="641" 
d="M203 364c0 -34 34 -49 77 -67l79 -33l35 -15c31 5 44 27 44 48c0 27 -16 43 -76 68l-86 36c-16 7 -29 12 -29 12c-31 -4 -44 -29 -44 -49zM36 333c0 62 30 112 100 138v1c-36 27 -56 65 -56 124c0 112 98 180 236 180c174 0 233 -75 240 -175h-173c-2 35 -22 56 -64 56
s-64 -16 -64 -41c0 -36 22 -43 77 -66l134 -55c104 -43 139 -86 139 -170c0 -60 -29 -108 -99 -133v-2c33 -24 55 -58 55 -110c0 -133 -104 -194 -242 -194c-166 0 -238 66 -246 175h169c2 -35 32 -56 77 -56c39 0 68 15 68 45c0 24 -17 39 -55 54l-156 63
c-83 33 -140 66 -140 166z" />
    <glyph glyph-name="bullet" unicode="&#x2022;" horiz-adv-x="346" 
d="M172 178c-74 0 -127 51 -127 130c0 76 58 130 128 130c76 0 128 -54 128 -130c0 -79 -58 -130 -129 -130z" />
    <glyph glyph-name="paragraph" unicode="&#xb6;" horiz-adv-x="617" 
d="M446 765h109v-765h-109v765zM256 360c-129 3 -221 69 -221 204c0 141 99 201 233 201h97v-765h-109v360z" />
    <glyph glyph-name="germandbls" unicode="&#xdf;" horiz-adv-x="671" 
d="M54 0v550c0 142 78 245 289 245c165 0 249 -92 249 -205c0 -106 -65 -153 -118 -168v-4c95 -19 166 -85 166 -195c0 -142 -105 -223 -291 -223h-41v136h28c59 0 100 31 100 101c0 71 -48 112 -104 112h-13v135h13c46 0 82 26 82 99c0 70 -39 90 -82 90s-82 -28 -82 -98
v-575h-196z" />
    <glyph glyph-name="registered" unicode="&#xae;" horiz-adv-x="513" 
d="M40 557c0 123 92 219 216 219c125 0 217 -96 217 -219s-92 -218 -217 -218c-124 0 -216 95 -216 218zM256 377c99 0 173 77 173 180s-74 181 -173 181s-172 -78 -172 -181s73 -180 172 -180zM228 578h23c22 0 39 10 39 32c0 19 -16 29 -38 29h-24v-61zM228 536v-84h-62
v225h107c38 0 79 -19 79 -69c0 -33 -23 -54 -45 -62l48 -94h-66l-39 84h-22z" />
    <glyph glyph-name="copyright" unicode="&#xa9;" horiz-adv-x="899" 
d="M55 380c0 224 168 397 394 397s395 -173 395 -397s-169 -396 -395 -396s-394 172 -394 396zM449 41c189 0 330 147 330 339s-141 340 -330 340s-329 -148 -329 -340s140 -339 329 -339zM654 341c0 -116 -87 -174 -202 -174c-137 0 -215 80 -215 219c0 137 84 215 216 215
c121 0 197 -62 199 -171h-143c-3 45 -19 75 -57 75c-57 0 -66 -64 -66 -119c0 -47 6 -120 66 -120c40 0 58 30 59 75h143z" />
    <glyph glyph-name="trademark" unicode="&#x2122;" horiz-adv-x="721" 
d="M275 765v-75h-90v-231h-85v231h-90v75h265zM301 459v306h140l44 -145c8 -27 11 -49 11 -49h3s4 22 12 49l43 145h139v-306h-84v217h-3s-7 -27 -19 -62l-52 -155h-78l-53 154c-12 35 -18 63 -18 63h-3v-217h-82z" />
    <glyph glyph-name="acute" unicode="&#xb4;" horiz-adv-x="369" 
d="M82 608l49 180h189l-88 -180h-150z" />
    <glyph glyph-name="dieresis" unicode="&#xa8;" horiz-adv-x="369" 
d="M212 631v157h160v-157h-160zM-3 631v157h160v-157h-160z" />
    <glyph glyph-name="notequal" unicode="&#x2260;" horiz-adv-x="633" 
d="M292 177l-43 -98h-101l43 98h-120v136h180l37 82h-217v136h277l46 105h101l-46 -105h112v-136h-172l-37 -82h209v-136h-269z" />
    <glyph glyph-name="AE" unicode="&#xc6;" horiz-adv-x="1100" 
d="M529 303v314h-29l-147 -314h176zM285 158l-74 -158h-210l383 765h657v-148h-309v-165h299v-144h-299v-162h320v-146h-523v158h-244z" />
    <glyph glyph-name="Oslash" unicode="&#xd8;" horiz-adv-x="821" 
d="M411 638c-105 0 -156 -86 -156 -258c0 -36 1 -72 6 -105l256 313c-30 38 -69 50 -106 50zM411 124c105 0 156 84 156 256c0 44 -4 81 -10 112l-259 -318c23 -31 59 -50 113 -50zM781 380c0 -241 -134 -396 -369 -396c-91 0 -165 20 -223 57l-54 -66h-119l105 128
c-54 68 -81 162 -81 277c0 240 140 396 372 396c86 0 158 -19 214 -54l58 71h119l-108 -132c57 -68 86 -164 86 -281z" />
    <glyph glyph-name="plusminus" unicode="&#xb1;" horiz-adv-x="633" 
d="M390 380v-158h-149v158h-190v136h190v156h149v-156h191v-136h-191zM51 0v136h530v-136h-530z" />
    <glyph glyph-name="lessequal" unicode="&#x2264;" horiz-adv-x="633" 
d="M567 186l-512 237v90l512 238v-147l-297 -131l297 -134v-153zM567 0h-512v136h512v-136z" />
    <glyph glyph-name="greaterequal" unicode="&#x2265;" horiz-adv-x="633" 
d="M66 751l512 -237v-90l-512 -238v147l297 131l-297 134v153zM578 0h-512v136h512v-136z" />
    <glyph glyph-name="yen" unicode="&#xa5;" horiz-adv-x="683" 
d="M246 0v130h-197v80h197v75h-199v80h197l-224 376h215l115 -214h2l112 214h199l-223 -376h197v-80h-198v-75h200v-80h-200v-130h-193z" />
    <glyph glyph-name="ordfeminine" unicode="&#xaa;" horiz-adv-x="530" 
d="M247 422c41 0 58 31 58 68v13c-37 -1 -58 -1 -77 -13c-12 -8 -17 -19 -17 -32c0 -23 15 -36 36 -36zM223 609h-170c4 92 93 143 205 143c164 0 209 -68 209 -179v-117c0 -23 10 -28 28 -28v-108h-66c-55 0 -95 1 -117 49h-3c-24 -32 -66 -54 -123 -54
c-85 0 -146 52 -146 129c0 49 23 85 64 107c45 24 100 27 200 31v22c0 27 -18 40 -39 40c-20 0 -39 -10 -42 -35z" />
    <glyph glyph-name="ordmasculine" unicode="&#xba;" horiz-adv-x="559" 
d="M280 309c-138 0 -235 76 -235 221c0 147 91 221 235 221c127 0 234 -71 234 -221c0 -143 -102 -221 -234 -221zM280 633c-55 0 -60 -54 -60 -103c0 -55 13 -103 59 -103c56 0 60 55 60 103c0 54 -10 103 -59 103z" />
    <glyph glyph-name="ae" unicode="&#xe6;" horiz-adv-x="936" 
d="M702 328l-1 7c-6 69 -33 103 -82 103c-51 0 -77 -36 -83 -110h166zM270 110c48 0 82 42 82 109v16c-67 0 -97 -7 -117 -20c-17 -11 -24 -29 -24 -48c0 -33 24 -57 59 -57zM898 166c-15 -117 -110 -180 -272 -180c-123 0 -183 40 -217 92h-2c-42 -52 -104 -83 -199 -83
c-115 0 -189 61 -189 164c0 64 29 107 82 135c58 31 138 34 249 36v34c0 39 -18 68 -61 68c-40 0 -61 -22 -63 -58h-187c7 114 100 179 248 179c87 0 136 -24 165 -57h2c36 37 95 58 165 58c199 0 282 -118 282 -288v-39h-364c6 -87 37 -114 89 -114c49 0 68 20 78 53h194z
" />
    <glyph glyph-name="oslash" unicode="&#xf8;" horiz-adv-x="647" 
d="M324 431c-77 0 -97 -76 -97 -161c0 -18 1 -34 3 -50l154 187c-14 15 -34 24 -60 24zM324 109c77 0 96 76 96 161c0 18 -1 34 -3 50l-154 -186c15 -16 35 -25 61 -25zM614 270c0 -180 -122 -284 -290 -284c-59 0 -112 12 -155 34l-53 -64h-105l93 112
c-46 48 -71 116 -71 202c0 183 112 284 291 284c57 0 110 -12 153 -35l54 65h105l-94 -113c45 -48 72 -115 72 -201z" />
    <glyph glyph-name="questiondown" unicode="&#xbf;" horiz-adv-x="621" 
d="M312 476c-65 0 -116 47 -116 105c0 59 51 106 116 106c63 0 114 -47 114 -106c0 -58 -51 -105 -114 -105zM223 102c0 -45 27 -72 83 -72c45 0 97 20 98 123h189c1 -157 -95 -272 -292 -272c-193 0 -271 89 -271 214c0 85 31 135 101 192l84 69c10 8 14 19 14 36v39h167
v-64c0 -59 -3 -77 -54 -119l-61 -49c-34 -30 -58 -50 -58 -97z" />
    <glyph glyph-name="exclamdown" unicode="&#xa1;" horiz-adv-x="357" 
d="M247 431l43 -542h-227l44 542h140zM178 693c63 0 114 -47 114 -105c0 -59 -51 -106 -114 -106s-115 47 -115 106c0 58 52 105 115 105z" />
    <glyph glyph-name="logicalnot" unicode="&#xac;" horiz-adv-x="633" 
d="M581 92h-149v198h-381v136h530v-334z" />
    <glyph glyph-name="florin" unicode="&#x192;" horiz-adv-x="508" 
d="M326 338l-69 -527h-187l65 527h-100v133h117l9 76c24 202 119 248 237 248c47 0 85 -6 85 -6v-138s-13 3 -38 3c-44 0 -80 -13 -92 -107l-10 -76h112v-133h-129z" />
    <glyph glyph-name="approxequal" unicode="&#x2248;" horiz-adv-x="633" 
d="M65 382c0 100 49 184 147 184c63 0 157 -39 203 -39c20 0 41 9 43 44h109c0 -101 -39 -184 -137 -184c-63 0 -157 39 -202 39c-24 0 -40 -16 -42 -44h-121zM65 164c0 100 49 184 147 184c63 0 157 -39 203 -39c20 0 41 9 43 44h109c0 -101 -39 -184 -137 -184
c-63 0 -157 39 -202 39c-24 0 -40 -16 -42 -44h-121z" />
    <glyph glyph-name="guillemotleft" unicode="&#xab;" horiz-adv-x="524" 
d="M355 464h134l-94 -206l95 -201h-134l-104 204zM129 464h134l-94 -206l96 -201h-135l-104 204z" />
    <glyph glyph-name="guillemotright" unicode="&#xbb;" horiz-adv-x="534" 
d="M170 57h-135l95 206l-96 201h135l103 -203zM405 57h-134l94 206l-95 201h134l104 -203z" />
    <glyph glyph-name="ellipsis" unicode="&#x2026;" horiz-adv-x="957" 
d="M796 -16c-63 0 -110 47 -110 108c0 59 47 107 110 107c64 0 112 -48 112 -107c0 -61 -48 -108 -112 -108zM477 -16c-63 0 -110 47 -110 108c0 59 47 107 110 107c64 0 112 -48 112 -107c0 -61 -48 -108 -112 -108zM158 -16c-63 0 -110 47 -110 108c0 59 47 107 110 107
c64 0 112 -48 112 -107c0 -61 -48 -108 -112 -108z" />
    <glyph glyph-name="Agrave" unicode="&#xc0;" horiz-adv-x="775" 
d="M378 598c-1 -3 -7 -46 -29 -120l-58 -195h174l-57 194c-23 78 -28 121 -28 121h-2zM555 0l-44 138h-266l-45 -138h-191l265 765h224l268 -765h-211zM390 960l66 -133h-145l-108 133h187z" />
    <glyph glyph-name="Atilde" unicode="&#xc3;" horiz-adv-x="775" 
d="M378 598c-1 -3 -7 -46 -29 -120l-58 -195h174l-57 194c-23 78 -28 121 -28 121h-2zM555 0l-44 138h-266l-45 -138h-191l265 765h224l268 -765h-211zM189 815c4 92 28 166 123 166c61 0 99 -47 141 -47c16 0 36 9 50 47h79c-4 -93 -28 -166 -123 -166
c-61 0 -99 46 -141 46c-14 0 -36 -8 -48 -46h-81z" />
    <glyph glyph-name="Otilde" unicode="&#xd5;" horiz-adv-x="821" 
d="M40 380c0 240 140 396 372 396c244 0 369 -151 369 -396c0 -241 -134 -396 -369 -396c-251 0 -372 152 -372 396zM411 128c101 0 150 83 150 252s-62 254 -150 254c-101 0 -150 -85 -150 -254c0 -170 44 -252 150 -252zM214 815c4 92 28 166 123 166c61 0 99 -47 141 -47
c16 0 36 9 50 47h79c-4 -93 -28 -166 -123 -166c-61 0 -99 46 -141 46c-14 0 -36 -8 -48 -46h-81z" />
    <glyph glyph-name="OE" unicode="&#x152;" horiz-adv-x="1128" 
d="M557 317v110c0 138 -52 207 -143 207c-85 0 -153 -69 -153 -254c0 -168 51 -252 150 -252c98 0 146 79 146 189zM555 65c-29 -39 -87 -79 -189 -79c-202 0 -327 138 -327 394c0 260 146 396 340 396c70 0 138 -26 176 -86h2v75h512v-148h-309v-165h299v-144h-299v-162
h320v-146h-523v65h-2z" />
    <glyph glyph-name="oe" unicode="&#x153;" horiz-adv-x="995" 
d="M761 328l-1 7c-6 69 -33 103 -82 103c-51 0 -77 -36 -83 -110h166zM324 427c-70 0 -88 -74 -88 -157c0 -90 22 -157 88 -157c70 0 87 74 87 157c0 89 -21 157 -87 157zM957 166c-15 -117 -110 -180 -279 -180c-80 0 -137 21 -177 61c-42 -40 -101 -61 -177 -61
c-177 0 -291 103 -291 284c0 183 112 284 291 284c77 0 137 -21 179 -62c40 40 98 62 175 62c199 0 282 -118 282 -288v-39h-364c6 -87 37 -114 89 -114c49 0 68 20 78 53h194z" />
    <glyph glyph-name="endash" unicode="&#x2013;" horiz-adv-x="510" 
d="M55 237v135h400v-135h-400z" />
    <glyph glyph-name="emdash" unicode="&#x2014;" horiz-adv-x="890" 
d="M55 240v129h780v-129h-780z" />
    <glyph glyph-name="quotedblleft" unicode="&#x201c;" horiz-adv-x="550" 
d="M514 765l-68 -283h-184l131 283h121zM284 765l-68 -283h-184l131 283h121z" />
    <glyph glyph-name="quotedblright" unicode="&#x201d;" horiz-adv-x="550" 
d="M270 482l68 283h184l-131 -283h-121zM40 482l68 283h184l-131 -283h-121z" />
    <glyph glyph-name="quoteleft" unicode="&#x2018;" horiz-adv-x="322" 
d="M287 765l-68 -283h-189l136 283h121z" />
    <glyph glyph-name="quoteright" unicode="&#x2019;" horiz-adv-x="322" 
d="M35 482l68 283h189l-136 -283h-121z" />
    <glyph glyph-name="divide" unicode="&#xf7;" horiz-adv-x="633" 
d="M224 488v169h184v-169h-184zM71 290v136h490v-136h-490zM408 56h-184v169h184v-169z" />
    <glyph glyph-name="ydieresis" unicode="&#xff;" horiz-adv-x="599" 
d="M215 -4l-209 545h203l76 -257c18 -61 24 -116 24 -116h2s5 55 22 116l70 257h190l-187 -549c-44 -128 -104 -191 -257 -191c-68 0 -95 8 -92 8v138c4 -1 28 -5 59 -5c55 0 85 13 97 48zM339 631v157h160v-157h-160zM124 631v157h160v-157h-160z" />
    <glyph glyph-name="Ydieresis" unicode="&#x178;" horiz-adv-x="720" 
d="M259 0v319l-248 446h220l137 -273h2l134 273h205l-247 -444v-321h-203zM398 831v157h160v-157h-160zM183 831v157h160v-157h-160z" />
    <glyph glyph-name="fraction" unicode="&#x2044;" horiz-adv-x="235" 
d="M-220 -40l547 821h128l-547 -821h-128z" />
    <glyph glyph-name="currency" unicode="&#xa4;" horiz-adv-x="631" 
d="M126 348c0 27 5 53 14 76l-107 105l102 102l105 -108c22 9 47 14 74 14s53 -6 76 -15l106 109l102 -102l-109 -107c9 -22 14 -47 14 -74s-5 -52 -14 -74l110 -107l-102 -102l-107 109c-23 -9 -49 -14 -76 -14s-52 5 -74 13l-105 -108l-102 102l107 104
c-9 23 -14 49 -14 77zM314 267c47 0 77 34 77 81c0 48 -30 82 -77 82c-46 0 -76 -34 -76 -82c0 -47 30 -81 76 -81z" />
    <glyph glyph-name="guilsinglleft" unicode="&#x2039;" horiz-adv-x="299" 
d="M129 464h134l-94 -206l96 -201h-135l-104 204z" />
    <glyph glyph-name="guilsinglright" unicode="&#x203a;" horiz-adv-x="298" 
d="M169 57h-134l94 206l-95 201h134l104 -203z" />
    <glyph glyph-name="fi" unicode="&#xfb01;" horiz-adv-x="682" 
d="M432 619v169h196v-169h-196zM432 0v541h196v-541h-196zM276 408v-408h-191v408h-66v133h66v47c0 161 86 207 205 207c55 0 85 -6 85 -6v-131s-16 3 -36 3c-39 0 -63 -20 -63 -79v-41h93v-133h-93z" />
    <glyph glyph-name="fl" unicode="&#xfb02;" horiz-adv-x="682" 
d="M432 0v788h196v-788h-196zM276 408v-408h-191v408h-66v133h66v47c0 161 86 207 205 207c55 0 85 -6 85 -6v-131s-16 3 -36 3c-39 0 -63 -20 -63 -79v-41h93v-133h-93z" />
    <glyph glyph-name="daggerdbl" unicode="&#x2021;" horiz-adv-x="339" 
d="M235 392v-102h-131v102h-84v108h84v55h-84v108h84v102h131v-102h84v-108h-84v-55h84v-108h-84z" />
    <glyph glyph-name="periodcentered" unicode="&#xb7;" horiz-adv-x="319" 
d="M62 275v179h195v-179h-195z" />
    <glyph glyph-name="quotesinglbase" unicode="&#x201a;" horiz-adv-x="322" 
d="M35 -113l68 283h189l-136 -283h-121z" />
    <glyph glyph-name="quotedblbase" unicode="&#x201e;" horiz-adv-x="547" 
d="M265 -113l68 283h184l-131 -283h-121zM35 -113l68 283h184l-131 -283h-121z" />
    <glyph glyph-name="perthousand" unicode="&#x2030;" horiz-adv-x="1336" 
d="M135 -40l527 821h130l-527 -821h-130zM228 381c-98 0 -178 61 -178 181c0 121 84 180 178 180c96 0 180 -59 180 -180c0 -120 -84 -181 -180 -181zM227 478c36 0 58 28 58 84s-22 85 -58 85c-35 0 -56 -27 -56 -85c0 -56 21 -84 56 -84zM1105 -7c-98 0 -178 61 -178 181
c0 121 83 180 178 180c96 0 179 -59 179 -180c0 -120 -83 -181 -179 -181zM691 -7c-98 0 -178 61 -178 181c0 121 83 180 178 180c96 0 179 -59 179 -180c0 -120 -83 -181 -179 -181zM1104 90c35 0 58 28 58 84s-23 85 -58 85c-36 0 -57 -27 -57 -85c0 -56 21 -84 57 -84z
M690 90c35 0 58 28 58 84s-23 85 -58 85c-36 0 -57 -27 -57 -85c0 -56 21 -84 57 -84z" />
    <glyph glyph-name="Acircumflex" unicode="&#xc2;" horiz-adv-x="775" 
d="M378 598c-1 -3 -7 -46 -29 -120l-58 -195h174l-57 194c-23 78 -28 121 -28 121h-2zM555 0l-44 138h-266l-45 -138h-191l265 765h224l268 -765h-211zM468 960l109 -133h-132l-61 45h-1l-58 -45h-124l109 133h158z" />
    <glyph glyph-name="Ecircumflex" unicode="&#xca;" horiz-adv-x="633" 
d="M62 0v765h512v-148h-309v-165h299v-144h-299v-162h320v-146h-523zM406 960l109 -133h-132l-61 45h-1l-58 -45h-124l109 133h158z" />
    <glyph glyph-name="Aacute" unicode="&#xc1;" horiz-adv-x="775" 
d="M378 598c-1 -3 -7 -46 -29 -120l-58 -195h174l-57 194c-23 78 -28 121 -28 121h-2zM555 0l-44 138h-266l-45 -138h-191l265 765h224l268 -765h-211zM308 827l66 133h187l-108 -133h-145z" />
    <glyph glyph-name="Edieresis" unicode="&#xcb;" horiz-adv-x="633" 
d="M62 0v765h512v-148h-309v-165h299v-144h-299v-162h320v-146h-523zM351 831v157h160v-157h-160zM136 831v157h160v-157h-160z" />
    <glyph glyph-name="Egrave" unicode="&#xc8;" horiz-adv-x="633" 
d="M62 0v765h512v-148h-309v-165h299v-144h-299v-162h320v-146h-523zM328 960l66 -133h-145l-108 133h187z" />
    <glyph glyph-name="Iacute" unicode="&#xcd;" horiz-adv-x="327" 
d="M62 0v765h203v-765h-203zM86 827l66 133h187l-108 -133h-145z" />
    <glyph glyph-name="Icircumflex" unicode="&#xce;" horiz-adv-x="327" 
d="M62 0v765h203v-765h-203zM246 960l109 -133h-132l-61 45h-1l-58 -45h-124l109 133h158z" />
    <glyph glyph-name="Idieresis" unicode="&#xcf;" horiz-adv-x="327" 
d="M62 0v765h203v-765h-203zM191 831v157h160v-157h-160zM-24 831v157h160v-157h-160z" />
    <glyph glyph-name="Igrave" unicode="&#xcc;" horiz-adv-x="327" 
d="M62 0v765h203v-765h-203zM168 960l66 -133h-145l-108 133h187z" />
    <glyph glyph-name="Oacute" unicode="&#xd3;" horiz-adv-x="821" 
d="M40 380c0 240 140 396 372 396c244 0 369 -151 369 -396c0 -241 -134 -396 -369 -396c-251 0 -372 152 -372 396zM411 128c101 0 150 83 150 252s-62 254 -150 254c-101 0 -150 -85 -150 -254c0 -170 44 -252 150 -252zM333 827l66 133h187l-108 -133h-145z" />
    <glyph glyph-name="Ocircumflex" unicode="&#xd4;" horiz-adv-x="821" 
d="M40 380c0 240 140 396 372 396c244 0 369 -151 369 -396c0 -241 -134 -396 -369 -396c-251 0 -372 152 -372 396zM411 128c101 0 150 83 150 252s-62 254 -150 254c-101 0 -150 -85 -150 -254c0 -170 44 -252 150 -252zM493 960l109 -133h-132l-61 45h-1l-58 -45h-124
l109 133h158z" />
    <glyph glyph-name="Ograve" unicode="&#xd2;" horiz-adv-x="821" 
d="M40 380c0 240 140 396 372 396c244 0 369 -151 369 -396c0 -241 -134 -396 -369 -396c-251 0 -372 152 -372 396zM411 128c101 0 150 83 150 252s-62 254 -150 254c-101 0 -150 -85 -150 -254c0 -170 44 -252 150 -252zM415 960l66 -133h-145l-108 133h187z" />
    <glyph glyph-name="Uacute" unicode="&#xda;" horiz-adv-x="759" 
d="M56 274v491h203l-1 -450c0 -46 1 -99 24 -130c24 -30 56 -43 98 -43c46 0 80 13 103 43c22 31 20 84 20 130v450h200v-491c0 -194 -130 -290 -325 -290s-322 96 -322 290zM302 827l66 133h187l-108 -133h-145z" />
    <glyph glyph-name="Ucircumflex" unicode="&#xdb;" horiz-adv-x="759" 
d="M56 274v491h203l-1 -450c0 -46 1 -99 24 -130c24 -30 56 -43 98 -43c46 0 80 13 103 43c22 31 20 84 20 130v450h200v-491c0 -194 -130 -290 -325 -290s-322 96 -322 290zM462 960l109 -133h-132l-61 45h-1l-58 -45h-124l109 133h158z" />
    <glyph glyph-name="Ugrave" unicode="&#xd9;" horiz-adv-x="759" 
d="M56 274v491h203l-1 -450c0 -46 1 -99 24 -130c24 -30 56 -43 98 -43c46 0 80 13 103 43c22 31 20 84 20 130v450h200v-491c0 -194 -130 -290 -325 -290s-322 96 -322 290zM384 960l66 -133h-145l-108 133h187z" />
    <glyph glyph-name="dotlessi" unicode="&#x131;" horiz-adv-x="304" 
d="M54 0v541h196v-541h-196z" />
    <glyph glyph-name="circumflex" unicode="&#x2c6;" horiz-adv-x="369" 
d="M256 788l112 -180h-125l-63 64h-1l-60 -64h-117l112 180h142z" />
    <glyph glyph-name="tilde" unicode="&#x2dc;" horiz-adv-x="369" 
d="M-12 608c0 100 30 180 125 180c61 0 95 -45 137 -45c16 0 38 4 52 45h79c0 -101 -30 -180 -125 -180c-61 0 -95 45 -137 45c-14 0 -38 -4 -50 -45h-81z" />
    <glyph glyph-name="macron" unicode="&#xaf;" horiz-adv-x="369" 
d="M0 631v120h369v-120h-369z" />
    <glyph glyph-name="breve" unicode="&#x2d8;" horiz-adv-x="369" 
d="M184 603c-97 0 -175 55 -175 185h124c0 -41 22 -62 54 -62s54 21 54 62h119c0 -130 -78 -185 -176 -185z" />
    <glyph glyph-name="dotaccent" unicode="&#x2d9;" horiz-adv-x="369" 
d="M105 631v157h160v-157h-160z" />
    <glyph glyph-name="ring" unicode="&#x2da;" horiz-adv-x="369" 
d="M188 590c-89 0 -143 53 -143 131s59 132 144 132c91 0 143 -54 143 -132s-58 -131 -144 -131zM188 781c-33 0 -53 -24 -53 -61c0 -36 20 -60 54 -60c32 0 52 24 52 60c0 37 -19 61 -53 61z" />
    <glyph glyph-name="cedilla" unicode="&#xb8;" horiz-adv-x="536" 
d="M242 35h57l-31 -70h2c12 8 23 9 42 9c51 0 92 -37 92 -95c0 -52 -40 -101 -130 -101c-73 0 -116 40 -118 85h88c5 -11 13 -20 32 -20c23 0 32 13 32 29c0 18 -12 29 -32 29c-13 0 -22 -5 -28 -13h-70z" />
    <glyph glyph-name="hungarumlaut" unicode="&#x2dd;" horiz-adv-x="437" 
d="M219 608l51 180h147l-85 -180h-113zM43 608l31 180h147l-65 -180h-113z" />
    <glyph glyph-name="ogonek" unicode="&#x2db;" horiz-adv-x="369" 
d="M202 14c6 -1 59 -14 59 -14c-36 -24 -44 -40 -44 -55c0 -18 13 -29 44 -29v-104h-35c-121 0 -150 40 -150 89c0 41 28 89 126 113z" />
    <glyph glyph-name="caron" unicode="&#x2c7;" horiz-adv-x="369" 
d="M114 608l-112 180h125l63 -64h1l60 64h117l-112 -180h-142z" />
    <glyph glyph-name="uni00A0" unicode="&#xa0;" horiz-adv-x="205" 
 />
    <glyph glyph-name="Amacron" unicode="&#x100;" horiz-adv-x="775" 
d="M378 598c-1 -3 -7 -46 -29 -120l-58 -195h174l-57 194c-23 78 -28 121 -28 121h-2zM555 0l-44 138h-266l-45 -138h-191l265 765h224l268 -765h-211zM201 831v120h369v-120h-369z" />
    <glyph glyph-name="amacron" unicode="&#x101;" horiz-adv-x="601" 
d="M270 110c48 0 82 42 82 109v19c-68 -4 -97 -10 -117 -23c-17 -11 -24 -29 -24 -48c0 -31 22 -57 59 -57zM226 374h-187c7 114 101 179 248 179c196 0 253 -80 253 -224v-170c0 -21 10 -29 40 -29v-130h-75c-73 0 -115 7 -136 64h-3c-37 -43 -82 -69 -158 -69
c-115 0 -189 61 -189 164c0 64 29 107 82 135c58 31 138 33 249 38v32c0 40 -19 68 -61 68c-39 0 -61 -21 -63 -58zM114 631v120h369v-120h-369z" />
    <glyph glyph-name="Abreve" unicode="&#x102;" horiz-adv-x="775" 
d="M378 598c-1 -3 -7 -46 -29 -120l-58 -195h174l-57 194c-23 78 -28 121 -28 121h-2zM555 0l-44 138h-266l-45 -138h-191l265 765h224l268 -765h-211zM385 807c-97 0 -175 47 -175 166h121c2 -34 25 -55 57 -55s56 21 58 55h115c0 -119 -78 -166 -176 -166z" />
    <glyph glyph-name="abreve" unicode="&#x103;" horiz-adv-x="601" 
d="M270 110c48 0 82 42 82 109v19c-68 -4 -97 -10 -117 -23c-17 -11 -24 -29 -24 -48c0 -31 22 -57 59 -57zM226 374h-187c7 114 101 179 248 179c196 0 253 -80 253 -224v-170c0 -21 10 -29 40 -29v-130h-75c-73 0 -115 7 -136 64h-3c-37 -43 -82 -69 -158 -69
c-115 0 -189 61 -189 164c0 64 29 107 82 135c58 31 138 33 249 38v32c0 40 -19 68 -61 68c-39 0 -61 -21 -63 -58zM298 603c-97 0 -175 55 -175 185h124c0 -41 22 -62 54 -62s54 21 54 62h119c0 -130 -78 -185 -176 -185z" />
    <glyph glyph-name="Aogonek" unicode="&#x104;" horiz-adv-x="775" 
d="M9 0l265 765h224l265 -757c-47 -24 -60 -45 -60 -63s13 -29 44 -29v-104h-35c-121 0 -150 40 -150 89c0 34 19 73 82 99h-89l-44 138h-267l-44 -138h-191zM291 283h174l-57 194c-23 78 -28 121 -28 121h-2s-6 -43 -29 -120z" />
    <glyph glyph-name="aogonek" unicode="&#x105;" horiz-adv-x="601" 
d="M226 374h-187c7 114 101 179 248 179c196 0 253 -80 253 -224v-170c0 -21 10 -29 40 -29v-130c-36 -24 -44 -40 -44 -55c0 -18 13 -29 44 -29v-104h-35c-121 0 -150 40 -150 89c0 34 17 74 85 96v3c-55 4 -91 10 -111 64h-3c-37 -43 -82 -69 -158 -69
c-115 0 -189 61 -189 164c0 64 29 107 82 135c58 31 138 33 249 38v32c0 40 -19 68 -61 68c-39 0 -61 -21 -63 -58zM270 110c48 0 82 42 82 109v19c-68 -4 -97 -10 -117 -23c-17 -11 -24 -29 -24 -48c0 -31 22 -57 59 -57z" />
    <glyph glyph-name="Cacute" unicode="&#x106;" horiz-adv-x="765" 
d="M401 629c-74 0 -142 -75 -142 -252c0 -163 56 -246 142 -246c65 0 114 40 122 140h206c-7 -176 -128 -287 -323 -287c-258 0 -366 153 -366 383c0 254 127 409 361 409c217 0 322 -114 329 -287h-207c-5 96 -59 140 -122 140zM331 827l66 133h187l-108 -133h-145z" />
    <glyph glyph-name="cacute" unicode="&#x107;" horiz-adv-x="627" 
d="M592 331h-193c-4 58 -25 97 -77 97c-76 0 -88 -84 -88 -156c0 -61 7 -156 88 -156c54 0 78 39 80 97h192c0 -150 -116 -227 -272 -227c-184 0 -289 106 -289 286s112 282 290 282c164 0 267 -82 269 -223zM240 608l49 180h189l-88 -180h-150z" />
    <glyph glyph-name="Ccircumflex" unicode="&#x108;" horiz-adv-x="765" 
d="M401 629c-74 0 -142 -75 -142 -252c0 -163 56 -246 142 -246c65 0 114 40 122 140h206c-7 -176 -128 -287 -323 -287c-258 0 -366 153 -366 383c0 254 127 409 361 409c217 0 322 -114 329 -287h-207c-5 96 -59 140 -122 140zM491 960l109 -133h-132l-61 45h-1l-58 -45
h-124l109 133h158z" />
    <glyph glyph-name="ccircumflex" unicode="&#x109;" horiz-adv-x="627" 
d="M592 331h-193c-4 58 -25 97 -77 97c-76 0 -88 -84 -88 -156c0 -61 7 -156 88 -156c54 0 78 39 80 97h192c0 -150 -116 -227 -272 -227c-184 0 -289 106 -289 286s112 282 290 282c164 0 267 -82 269 -223zM403 788l112 -180h-125l-63 64h-1l-60 -64h-117l112 180h142z
" />
    <glyph glyph-name="Cdotaccent" unicode="&#x10a;" horiz-adv-x="765" 
d="M401 629c-74 0 -142 -75 -142 -252c0 -163 56 -246 142 -246c65 0 114 40 122 140h206c-7 -176 -128 -287 -323 -287c-258 0 -366 153 -366 383c0 254 127 409 361 409c217 0 322 -114 329 -287h-207c-5 96 -59 140 -122 140zM328 831v157h160v-157h-160z" />
    <glyph glyph-name="cdotaccent" unicode="&#x10b;" horiz-adv-x="627" 
d="M592 331h-193c-4 58 -25 97 -77 97c-76 0 -88 -84 -88 -156c0 -61 7 -156 88 -156c54 0 78 39 80 97h192c0 -150 -116 -227 -272 -227c-184 0 -289 106 -289 286s112 282 290 282c164 0 267 -82 269 -223zM247 631v157h160v-157h-160z" />
    <glyph glyph-name="Ccaron" unicode="&#x10c;" horiz-adv-x="765" 
d="M401 629c-74 0 -142 -75 -142 -252c0 -163 56 -246 142 -246c65 0 114 40 122 140h206c-7 -176 -128 -287 -323 -287c-258 0 -366 153 -366 383c0 254 127 409 361 409c217 0 322 -114 329 -287h-207c-5 96 -59 140 -122 140zM323 827l-109 133h132l61 -45h1l58 45h124
l-109 -133h-158z" />
    <glyph glyph-name="ccaron" unicode="&#x10d;" horiz-adv-x="627" 
d="M592 331h-193c-4 58 -25 97 -77 97c-76 0 -88 -84 -88 -156c0 -61 7 -156 88 -156c54 0 78 39 80 97h192c0 -150 -116 -227 -272 -227c-184 0 -289 106 -289 286s112 282 290 282c164 0 267 -82 269 -223zM250 608l-112 180h125l63 -64h1l60 64h117l-112 -180h-142z" />
    <glyph glyph-name="Dcaron" unicode="&#x10e;" horiz-adv-x="767" 
d="M62 0v765h276c234 0 389 -116 389 -373c0 -259 -157 -392 -389 -392h-276zM265 147h60c116 0 187 57 187 241c0 175 -71 232 -182 232h-65v-473zM269 827l-109 133h132l61 -45h1l58 45h124l-109 -133h-158z" />
    <glyph glyph-name="dcaron" unicode="&#x10f;" horiz-adv-x="670" 
d="M422 228v68c0 84 -33 127 -90 127c-54 0 -98 -43 -98 -156c0 -103 33 -155 96 -155c62 0 92 49 92 116zM616 788v-788h-188v74h-2c-27 -44 -70 -88 -157 -88c-158 0 -234 99 -234 276c0 193 104 289 238 289c63 0 117 -26 145 -76h2v313h196zM681 588v200h146l-60 -200
h-86z" />
    <glyph glyph-name="Dcroat" unicode="&#x110;" horiz-adv-x="793" 
d="M364 0h-276v318h-70v129h70v318h276c234 0 389 -116 389 -373c0 -259 -157 -392 -389 -392zM291 147h60c116 0 187 57 187 241c0 175 -71 232 -182 232h-65v-173h138v-129h-138v-171z" />
    <glyph glyph-name="dcroat" unicode="&#x111;" horiz-adv-x="670" 
d="M422 228v68c0 84 -33 127 -90 127c-54 0 -98 -43 -98 -156c0 -103 33 -155 96 -155c62 0 92 49 92 116zM426 74c-27 -44 -70 -88 -157 -88c-158 0 -234 99 -234 276c0 193 104 289 238 289c63 0 117 -26 145 -76h2v123h-145v109h145v81h196v-81h80v-109h-80v-598h-188v74
h-2z" />
    <glyph glyph-name="Emacron" unicode="&#x112;" horiz-adv-x="633" 
d="M62 0v765h512v-148h-309v-165h299v-144h-299v-162h320v-146h-523zM139 831v120h369v-120h-369z" />
    <glyph glyph-name="emacron" unicode="&#x113;" horiz-adv-x="629" 
d="M395 328l-1 7c-6 69 -33 103 -82 103c-51 0 -77 -36 -83 -110h166zM591 166c-15 -117 -110 -180 -279 -180c-179 0 -279 107 -279 287c0 169 105 281 279 281c199 0 282 -118 282 -288v-39h-364c6 -87 37 -114 89 -114c49 0 68 20 78 53h194zM129 631v120h369v-120h-369z
" />
    <glyph glyph-name="Ebreve" unicode="&#x114;" horiz-adv-x="633" 
d="M62 0v765h512v-148h-309v-165h299v-144h-299v-162h320v-146h-523zM323 807c-97 0 -175 47 -175 166h121c2 -34 25 -55 57 -55s56 21 58 55h115c0 -119 -78 -166 -176 -166z" />
    <glyph glyph-name="ebreve" unicode="&#x115;" horiz-adv-x="629" 
d="M395 328l-1 7c-6 69 -33 103 -82 103c-51 0 -77 -36 -83 -110h166zM591 166c-15 -117 -110 -180 -279 -180c-179 0 -279 107 -279 287c0 169 105 281 279 281c199 0 282 -118 282 -288v-39h-364c6 -87 37 -114 89 -114c49 0 68 20 78 53h194zM313 603
c-97 0 -175 55 -175 185h124c0 -41 22 -62 54 -62s54 21 54 62h119c0 -130 -78 -185 -176 -185z" />
    <glyph glyph-name="Edotaccent" unicode="&#x116;" horiz-adv-x="633" 
d="M62 0v765h512v-148h-309v-165h299v-144h-299v-162h320v-146h-523zM243 831v157h160v-157h-160z" />
    <glyph glyph-name="edotaccent" unicode="&#x117;" horiz-adv-x="629" 
d="M395 328l-1 7c-6 69 -33 103 -82 103c-51 0 -77 -36 -83 -110h166zM591 166c-15 -117 -110 -180 -279 -180c-179 0 -279 107 -279 287c0 169 105 281 279 281c199 0 282 -118 282 -288v-39h-364c6 -87 37 -114 89 -114c49 0 68 20 78 53h194zM233 631v157h160v-157h-160z
" />
    <glyph glyph-name="Eogonek" unicode="&#x118;" horiz-adv-x="633" 
d="M585 -84v-104h-35c-121 0 -150 40 -150 89c0 34 19 73 82 99h-420v765h512v-148h-309v-165h299v-144h-299v-162h320v-146c-36 -24 -44 -40 -44 -55c0 -18 13 -29 44 -29z" />
    <glyph glyph-name="eogonek" unicode="&#x119;" horiz-adv-x="629" 
d="M397 166h194c-7 -48 -23 -88 -70 -126c-49 -39 -83 -69 -83 -95c0 -18 13 -29 44 -29v-104h-35c-121 0 -150 40 -150 88c0 42 26 67 98 93v2c-25 -4 -56 -9 -83 -9c-179 0 -279 107 -279 287c0 169 105 281 279 281c199 0 282 -118 282 -288v-39h-364
c6 -87 37 -114 89 -114c49 0 68 20 78 53zM229 328h166c-5 74 -32 110 -83 110s-78 -36 -83 -110z" />
    <glyph glyph-name="Ecaron" unicode="&#x11a;" horiz-adv-x="633" 
d="M62 0v765h512v-148h-309v-165h299v-144h-299v-162h320v-146h-523zM238 827l-109 133h132l61 -45h1l58 45h124l-109 -133h-158z" />
    <glyph glyph-name="ecaron" unicode="&#x11b;" horiz-adv-x="629" 
d="M395 328l-1 7c-6 69 -33 103 -82 103c-51 0 -77 -36 -83 -110h166zM591 166c-15 -117 -110 -180 -279 -180c-179 0 -279 107 -279 287c0 169 105 281 279 281c199 0 282 -118 282 -288v-39h-364c6 -87 37 -114 89 -114c49 0 68 20 78 53h194zM236 608l-112 180h125
l63 -64h1l60 64h117l-112 -180h-142z" />
    <glyph glyph-name="Gcircumflex" unicode="&#x11c;" horiz-adv-x="800" 
d="M410 634c-95 0 -154 -79 -154 -254c0 -194 64 -254 158 -254c84 0 132 54 143 141l2 16h-159v137h346v-420h-157v100h-3c-37 -69 -106 -116 -214 -116c-231 0 -332 165 -332 382c0 248 142 410 370 410c198 0 308 -92 325 -258h-204c-9 66 -51 116 -121 116zM476 960
l109 -133h-132l-61 45h-1l-58 -45h-124l109 133h158z" />
    <glyph glyph-name="gcircumflex" unicode="&#x11d;" horiz-adv-x="666" 
d="M425 246v62c0 76 -38 115 -92 115c-51 0 -98 -39 -98 -141c0 -94 37 -141 96 -141c57 0 94 44 94 105zM327 -199c-203 0 -268 82 -273 179h189c9 -38 27 -58 86 -58c66 0 96 34 96 118v74h-3c-16 -37 -55 -92 -150 -92c-157 0 -237 88 -237 260c0 176 107 269 237 269
c81 0 129 -38 150 -78h2v68h188v-482c0 -169 -82 -258 -285 -258zM381 788l112 -180h-125l-63 64h-1l-60 -64h-117l112 180h142z" />
    <glyph glyph-name="Gbreve" unicode="&#x11e;" horiz-adv-x="800" 
d="M410 634c-95 0 -154 -79 -154 -254c0 -194 64 -254 158 -254c84 0 132 54 143 141l2 16h-159v137h346v-420h-157v100h-3c-37 -69 -106 -116 -214 -116c-231 0 -332 165 -332 382c0 248 142 410 370 410c198 0 308 -92 325 -258h-204c-9 66 -51 116 -121 116zM399 807
c-97 0 -175 47 -175 166h121c2 -34 25 -55 57 -55s56 21 58 55h115c0 -119 -78 -166 -176 -166z" />
    <glyph glyph-name="gbreve" unicode="&#x11f;" horiz-adv-x="666" 
d="M425 246v62c0 76 -38 115 -92 115c-51 0 -98 -39 -98 -141c0 -94 37 -141 96 -141c57 0 94 44 94 105zM327 -199c-203 0 -268 82 -273 179h189c9 -38 27 -58 86 -58c66 0 96 34 96 118v74h-3c-16 -37 -55 -92 -150 -92c-157 0 -237 88 -237 260c0 176 107 269 237 269
c81 0 129 -38 150 -78h2v68h188v-482c0 -169 -82 -258 -285 -258zM305 603c-97 0 -175 55 -175 185h124c0 -41 22 -62 54 -62s54 21 54 62h119c0 -130 -78 -185 -176 -185z" />
    <glyph glyph-name="Gdotaccent" unicode="&#x120;" horiz-adv-x="800" 
d="M410 634c-95 0 -154 -79 -154 -254c0 -194 64 -254 158 -254c84 0 132 54 143 141l2 16h-159v137h346v-420h-157v100h-3c-37 -69 -106 -116 -214 -116c-231 0 -332 165 -332 382c0 248 142 410 370 410c198 0 308 -92 325 -258h-204c-9 66 -51 116 -121 116zM320 831v157
h160v-157h-160z" />
    <glyph glyph-name="gdotaccent" unicode="&#x121;" horiz-adv-x="666" 
d="M425 246v62c0 76 -38 115 -92 115c-51 0 -98 -39 -98 -141c0 -94 37 -141 96 -141c57 0 94 44 94 105zM327 -199c-203 0 -268 82 -273 179h189c9 -38 27 -58 86 -58c66 0 96 34 96 118v74h-3c-16 -37 -55 -92 -150 -92c-157 0 -237 88 -237 260c0 176 107 269 237 269
c81 0 129 -38 150 -78h2v68h188v-482c0 -169 -82 -258 -285 -258zM225 631v157h160v-157h-160z" />
    <glyph glyph-name="Gcommaaccent" unicode="&#x122;" horiz-adv-x="800" 
d="M410 634c-95 0 -154 -79 -154 -254c0 -194 64 -254 158 -254c84 0 132 54 143 141l2 16h-159v137h346v-420h-157v100h-3c-37 -69 -106 -116 -214 -116c-231 0 -332 165 -332 382c0 248 142 410 370 410c198 0 308 -92 325 -258h-204c-9 66 -51 116 -121 116zM275 -228
l26 166h185l-79 -166h-132z" />
    <glyph glyph-name="gcommaaccent" unicode="&#x123;" horiz-adv-x="666" 
d="M425 246v62c0 76 -38 115 -92 115c-51 0 -98 -39 -98 -141c0 -94 37 -141 96 -141c57 0 94 44 94 105zM327 -199c-203 0 -268 82 -273 179h189c9 -38 27 -58 86 -58c66 0 96 34 96 118v74h-3c-16 -37 -55 -92 -150 -92c-157 0 -237 88 -237 260c0 176 107 269 237 269
c81 0 129 -38 150 -78h2v68h188v-482c0 -169 -82 -258 -285 -258zM416 788l-29 -180h-189l88 180h130z" />
    <glyph glyph-name="Hcircumflex" unicode="&#x124;" horiz-adv-x="790" 
d="M265 304v-304h-203v765h203v-310h258v310h205v-765h-205v304h-258zM478 960l109 -133h-132l-61 45h-1l-58 -45h-124l109 133h158z" />
    <glyph glyph-name="hcircumflex" unicode="&#x125;" horiz-adv-x="659" 
d="M415 0v307c0 38 -3 63 -14 80c-13 19 -34 28 -62 28c-56 0 -89 -35 -89 -108v-307h-196v788h196v-332h2c24 48 80 95 170 95c144 0 189 -77 189 -213v-338h-196zM415 960l109 -133h-132l-61 45h-1l-58 -45h-124l109 133h158z" />
    <glyph glyph-name="Hbar" unicode="&#x126;" horiz-adv-x="790" 
d="M523 455v105h-258v-105h258zM265 304v-304h-203v560h-71v110h71v95h203v-95h258v95h205v-95h71v-110h-71v-560h-205v304h-258z" />
    <glyph glyph-name="hbar" unicode="&#x127;" horiz-adv-x="659" 
d="M250 307v-307h-196v598h-80v109h80v81h196v-81h145v-109h-145v-142h2c24 48 80 95 170 95c144 0 189 -77 189 -213v-338h-196v307c0 38 -3 63 -14 80c-13 19 -34 28 -62 28c-56 0 -89 -35 -89 -108z" />
    <glyph glyph-name="Itilde" unicode="&#x128;" horiz-adv-x="327" 
d="M62 0v765h203v-765h-203zM-33 815c4 92 28 166 123 166c61 0 99 -47 141 -47c16 0 36 9 50 47h79c-4 -93 -28 -166 -123 -166c-61 0 -99 46 -141 46c-14 0 -36 -8 -48 -46h-81z" />
    <glyph glyph-name="itilde" unicode="&#x129;" horiz-adv-x="304" 
d="M54 0v541h196v-541h-196zM-15 608c0 100 25 180 106 180c52 0 81 -45 117 -45c13 0 32 4 44 45h67c0 -101 -26 -180 -106 -180c-52 0 -81 45 -117 45c-12 0 -32 -4 -42 -45h-69z" />
    <glyph glyph-name="Imacron" unicode="&#x12a;" horiz-adv-x="327" 
d="M62 0v765h203v-765h-203zM-21 831v120h369v-120h-369z" />
    <glyph glyph-name="imacron" unicode="&#x12b;" horiz-adv-x="304" 
d="M54 0v541h196v-541h-196zM5 631v120h295v-120h-295z" />
    <glyph glyph-name="Ibreve" unicode="&#x12c;" horiz-adv-x="327" 
d="M62 0v765h203v-765h-203zM163 807c-97 0 -175 47 -175 166h121c2 -34 25 -55 57 -55s56 21 58 55h115c0 -119 -78 -166 -176 -166z" />
    <glyph glyph-name="ibreve" unicode="&#x12d;" horiz-adv-x="304" 
d="M54 0v541h196v-541h-196zM152 603c-88 0 -158 55 -158 185h112c0 -41 19 -62 48 -62s49 21 49 62h107c0 -130 -70 -185 -158 -185z" />
    <glyph glyph-name="Iogonek" unicode="&#x12e;" horiz-adv-x="327" 
d="M62 0v765h203v-751c-55 -34 -64 -54 -64 -69c0 -18 13 -29 44 -29v-104h-35c-121 0 -150 40 -150 89c0 34 19 73 82 99h-80z" />
    <glyph glyph-name="iogonek" unicode="&#x12f;" horiz-adv-x="304" 
d="M54 619v169h196v-169h-196zM54 0v541h196v-533c-47 -25 -59 -46 -59 -63c0 -18 13 -29 44 -29v-104h-35c-121 0 -150 40 -150 89c0 35 20 73 84 99h-80z" />
    <glyph glyph-name="Idotaccent" unicode="&#x130;" horiz-adv-x="327" 
d="M62 0v765h203v-765h-203zM83 831v157h160v-157h-160z" />
    <glyph glyph-name="IJ" unicode="&#x132;" horiz-adv-x="788" 
d="M438 -3h-64v158h35c109 0 124 48 124 128v482h200v-508c0 -203 -113 -260 -295 -260zM62 0v765h203v-765h-203z" />
    <glyph glyph-name="ij" unicode="&#x133;" horiz-adv-x="614" 
d="M54 619v169h196v-169h-196zM54 0v541h196v-541h-196zM364 619v169h196v-169h-196zM348 -210c-57 0 -87 11 -87 11v129s13 -5 35 -5c48 0 68 24 68 78v538h196v-537c0 -167 -90 -214 -212 -214z" />
    <glyph glyph-name="Jcircumflex" unicode="&#x134;" horiz-adv-x="461" 
d="M111 -3h-74v158h45c109 0 124 48 124 128v482h200v-508c0 -203 -113 -260 -295 -260zM390 960l109 -133h-132l-61 45h-1l-58 -45h-124l109 133h158z" />
    <glyph glyph-name="jcircumflex" unicode="&#x135;" horiz-adv-x="310" 
d="M-43 -199v129s13 -5 35 -5c48 0 68 24 68 78v538h196v-537c0 -167 -90 -214 -212 -214c-57 0 -87 11 -87 11zM219 788l101 -180h-112l-57 64h-1l-54 -64h-105l101 180h127z" />
    <glyph glyph-name="Kcommaaccent" unicode="&#x136;" horiz-adv-x="747" 
d="M265 223v-223h-203v765h203v-304l236 304h221l-265 -318l273 -447h-230l-178 292zM270 -228l26 166h185l-79 -166h-132z" />
    <glyph glyph-name="kcommaaccent" unicode="&#x137;" horiz-adv-x="620" 
d="M246 128v-128h-192v788h192v-449l163 202h202l-181 -217l182 -324h-207l-106 195zM215 -228l26 166h185l-79 -166h-132z" />
    <glyph glyph-name="kgreenlandic" unicode="&#x138;" horiz-adv-x="620" 
d="M246 128v-128h-192v541h192v-202l163 202h202l-181 -217l182 -324h-207l-106 195z" />
    <glyph glyph-name="Lacute" unicode="&#x139;" horiz-adv-x="613" 
d="M62 0v765h203v-613h303v-152h-506zM91 827l66 133h187l-108 -133h-145z" />
    <glyph glyph-name="lacute" unicode="&#x13a;" horiz-adv-x="304" 
d="M54 0v788h196v-788h-196zM68 827l66 133h187l-108 -133h-145z" />
    <glyph glyph-name="Lcommaaccent" unicode="&#x13b;" horiz-adv-x="613" 
d="M62 0v765h203v-613h303v-152h-506zM197 -228l26 166h185l-79 -166h-132z" />
    <glyph glyph-name="lcommaaccent" unicode="&#x13c;" horiz-adv-x="304" 
d="M54 0v788h196v-788h-196zM34 -228l26 166h185l-79 -166h-132z" />
    <glyph glyph-name="Lcaron" unicode="&#x13d;" horiz-adv-x="613" 
d="M352 568l10 220h146l-70 -220h-86zM62 0v765h203v-613h303v-152h-506z" />
    <glyph glyph-name="lcaron" unicode="&#x13e;" horiz-adv-x="304" 
d="M54 0v788h196v-788h-196zM315 588v200h146l-60 -200h-86z" />
    <glyph glyph-name="Ldot" unicode="&#x13f;" horiz-adv-x="613" 
d="M62 0v765h203v-613h303v-152h-506zM370 343v179h195v-179h-195z" />
    <glyph glyph-name="ldot" unicode="&#x140;" horiz-adv-x="595" 
d="M54 0v788h196v-788h-196zM352 315v179h195v-179h-195z" />
    <glyph glyph-name="Nacute" unicode="&#x143;" horiz-adv-x="785" 
d="M62 0v765h215l197 -331c46 -78 64 -134 64 -134h3v465h182v-765h-202l-207 343c-47 77 -69 139 -69 139h-3v-482h-180zM315 827l66 133h187l-108 -133h-145z" />
    <glyph glyph-name="nacute" unicode="&#x144;" horiz-adv-x="659" 
d="M415 0v307c0 38 -3 63 -14 80c-13 19 -34 28 -62 28c-56 0 -89 -35 -89 -108v-307h-196v541h189v-88h2c32 54 81 98 177 98c144 0 189 -77 189 -213v-338h-196zM275 608l49 180h189l-88 -180h-150z" />
    <glyph glyph-name="Ncommaaccent" unicode="&#x145;" horiz-adv-x="785" 
d="M62 0v765h215l197 -331c46 -78 64 -134 64 -134h3v465h182v-765h-202l-207 343c-47 77 -69 139 -69 139h-3v-482h-180zM274 -228l26 166h185l-79 -166h-132z" />
    <glyph glyph-name="ncommaaccent" unicode="&#x146;" horiz-adv-x="659" 
d="M415 0v307c0 38 -3 63 -14 80c-13 19 -34 28 -62 28c-56 0 -89 -35 -89 -108v-307h-196v541h189v-88h2c32 54 81 98 177 98c144 0 189 -77 189 -213v-338h-196zM213 -228l26 166h185l-79 -166h-132z" />
    <glyph glyph-name="Ncaron" unicode="&#x147;" horiz-adv-x="785" 
d="M62 0v765h215l197 -331c46 -78 64 -134 64 -134h3v465h182v-765h-202l-207 343c-47 77 -69 139 -69 139h-3v-482h-180zM307 827l-109 133h132l61 -45h1l58 45h124l-109 -133h-158z" />
    <glyph glyph-name="ncaron" unicode="&#x148;" horiz-adv-x="659" 
d="M415 0v307c0 38 -3 63 -14 80c-13 19 -34 28 -62 28c-56 0 -89 -35 -89 -108v-307h-196v541h189v-88h2c32 54 81 98 177 98c144 0 189 -77 189 -213v-338h-196zM285 608l-112 180h125l63 -64h1l60 64h117l-112 -180h-142z" />
    <glyph glyph-name="napostrophe" unicode="&#x149;" horiz-adv-x="659" 
d="M415 0v307c0 38 -3 63 -14 80c-13 19 -34 28 -62 28c-56 0 -89 -35 -89 -108v-307h-196v541h189v-88h2c32 54 81 98 177 98c144 0 189 -77 189 -213v-338h-196zM0 622l26 166h185l-79 -166h-132z" />
    <glyph glyph-name="Eng" unicode="&#x14a;" horiz-adv-x="785" 
d="M428 -188h-74v148h45c63 0 99 16 119 46l-204 337c-47 77 -69 139 -69 139h-3v-482h-180v765h215l197 -331c46 -78 64 -134 64 -134h3v465h182v-693c0 -203 -113 -260 -295 -260z" />
    <glyph glyph-name="eng" unicode="&#x14b;" horiz-adv-x="659" 
d="M399 -210c-57 0 -87 11 -87 11v129s13 -5 35 -5c48 0 68 24 68 78v304c0 38 -3 63 -14 80c-13 19 -34 28 -62 28c-56 0 -89 -35 -89 -108v-307h-196v541h189v-88h2c32 54 81 98 177 98c144 0 189 -77 189 -213v-334c0 -167 -90 -214 -212 -214z" />
    <glyph glyph-name="Omacron" unicode="&#x14c;" horiz-adv-x="821" 
d="M40 380c0 240 140 396 372 396c244 0 369 -151 369 -396c0 -241 -134 -396 -369 -396c-251 0 -372 152 -372 396zM411 128c101 0 150 83 150 252s-62 254 -150 254c-101 0 -150 -85 -150 -254c0 -170 44 -252 150 -252zM226 831v120h369v-120h-369z" />
    <glyph glyph-name="omacron" unicode="&#x14d;" horiz-adv-x="647" 
d="M324 -14c-177 0 -291 103 -291 284c0 183 112 284 291 284c167 0 290 -99 290 -284c0 -180 -122 -284 -290 -284zM324 427c-70 0 -88 -74 -88 -157c0 -90 22 -157 88 -157c70 0 87 74 87 157c0 89 -21 157 -87 157zM139 631v120h369v-120h-369z" />
    <glyph glyph-name="Obreve" unicode="&#x14e;" horiz-adv-x="821" 
d="M40 380c0 240 140 396 372 396c244 0 369 -151 369 -396c0 -241 -134 -396 -369 -396c-251 0 -372 152 -372 396zM411 128c101 0 150 83 150 252s-62 254 -150 254c-101 0 -150 -85 -150 -254c0 -170 44 -252 150 -252zM410 807c-97 0 -175 47 -175 166h121
c2 -34 25 -55 57 -55s56 21 58 55h115c0 -119 -78 -166 -176 -166z" />
    <glyph glyph-name="obreve" unicode="&#x14f;" horiz-adv-x="647" 
d="M324 -14c-177 0 -291 103 -291 284c0 183 112 284 291 284c167 0 290 -99 290 -284c0 -180 -122 -284 -290 -284zM324 427c-70 0 -88 -74 -88 -157c0 -90 22 -157 88 -157c70 0 87 74 87 157c0 89 -21 157 -87 157zM323 603c-97 0 -175 55 -175 185h124
c0 -41 22 -62 54 -62s54 21 54 62h119c0 -130 -78 -185 -176 -185z" />
    <glyph glyph-name="Ohungarumlaut" unicode="&#x150;" horiz-adv-x="821" 
d="M40 380c0 240 140 396 372 396c244 0 369 -151 369 -396c0 -241 -134 -396 -369 -396c-251 0 -372 152 -372 396zM411 128c101 0 150 83 150 252s-62 254 -150 254c-101 0 -150 -85 -150 -254c0 -170 44 -252 150 -252zM436 827l36 133h144l-70 -133h-110zM257 827
l16 133h144l-50 -133h-110z" />
    <glyph glyph-name="ohungarumlaut" unicode="&#x151;" horiz-adv-x="647" 
d="M324 -14c-177 0 -291 103 -291 284c0 183 112 284 291 284c167 0 290 -99 290 -284c0 -180 -122 -284 -290 -284zM324 427c-70 0 -88 -74 -88 -157c0 -90 22 -157 88 -157c70 0 87 74 87 157c0 89 -21 157 -87 157zM348 608l51 180h147l-85 -180h-113zM172 608l31 180
h147l-65 -180h-113z" />
    <glyph glyph-name="Racute" unicode="&#x154;" horiz-adv-x="726" 
d="M265 411h80c62 0 122 27 122 111c0 91 -74 109 -120 109h-82v-220zM491 0l-137 273h-89v-273h-203v765h311c46 0 105 -4 157 -25c78 -31 143 -90 143 -205c0 -109 -67 -177 -140 -210v-2l173 -323h-215zM287 827l66 133h187l-108 -133h-145z" />
    <glyph glyph-name="racute" unicode="&#x155;" horiz-adv-x="447" 
d="M54 0v541h185v-121h2c33 96 113 129 182 129h9v-170h-34c-98 0 -150 -22 -150 -126v-253h-194zM156 608l49 180h189l-88 -180h-150z" />
    <glyph glyph-name="Rcommaaccent" unicode="&#x156;" horiz-adv-x="726" 
d="M265 411h80c62 0 122 27 122 111c0 91 -74 109 -120 109h-82v-220zM491 0l-137 273h-89v-273h-203v765h311c46 0 105 -4 157 -25c78 -31 143 -90 143 -205c0 -109 -67 -177 -140 -210v-2l173 -323h-215zM246 -228l26 166h185l-79 -166h-132z" />
    <glyph glyph-name="rcommaaccent" unicode="&#x157;" horiz-adv-x="447" 
d="M54 0v541h185v-121h2c33 96 113 129 182 129h9v-170h-34c-98 0 -150 -22 -150 -126v-253h-194zM30 -228l26 166h185l-79 -166h-132z" />
    <glyph glyph-name="Rcaron" unicode="&#x158;" horiz-adv-x="726" 
d="M265 411h80c62 0 122 27 122 111c0 91 -74 109 -120 109h-82v-220zM491 0l-137 273h-89v-273h-203v765h311c46 0 105 -4 157 -25c78 -31 143 -90 143 -205c0 -109 -67 -177 -140 -210v-2l173 -323h-215zM279 827l-109 133h132l61 -45h1l58 45h124l-109 -133h-158z" />
    <glyph glyph-name="rcaron" unicode="&#x159;" horiz-adv-x="447" 
d="M54 0v541h185v-121h2c33 96 113 129 182 129h9v-170h-34c-98 0 -150 -22 -150 -126v-253h-194zM166 608l-112 180h125l63 -64h1l60 64h117l-112 -180h-142z" />
    <glyph glyph-name="Sacute" unicode="&#x15a;" horiz-adv-x="691" 
d="M645 556h-207c-2 38 -31 76 -91 76c-53 0 -90 -26 -90 -70c0 -41 22 -65 87 -77l120 -22c129 -24 202 -97 202 -212c0 -177 -121 -267 -323 -267c-196 0 -308 73 -316 237h211c6 -58 46 -93 110 -93c68 0 107 35 107 80c0 46 -25 67 -97 80l-118 23
c-100 20 -193 87 -193 220c0 141 104 245 301 245c214 0 293 -96 297 -220zM269 827l66 133h187l-108 -133h-145z" />
    <glyph glyph-name="sacute" unicode="&#x15b;" horiz-adv-x="553" 
d="M508 382h-170c-2 27 -20 53 -62 53s-59 -17 -59 -41c0 -23 11 -37 53 -43l96 -13c92 -11 157 -60 157 -160c0 -126 -103 -194 -247 -194c-182 0 -244 75 -251 175h177c2 -35 27 -56 74 -56c41 0 69 15 69 45c0 26 -17 37 -55 42l-88 11c-104 13 -164 68 -164 168
c0 93 70 185 238 185c160 0 226 -74 232 -172zM187 608l49 180h189l-88 -180h-150z" />
    <glyph glyph-name="Scircumflex" unicode="&#x15c;" horiz-adv-x="691" 
d="M645 556h-207c-2 38 -31 76 -91 76c-53 0 -90 -26 -90 -70c0 -41 22 -65 87 -77l120 -22c129 -24 202 -97 202 -212c0 -177 -121 -267 -323 -267c-196 0 -308 73 -316 237h211c6 -58 46 -93 110 -93c68 0 107 35 107 80c0 46 -25 67 -97 80l-118 23
c-100 20 -193 87 -193 220c0 141 104 245 301 245c214 0 293 -96 297 -220zM429 960l109 -133h-132l-61 45h-1l-58 -45h-124l109 133h158z" />
    <glyph glyph-name="scircumflex" unicode="&#x15d;" horiz-adv-x="553" 
d="M508 382h-170c-2 27 -20 53 -62 53s-59 -17 -59 -41c0 -23 11 -37 53 -43l96 -13c92 -11 157 -60 157 -160c0 -126 -103 -194 -247 -194c-182 0 -244 75 -251 175h177c2 -35 27 -56 74 -56c41 0 69 15 69 45c0 26 -17 37 -55 42l-88 11c-104 13 -164 68 -164 168
c0 93 70 185 238 185c160 0 226 -74 232 -172zM350 788l112 -180h-125l-63 64h-1l-60 -64h-117l112 180h142z" />
    <glyph glyph-name="Scedilla" unicode="&#x15e;" horiz-adv-x="691" 
d="M348 -242c-73 0 -116 40 -118 85h88c5 -11 13 -20 32 -20c23 0 32 13 32 29c0 18 -12 29 -32 29c-13 0 -22 -5 -28 -13h-70l51 117c-171 10 -269 84 -276 236h211c6 -58 46 -93 110 -93c68 0 107 35 107 80c0 46 -25 67 -97 80l-118 23c-100 20 -193 87 -193 220
c0 141 104 245 301 245c214 0 293 -96 297 -220h-207c-2 38 -31 76 -91 76c-53 0 -90 -26 -90 -70c0 -41 22 -65 87 -77l120 -22c129 -24 202 -97 202 -212c0 -172 -114 -262 -307 -267l-17 -39h2c12 8 23 9 42 9c51 0 92 -37 92 -95c0 -52 -40 -101 -130 -101z" />
    <glyph glyph-name="scedilla" unicode="&#x15f;" horiz-adv-x="553" 
d="M269 -242c-73 0 -116 40 -118 85h88c5 -11 13 -20 32 -20c23 0 32 13 32 29c0 18 -12 29 -32 29c-13 0 -22 -5 -28 -13h-70l51 118c-142 13 -193 83 -199 173h177c2 -35 27 -56 74 -56c41 0 69 15 69 45c0 26 -17 37 -55 42l-88 11c-104 13 -164 68 -164 168
c0 93 70 185 238 185c160 0 226 -74 232 -172h-170c-2 27 -20 53 -62 53s-59 -17 -59 -41c0 -23 11 -37 53 -43l96 -13c92 -11 157 -60 157 -160c0 -126 -103 -194 -243 -194l-17 -39h2c12 8 23 9 42 9c51 0 92 -37 92 -95c0 -52 -40 -101 -130 -101z" />
    <glyph glyph-name="Tcommaaccent" unicode="&#x162;" horiz-adv-x="667" 
d="M640 765v-155h-205v-610h-203v610h-205v155h613zM215 -228l26 166h185l-79 -166h-132z" />
    <glyph glyph-name="tcommaaccent" unicode="&#x163;" horiz-adv-x="421" 
d="M117 690h165v-149h114v-133h-111v-196c0 -54 18 -78 70 -78c16 0 38 3 38 3v-137c-31 -4 -73 -7 -117 -7c-107 0 -184 43 -184 181v234h-71v133h20c66 0 76 13 76 107v42zM136 -228l26 166h185l-79 -166h-132z" />
    <glyph glyph-name="Tcaron" unicode="&#x164;" horiz-adv-x="667" 
d="M640 765v-155h-205v-610h-203v610h-205v155h613zM257 827l-109 133h132l61 -45h1l58 45h124l-109 -133h-158z" />
    <glyph glyph-name="tcaron" unicode="&#x165;" horiz-adv-x="421" 
d="M117 690h165v-149h114v-133h-111v-196c0 -54 18 -78 70 -78c16 0 38 3 38 3v-137c-31 -4 -73 -7 -117 -7c-107 0 -184 43 -184 181v234h-71v133h20c66 0 76 13 76 107v42zM367 588v200h146l-60 -200h-86z" />
    <glyph glyph-name="Tbar" unicode="&#x166;" horiz-adv-x="667" 
d="M435 343v-343h-203v343h-165v117h165v150h-205v155h613v-155h-205v-150h165v-117h-165z" />
    <glyph glyph-name="tbar" unicode="&#x167;" horiz-adv-x="421" 
d="M393 0c-31 -4 -73 -7 -117 -7c-107 0 -184 43 -184 181v45h-71v113h71v84h-71v125h20c66 0 76 13 76 107v42h165v-149h114v-125h-111v-84h111v-113h-111v-7c0 -54 18 -78 70 -78c16 0 38 3 38 3v-137z" />
    <glyph glyph-name="Utilde" unicode="&#x168;" horiz-adv-x="759" 
d="M56 274v491h203l-1 -450c0 -46 1 -99 24 -130c24 -30 56 -43 98 -43c46 0 80 13 103 43c22 31 20 84 20 130v450h200v-491c0 -194 -130 -290 -325 -290s-322 96 -322 290zM183 815c4 92 28 166 123 166c61 0 99 -47 141 -47c16 0 36 9 50 47h79
c-4 -93 -28 -166 -123 -166c-61 0 -99 46 -141 46c-14 0 -36 -8 -48 -46h-81z" />
    <glyph glyph-name="utilde" unicode="&#x169;" horiz-adv-x="653" 
d="M244 541v-308c0 -38 4 -60 15 -77c12 -19 32 -29 61 -29c54 0 83 39 83 116v298h196v-541h-189v85h-2c-30 -53 -79 -94 -168 -94c-144 0 -192 71 -192 198v352h196zM127 608c0 100 30 180 125 180c61 0 95 -45 137 -45c16 0 38 4 52 45h79c0 -101 -30 -180 -125 -180
c-61 0 -95 45 -137 45c-14 0 -38 -4 -50 -45h-81z" />
    <glyph glyph-name="Umacron" unicode="&#x16a;" horiz-adv-x="759" 
d="M56 274v491h203l-1 -450c0 -46 1 -99 24 -130c24 -30 56 -43 98 -43c46 0 80 13 103 43c22 31 20 84 20 130v450h200v-491c0 -194 -130 -290 -325 -290s-322 96 -322 290zM195 831v120h369v-120h-369z" />
    <glyph glyph-name="umacron" unicode="&#x16b;" horiz-adv-x="653" 
d="M244 541v-308c0 -38 4 -60 15 -77c12 -19 32 -29 61 -29c54 0 83 39 83 116v298h196v-541h-189v85h-2c-30 -53 -79 -94 -168 -94c-144 0 -192 71 -192 198v352h196zM139 631v120h369v-120h-369z" />
    <glyph glyph-name="Ubreve" unicode="&#x16c;" horiz-adv-x="759" 
d="M56 274v491h203l-1 -450c0 -46 1 -99 24 -130c24 -30 56 -43 98 -43c46 0 80 13 103 43c22 31 20 84 20 130v450h200v-491c0 -194 -130 -290 -325 -290s-322 96 -322 290zM379 807c-97 0 -175 47 -175 166h121c2 -34 25 -55 57 -55s56 21 58 55h115
c0 -119 -78 -166 -176 -166z" />
    <glyph glyph-name="ubreve" unicode="&#x16d;" horiz-adv-x="653" 
d="M244 541v-308c0 -38 4 -60 15 -77c12 -19 32 -29 61 -29c54 0 83 39 83 116v298h196v-541h-189v85h-2c-30 -53 -79 -94 -168 -94c-144 0 -192 71 -192 198v352h196zM323 603c-97 0 -175 55 -175 185h124c0 -41 22 -62 54 -62s54 21 54 62h119c0 -130 -78 -185 -176 -185z
" />
    <glyph glyph-name="Uring" unicode="&#x16e;" horiz-adv-x="759" 
d="M56 274v491h203l-1 -450c0 -46 1 -99 24 -130c24 -30 56 -43 98 -43c46 0 80 13 103 43c22 31 20 84 20 130v450h200v-491c0 -194 -130 -290 -325 -290s-322 96 -322 290zM379 790c-89 0 -143 53 -143 131s59 132 144 132c91 0 143 -54 143 -132s-58 -131 -144 -131z
M379 981c-33 0 -53 -24 -53 -61c0 -36 20 -60 54 -60c32 0 52 24 52 60c0 37 -19 61 -53 61z" />
    <glyph glyph-name="uring" unicode="&#x16f;" horiz-adv-x="653" 
d="M244 541v-308c0 -38 4 -60 15 -77c12 -19 32 -29 61 -29c54 0 83 39 83 116v298h196v-541h-189v85h-2c-30 -53 -79 -94 -168 -94c-144 0 -192 71 -192 198v352h196zM323 590c-89 0 -143 53 -143 131s59 132 144 132c91 0 143 -54 143 -132s-58 -131 -144 -131zM323 781
c-33 0 -53 -24 -53 -61c0 -36 20 -60 54 -60c32 0 52 24 52 60c0 37 -19 61 -53 61z" />
    <glyph glyph-name="Uhungarumlaut" unicode="&#x170;" horiz-adv-x="759" 
d="M56 274v491h203l-1 -450c0 -46 1 -99 24 -130c24 -30 56 -43 98 -43c46 0 80 13 103 43c22 31 20 84 20 130v450h200v-491c0 -194 -130 -290 -325 -290s-322 96 -322 290zM405 827l36 133h144l-70 -133h-110zM226 827l16 133h144l-50 -133h-110z" />
    <glyph glyph-name="uhungarumlaut" unicode="&#x171;" horiz-adv-x="653" 
d="M244 541v-308c0 -38 4 -60 15 -77c12 -19 32 -29 61 -29c54 0 83 39 83 116v298h196v-541h-189v85h-2c-30 -53 -79 -94 -168 -94c-144 0 -192 71 -192 198v352h196zM348 608l51 180h147l-85 -180h-113zM172 608l31 180h147l-65 -180h-113z" />
    <glyph glyph-name="Uogonek" unicode="&#x172;" horiz-adv-x="759" 
d="M56 274v491h203l-1 -450c0 -46 0 -99 24 -130c23 -30 56 -43 98 -43c46 0 81 13 103 43c23 31 20 84 20 130v450h200v-491c0 -166 -100 -256 -213 -275c-76 -13 -87 -35 -87 -54c0 -18 13 -29 44 -29v-104h-35c-121 0 -150 40 -150 89c0 34 18 66 75 87
c-173 12 -281 105 -281 286z" />
    <glyph glyph-name="uogonek" unicode="&#x173;" horiz-adv-x="653" 
d="M410 0v85h-2c-30 -53 -79 -94 -168 -94c-144 0 -192 71 -192 198v352h196v-308c0 -38 4 -60 15 -77c12 -19 32 -29 61 -29c54 0 83 39 83 116v298h196v-533c-47 -25 -59 -46 -59 -63c0 -18 13 -29 44 -29v-104h-35c-121 0 -150 40 -150 89c0 35 20 73 84 99h-73z" />
    <glyph glyph-name="Wcircumflex" unicode="&#x174;" horiz-adv-x="1064" 
d="M404 0h-198l-194 765h210l83 -378c17 -77 21 -132 21 -132h2s5 55 26 131l104 379h172l106 -378c21 -76 30 -132 30 -132h1s5 55 21 131l81 379h183l-193 -765h-192l-108 408c-20 77 -23 120 -23 120h-2s-3 -43 -23 -119zM631 960l109 -133h-132l-61 45h-1l-58 -45h-124
l109 133h158z" />
    <glyph glyph-name="wcircumflex" unicode="&#x175;" horiz-adv-x="875" 
d="M164 0l-152 541h185l54 -225c16 -66 23 -137 23 -137h3s11 71 30 137l63 225h149l64 -225c19 -67 30 -137 30 -137h4s12 71 27 137l52 225h167l-151 -541h-185l-48 160c-22 74 -39 190 -39 190h-2s-23 -117 -45 -189l-49 -161h-180zM521 788l112 -180h-125l-63 64h-1
l-60 -64h-117l112 180h142z" />
    <glyph glyph-name="Ycircumflex" unicode="&#x176;" horiz-adv-x="720" 
d="M259 0v319l-248 446h220l137 -273h2l134 273h205l-247 -444v-321h-203zM453 960l109 -133h-132l-61 45h-1l-58 -45h-124l109 133h158z" />
    <glyph glyph-name="ycircumflex" unicode="&#x177;" horiz-adv-x="599" 
d="M215 -4l-209 545h203l76 -257c18 -61 24 -116 24 -116h2s5 55 22 116l70 257h190l-187 -549c-44 -128 -104 -191 -257 -191c-68 0 -95 8 -92 8v138c4 -1 28 -5 59 -5c55 0 85 13 97 48zM387 788l112 -180h-125l-63 64h-1l-60 -64h-117l112 180h142z" />
    <glyph glyph-name="Zacute" unicode="&#x179;" horiz-adv-x="660" 
d="M48 613v152h573v-135l-356 -477h360v-153h-595v135l357 478h-339zM260 827l66 133h187l-108 -133h-145z" />
    <glyph glyph-name="zacute" unicode="&#x17a;" horiz-adv-x="559" 
d="M48 403v138h475v-116l-246 -285h250v-140h-488v117l248 286h-239zM196 608l49 180h189l-88 -180h-150z" />
    <glyph glyph-name="Zdotaccent" unicode="&#x17b;" horiz-adv-x="660" 
d="M48 613v152h573v-135l-356 -477h360v-153h-595v135l357 478h-339zM257 831v157h160v-157h-160z" />
    <glyph glyph-name="zdotaccent" unicode="&#x17c;" horiz-adv-x="559" 
d="M48 403v138h475v-116l-246 -285h250v-140h-488v117l248 286h-239zM203 631v157h160v-157h-160z" />
    <glyph glyph-name="Aringacute" unicode="&#x1fa;" horiz-adv-x="775" 
d="M378 598c-1 -3 -7 -46 -29 -120l-58 -195h174l-57 194c-23 78 -28 121 -28 121h-2zM555 0l-44 138h-266l-45 -138h-191l265 765h224l268 -765h-211zM385 790c-89 0 -143 53 -143 131s59 132 144 132c91 0 143 -54 143 -132s-58 -131 -144 -131zM385 981
c-33 0 -53 -24 -53 -61c0 -36 20 -60 54 -60c32 0 52 24 52 60c0 37 -19 61 -53 61zM308 1078l66 133h187l-108 -133h-145z" />
    <glyph glyph-name="aringacute" unicode="&#x1fb;" horiz-adv-x="601" 
d="M270 110c48 0 82 42 82 109v19c-68 -4 -97 -10 -117 -23c-17 -11 -24 -29 -24 -48c0 -31 22 -57 59 -57zM226 374h-187c7 114 101 179 248 179c196 0 253 -80 253 -224v-170c0 -21 10 -29 40 -29v-130h-75c-73 0 -115 7 -136 64h-3c-37 -43 -82 -69 -158 -69
c-115 0 -189 61 -189 164c0 64 29 107 82 135c58 31 138 33 249 38v32c0 40 -19 68 -61 68c-39 0 -61 -21 -63 -58zM305 583c-89 0 -143 53 -143 131s59 132 144 132c91 0 143 -54 143 -132s-58 -131 -144 -131zM305 774c-33 0 -53 -24 -53 -61c0 -36 20 -60 54 -60
c32 0 52 24 52 60c0 37 -19 61 -53 61zM237 876l66 133h187l-108 -133h-145z" />
    <glyph glyph-name="AEacute" unicode="&#x1fc;" horiz-adv-x="1100" 
d="M529 303v314h-29l-147 -314h176zM285 158l-74 -158h-210l383 765h657v-148h-309v-165h299v-144h-299v-162h320v-146h-523v158h-244zM561 827l66 133h187l-108 -133h-145z" />
    <glyph glyph-name="aeacute" unicode="&#x1fd;" horiz-adv-x="936" 
d="M702 328l-1 7c-6 69 -33 103 -82 103c-51 0 -77 -36 -83 -110h166zM270 110c48 0 82 42 82 109v16c-67 0 -97 -7 -117 -20c-17 -11 -24 -29 -24 -48c0 -33 24 -57 59 -57zM898 166c-15 -117 -110 -180 -272 -180c-123 0 -183 40 -217 92h-2c-42 -52 -104 -83 -199 -83
c-115 0 -189 61 -189 164c0 64 29 107 82 135c58 31 138 34 249 36v34c0 39 -18 68 -61 68c-40 0 -61 -22 -63 -58h-187c7 114 100 179 248 179c87 0 136 -24 165 -57h2c36 37 95 58 165 58c199 0 282 -118 282 -288v-39h-364c6 -87 37 -114 89 -114c49 0 68 20 78 53h194z
M373 608l49 180h189l-88 -180h-150z" />
    <glyph glyph-name="Oslashacute" unicode="&#x1fe;" horiz-adv-x="821" 
d="M411 638c-105 0 -156 -86 -156 -258c0 -36 1 -72 6 -105l256 313c-30 38 -69 50 -106 50zM411 124c105 0 156 84 156 256c0 44 -4 81 -10 112l-259 -318c23 -31 59 -50 113 -50zM781 380c0 -241 -134 -396 -369 -396c-91 0 -165 20 -223 57l-54 -66h-119l105 128
c-54 68 -81 162 -81 277c0 240 140 396 372 396c86 0 158 -19 214 -54l58 71h119l-108 -132c57 -68 86 -164 86 -281zM332 827l66 133h187l-108 -133h-145z" />
    <glyph glyph-name="oslashacute" unicode="&#x1ff;" horiz-adv-x="647" 
d="M324 431c-77 0 -97 -76 -97 -161c0 -18 1 -34 3 -50l154 187c-14 15 -34 24 -60 24zM324 109c77 0 96 76 96 161c0 18 -1 34 -3 50l-154 -186c15 -16 35 -25 61 -25zM614 270c0 -180 -122 -284 -290 -284c-59 0 -112 12 -155 34l-53 -64h-105l93 112
c-46 48 -71 116 -71 202c0 183 112 284 291 284c57 0 110 -12 153 -35l54 65h105l-94 -113c45 -48 72 -115 72 -201zM241 608l49 180h189l-88 -180h-150z" />
    <glyph glyph-name="Scommaaccent" unicode="&#x218;" horiz-adv-x="691" 
d="M645 556h-207c-2 38 -31 76 -91 76c-53 0 -90 -26 -90 -70c0 -41 22 -65 87 -77l120 -22c129 -24 202 -97 202 -212c0 -177 -121 -267 -323 -267c-196 0 -308 73 -316 237h211c6 -58 46 -93 110 -93c68 0 107 35 107 80c0 46 -25 67 -97 80l-118 23
c-100 20 -193 87 -193 220c0 141 104 245 301 245c214 0 293 -96 297 -220zM228 -228l26 166h185l-79 -166h-132z" />
    <glyph glyph-name="scommaaccent" unicode="&#x219;" horiz-adv-x="553" 
d="M508 382h-170c-2 27 -20 53 -62 53s-59 -17 -59 -41c0 -23 11 -37 53 -43l96 -13c92 -11 157 -60 157 -160c0 -126 -103 -194 -247 -194c-182 0 -244 75 -251 175h177c2 -35 27 -56 74 -56c41 0 69 15 69 45c0 26 -17 37 -55 42l-88 11c-104 13 -164 68 -164 168
c0 93 70 185 238 185c160 0 226 -74 232 -172zM156 -228l26 166h185l-79 -166h-132z" />
    <glyph glyph-name="uni021A" unicode="&#x21a;" horiz-adv-x="667" 
d="M640 765v-155h-205v-610h-203v610h-205v155h613zM215 -228l26 166h185l-79 -166h-132z" />
    <glyph glyph-name="uni021B" unicode="&#x21b;" horiz-adv-x="421" 
d="M117 690h165v-149h114v-133h-111v-196c0 -54 18 -78 70 -78c16 0 38 3 38 3v-137c-31 -4 -73 -7 -117 -7c-107 0 -184 43 -184 181v234h-71v133h20c66 0 76 13 76 107v42zM136 -228l26 166h185l-79 -166h-132z" />
    <glyph glyph-name="uni0237" unicode="&#x237;" horiz-adv-x="310" 
d="M-43 -199v129s13 -5 35 -5c48 0 68 24 68 78v538h196v-537c0 -167 -90 -214 -212 -214c-57 0 -87 11 -87 11z" />
    <glyph glyph-name="Wgrave" unicode="&#x1e80;" horiz-adv-x="1064" 
d="M404 0h-198l-194 765h210l83 -378c17 -77 21 -132 21 -132h2s5 55 26 131l104 379h172l106 -378c21 -76 30 -132 30 -132h1s5 55 21 131l81 379h183l-193 -765h-192l-108 408c-20 77 -23 120 -23 120h-2s-3 -43 -23 -119zM553 960l66 -133h-145l-108 133h187z" />
    <glyph glyph-name="wgrave" unicode="&#x1e81;" horiz-adv-x="875" 
d="M164 0l-152 541h185l54 -225c16 -66 23 -137 23 -137h3s11 71 30 137l63 225h149l64 -225c19 -67 30 -137 30 -137h4s12 71 27 137l52 225h167l-151 -541h-185l-48 160c-22 74 -39 190 -39 190h-2s-23 -117 -45 -189l-49 -161h-180zM479 788l49 -180h-150l-88 180h189z
" />
    <glyph glyph-name="Wacute" unicode="&#x1e82;" horiz-adv-x="1064" 
d="M404 0h-198l-194 765h210l83 -378c17 -77 21 -132 21 -132h2s5 55 26 131l104 379h172l106 -378c21 -76 30 -132 30 -132h1s5 55 21 131l81 379h183l-193 -765h-192l-108 408c-20 77 -23 120 -23 120h-2s-3 -43 -23 -119zM471 827l66 133h187l-108 -133h-145z" />
    <glyph glyph-name="wacute" unicode="&#x1e83;" horiz-adv-x="875" 
d="M164 0l-152 541h185l54 -225c16 -66 23 -137 23 -137h3s11 71 30 137l63 225h149l64 -225c19 -67 30 -137 30 -137h4s12 71 27 137l52 225h167l-151 -541h-185l-48 160c-22 74 -39 190 -39 190h-2s-23 -117 -45 -189l-49 -161h-180zM358 608l49 180h189l-88 -180h-150z
" />
    <glyph glyph-name="Wdieresis" unicode="&#x1e84;" horiz-adv-x="1064" 
d="M404 0h-198l-194 765h210l83 -378c17 -77 21 -132 21 -132h2s5 55 26 131l104 379h172l106 -378c21 -76 30 -132 30 -132h1s5 55 21 131l81 379h183l-193 -765h-192l-108 408c-20 77 -23 120 -23 120h-2s-3 -43 -23 -119zM576 831v157h160v-157h-160zM361 831v157h160
v-157h-160z" />
    <glyph glyph-name="wdieresis" unicode="&#x1e85;" horiz-adv-x="875" 
d="M164 0l-152 541h185l54 -225c16 -66 23 -137 23 -137h3s11 71 30 137l63 225h149l64 -225c19 -67 30 -137 30 -137h4s12 71 27 137l52 225h167l-151 -541h-185l-48 160c-22 74 -39 190 -39 190h-2s-23 -117 -45 -189l-49 -161h-180zM473 631v157h160v-157h-160zM258 631
v157h160v-157h-160z" />
    <glyph glyph-name="Ygrave" unicode="&#x1ef2;" horiz-adv-x="720" 
d="M259 0v319l-248 446h220l137 -273h2l134 273h205l-247 -444v-321h-203zM375 960l66 -133h-145l-108 133h187z" />
    <glyph glyph-name="ygrave" unicode="&#x1ef3;" horiz-adv-x="599" 
d="M215 -4l-209 545h203l76 -257c18 -61 24 -116 24 -116h2s5 55 22 116l70 257h190l-187 -549c-44 -128 -104 -191 -257 -191c-68 0 -95 8 -92 8v138c4 -1 28 -5 59 -5c55 0 85 13 97 48zM345 788l49 -180h-150l-88 180h189z" />
    <glyph glyph-name="uni2009" unicode="&#x2009;" horiz-adv-x="20" 
 />
    <glyph glyph-name="uni2032" unicode="&#x2032;" horiz-adv-x="322" 
d="M55 482l28 283h189l-96 -283h-121z" />
    <glyph glyph-name="uni2033" unicode="&#x2033;" horiz-adv-x="550" 
d="M290 482l28 283h184l-91 -283h-121zM60 482l28 283h184l-91 -283h-121z" />
    <glyph glyph-name="Euro" unicode="&#x20ac;" horiz-adv-x="743" 
d="M698 220c-3 -131 -100 -234 -291 -234c-182 0 -277 95 -304 264h-76v80h68c-1 12 -1 24 -1 37s0 26 1 38h-70v80h79c31 174 139 265 316 265c193 0 278 -111 285 -239h-203c-5 57 -27 107 -92 107c-59 0 -95 -33 -108 -133h149v-80h-156v-36c0 -14 0 -27 1 -39h157v-80
h-152c14 -101 49 -128 109 -128c65 0 87 43 92 98h196z" />
    <glyph glyph-name="onethird" unicode="&#x2153;" horiz-adv-x="943" 
d="M117 334v268h-96v91h15c24 0 49 4 67 15c15 10 25 30 25 57h127v-431h-138zM71 -40l547 821h128l-547 -821h-128zM717 180h-55v77h42c29 0 53 15 53 45c0 29 -20 44 -46 44c-35 0 -47 -25 -48 -44h-133c4 61 44 138 191 138c115 0 174 -53 174 -117
c0 -48 -27 -85 -89 -97v-2c71 -11 100 -49 100 -102c0 -68 -63 -131 -189 -131c-146 0 -188 71 -189 138h137c1 -28 23 -42 49 -42c37 0 55 22 55 48c0 27 -20 45 -52 45z" />
    <glyph glyph-name="twothirds" unicode="&#x2154;" horiz-adv-x="1046" 
d="M166 608h-132c2 99 62 164 191 164c127 0 181 -56 181 -130c0 -67 -39 -106 -106 -157l-64 -49v-3h171v-99h-377v67l184 155c42 35 53 52 53 78c0 28 -16 44 -42 44c-33 0 -58 -17 -59 -70zM194 -40l547 821h128l-547 -821h-128zM820 180h-55v77h42c29 0 53 15 53 45
c0 29 -20 44 -46 44c-35 0 -47 -25 -48 -44h-133c4 61 44 138 191 138c115 0 174 -53 174 -117c0 -48 -27 -85 -89 -97v-2c71 -11 100 -49 100 -102c0 -68 -63 -131 -189 -131c-146 0 -188 71 -189 138h137c1 -28 23 -42 49 -42c37 0 55 22 55 48c0 27 -20 45 -52 45z" />
    <glyph glyph-name="oneeighth" unicode="&#x215b;" horiz-adv-x="934" 
d="M117 334v268h-96v91h15c24 0 49 4 67 15c15 10 25 30 25 57h127v-431h-138zM68 -40l547 821h128l-547 -821h-128zM531 319c0 72 58 119 179 119s178 -47 178 -120c0 -49 -25 -76 -64 -92v-2c53 -14 82 -44 82 -100c0 -78 -67 -133 -196 -133c-140 0 -196 51 -196 133
c0 51 29 84 81 100v2c-38 14 -64 43 -64 93zM710 358c-29 0 -50 -15 -50 -49c0 -32 20 -50 50 -50s50 18 50 50c0 34 -20 49 -50 49zM710 72c34 0 60 21 60 57c0 38 -24 57 -60 57c-37 0 -61 -19 -61 -57c0 -36 26 -57 61 -57z" />
    <glyph glyph-name="threeeighths" unicode="&#x215c;" horiz-adv-x="1008" 
d="M224 514h-55v77h42c29 0 53 15 53 45c0 29 -20 44 -46 44c-35 0 -47 -25 -48 -44h-133c4 61 44 138 191 138c115 0 174 -53 174 -117c0 -48 -27 -85 -89 -97v-2c71 -11 100 -49 100 -102c0 -68 -63 -131 -189 -131c-146 0 -188 71 -189 138h137c1 -28 23 -42 49 -42
c37 0 55 22 55 48c0 27 -20 45 -52 45zM162 -40l547 821h128l-547 -821h-128zM605 319c0 72 58 119 179 119s178 -47 178 -120c0 -49 -25 -76 -64 -92v-2c53 -14 82 -44 82 -100c0 -78 -67 -133 -196 -133c-140 0 -196 51 -196 133c0 51 29 84 81 100v2
c-38 14 -64 43 -64 93zM784 358c-29 0 -50 -15 -50 -49c0 -32 20 -50 50 -50s50 18 50 50c0 34 -20 49 -50 49zM784 72c34 0 60 21 60 57c0 38 -24 57 -60 57c-37 0 -61 -19 -61 -57c0 -36 26 -57 61 -57z" />
    <glyph glyph-name="fiveeighths" unicode="&#x215d;" horiz-adv-x="1005" 
d="M276 474c0 31 -22 55 -54 55c-24 0 -42 -11 -54 -25h-120l19 261h312v-101h-209l-8 -97h2c17 26 50 49 105 49c87 0 140 -47 140 -132c0 -86 -55 -159 -190 -159c-144 0 -182 69 -186 138h136c2 -28 25 -43 52 -43c33 0 55 22 55 54zM153 -40l547 821h128l-547 -821h-128
zM602 319c0 72 58 119 179 119s178 -47 178 -120c0 -49 -25 -76 -64 -92v-2c53 -14 82 -44 82 -100c0 -78 -67 -133 -196 -133c-140 0 -196 51 -196 133c0 51 29 84 81 100v2c-38 14 -64 43 -64 93zM781 358c-29 0 -50 -15 -50 -49c0 -32 20 -50 50 -50s50 18 50 50
c0 34 -20 49 -50 49zM781 72c34 0 60 21 60 57c0 38 -24 57 -60 57c-37 0 -61 -19 -61 -57c0 -36 26 -57 61 -57z" />
    <glyph glyph-name="seveneighths" unicode="&#x215e;" horiz-adv-x="937" 
d="M59 334l163 330h-193v101h353v-70l-179 -361h-144zM65 -40l547 821h128l-547 -821h-128zM534 319c0 72 58 119 179 119s178 -47 178 -120c0 -49 -25 -76 -64 -92v-2c53 -14 82 -44 82 -100c0 -78 -67 -133 -196 -133c-140 0 -196 51 -196 133c0 51 29 84 81 100v2
c-38 14 -64 43 -64 93zM713 358c-29 0 -50 -15 -50 -49c0 -32 20 -50 50 -50s50 18 50 50c0 34 -20 49 -50 49zM713 72c34 0 60 21 60 57c0 38 -24 57 -60 57c-37 0 -61 -19 -61 -57c0 -36 26 -57 61 -57z" />
    <glyph glyph-name="uni24C5" unicode="&#x24c5;" horiz-adv-x="899" 
d="M55 380c0 224 168 397 394 397s395 -173 395 -397s-169 -396 -395 -396s-394 172 -394 396zM449 41c189 0 330 147 330 339s-141 340 -330 340s-329 -148 -329 -340s140 -339 329 -339zM407 168h-125v429h193c109 0 176 -55 176 -150c0 -104 -69 -156 -176 -156h-68v-123
zM407 382h50c45 0 76 18 76 63s-31 61 -75 61h-51v-124z" />
    <glyph glyph-name="f_f" unicode="&#xfb00;" horiz-adv-x="756" 
d="M276 408v-408h-191v408h-66v133h66v39c0 161 86 207 211 207c53 0 91 -6 91 -6v-131s-17 3 -42 3c-44 0 -69 -20 -69 -79v-33h187v47c0 161 86 207 211 207c53 0 91 -6 91 -6v-131s-17 3 -42 3c-44 0 -69 -20 -69 -79v-41h93v-133h-93v-408h-191v408h-187z" />
    <glyph glyph-name="quotedblright.sc" horiz-adv-x="550" 
d="M270 361l68 283h184l-131 -283h-121zM40 361l68 283h184l-131 -283h-121z" />
    <glyph glyph-name="Ibreve.sc" horiz-adv-x="324" 
d="M64 0v644h196v-644h-196zM162 693c-97 0 -175 55 -175 185h124c0 -41 22 -62 54 -62s54 21 54 62h119c0 -130 -78 -185 -176 -185z" />
    <glyph glyph-name="exclamdown.uc" horiz-adv-x="357" 
d="M177 569c-63 0 -114 47 -114 105c0 59 51 106 114 106s115 -47 115 -106c0 -58 -52 -105 -115 -105zM249 519l43 -542h-227l44 542h140z" />
    <glyph glyph-name="hyphen.uc" horiz-adv-x="440" 
d="M55 282v144h330v-144h-330z" />
    <glyph glyph-name="endash.uc" horiz-adv-x="510" 
d="M55 282v135h400v-135h-400z" />
    <glyph glyph-name="emdash.uc" horiz-adv-x="890" 
d="M55 285v129h780v-129h-780z" />
    <glyph glyph-name="guilsinglleft.uc" horiz-adv-x="299" 
d="M129 524h134l-94 -206l96 -201h-135l-104 204z" />
    <glyph glyph-name="guilsinglright.uc" horiz-adv-x="298" 
d="M169 117h-134l94 206l-95 201h134l104 -203z" />
    <glyph glyph-name="guillemotleft.uc" horiz-adv-x="524" 
d="M355 524h134l-94 -206l95 -201h-134l-104 204zM129 524h134l-94 -206l96 -201h-135l-104 204z" />
    <glyph glyph-name="guillemotright.uc" horiz-adv-x="544" 
d="M180 117h-135l95 206l-96 201h135l103 -203zM415 117h-134l94 206l-95 201h134l104 -203z" />
    <glyph glyph-name="parenleft.uc" horiz-adv-x="372" 
d="M369 -100h-139c-80 93 -176 247 -176 459c0 213 96 366 176 459h139c-76 -122 -145 -275 -145 -459c0 -183 69 -336 145 -459z" />
    <glyph glyph-name="parenright.uc" horiz-adv-x="358" 
d="M3 -100c76 123 145 276 145 459c0 184 -69 337 -145 459h138c81 -93 176 -246 176 -459c0 -212 -95 -366 -176 -459h-138z" />
    <glyph glyph-name="space_uni0326" horiz-adv-x="369" 
d="M90 -208l26 166h185l-79 -166h-132z" />
    <glyph glyph-name="grave.uc" horiz-adv-x="369" 
d="M209 960l66 -133h-145l-108 133h187z" />
    <glyph glyph-name="bracketleft.uc" horiz-adv-x="404" 
d="M90 -100v918h289v-112h-132v-694h132v-112h-289z" />
    <glyph glyph-name="bracketright.uc" horiz-adv-x="404" 
d="M314 818v-918h-289v112h132v694h-132v112h289z" />
    <glyph glyph-name="braceleft.uc" horiz-adv-x="446" 
d="M83 293h-33v128h33c39 0 51 18 51 64v126c0 167 91 211 287 211v-108c-107 0 -136 -29 -136 -112v-109c0 -63 -18 -118 -83 -132v-4c65 -15 83 -69 83 -138v-103c0 -83 29 -112 136 -112v-108c-196 0 -287 44 -287 198v135c0 46 -12 64 -51 64z" />
    <glyph glyph-name="braceright.uc" horiz-adv-x="446" 
d="M396 425v-128h-33c-39 0 -51 -18 -51 -64v-126c0 -167 -91 -211 -287 -211v108c107 0 136 29 136 112v109c0 63 18 118 83 132v4c-65 15 -83 69 -83 138v103c0 83 -29 112 -136 112v108c196 0 287 -44 287 -198v-135c0 -46 12 -64 51 -64h33z" />
    <glyph glyph-name="slash.uc" horiz-adv-x="572" 
d="M-24 -100l454 918h141l-454 -918h-141z" />
    <glyph glyph-name="backslash.uc" horiz-adv-x="572" 
d="M455 -100l-454 918h141l454 -918h-141z" />
    <glyph glyph-name="bar.uc" horiz-adv-x="289" 
d="M79 -100v918h127v-918h-127z" />
    <glyph glyph-name="acute.uc" horiz-adv-x="369" 
d="M93 827l66 133h187l-108 -133h-145z" />
    <glyph glyph-name="at.uc" horiz-adv-x="1029" 
d="M714 124c-75 0 -134 36 -142 101h-3c-30 -56 -74 -97 -155 -97c-97 0 -155 73 -155 184c0 139 90 271 225 271c64 0 100 -33 113 -68h2l11 52h156l-62 -283c-11 -53 9 -80 51 -80c64 0 123 66 123 210c0 189 -147 332 -354 332c-217 0 -394 -178 -394 -410
c0 -234 158 -383 368 -383c108 0 199 37 257 84l44 -46c-67 -56 -167 -104 -308 -104c-253 0 -437 181 -437 449c0 274 207 476 472 476c248 0 433 -159 433 -392c0 -204 -107 -296 -245 -296zM473 231c39 0 78 40 90 106l9 45c11 59 -12 100 -51 100
c-70 0 -102 -100 -102 -170c0 -53 18 -81 54 -81z" />
    <glyph glyph-name="f.short" horiz-adv-x="378" 
d="M276 408v-408h-191v408h-66v133h66v47c0 161 86 207 211 207c53 0 91 -6 91 -6v-131s-17 3 -42 3c-44 0 -69 -20 -69 -79v-41h93v-133h-93z" />
    <glyph glyph-name="f_f.short" horiz-adv-x="756" 
d="M276 408v-408h-191v408h-66v133h66v39c0 161 86 207 211 207c53 0 91 -6 91 -6v-131s-17 3 -42 3c-44 0 -69 -20 -69 -79v-33h187v47c0 161 86 207 211 207c53 0 91 -6 91 -6v-131s-17 3 -42 3c-44 0 -69 -20 -69 -79v-41h93v-133h-93v-408h-191v408h-187z" />
    <glyph glyph-name="macron.uc" horiz-adv-x="369" 
d="M0 831v120h369v-120h-369z" />
    <glyph glyph-name="circumflex.uc" horiz-adv-x="369" 
d="M264 960l109 -133h-132l-61 45h-1l-58 -45h-124l109 133h158z" />
    <glyph glyph-name="caron.uc" horiz-adv-x="369" 
d="M106 827l-109 133h132l61 -45h1l58 45h124l-109 -133h-158z" />
    <glyph glyph-name="breve.uc" horiz-adv-x="369" 
d="M184 807c-97 0 -175 47 -175 166h121c2 -34 25 -55 57 -55s56 21 58 55h115c0 -119 -78 -166 -176 -166z" />
    <glyph glyph-name="caron.alt" horiz-adv-x="369" 
d="M126 588v200h146l-60 -200h-86z" />
    <glyph glyph-name="dotaccent.uc" horiz-adv-x="369" 
d="M105 831v157h160v-157h-160z" />
    <glyph glyph-name="ring.uc" horiz-adv-x="369" 
d="M188 790c-89 0 -143 53 -143 131s59 132 144 132c91 0 143 -54 143 -132s-58 -131 -144 -131zM188 981c-33 0 -53 -24 -53 -61c0 -36 20 -60 54 -60c32 0 52 24 52 60c0 37 -19 61 -53 61z" />
    <glyph glyph-name="sterling.tab" 
d="M569 151v-151h-532v105l45 31c51 35 77 81 56 159h-106v110h65l-9 23c-77 200 43 324 235 324c190 0 246 -92 251 -223h-182c-2 57 -19 97 -68 97c-77 0 -81 -80 -57 -160l18 -61h152v-110h-126c4 -62 -25 -103 -68 -136l-8 -6v-2h334z" />
    <glyph glyph-name="tilde.uc" horiz-adv-x="369" 
d="M-12 815c4 92 28 166 123 166c61 0 99 -47 141 -47c16 0 36 9 50 47h79c-4 -93 -28 -166 -123 -166c-61 0 -99 46 -141 46c-14 0 -36 -8 -48 -46h-81z" />
    <glyph glyph-name="cent.tab" 
d="M271 113v318c-56 -22 -66 -96 -66 -159c0 -54 6 -136 66 -159zM399 213h169c0 -138 -89 -214 -225 -225v-104h-72v103c-161 13 -244 117 -244 285c0 167 88 267 244 281v82h72v-82c142 -12 221 -92 223 -222h-170c-4 46 -19 84 -53 99v-317c37 15 54 52 56 100z" />
    <glyph glyph-name="plus.tab" 
d="M374 290v-198h-149v198h-190v136h190v196h149v-196h191v-136h-191z" />
    <glyph glyph-name="minus.tab" 
d="M55 290v136h490v-136h-490z" />
    <glyph glyph-name="multiply.tab" 
d="M135 81l-102 102l167 165l-167 165l102 102l165 -167l164 167l102 -102l-166 -165l167 -165l-102 -102l-165 167z" />
    <glyph glyph-name="divide.tab" 
d="M208 488v169h184v-169h-184zM55 290v136h490v-136h-490zM392 56h-184v169h184v-169z" />
    <glyph glyph-name="equal.tab" 
d="M55 395v136h490v-136h-490zM545 177h-490v136h490v-136z" />
    <glyph glyph-name="less.tab" 
d="M556 31l-512 264v77l512 265v-153l-293 -146l293 -148v-159z" />
    <glyph glyph-name="greater.tab" 
d="M44 637l512 -264v-77l-512 -265v153l293 146l-293 148v159z" />
    <glyph glyph-name="florin.tab" 
d="M381 338l-69 -527h-187l65 527h-100v133h117l9 76c24 202 119 248 237 248c47 0 85 -6 85 -6v-138s-13 3 -38 3c-44 0 -80 -13 -92 -107l-10 -76h112v-133h-129z" />
    <glyph glyph-name="plusminus.tab" 
d="M374 380v-158h-149v158h-190v136h190v156h149v-156h191v-136h-191zM35 0v136h530v-136h-530z" />
    <glyph glyph-name="notequal.tab" 
d="M276 177l-43 -98h-101l43 98h-120v136h180l37 82h-217v136h277l46 105h101l-46 -105h112v-136h-172l-37 -82h209v-136h-269z" />
    <glyph glyph-name="approxequal.tab" 
d="M49 382c0 100 49 184 147 184c63 0 157 -39 203 -39c20 0 41 9 43 44h109c0 -101 -39 -184 -137 -184c-63 0 -157 39 -202 39c-24 0 -40 -16 -42 -44h-121zM49 164c0 100 49 184 147 184c63 0 157 -39 203 -39c20 0 41 9 43 44h109c0 -101 -39 -184 -137 -184
c-63 0 -157 39 -202 39c-24 0 -40 -16 -42 -44h-121z" />
    <glyph glyph-name="lessequal.tab" 
d="M556 186l-512 237v90l512 238v-147l-297 -131l297 -134v-153zM556 0h-512v136h512v-136z" />
    <glyph glyph-name="greaterequal.tab" 
d="M44 751l512 -237v-90l-512 -238v147l297 131l-297 134v153zM556 0h-512v136h512v-136z" />
    <glyph glyph-name="period.tab" horiz-adv-x="300" 
d="M149 -16c-63 0 -110 47 -110 108c0 59 47 107 110 107c64 0 112 -48 112 -107c0 -61 -48 -108 -112 -108z" />
    <glyph glyph-name="comma.tab" horiz-adv-x="300" 
d="M18 -117l62 296h192l-126 -296h-128z" />
    <glyph glyph-name="colon.tab" horiz-adv-x="300" 
d="M149 -16c-63 0 -110 47 -110 108c0 59 47 107 110 107c64 0 112 -48 112 -107c0 -61 -48 -108 -112 -108zM149 322c-63 0 -110 47 -110 108c0 59 47 107 110 107c64 0 112 -48 112 -107c0 -61 -48 -108 -112 -108z" />
    <glyph glyph-name="semicolon.tab" horiz-adv-x="300" 
d="M71 348v179h191v-179h-191zM136 -117h-128l62 296h192z" />
    <glyph glyph-name="hungarumlaut.uc" horiz-adv-x="437" 
d="M228 827l36 133h144l-70 -133h-110zM49 827l16 133h144l-50 -133h-110z" />
    <glyph glyph-name="currency.tab" 
d="M110 348c0 27 5 53 14 76l-107 105l102 102l105 -108c22 9 47 14 74 14s53 -6 76 -15l106 109l102 -102l-109 -107c9 -22 14 -47 14 -74s-5 -52 -14 -74l110 -107l-102 -102l-107 109c-23 -9 -49 -14 -76 -14s-52 5 -74 13l-105 -108l-102 102l107 104
c-9 23 -14 49 -14 77zM298 267c47 0 77 34 77 81c0 48 -30 82 -77 82c-46 0 -76 -34 -76 -82c0 -47 30 -81 76 -81z" />
    <glyph glyph-name="percent.tab" horiz-adv-x="900" 
d="M124 -40l527 821h130l-527 -821h-130zM218 381c-92 0 -168 61 -168 181c0 121 80 180 168 180c90 0 170 -59 170 -180c0 -120 -80 -181 -170 -181zM217 478c34 0 52 28 52 84s-18 85 -52 85s-50 -27 -50 -85c0 -56 16 -84 50 -84zM680 -7c-92 0 -168 61 -168 181
c0 121 80 180 168 180c90 0 170 -59 170 -180c0 -120 -80 -181 -170 -181zM679 90c34 0 52 28 52 84s-18 85 -52 85s-50 -27 -50 -85c0 -56 16 -84 50 -84z" />
    <glyph glyph-name="perthousand.tab" horiz-adv-x="1200" 
d="M87 -40l527 821h130l-527 -821h-130zM50 562c0 121 75 180 158 180c85 0 160 -59 160 -180c0 -120 -75 -181 -160 -181c-87 0 -158 61 -158 181zM207 478c30 0 49 28 49 84s-19 85 -49 85s-47 -27 -47 -85c0 -56 17 -84 47 -84zM991 -7c-87 0 -158 61 -158 181
c0 121 74 180 158 180c85 0 159 -59 159 -180c0 -120 -74 -181 -159 -181zM619 -7c-87 0 -158 61 -158 181c0 121 73 180 158 180s159 -59 159 -180c0 -120 -74 -181 -159 -181zM990 90c29 0 49 28 49 84s-20 85 -49 85s-48 -27 -48 -85c0 -56 19 -84 48 -84zM618 90
c29 0 49 28 49 84s-20 85 -49 85c-30 0 -48 -27 -48 -85c0 -56 18 -84 48 -84z" />
    <glyph glyph-name="idotaccent" horiz-adv-x="304" 
d="M54 619v169h196v-169h-196zM54 0v541h196v-541h-196z" />
    <glyph glyph-name="A.sc" horiz-adv-x="704" 
d="M343 493c0 -3 -6 -39 -33 -127l-42 -135h147l-41 136c-27 90 -29 126 -29 126h-2zM492 0l-36 107h-229l-37 -107h-185l239 644h215l240 -644h-207z" />
    <glyph glyph-name="AE.sc" horiz-adv-x="981" 
d="M469 253v260h-24l-126 -260h150zM261 135l-65 -135h-191l337 644h578v-131h-261v-128h252v-128h-252v-128h272v-129h-462v135h-208z" />
    <glyph glyph-name="B.sc" horiz-adv-x="666" 
d="M374 0h-310v644h299c165 0 238 -52 238 -162c0 -80 -62 -120 -110 -135v-3c79 -13 145 -63 145 -155c0 -117 -98 -189 -262 -189zM260 383h71c57 0 85 25 85 72c0 45 -32 71 -87 71h-69v-143zM260 122h99c53 0 85 20 85 76c0 45 -33 71 -84 71h-100v-147z" />
    <glyph glyph-name="C.sc" horiz-adv-x="697" 
d="M366 524c-61 0 -109 -56 -109 -204c0 -147 39 -203 105 -203c50 0 87 31 92 114h200c-6 -162 -118 -245 -290 -245c-229 0 -316 132 -316 322c0 212 115 345 319 345c200 0 284 -90 288 -246h-201c-3 83 -38 117 -88 117z" />
    <glyph glyph-name="D.sc" horiz-adv-x="710" 
d="M64 0v644h256c207 0 345 -99 345 -314c0 -217 -142 -330 -347 -330h-254zM260 130h55c85 0 142 47 142 197c0 142 -57 189 -139 189h-58v-386z" />
    <glyph glyph-name="Dcroat.sc" horiz-adv-x="734" 
d="M342 0h-254v265h-57v113h57v266h256c207 0 345 -99 345 -314c0 -217 -142 -330 -347 -330zM284 130h55c85 0 142 47 142 197c0 142 -57 189 -139 189h-58v-138h105v-113h-105v-135z" />
    <glyph glyph-name="E.sc" horiz-adv-x="584" 
d="M64 0v644h459v-131h-263v-128h254v-128h-254v-128h274v-129h-470z" />
    <glyph glyph-name="Eng.sc" horiz-adv-x="713" 
d="M384 -168h-60v131h47c51 0 81 11 96 41l-163 262c-43 69 -65 124 -65 124h-3v-390h-172v644h203l145 -256c43 -69 60 -117 60 -117h2v373h175v-588c0 -177 -102 -224 -265 -224z" />
    <glyph glyph-name="Eth.sc" horiz-adv-x="734" 
d="M342 0h-254v265h-57v113h57v266h256c207 0 345 -99 345 -314c0 -217 -142 -330 -347 -330zM284 130h55c85 0 142 47 142 197c0 142 -57 189 -139 189h-58v-138h105v-113h-105v-135z" />
    <glyph glyph-name="F.sc" horiz-adv-x="563" 
d="M260 224v-224h-196v644h457v-135h-261v-153h248v-132h-248z" />
    <glyph glyph-name="G.sc" horiz-adv-x="726" 
d="M375 527c-74 0 -122 -61 -122 -207c0 -162 53 -207 122 -207s109 41 116 109l1 10h-121v121h295v-353h-139v83h-3c-32 -58 -91 -96 -181 -96c-215 0 -295 142 -295 320c0 208 123 346 328 346c183 0 278 -76 288 -221h-197c-7 59 -38 95 -92 95z" />
    <glyph glyph-name="H.sc" horiz-adv-x="718" 
d="M260 250v-250h-196v644h196v-256h197v256h197v-644h-197v250h-197z" />
    <glyph glyph-name="I.sc" horiz-adv-x="324" 
d="M64 0v644h196v-644h-196z" />
    <glyph glyph-name="IJ.sc" horiz-adv-x="737" 
d="M415 -3h-62v141h35c88 0 99 42 99 106v400h193v-424c0 -175 -104 -223 -265 -223zM64 0v644h196v-644h-196z" />
    <glyph glyph-name="J.sc" horiz-adv-x="429" 
d="M110 -3h-70v141h39c89 0 100 42 100 106v400h193v-424c0 -175 -102 -223 -262 -223z" />
    <glyph glyph-name="K.sc" horiz-adv-x="688" 
d="M260 181v-181h-196v644h196v-257l208 257h197l-225 -273l230 -371h-219l-142 239z" />
    <glyph glyph-name="L.sc" horiz-adv-x="568" 
d="M64 0v644h196v-504h248v-140h-444z" />
    <glyph glyph-name="M.sc" horiz-adv-x="891" 
d="M64 0v644h274l80 -269c16 -51 25 -103 25 -103h3s9 52 25 104l76 268h280v-644h-188v479h-2s-19 -78 -44 -162l-90 -317h-129l-94 318c-26 85 -41 161 -41 161h-3v-479h-172z" />
    <glyph glyph-name="N.sc" horiz-adv-x="713" 
d="M64 0v644h203l145 -255c43 -69 60 -118 60 -118h2v373h175v-644h-190l-155 266c-44 68 -65 124 -65 124h-3v-390h-172z" />
    <glyph glyph-name="O.sc" horiz-adv-x="746" 
d="M48 320c0 199 115 333 325 333c221 0 325 -130 325 -333c0 -200 -113 -333 -325 -333c-229 0 -325 130 -325 333zM373 115c81 0 116 67 116 205s-49 207 -116 207c-82 0 -115 -69 -115 -207c0 -139 28 -205 115 -205z" />
    <glyph glyph-name="OE.sc" horiz-adv-x="1005" 
d="M495 257v118c0 88 -43 152 -110 152c-63 0 -124 -52 -124 -205c0 -137 44 -207 121 -207c72 0 113 54 113 142zM492 58c-21 -35 -72 -70 -160 -70c-177 0 -284 118 -284 332c0 217 127 333 297 333c61 0 124 -27 148 -75h2v66h449v-131h-261v-128h252v-128h-252v-128h272
v-129h-460v58h-3z" />
    <glyph glyph-name="Oslash.sc" horiz-adv-x="746" 
d="M373 531c-87 0 -124 -70 -124 -211c0 -29 1 -56 4 -78l208 245c-21 30 -51 44 -88 44zM373 111c86 0 125 68 125 209c0 30 -2 57 -6 81l-211 -250c19 -27 48 -40 92 -40zM698 320c0 -200 -113 -333 -325 -333c-77 0 -141 17 -191 47l-47 -55h-105l91 108
c-49 57 -73 137 -73 233c0 199 115 333 325 333c76 0 139 -16 189 -47l52 62h105l-96 -114c50 -57 75 -137 75 -234z" />
    <glyph glyph-name="P.sc" horiz-adv-x="630" 
d="M315 200h-55v-200h-196v644h270c156 0 269 -59 269 -215c0 -171 -114 -229 -288 -229zM260 332h60c61 0 99 31 99 97c0 63 -39 90 -99 90h-60v-187z" />
    <glyph glyph-name="Q.sc" horiz-adv-x="746" 
d="M529 -132c-43 85 -75 121 -146 121h-11c-230 0 -323 128 -323 331c0 199 112 334 326 333c217 0 323 -130 323 -333c0 -121 -43 -221 -129 -264v-5c65 -12 97 -43 122 -102zM374 527c-86 0 -116 -72 -116 -209c0 -140 31 -206 116 -206c83 0 115 65 115 206
c0 140 -47 209 -115 209z" />
    <glyph glyph-name="R.sc" horiz-adv-x="674" 
d="M260 347h59c49 0 102 21 102 90c0 61 -48 88 -100 88h-61v-178zM443 0l-120 235h-63v-235h-196v644h281c38 0 83 -1 131 -14c71 -20 145 -79 145 -181c0 -96 -52 -148 -123 -176v-2l150 -271h-205z" />
    <glyph glyph-name="S.sc" horiz-adv-x="626" 
d="M571 468h-193c-1 30 -22 59 -69 59c-36 0 -68 -18 -68 -55c0 -32 22 -51 68 -59l111 -20c108 -19 170 -85 170 -182c0 -153 -121 -225 -283 -225c-168 0 -275 71 -275 201h194c2 -47 37 -74 88 -74c55 0 82 26 82 62c0 31 -23 53 -73 62l-111 20c-86 15 -163 75 -163 190
c0 113 90 206 263 206c188 0 251 -74 259 -185z" />
    <glyph glyph-name="T.sc" horiz-adv-x="588" 
d="M564 644v-143h-172v-501h-196v501h-172v143h540z" />
    <glyph glyph-name="Tbar.sc" horiz-adv-x="588" 
d="M564 644v-143h-172v-117h135v-104h-135v-280h-196v280h-137v104h137v117h-172v143h540z" />
    <glyph glyph-name="Thorn.sc" horiz-adv-x="626" 
d="M321 250h6c52 2 85 29 85 81c0 56 -36 78 -90 78h-62v-159h61zM344 129h-84v-129h-196v644h196v-117h95c140 0 241 -53 241 -194c0 -154 -107 -204 -252 -204z" />
    <glyph glyph-name="U.sc" horiz-adv-x="689" 
d="M60 233v411h194v-404c0 -31 4 -58 17 -78c13 -21 36 -34 75 -34c40 0 64 13 77 36c11 19 16 46 16 76v404h190v-411c0 -164 -110 -247 -283 -247c-180 0 -286 77 -286 247z" />
    <glyph glyph-name="V.sc" horiz-adv-x="660" 
d="M220 0l-215 644h205l100 -354c20 -72 26 -124 26 -124h2s8 52 29 125l102 353h186l-213 -644h-222z" />
    <glyph glyph-name="W.sc" horiz-adv-x="923" 
d="M360 0h-189l-163 644h204l56 -283c13 -64 17 -131 17 -131h2s6 58 24 122l80 292h166l81 -292c18 -63 26 -122 26 -122h2s6 65 18 129l54 285h177l-162 -644h-182l-84 312c-17 65 -21 119 -21 119h-2s-4 -55 -21 -119z" />
    <glyph glyph-name="X.sc" horiz-adv-x="680" 
d="M8 0l221 329l-199 315h216l102 -182h1l105 182h198l-205 -308l218 -336h-227l-110 195h-2l-117 -195h-201z" />
    <glyph glyph-name="Y.sc" horiz-adv-x="623" 
d="M214 0v272l-210 372h207l109 -227h2l104 227h193l-209 -371v-273h-196z" />
    <glyph glyph-name="Z.sc" horiz-adv-x="601" 
d="M54 507v137h502v-122l-292 -384h295v-138h-521v122l292 385h-276z" />
    <glyph glyph-name="ampersand.sc" horiz-adv-x="718" 
d="M272 490c0 -27 7 -42 46 -81c37 28 63 52 63 89c0 34 -23 51 -54 51c-33 0 -55 -24 -55 -59zM246 276l-3 -3c-13 -14 -32 -38 -32 -73c0 -51 39 -87 91 -87c30 0 54 11 76 31zM669 0h-39c-79 0 -110 8 -161 54c-49 -43 -107 -67 -187 -67c-148 0 -242 72 -242 189
c0 77 58 137 132 185c-41 39 -62 79 -62 132c0 89 77 160 218 160c134 0 206 -64 205 -144s-60 -118 -134 -172l66 -66c15 26 31 56 49 88h169c-44 -70 -81 -135 -117 -190l6 -6c25 -25 46 -28 97 -28v-135z" />
    <glyph glyph-name="uni0237.sc" horiz-adv-x="429" 
d="M110 -3h-70v141h39c89 0 100 42 100 106v400h193v-424c0 -175 -102 -223 -262 -223z" />
    <glyph glyph-name="exclam.sc" horiz-adv-x="359" 
d="M180 -16c-56 0 -100 43 -100 95s44 95 100 95c54 0 98 -43 98 -95s-44 -95 -98 -95zM113 208l-39 436h211l-40 -436h-132z" />
    <glyph glyph-name="exclamdown.sc" horiz-adv-x="359" 
d="M246 436l39 -436h-211l40 436h132zM179 660c56 0 100 -43 100 -95s-44 -95 -100 -95c-54 0 -98 43 -98 95s44 95 98 95z" />
    <glyph glyph-name="germandbls.sc" horiz-adv-x="1252" 
d="M571 468h-193c-1 30 -22 59 -69 59c-36 0 -68 -18 -68 -55c0 -32 22 -51 68 -59l111 -20c108 -19 170 -85 170 -182c0 -153 -121 -225 -283 -225c-168 0 -275 71 -275 201h194c2 -47 37 -74 88 -74c55 0 82 26 82 62c0 31 -23 53 -73 62l-111 20c-86 15 -163 75 -163 190
c0 113 90 206 263 206c188 0 251 -74 259 -185zM1197 468h-193c-1 30 -22 59 -69 59c-36 0 -68 -18 -68 -55c0 -32 22 -51 68 -59l111 -20c108 -19 170 -85 170 -182c0 -153 -121 -225 -283 -225c-168 0 -275 71 -275 201h194c2 -47 37 -74 88 -74c55 0 82 26 82 62
c0 31 -23 53 -73 62l-111 20c-86 15 -163 75 -163 190c0 113 90 206 263 206c188 0 251 -74 259 -185z" />
    <glyph glyph-name="question.sc" horiz-adv-x="567" 
d="M282 -16c-56 0 -100 43 -100 95s44 95 100 95c54 0 98 -43 98 -95s-44 -95 -98 -95zM361 209h-156v49c0 30 8 61 43 89l61 48c38 30 42 47 42 74c0 34 -24 60 -69 60c-60 0 -84 -38 -84 -95h-168c0 121 81 219 255 219c158 0 247 -73 247 -180c0 -75 -31 -122 -88 -166
l-68 -52c-14 -11 -15 -15 -15 -35v-11z" />
    <glyph glyph-name="questiondown.sc" horiz-adv-x="567" 
d="M206 435h156v-49c0 -30 -8 -61 -43 -89l-61 -48c-38 -30 -42 -47 -42 -74c0 -34 24 -60 69 -60c60 0 84 38 84 95h168c0 -121 -81 -219 -255 -219c-158 0 -247 73 -247 180c0 75 31 122 88 166l68 52c14 11 15 15 15 35v11zM285 660c56 0 100 -43 100 -95
s-44 -95 -100 -95c-54 0 -98 43 -98 95s44 95 98 95z" />
    <glyph glyph-name="quotedblleft.sc" horiz-adv-x="550" 
d="M514 644l-68 -283h-184l131 283h121zM284 644l-68 -283h-184l131 283h121z" />
    <glyph glyph-name="space.tab" horiz-adv-x="300" 
 />
    <glyph glyph-name="quoteleft.sc" horiz-adv-x="322" 
d="M287 644l-68 -283h-189l136 283h121z" />
    <glyph glyph-name="quoteright.sc" horiz-adv-x="322" 
d="M35 361l68 283h189l-136 -283h-121z" />
    <glyph glyph-name="Lslash.sc" horiz-adv-x="568" 
d="M64 0v204l-67 -22v123l67 22v317h196v-251l172 57v-122l-172 -58v-130h248v-140h-444z" />
    <glyph glyph-name="AEacute.sc" horiz-adv-x="981" 
d="M469 253v260h-24l-126 -260h150zM261 135l-65 -135h-191l337 644h578v-131h-261v-128h252v-128h-252v-128h272v-129h-462v135h-208zM520 698l49 180h189l-88 -180h-150z" />
    <glyph glyph-name="Aacute.sc" horiz-adv-x="704" 
d="M343 493c0 -3 -6 -39 -33 -127l-42 -135h147l-41 136c-27 90 -29 126 -29 126h-2zM492 0l-36 107h-229l-37 -107h-185l239 644h215l240 -644h-207zM279 698l49 180h189l-88 -180h-150z" />
    <glyph glyph-name="Abreve.sc" horiz-adv-x="704" 
d="M343 493c0 -3 -6 -39 -33 -127l-42 -135h147l-41 136c-27 90 -29 126 -29 126h-2zM492 0l-36 107h-229l-37 -107h-185l239 644h215l240 -644h-207zM352 693c-97 0 -175 55 -175 185h124c0 -41 22 -62 54 -62s54 21 54 62h119c0 -130 -78 -185 -176 -185z" />
    <glyph glyph-name="Acircumflex.sc" horiz-adv-x="704" 
d="M343 493c0 -3 -6 -39 -33 -127l-42 -135h147l-41 136c-27 90 -29 126 -29 126h-2zM492 0l-36 107h-229l-37 -107h-185l239 644h215l240 -644h-207zM428 878l112 -180h-125l-63 64h-1l-60 -64h-117l112 180h142z" />
    <glyph glyph-name="Adieresis.sc" horiz-adv-x="704" 
d="M343 493c0 -3 -6 -39 -33 -127l-42 -135h147l-41 136c-27 90 -29 126 -29 126h-2zM492 0l-36 107h-229l-37 -107h-185l239 644h215l240 -644h-207zM380 721v157h160v-157h-160zM165 721v157h160v-157h-160z" />
    <glyph glyph-name="Agrave.sc" horiz-adv-x="704" 
d="M343 493c0 -3 -6 -39 -33 -127l-42 -135h147l-41 136c-27 90 -29 126 -29 126h-2zM492 0l-36 107h-229l-37 -107h-185l239 644h215l240 -644h-207zM386 878l49 -180h-150l-88 180h189z" />
    <glyph glyph-name="Amacron.sc" horiz-adv-x="704" 
d="M343 493c0 -3 -6 -39 -33 -127l-42 -135h147l-41 136c-27 90 -29 126 -29 126h-2zM492 0l-36 107h-229l-37 -107h-185l239 644h215l240 -644h-207zM168 721v120h369v-120h-369z" />
    <glyph glyph-name="Aogonek.sc" horiz-adv-x="704" 
d="M699 -188h-35c-121 0 -150 40 -150 89c0 32 17 68 72 99h-94l-36 107h-229l-37 -107h-185l239 644h215l238 -640c-35 -25 -43 -40 -43 -57c0 -20 14 -31 45 -31v-104zM343 493c0 -3 -6 -39 -33 -127l-42 -135h147l-41 136c-27 90 -29 126 -29 126h-2z" />
    <glyph glyph-name="Aring.sc" horiz-adv-x="704" 
d="M343 493c0 -3 -6 -39 -33 -127l-42 -135h147l-41 136c-27 90 -29 126 -29 126h-2zM492 0l-36 107h-229l-37 -107h-185l239 644h215l240 -644h-207zM352 680c-89 0 -143 53 -143 131s59 132 144 132c91 0 143 -54 143 -132s-58 -131 -144 -131zM352 871
c-33 0 -53 -24 -53 -61c0 -36 20 -60 54 -60c32 0 52 24 52 60c0 37 -19 61 -53 61z" />
    <glyph glyph-name="uni01FA.sc" horiz-adv-x="704" 
d="M343 493c0 -3 -6 -39 -33 -127l-42 -135h147l-41 136c-27 90 -29 126 -29 126h-2zM492 0l-36 107h-229l-37 -107h-185l239 644h215l240 -644h-207zM352 680c-89 0 -143 53 -143 131s59 132 144 132c91 0 143 -54 143 -132s-58 -131 -144 -131zM352 871
c-33 0 -53 -24 -53 -61c0 -36 20 -60 54 -60c32 0 52 24 52 60c0 37 -19 61 -53 61zM275 983l66 133h187l-108 -133h-145z" />
    <glyph glyph-name="Atilde.sc" horiz-adv-x="704" 
d="M343 493c0 -3 -6 -39 -33 -127l-42 -135h147l-41 136c-27 90 -29 126 -29 126h-2zM492 0l-36 107h-229l-37 -107h-185l239 644h215l240 -644h-207zM156 698c0 100 30 180 125 180c61 0 95 -45 137 -45c16 0 38 4 52 45h79c0 -101 -30 -180 -125 -180
c-61 0 -95 45 -137 45c-14 0 -38 -4 -50 -45h-81z" />
    <glyph glyph-name="Cacute.sc" horiz-adv-x="697" 
d="M366 524c-61 0 -109 -56 -109 -204c0 -147 39 -203 105 -203c50 0 87 31 92 114h200c-6 -162 -118 -245 -290 -245c-229 0 -316 132 -316 322c0 212 115 345 319 345c200 0 284 -90 288 -246h-201c-3 83 -38 117 -88 117zM290 698l49 180h189l-88 -180h-150z" />
    <glyph glyph-name="Ccaron.sc" horiz-adv-x="697" 
d="M366 524c-61 0 -109 -56 -109 -204c0 -147 39 -203 105 -203c50 0 87 31 92 114h200c-6 -162 -118 -245 -290 -245c-229 0 -316 132 -316 322c0 212 115 345 319 345c200 0 284 -90 288 -246h-201c-3 83 -38 117 -88 117zM286 698l-112 180h125l63 -64h1l60 64h117
l-112 -180h-142z" />
    <glyph glyph-name="Ccedilla.sc" horiz-adv-x="697" 
d="M365 -242c-73 0 -116 40 -118 85h88c5 -11 13 -20 32 -20c23 0 32 13 32 29c0 18 -12 29 -32 29c-13 0 -22 -5 -28 -13h-70l52 120c-197 15 -273 142 -273 320c0 212 115 345 319 345c200 0 284 -90 288 -246h-201c-3 83 -38 117 -88 117c-61 0 -109 -56 -109 -204
c0 -147 39 -203 105 -203c50 0 87 31 92 114h200c-6 -158 -112 -241 -277 -245l-18 -41h2c12 8 23 9 42 9c51 0 92 -37 92 -95c0 -52 -40 -101 -130 -101z" />
    <glyph glyph-name="Ccircumflex.sc" horiz-adv-x="697" 
d="M366 524c-61 0 -109 -56 -109 -204c0 -147 39 -203 105 -203c50 0 87 31 92 114h200c-6 -162 -118 -245 -290 -245c-229 0 -316 132 -316 322c0 212 115 345 319 345c200 0 284 -90 288 -246h-201c-3 83 -38 117 -88 117zM439 878l112 -180h-125l-63 64h-1l-60 -64h-117
l112 180h142z" />
    <glyph glyph-name="Cdotaccent.sc" horiz-adv-x="697" 
d="M366 524c-61 0 -109 -56 -109 -204c0 -147 39 -203 105 -203c50 0 87 31 92 114h200c-6 -162 -118 -245 -290 -245c-229 0 -316 132 -316 322c0 212 115 345 319 345c200 0 284 -90 288 -246h-201c-3 83 -38 117 -88 117zM283 721v157h160v-157h-160z" />
    <glyph glyph-name="Dcaron.sc" horiz-adv-x="710" 
d="M64 0v644h256c207 0 345 -99 345 -314c0 -217 -142 -330 -347 -330h-254zM260 130h55c85 0 142 47 142 197c0 142 -57 189 -139 189h-58v-386zM263 698l-112 180h125l63 -64h1l60 64h117l-112 -180h-142z" />
    <glyph glyph-name="Eacute.sc" horiz-adv-x="584" 
d="M64 0v644h459v-131h-263v-128h254v-128h-254v-128h274v-129h-470zM226 698l49 180h189l-88 -180h-150z" />
    <glyph glyph-name="Ecaron.sc" horiz-adv-x="584" 
d="M64 0v644h459v-131h-263v-128h254v-128h-254v-128h274v-129h-470zM222 698l-112 180h125l63 -64h1l60 64h117l-112 -180h-142z" />
    <glyph glyph-name="Ecircumflex.sc" horiz-adv-x="584" 
d="M64 0v644h459v-131h-263v-128h254v-128h-254v-128h274v-129h-470zM375 878l112 -180h-125l-63 64h-1l-60 -64h-117l112 180h142z" />
    <glyph glyph-name="Edieresis.sc" horiz-adv-x="584" 
d="M64 0v644h459v-131h-263v-128h254v-128h-254v-128h274v-129h-470zM327 721v157h160v-157h-160zM112 721v157h160v-157h-160z" />
    <glyph glyph-name="Edotaccent.sc" horiz-adv-x="584" 
d="M64 0v644h459v-131h-263v-128h254v-128h-254v-128h274v-129h-470zM219 721v157h160v-157h-160z" />
    <glyph glyph-name="Egrave.sc" horiz-adv-x="584" 
d="M64 0v644h459v-131h-263v-128h254v-128h-254v-128h274v-129h-470zM333 878l49 -180h-150l-88 180h189z" />
    <glyph glyph-name="Emacron.sc" horiz-adv-x="584" 
d="M64 0v644h459v-131h-263v-128h254v-128h-254v-128h274v-129h-470zM115 721v120h369v-120h-369z" />
    <glyph glyph-name="Eogonek.sc" horiz-adv-x="584" 
d="M532 -84v-104h-35c-121 0 -150 40 -150 89c0 34 19 73 82 99h-365v644h459v-131h-263v-128h254v-128h-254v-128h274l-1 -129c-38 -24 -45 -40 -45 -55c0 -18 13 -29 44 -29z" />
    <glyph glyph-name="Gbreve.sc" horiz-adv-x="726" 
d="M375 527c-74 0 -122 -61 -122 -207c0 -162 53 -207 122 -207s109 41 116 109l1 10h-121v121h295v-353h-139v83h-3c-32 -58 -91 -96 -181 -96c-215 0 -295 142 -295 320c0 208 123 346 328 346c183 0 278 -76 288 -221h-197c-7 59 -38 95 -92 95zM357 693
c-97 0 -175 55 -175 185h124c0 -41 22 -62 54 -62s54 21 54 62h119c0 -130 -78 -185 -176 -185z" />
    <glyph glyph-name="Gcircumflex.sc" horiz-adv-x="726" 
d="M375 527c-74 0 -122 -61 -122 -207c0 -162 53 -207 122 -207s109 41 116 109l1 10h-121v121h295v-353h-139v83h-3c-32 -58 -91 -96 -181 -96c-215 0 -295 142 -295 320c0 208 123 346 328 346c183 0 278 -76 288 -221h-197c-7 59 -38 95 -92 95zM433 878l112 -180h-125
l-63 64h-1l-60 -64h-117l112 180h142z" />
    <glyph glyph-name="Gcommaaccent.sc" horiz-adv-x="726" 
d="M375 527c-74 0 -122 -61 -122 -207c0 -162 53 -207 122 -207s109 41 116 109l1 10h-121v121h295v-353h-139v83h-3c-32 -58 -91 -96 -181 -96c-215 0 -295 142 -295 320c0 208 123 346 328 346c183 0 278 -76 288 -221h-197c-7 59 -38 95 -92 95zM239 -228l26 166h185
l-79 -166h-132z" />
    <glyph glyph-name="Gdotaccent.sc" horiz-adv-x="726" 
d="M375 527c-74 0 -122 -61 -122 -207c0 -162 53 -207 122 -207s109 41 116 109l1 10h-121v121h295v-353h-139v83h-3c-32 -58 -91 -96 -181 -96c-215 0 -295 142 -295 320c0 208 123 346 328 346c183 0 278 -76 288 -221h-197c-7 59 -38 95 -92 95zM277 721v157h160v-157
h-160z" />
    <glyph glyph-name="Hcircumflex.sc" horiz-adv-x="718" 
d="M260 250v-250h-196v644h196v-256h197v256h197v-644h-197v250h-197zM435 878l112 -180h-125l-63 64h-1l-60 -64h-117l112 180h142z" />
    <glyph glyph-name="Iacute.sc" horiz-adv-x="324" 
d="M64 0v644h196v-644h-196zM89 698l49 180h189l-88 -180h-150z" />
    <glyph glyph-name="questiondown.uc" horiz-adv-x="621" 
d="M311 569c-63 0 -114 47 -114 105c0 59 51 106 114 106s115 -47 115 -106c0 -58 -52 -105 -115 -105zM223 190c0 -45 27 -72 83 -72c45 0 97 20 98 123h189c1 -157 -95 -272 -292 -272c-193 0 -271 89 -271 214c0 85 31 135 101 192l84 69c10 8 14 19 14 36v39h167v-64
c0 -59 -3 -77 -54 -119l-61 -49c-34 -30 -58 -50 -58 -97z" />
    <glyph glyph-name="Icircumflex.sc" horiz-adv-x="324" 
d="M64 0v644h196v-644h-196zM238 878l112 -180h-125l-63 64h-1l-60 -64h-117l112 180h142z" />
    <glyph glyph-name="Idieresis.sc" horiz-adv-x="324" 
d="M64 0v644h196v-644h-196zM190 721v157h160v-157h-160zM-25 721v157h160v-157h-160z" />
    <glyph glyph-name="Igrave.sc" horiz-adv-x="324" 
d="M64 0v644h196v-644h-196zM196 878l49 -180h-150l-88 180h189z" />
    <glyph glyph-name="Imacron.sc" horiz-adv-x="324" 
d="M64 0v644h196v-644h-196zM-22 721v120h369v-120h-369z" />
    <glyph glyph-name="Iogonek.sc" horiz-adv-x="324" 
d="M261 -188h-35c-121 0 -150 40 -150 89c0 34 19 73 82 99h-94v644h196v-644c-36 -24 -43 -40 -43 -55c0 -18 13 -29 44 -29v-104z" />
    <glyph glyph-name="Itilde.sc" horiz-adv-x="324" 
d="M64 0v644h196v-644h-196zM-34 698c0 100 30 180 125 180c61 0 95 -45 137 -45c16 0 38 4 52 45h79c0 -101 -30 -180 -125 -180c-61 0 -95 45 -137 45c-14 0 -38 -4 -50 -45h-81z" />
    <glyph glyph-name="Jcircumflex.sc" horiz-adv-x="429" 
d="M110 -3h-70v141h39c89 0 100 42 100 106v400h193v-424c0 -175 -102 -223 -262 -223zM352 878l112 -180h-125l-63 64h-1l-60 -64h-117l112 180h142z" />
    <glyph glyph-name="Kcommaaccent.sc" horiz-adv-x="688" 
d="M260 181v-181h-196v644h196v-257l208 257h197l-225 -273l230 -371h-219l-142 239zM249 -228l26 166h185l-79 -166h-132z" />
    <glyph glyph-name="Lacute.sc" horiz-adv-x="568" 
d="M64 0v644h196v-504h248v-140h-444zM91 698l49 180h189l-88 -180h-150z" />
    <glyph glyph-name="Lcaron.sc" horiz-adv-x="568" 
d="M64 0v644h196v-504h248v-140h-444zM334 444v200h146l-60 -200h-86z" />
    <glyph glyph-name="Lcommaaccent.sc" horiz-adv-x="568" 
d="M64 0v644h196v-504h248v-140h-444zM168 -228l26 166h185l-79 -166h-132z" />
    <glyph glyph-name="Nacute.sc" horiz-adv-x="713" 
d="M64 0v644h203l145 -255c43 -69 60 -118 60 -118h2v373h175v-644h-190l-155 266c-44 68 -65 124 -65 124h-3v-390h-172zM283 698l49 180h189l-88 -180h-150z" />
    <glyph glyph-name="Ncaron.sc" horiz-adv-x="713" 
d="M64 0v644h203l145 -255c43 -69 60 -118 60 -118h2v373h175v-644h-190l-155 266c-44 68 -65 124 -65 124h-3v-390h-172zM279 698l-112 180h125l63 -64h1l60 64h117l-112 -180h-142z" />
    <glyph glyph-name="Ncommaaccent.sc" horiz-adv-x="713" 
d="M64 0v644h203l145 -255c43 -69 60 -118 60 -118h2v373h175v-644h-190l-155 266c-44 68 -65 124 -65 124h-3v-390h-172zM238 -228l26 166h185l-79 -166h-132z" />
    <glyph glyph-name="Ntilde.sc" horiz-adv-x="713" 
d="M64 0v644h203l145 -255c43 -69 60 -118 60 -118h2v373h175v-644h-190l-155 266c-44 68 -65 124 -65 124h-3v-390h-172zM160 698c0 100 30 180 125 180c61 0 95 -45 137 -45c16 0 38 4 52 45h79c0 -101 -30 -180 -125 -180c-61 0 -95 45 -137 45c-14 0 -38 -4 -50 -45h-81
z" />
    <glyph glyph-name="Oacute.sc" horiz-adv-x="746" 
d="M48 320c0 199 115 333 325 333c221 0 325 -130 325 -333c0 -200 -113 -333 -325 -333c-229 0 -325 130 -325 333zM373 115c81 0 116 67 116 205s-49 207 -116 207c-82 0 -115 -69 -115 -207c0 -139 28 -205 115 -205zM300 698l49 180h189l-88 -180h-150z" />
    <glyph glyph-name="Obreve.sc" horiz-adv-x="746" 
d="M48 320c0 199 115 333 325 333c221 0 325 -130 325 -333c0 -200 -113 -333 -325 -333c-229 0 -325 130 -325 333zM373 115c81 0 116 67 116 205s-49 207 -116 207c-82 0 -115 -69 -115 -207c0 -139 28 -205 115 -205zM373 693c-97 0 -175 55 -175 185h124
c0 -41 22 -62 54 -62s54 21 54 62h119c0 -130 -78 -185 -176 -185z" />
    <glyph glyph-name="Ocircumflex.sc" horiz-adv-x="746" 
d="M48 320c0 199 115 333 325 333c221 0 325 -130 325 -333c0 -200 -113 -333 -325 -333c-229 0 -325 130 -325 333zM373 115c81 0 116 67 116 205s-49 207 -116 207c-82 0 -115 -69 -115 -207c0 -139 28 -205 115 -205zM449 878l112 -180h-125l-63 64h-1l-60 -64h-117
l112 180h142z" />
    <glyph glyph-name="Odieresis.sc" horiz-adv-x="746" 
d="M48 320c0 199 115 333 325 333c221 0 325 -130 325 -333c0 -200 -113 -333 -325 -333c-229 0 -325 130 -325 333zM373 115c81 0 116 67 116 205s-49 207 -116 207c-82 0 -115 -69 -115 -207c0 -139 28 -205 115 -205zM401 721v157h160v-157h-160zM186 721v157h160v-157
h-160z" />
    <glyph glyph-name="Ograve.sc" horiz-adv-x="746" 
d="M48 320c0 199 115 333 325 333c221 0 325 -130 325 -333c0 -200 -113 -333 -325 -333c-229 0 -325 130 -325 333zM373 115c81 0 116 67 116 205s-49 207 -116 207c-82 0 -115 -69 -115 -207c0 -139 28 -205 115 -205zM407 878l49 -180h-150l-88 180h189z" />
    <glyph glyph-name="Ohungarumlaut.sc" horiz-adv-x="746" 
d="M48 320c0 199 115 333 325 333c221 0 325 -130 325 -333c0 -200 -113 -333 -325 -333c-229 0 -325 130 -325 333zM373 115c81 0 116 67 116 205s-49 207 -116 207c-82 0 -115 -69 -115 -207c0 -139 28 -205 115 -205zM398 698l51 180h147l-85 -180h-113zM222 698l31 180
h147l-65 -180h-113z" />
    <glyph glyph-name="Omacron.sc" horiz-adv-x="746" 
d="M48 320c0 199 115 333 325 333c221 0 325 -130 325 -333c0 -200 -113 -333 -325 -333c-229 0 -325 130 -325 333zM373 115c81 0 116 67 116 205s-49 207 -116 207c-82 0 -115 -69 -115 -207c0 -139 28 -205 115 -205zM189 721v120h369v-120h-369z" />
    <glyph glyph-name="Oslashacute.sc" horiz-adv-x="746" 
d="M373 531c-87 0 -124 -70 -124 -211c0 -29 1 -56 4 -78l208 245c-21 30 -51 44 -88 44zM373 111c86 0 125 68 125 209c0 30 -2 57 -6 81l-211 -250c19 -27 48 -40 92 -40zM698 320c0 -200 -113 -333 -325 -333c-77 0 -141 17 -191 47l-47 -55h-105l91 108
c-49 57 -73 137 -73 233c0 199 115 333 325 333c76 0 139 -16 189 -47l52 62h105l-96 -114c50 -57 75 -137 75 -234zM301 698l49 180h189l-88 -180h-150z" />
    <glyph glyph-name="Otilde.sc" horiz-adv-x="746" 
d="M48 320c0 199 115 333 325 333c221 0 325 -130 325 -333c0 -200 -113 -333 -325 -333c-229 0 -325 130 -325 333zM373 115c81 0 116 67 116 205s-49 207 -116 207c-82 0 -115 -69 -115 -207c0 -139 28 -205 115 -205zM177 698c0 100 30 180 125 180c61 0 95 -45 137 -45
c16 0 38 4 52 45h79c0 -101 -30 -180 -125 -180c-61 0 -95 45 -137 45c-14 0 -38 -4 -50 -45h-81z" />
    <glyph glyph-name="Racute.sc" horiz-adv-x="674" 
d="M260 347h59c49 0 102 21 102 90c0 61 -48 88 -100 88h-61v-178zM443 0l-120 235h-63v-235h-196v644h281c38 0 83 -1 131 -14c71 -20 145 -79 145 -181c0 -96 -52 -148 -123 -176v-2l150 -271h-205zM244 698l49 180h189l-88 -180h-150z" />
    <glyph glyph-name="Rcaron.sc" horiz-adv-x="674" 
d="M260 347h59c49 0 102 21 102 90c0 61 -48 88 -100 88h-61v-178zM443 0l-120 235h-63v-235h-196v644h281c38 0 83 -1 131 -14c71 -20 145 -79 145 -181c0 -96 -52 -148 -123 -176v-2l150 -271h-205zM240 698l-112 180h125l63 -64h1l60 64h117l-112 -180h-142z" />
    <glyph glyph-name="Rcommaaccent.sc" horiz-adv-x="664" 
d="M260 347h59c49 0 102 21 102 90c0 61 -48 88 -100 88h-61v-178zM443 0l-120 235h-63v-235h-196v644h281c38 0 83 -1 131 -14c71 -20 145 -79 145 -181c0 -96 -52 -148 -123 -176v-2l150 -271h-205zM229 -208l26 166h185l-79 -166h-132z" />
    <glyph glyph-name="Sacute.sc" horiz-adv-x="626" 
d="M571 468h-193c-1 30 -22 59 -69 59c-36 0 -68 -18 -68 -55c0 -32 22 -51 68 -59l111 -20c108 -19 170 -85 170 -182c0 -153 -121 -225 -283 -225c-168 0 -275 71 -275 201h194c2 -47 37 -74 88 -74c55 0 82 26 82 62c0 31 -23 53 -73 62l-111 20c-86 15 -163 75 -163 190
c0 113 90 206 263 206c188 0 251 -74 259 -185zM238 698l49 180h189l-88 -180h-150z" />
    <glyph glyph-name="Scaron.sc" horiz-adv-x="626" 
d="M571 468h-193c-1 30 -22 59 -69 59c-36 0 -68 -18 -68 -55c0 -32 22 -51 68 -59l111 -20c108 -19 170 -85 170 -182c0 -153 -121 -225 -283 -225c-168 0 -275 71 -275 201h194c2 -47 37 -74 88 -74c55 0 82 26 82 62c0 31 -23 53 -73 62l-111 20c-86 15 -163 75 -163 190
c0 113 90 206 263 206c188 0 251 -74 259 -185zM234 698l-112 180h125l63 -64h1l60 64h117l-112 -180h-142z" />
    <glyph glyph-name="Scedilla.sc" horiz-adv-x="626" 
d="M313 -242c-73 0 -116 40 -118 85h88c5 -11 13 -20 32 -20c23 0 32 13 32 29c0 18 -12 29 -32 29c-13 0 -22 -5 -28 -13h-70l52 119c-146 10 -237 80 -237 200h194c2 -47 37 -74 88 -74c55 0 82 26 82 62c0 31 -23 53 -73 62l-111 20c-86 15 -163 75 -163 190
c0 113 90 206 263 206c188 0 251 -74 259 -185h-193c-1 30 -22 59 -69 59c-36 0 -68 -18 -68 -55c0 -32 22 -51 68 -59l111 -20c108 -19 170 -85 170 -182c0 -147 -112 -219 -265 -225l-18 -41h2c12 8 23 9 42 9c51 0 92 -37 92 -95c0 -52 -40 -101 -130 -101z" />
    <glyph glyph-name="Scircumflex.sc" horiz-adv-x="626" 
d="M571 468h-193c-1 30 -22 59 -69 59c-36 0 -68 -18 -68 -55c0 -32 22 -51 68 -59l111 -20c108 -19 170 -85 170 -182c0 -153 -121 -225 -283 -225c-168 0 -275 71 -275 201h194c2 -47 37 -74 88 -74c55 0 82 26 82 62c0 31 -23 53 -73 62l-111 20c-86 15 -163 75 -163 190
c0 113 90 206 263 206c188 0 251 -74 259 -185zM387 878l112 -180h-125l-63 64h-1l-60 -64h-117l112 180h142z" />
    <glyph glyph-name="Scommaaccent.sc" horiz-adv-x="626" 
d="M571 468h-193c-1 30 -22 59 -69 59c-36 0 -68 -18 -68 -55c0 -32 22 -51 68 -59l111 -20c108 -19 170 -85 170 -182c0 -153 -121 -225 -283 -225c-168 0 -275 71 -275 201h194c2 -47 37 -74 88 -74c55 0 82 26 82 62c0 31 -23 53 -73 62l-111 20c-86 15 -163 75 -163 190
c0 113 90 206 263 206c188 0 251 -74 259 -185zM193 -228l26 166h185l-79 -166h-132z" />
    <glyph glyph-name="Tcaron.sc" horiz-adv-x="588" 
d="M564 644v-143h-172v-501h-196v501h-172v143h540zM217 698l-112 180h125l63 -64h1l60 64h117l-112 -180h-142z" />
    <glyph glyph-name="Tcommaaccent.sc" horiz-adv-x="588" 
d="M564 644v-143h-172v-501h-196v501h-172v143h540zM176 -228l26 166h185l-79 -166h-132z" />
    <glyph glyph-name="Uacute.sc" horiz-adv-x="689" 
d="M60 233v411h194v-404c0 -31 4 -58 17 -78c13 -21 36 -34 75 -34c40 0 64 13 77 36c11 19 16 46 16 76v404h190v-411c0 -164 -110 -247 -283 -247c-180 0 -286 77 -286 247zM271 698l49 180h189l-88 -180h-150z" />
    <glyph glyph-name="Ubreve.sc" horiz-adv-x="689" 
d="M60 233v411h194v-404c0 -31 4 -58 17 -78c13 -21 36 -34 75 -34c40 0 64 13 77 36c11 19 16 46 16 76v404h190v-411c0 -164 -110 -247 -283 -247c-180 0 -286 77 -286 247zM344 693c-97 0 -175 55 -175 185h124c0 -41 22 -62 54 -62s54 21 54 62h119
c0 -130 -78 -185 -176 -185z" />
    <glyph glyph-name="Ucircumflex.sc" horiz-adv-x="689" 
d="M60 233v411h194v-404c0 -31 4 -58 17 -78c13 -21 36 -34 75 -34c40 0 64 13 77 36c11 19 16 46 16 76v404h190v-411c0 -164 -110 -247 -283 -247c-180 0 -286 77 -286 247zM420 878l112 -180h-125l-63 64h-1l-60 -64h-117l112 180h142z" />
    <glyph glyph-name="Udieresis.sc" horiz-adv-x="689" 
d="M60 233v411h194v-404c0 -31 4 -58 17 -78c13 -21 36 -34 75 -34c40 0 64 13 77 36c11 19 16 46 16 76v404h190v-411c0 -164 -110 -247 -283 -247c-180 0 -286 77 -286 247zM372 721v157h160v-157h-160zM157 721v157h160v-157h-160z" />
    <glyph glyph-name="Ugrave.sc" horiz-adv-x="689" 
d="M60 233v411h194v-404c0 -31 4 -58 17 -78c13 -21 36 -34 75 -34c40 0 64 13 77 36c11 19 16 46 16 76v404h190v-411c0 -164 -110 -247 -283 -247c-180 0 -286 77 -286 247zM378 878l49 -180h-150l-88 180h189z" />
    <glyph glyph-name="Uhungarumlaut.sc" horiz-adv-x="689" 
d="M60 233v411h194v-404c0 -31 4 -58 17 -78c13 -21 36 -34 75 -34c40 0 64 13 77 36c11 19 16 46 16 76v404h190v-411c0 -164 -110 -247 -283 -247c-180 0 -286 77 -286 247zM369 698l51 180h147l-85 -180h-113zM193 698l31 180h147l-65 -180h-113z" />
    <glyph glyph-name="Umacron.sc" horiz-adv-x="689" 
d="M60 233v411h194v-404c0 -31 4 -58 17 -78c13 -21 36 -34 75 -34c40 0 64 13 77 36c11 19 16 46 16 76v404h190v-411c0 -164 -110 -247 -283 -247c-180 0 -286 77 -286 247zM160 721v120h369v-120h-369z" />
    <glyph glyph-name="Uogonek.sc" horiz-adv-x="689" 
d="M60 233v411h194v-404c0 -31 4 -58 17 -78c13 -21 36 -34 75 -34c40 0 64 13 77 36c11 19 16 46 16 76v404h190v-411c0 -145 -84 -212 -181 -235c-75 -19 -89 -39 -89 -64c0 -20 17 -29 45 -29v-104h-35c-121 0 -150 40 -150 89c0 36 20 72 80 97v1
c-151 13 -239 90 -239 245z" />
    <glyph glyph-name="Uring.sc" horiz-adv-x="689" 
d="M60 233v411h194v-404c0 -31 4 -58 17 -78c13 -21 36 -34 75 -34c40 0 64 13 77 36c11 19 16 46 16 76v404h190v-411c0 -164 -110 -247 -283 -247c-180 0 -286 77 -286 247zM344 680c-89 0 -143 53 -143 131s59 132 144 132c91 0 143 -54 143 -132s-58 -131 -144 -131z
M344 871c-33 0 -53 -24 -53 -61c0 -36 20 -60 54 -60c32 0 52 24 52 60c0 37 -19 61 -53 61z" />
    <glyph glyph-name="Utilde.sc" horiz-adv-x="689" 
d="M60 233v411h194v-404c0 -31 4 -58 17 -78c13 -21 36 -34 75 -34c40 0 64 13 77 36c11 19 16 46 16 76v404h190v-411c0 -164 -110 -247 -283 -247c-180 0 -286 77 -286 247zM148 698c0 100 30 180 125 180c61 0 95 -45 137 -45c16 0 38 4 52 45h79
c0 -101 -30 -180 -125 -180c-61 0 -95 45 -137 45c-14 0 -38 -4 -50 -45h-81z" />
    <glyph glyph-name="Wacute.sc" horiz-adv-x="923" 
d="M360 0h-189l-163 644h204l56 -283c13 -64 17 -131 17 -131h2s6 58 24 122l80 292h166l81 -292c18 -63 26 -122 26 -122h2s6 65 18 129l54 285h177l-162 -644h-182l-84 312c-17 65 -21 119 -21 119h-2s-4 -55 -21 -119zM402 698l49 180h189l-88 -180h-150z" />
    <glyph glyph-name="Wcircumflex.sc" horiz-adv-x="923" 
d="M360 0h-189l-163 644h204l56 -283c13 -64 17 -131 17 -131h2s6 58 24 122l80 292h166l81 -292c18 -63 26 -122 26 -122h2s6 65 18 129l54 285h177l-162 -644h-182l-84 312c-17 65 -21 119 -21 119h-2s-4 -55 -21 -119zM537 878l112 -180h-125l-63 64h-1l-60 -64h-117
l112 180h142z" />
    <glyph glyph-name="Wdieresis.sc" horiz-adv-x="923" 
d="M360 0h-189l-163 644h204l56 -283c13 -64 17 -131 17 -131h2s6 58 24 122l80 292h166l81 -292c18 -63 26 -122 26 -122h2s6 65 18 129l54 285h177l-162 -644h-182l-84 312c-17 65 -21 119 -21 119h-2s-4 -55 -21 -119zM489 721v157h160v-157h-160zM274 721v157h160v-157
h-160z" />
    <glyph glyph-name="Wgrave.sc" horiz-adv-x="923" 
d="M360 0h-189l-163 644h204l56 -283c13 -64 17 -131 17 -131h2s6 58 24 122l80 292h166l81 -292c18 -63 26 -122 26 -122h2s6 65 18 129l54 285h177l-162 -644h-182l-84 312c-17 65 -21 119 -21 119h-2s-4 -55 -21 -119zM495 878l49 -180h-150l-88 180h189z" />
    <glyph glyph-name="Yacute.sc" horiz-adv-x="623" 
d="M214 0v272l-210 372h207l109 -227h2l104 227h193l-209 -371v-273h-196zM238 698l49 180h189l-88 -180h-150z" />
    <glyph glyph-name="Ycircumflex.sc" horiz-adv-x="623" 
d="M214 0v272l-210 372h207l109 -227h2l104 227h193l-209 -371v-273h-196zM387 878l112 -180h-125l-63 64h-1l-60 -64h-117l112 180h142z" />
    <glyph glyph-name="Ydieresis.sc" horiz-adv-x="623" 
d="M214 0v272l-210 372h207l109 -227h2l104 227h193l-209 -371v-273h-196zM339 721v157h160v-157h-160zM124 721v157h160v-157h-160z" />
    <glyph glyph-name="Ygrave.sc" horiz-adv-x="623" 
d="M214 0v272l-210 372h207l109 -227h2l104 227h193l-209 -371v-273h-196zM345 878l49 -180h-150l-88 180h189z" />
    <glyph glyph-name="Zacute.sc" horiz-adv-x="601" 
d="M54 507v137h502v-122l-292 -384h295v-138h-521v122l292 385h-276zM225 698l49 180h189l-88 -180h-150z" />
    <glyph glyph-name="Zcaron.sc" horiz-adv-x="601" 
d="M54 507v137h502v-122l-292 -384h295v-138h-521v122l292 385h-276zM221 698l-112 180h125l63 -64h1l60 64h117l-112 -180h-142z" />
    <glyph glyph-name="Zdotaccent.sc" horiz-adv-x="601" 
d="M54 507v137h502v-122l-292 -384h295v-138h-521v122l292 385h-276zM218 721v157h160v-157h-160z" />
    <glyph glyph-name="Ldot.sc" horiz-adv-x="568" 
d="M371 305v146h150v-146h-150zM64 0v644h196v-504h248v-140h-444z" />
    <glyph glyph-name="napostrophe.sc" horiz-adv-x="713" 
d="M64 0v644h203l145 -255c43 -69 60 -118 60 -118h2v373h175v-644h-190l-155 266c-44 68 -65 124 -65 124h-3v-390h-172z" />
    <glyph glyph-name="Hbar.sc" horiz-adv-x="718" 
d="M457 386v85h-197v-85h197zM260 250v-250h-196v471h-58v96h58v77h196v-77h197v77h197v-77h59v-96h-59v-471h-197v250h-197z" />
    <glyph glyph-name="Idotaccent.sc" horiz-adv-x="324" 
d="M64 0v644h196v-644h-196zM81 721v157h160v-157h-160z" />
    <glyph glyph-name="Ebreve.sc" horiz-adv-x="584" 
d="M64 0v644h459v-131h-263v-128h254v-128h-254v-128h274v-129h-470zM292 693c-97 0 -175 55 -175 185h124c0 -41 22 -62 54 -62s54 21 54 62h119c0 -130 -78 -185 -176 -185z" />
    <glyph glyph-name="yen.tab" 
d="M204 0v130h-177v80h177v75h-179v80h176l-196 376h214l89 -211h2l89 211h196l-196 -376h176v-80h-178v-75h180v-80h-180v-130h-193z" />
    <glyph glyph-name="eight.den" horiz-adv-x="448" 
d="M45 319c0 72 58 119 179 119s178 -47 178 -120c0 -49 -25 -76 -64 -92v-2c53 -14 82 -44 82 -100c0 -78 -67 -133 -196 -133c-140 0 -196 51 -196 133c0 51 29 84 81 100v2c-38 14 -64 43 -64 93zM224 358c-29 0 -50 -15 -50 -49c0 -32 20 -50 50 -50s50 18 50 50
c0 34 -20 49 -50 49zM224 72c34 0 60 21 60 57c0 38 -24 57 -60 57c-37 0 -61 -19 -61 -57c0 -36 26 -57 61 -57z" />
    <glyph glyph-name="five.den" horiz-adv-x="446" 
d="M276 140c0 31 -22 55 -54 55c-24 0 -42 -11 -54 -25h-120l19 261h312v-101h-209l-8 -97h2c17 26 50 49 105 49c87 0 140 -47 140 -132c0 -86 -55 -159 -190 -159c-144 0 -182 69 -186 138h136c2 -28 25 -43 52 -43c33 0 55 22 55 54z" />
    <glyph glyph-name="four.den" horiz-adv-x="466" 
d="M147 176h115v176h-3s-13 -38 -38 -73zM438 85h-55v-85h-125v85h-230v88l192 258h163v-248h55v-98z" />
    <glyph glyph-name="nine.den" horiz-adv-x="466" 
d="M228 347c-26 0 -59 -17 -59 -59s28 -62 59 -62s57 18 57 62c0 41 -32 59 -57 59zM38 110c4 0 138 1 138 1c5 -22 18 -33 47 -33c48 0 68 47 68 111h-3c-20 -32 -55 -44 -102 -44c-80 0 -149 40 -149 139c0 78 62 152 196 152c124 0 200 -78 200 -215
c0 -146 -82 -230 -218 -230c-112 0 -174 56 -177 119z" />
    <glyph glyph-name="one.den" horiz-adv-x="317" 
d="M117 0v268h-96v91h15c24 0 49 4 67 15c15 10 25 30 25 57h127v-431h-138z" />
    <glyph glyph-name="seven.den" horiz-adv-x="405" 
d="M59 0l163 330h-193v101h353v-70l-179 -361h-144z" />
    <glyph glyph-name="six.den" horiz-adv-x="468" 
d="M422 321h-133c-5 19 -20 28 -42 28c-33 0 -66 -18 -70 -111h2c27 35 59 51 110 51c84 0 144 -47 144 -139c0 -81 -59 -159 -193 -159c-123 0 -203 68 -203 215c0 153 91 230 210 230c125 0 165 -50 175 -115zM244 79c29 0 58 19 58 65c0 41 -24 64 -58 64
c-35 0 -59 -20 -59 -64c0 -46 29 -65 59 -65z" />
    <glyph glyph-name="three.den" horiz-adv-x="450" 
d="M224 180h-55v77h42c29 0 53 15 53 45c0 29 -20 44 -46 44c-35 0 -47 -25 -48 -44h-133c4 61 44 138 191 138c115 0 174 -53 174 -117c0 -48 -27 -85 -89 -97v-2c71 -11 100 -49 100 -102c0 -68 -63 -131 -189 -131c-146 0 -188 71 -189 138h137c1 -28 23 -42 49 -42
c37 0 55 22 55 48c0 27 -20 45 -52 45z" />
    <glyph glyph-name="two.den" horiz-adv-x="444" 
d="M166 274h-132c2 99 62 164 191 164c127 0 181 -56 181 -130c0 -67 -39 -106 -106 -157l-64 -49v-3h171v-99h-377v67l184 155c42 35 53 52 53 78c0 28 -16 44 -42 44c-33 0 -58 -17 -59 -70z" />
    <glyph glyph-name="zero.den" horiz-adv-x="493" 
d="M37 213c0 152 84 226 208 226c137 0 211 -72 211 -226c0 -150 -79 -224 -211 -224c-137 0 -208 72 -208 224zM245 88c32 0 58 24 58 127c0 104 -31 129 -58 129c-30 0 -57 -26 -57 -129c0 -110 25 -127 57 -127z" />
    <glyph glyph-name="zero.num" horiz-adv-x="493" 
d="M37 547c0 152 84 226 208 226c137 0 211 -72 211 -226c0 -150 -79 -224 -211 -224c-137 0 -208 72 -208 224zM245 422c32 0 58 24 58 127c0 104 -31 129 -58 129c-30 0 -57 -26 -57 -129c0 -110 25 -127 57 -127z" />
    <glyph glyph-name="one.num" horiz-adv-x="317" 
d="M117 334v268h-96v91h15c24 0 49 4 67 15c15 10 25 30 25 57h127v-431h-138z" />
    <glyph glyph-name="two.num" horiz-adv-x="444" 
d="M166 608h-132c2 99 62 164 191 164c127 0 181 -56 181 -130c0 -67 -39 -106 -106 -157l-64 -49v-3h171v-99h-377v67l184 155c42 35 53 52 53 78c0 28 -16 44 -42 44c-33 0 -58 -17 -59 -70z" />
    <glyph glyph-name="three.num" horiz-adv-x="450" 
d="M224 514h-55v77h42c29 0 53 15 53 45c0 29 -20 44 -46 44c-35 0 -47 -25 -48 -44h-133c4 61 44 138 191 138c115 0 174 -53 174 -117c0 -48 -27 -85 -89 -97v-2c71 -11 100 -49 100 -102c0 -68 -63 -131 -189 -131c-146 0 -188 71 -189 138h137c1 -28 23 -42 49 -42
c37 0 55 22 55 48c0 27 -20 45 -52 45z" />
    <glyph glyph-name="four.num" horiz-adv-x="466" 
d="M147 510h115v176h-3s-13 -38 -38 -73zM438 419h-55v-85h-125v85h-230v88l192 258h163v-248h55v-98z" />
    <glyph glyph-name="five.num" horiz-adv-x="446" 
d="M276 474c0 31 -22 55 -54 55c-24 0 -42 -11 -54 -25h-120l19 261h312v-101h-209l-8 -97h2c17 26 50 49 105 49c87 0 140 -47 140 -132c0 -86 -55 -159 -190 -159c-144 0 -182 69 -186 138h136c2 -28 25 -43 52 -43c33 0 55 22 55 54z" />
    <glyph glyph-name="six.num" horiz-adv-x="468" 
d="M422 655h-133c-5 19 -20 28 -42 28c-33 0 -66 -18 -70 -111h2c27 35 59 51 110 51c84 0 144 -47 144 -139c0 -81 -59 -159 -193 -159c-123 0 -203 68 -203 215c0 153 91 230 210 230c125 0 165 -50 175 -115zM244 413c29 0 58 19 58 65c0 41 -24 64 -58 64
c-35 0 -59 -20 -59 -64c0 -46 29 -65 59 -65z" />
    <glyph glyph-name="seven.num" horiz-adv-x="405" 
d="M59 334l163 330h-193v101h353v-70l-179 -361h-144z" />
    <glyph glyph-name="eight.num" horiz-adv-x="448" 
d="M45 653c0 72 58 119 179 119s178 -47 178 -120c0 -49 -25 -76 -64 -92v-2c53 -14 82 -44 82 -100c0 -78 -67 -133 -196 -133c-140 0 -196 51 -196 133c0 51 29 84 81 100v2c-38 14 -64 43 -64 93zM224 692c-29 0 -50 -15 -50 -49c0 -32 20 -50 50 -50s50 18 50 50
c0 34 -20 49 -50 49zM224 406c34 0 60 21 60 57c0 38 -24 57 -60 57c-37 0 -61 -19 -61 -57c0 -36 26 -57 61 -57z" />
    <glyph glyph-name="nine.num" horiz-adv-x="466" 
d="M228 681c-26 0 -59 -17 -59 -59s28 -62 59 -62s57 18 57 62c0 41 -32 59 -57 59zM38 444c4 0 138 1 138 1c5 -22 18 -33 47 -33c48 0 68 47 68 111h-3c-20 -32 -55 -44 -102 -44c-80 0 -149 40 -149 139c0 78 62 152 196 152c124 0 200 -78 200 -215
c0 -146 -82 -230 -218 -230c-112 0 -174 56 -177 119z" />
    <glyph glyph-name="minus.den" horiz-adv-x="426" 
d="M57 164v89h311v-89h-311z" />
    <glyph glyph-name="plus.den" horiz-adv-x="426" 
d="M265 164v-117h-106v117h-118v89h118v115h106v-115h119v-89h-119z" />
    <glyph glyph-name="parenleft.tab" horiz-adv-x="300" 
d="M346 -130h-139c-77 93 -154 252 -154 459c0 208 77 366 154 459h139c-73 -122 -142 -281 -142 -459s69 -336 142 -459z" />
    <glyph glyph-name="parenright.tab" horiz-adv-x="300" 
d="M-46 -130c73 122 142 281 142 459s-69 336 -142 459h139c77 -93 154 -252 154 -459c0 -208 -77 -366 -154 -459h-139z" />
    <glyph glyph-name="bracketleft.tab" horiz-adv-x="300" 
d="M58 -130v918h259v-112h-112v-694h112v-112h-259z" />
    <glyph glyph-name="bracketright.tab" horiz-adv-x="300" 
d="M242 788v-918h-259v112h112v694h-112v112h259z" />
    <glyph glyph-name="braceleft.tab" horiz-adv-x="300" 
d="M36 263h-23v128h23c39 0 53 18 51 64l-6 126c-8 167 41 211 237 211v-108c-107 0 -101 -29 -96 -112l6 -109c3 -63 -23 -118 -88 -132v-4c65 -15 92 -69 88 -138l-6 -103c-5 -83 -11 -112 96 -112v-108c-196 0 -244 44 -237 198l6 135c2 46 -12 64 -51 64z" />
    <glyph glyph-name="braceright.tab" horiz-adv-x="300" 
d="M287 395v-128h-23c-39 0 -53 -18 -51 -64l6 -126c8 -167 -41 -211 -237 -211v108c107 0 101 29 96 112l-6 109c-3 63 23 118 88 132v4c-65 15 -92 69 -88 138l6 103c5 83 11 112 -96 112v108c196 0 244 -44 237 -198l-6 -135c-2 -46 12 -64 51 -64h23z" />
    <glyph glyph-name="eight.sub" horiz-adv-x="448" 
d="M45 259c0 72 58 119 179 119s178 -47 178 -120c0 -49 -25 -76 -64 -92v-2c53 -14 82 -44 82 -100c0 -78 -67 -133 -196 -133c-140 0 -196 51 -196 133c0 51 29 84 81 100v2c-38 14 -64 43 -64 93zM224 298c-29 0 -50 -15 -50 -49c0 -32 20 -50 50 -50s50 18 50 50
c0 34 -20 49 -50 49zM224 12c34 0 60 21 60 57c0 38 -24 57 -60 57c-37 0 -61 -19 -61 -57c0 -36 26 -57 61 -57z" />
    <glyph glyph-name="eight.sup" horiz-adv-x="448" 
d="M45 703c0 72 58 119 179 119s178 -47 178 -120c0 -49 -25 -76 -64 -92v-2c53 -14 82 -44 82 -100c0 -78 -67 -133 -196 -133c-140 0 -196 51 -196 133c0 51 29 84 81 100v2c-38 14 -64 43 -64 93zM224 742c-29 0 -50 -15 -50 -49c0 -32 20 -50 50 -50s50 18 50 50
c0 34 -20 49 -50 49zM224 456c34 0 60 21 60 57c0 38 -24 57 -60 57c-37 0 -61 -19 -61 -57c0 -36 26 -57 61 -57z" />
    <glyph glyph-name="five.sub" horiz-adv-x="446" 
d="M276 80c0 31 -22 55 -54 55c-24 0 -42 -11 -54 -25h-120l19 261h312v-101h-209l-8 -97h2c17 26 50 49 105 49c87 0 140 -47 140 -132c0 -86 -55 -159 -190 -159c-144 0 -182 69 -186 138h136c2 -28 25 -43 52 -43c33 0 55 22 55 54z" />
    <glyph glyph-name="five.sup" horiz-adv-x="446" 
d="M276 524c0 31 -22 55 -54 55c-24 0 -42 -11 -54 -25h-120l19 261h312v-101h-209l-8 -97h2c17 26 50 49 105 49c87 0 140 -47 140 -132c0 -86 -55 -159 -190 -159c-144 0 -182 69 -186 138h136c2 -28 25 -43 52 -43c33 0 55 22 55 54z" />
    <glyph glyph-name="four.sub" horiz-adv-x="466" 
d="M147 116h115v176h-3s-13 -38 -38 -73zM438 25h-55v-85h-125v85h-230v88l192 258h163v-248h55v-98z" />
    <glyph glyph-name="four.sup" horiz-adv-x="466" 
d="M147 560h115v176h-3s-13 -38 -38 -73zM438 469h-55v-85h-125v85h-230v88l192 258h163v-248h55v-98z" />
    <glyph glyph-name="minus.sub" horiz-adv-x="426" 
d="M57 104v89h311v-89h-311z" />
    <glyph glyph-name="minus.sup" horiz-adv-x="426" 
d="M57 548v89h311v-89h-311z" />
    <glyph glyph-name="nine.sub" horiz-adv-x="466" 
d="M228 287c-26 0 -59 -17 -59 -59s28 -62 59 -62s57 18 57 62c0 41 -32 59 -57 59zM38 50c4 0 138 1 138 1c5 -22 18 -33 47 -33c48 0 68 47 68 111h-3c-20 -32 -55 -44 -102 -44c-80 0 -149 40 -149 139c0 78 62 152 196 152c124 0 200 -78 200 -215
c0 -146 -82 -230 -218 -230c-112 0 -174 56 -177 119z" />
    <glyph glyph-name="nine.sup" horiz-adv-x="466" 
d="M228 731c-26 0 -59 -17 -59 -59s28 -62 59 -62s57 18 57 62c0 41 -32 59 -57 59zM38 494c4 0 138 1 138 1c5 -22 18 -33 47 -33c48 0 68 47 68 111h-3c-20 -32 -55 -44 -102 -44c-80 0 -149 40 -149 139c0 78 62 152 196 152c124 0 200 -78 200 -215
c0 -146 -82 -230 -218 -230c-112 0 -174 56 -177 119z" />
    <glyph glyph-name="one.sub" horiz-adv-x="317" 
d="M117 -60v268h-96v91h15c24 0 49 4 67 15c15 10 25 30 25 57h127v-431h-138z" />
    <glyph glyph-name="one.sup" horiz-adv-x="317" 
d="M117 384v268h-96v91h15c24 0 49 4 67 15c15 10 25 30 25 57h127v-431h-138z" />
    <glyph glyph-name="plus.sub" horiz-adv-x="426" 
d="M265 104v-117h-106v117h-118v89h118v115h106v-115h119v-89h-119z" />
    <glyph glyph-name="plus.sup" horiz-adv-x="426" 
d="M265 548v-117h-106v117h-118v89h118v115h106v-115h119v-89h-119z" />
    <glyph glyph-name="seven.sub" horiz-adv-x="405" 
d="M59 -60l163 330h-193v101h353v-70l-179 -361h-144z" />
    <glyph glyph-name="seven.sup" horiz-adv-x="405" 
d="M59 384l163 330h-193v101h353v-70l-179 -361h-144z" />
    <glyph glyph-name="six.sub" horiz-adv-x="468" 
d="M422 261h-133c-5 19 -20 28 -42 28c-33 0 -66 -18 -70 -111h2c27 35 59 51 110 51c84 0 144 -47 144 -139c0 -81 -59 -159 -193 -159c-123 0 -203 68 -203 215c0 153 91 230 210 230c125 0 165 -50 175 -115zM244 19c29 0 58 19 58 65c0 41 -24 64 -58 64
c-35 0 -59 -20 -59 -64c0 -46 29 -65 59 -65z" />
    <glyph glyph-name="six.sup" horiz-adv-x="468" 
d="M422 705h-133c-5 19 -20 28 -42 28c-33 0 -66 -18 -70 -111h2c27 35 59 51 110 51c84 0 144 -47 144 -139c0 -81 -59 -159 -193 -159c-123 0 -203 68 -203 215c0 153 91 230 210 230c125 0 165 -50 175 -115zM244 463c29 0 58 19 58 65c0 41 -24 64 -58 64
c-35 0 -59 -20 -59 -64c0 -46 29 -65 59 -65z" />
    <glyph glyph-name="three.sub" horiz-adv-x="450" 
d="M224 120h-55v77h42c29 0 53 15 53 45c0 29 -20 44 -46 44c-35 0 -47 -25 -48 -44h-133c4 61 44 138 191 138c115 0 174 -53 174 -117c0 -48 -27 -85 -89 -97v-2c71 -11 100 -49 100 -102c0 -68 -63 -131 -189 -131c-146 0 -188 71 -189 138h137c1 -28 23 -42 49 -42
c37 0 55 22 55 48c0 27 -20 45 -52 45z" />
    <glyph glyph-name="three.sup" horiz-adv-x="450" 
d="M224 564h-55v77h42c29 0 53 15 53 45c0 29 -20 44 -46 44c-35 0 -47 -25 -48 -44h-133c4 61 44 138 191 138c115 0 174 -53 174 -117c0 -48 -27 -85 -89 -97v-2c71 -11 100 -49 100 -102c0 -68 -63 -131 -189 -131c-146 0 -188 71 -189 138h137c1 -28 23 -42 49 -42
c37 0 55 22 55 48c0 27 -20 45 -52 45z" />
    <glyph glyph-name="two.sub" horiz-adv-x="444" 
d="M166 214h-132c2 99 62 164 191 164c127 0 181 -56 181 -130c0 -67 -39 -106 -106 -157l-64 -49v-3h171v-99h-377v67l184 155c42 35 53 52 53 78c0 28 -16 44 -42 44c-33 0 -58 -17 -59 -70z" />
    <glyph glyph-name="two.sup" horiz-adv-x="444" 
d="M166 658h-132c2 99 62 164 191 164c127 0 181 -56 181 -130c0 -67 -39 -106 -106 -157l-64 -49v-3h171v-99h-377v67l184 155c42 35 53 52 53 78c0 28 -16 44 -42 44c-33 0 -58 -17 -59 -70z" />
    <glyph glyph-name="zero.sub" horiz-adv-x="493" 
d="M37 153c0 152 84 226 208 226c137 0 211 -72 211 -226c0 -150 -79 -224 -211 -224c-137 0 -208 72 -208 224zM245 28c32 0 58 24 58 127c0 104 -31 129 -58 129c-30 0 -57 -26 -57 -129c0 -110 25 -127 57 -127z" />
    <glyph glyph-name="zero.sup" horiz-adv-x="493" 
d="M37 597c0 152 84 226 208 226c137 0 211 -72 211 -226c0 -150 -79 -224 -211 -224c-137 0 -208 72 -208 224zM245 472c32 0 58 24 58 127c0 104 -31 129 -58 129c-30 0 -57 -26 -57 -129c0 -110 25 -127 57 -127z" />
    <glyph glyph-name="Q.old" horiz-adv-x="821" 
d="M581 -96l-74 92c-27 -8 -58 -12 -95 -12c-251 0 -372 152 -372 396c0 240 140 396 372 396c244 0 369 -151 369 -396c0 -155 -54 -263 -140 -323l55 -69zM354 185l116 85l62 -78c20 41 29 103 29 188c0 169 -62 254 -150 254c-101 0 -150 -85 -150 -254
c0 -166 42 -253 143 -257z" />
    <glyph glyph-name="Q.scold" horiz-adv-x="746" 
d="M525 -85l-64 83c-26 -7 -55 -11 -88 -11c-229 0 -325 130 -325 333c0 199 115 333 325 333c221 0 325 -130 325 -333c0 -119 -47 -211 -126 -268l52 -68zM255 317c0 -140 29 -210 118 -210h5l-53 69l99 67l50 -65c12 33 18 79 18 139c0 140 -50 210 -119 210
c-84 0 -118 -70 -118 -210z" />
    <glyph glyph-name="Euro.tab" 
d="M578 220c-2 -131 -85 -234 -245 -234c-163 0 -236 95 -257 264h-62v80h57c-1 12 -1 24 -1 37s0 26 1 38h-57v80h63c24 169 106 266 270 266c163 0 224 -112 231 -240h-152c-13 60 -33 97 -83 97c-44 0 -71 -34 -83 -123h124v-80h-130v-36c0 -14 0 -27 1 -39h129v-80h-123
c14 -90 45 -118 84 -118c46 0 68 31 79 88h154z" />
    <glyph glyph-name="dollar.tab" 
d="M264 471v149c-52 -9 -69 -41 -69 -74c0 -48 32 -67 69 -75zM328 119h1c52 10 75 46 75 79c0 50 -30 69 -76 79v-158zM328 -116h-66v103c-149 10 -238 84 -245 229h174c4 -46 26 -84 76 -95v169l-26 6c-134 30 -214 88 -214 225c0 120 77 214 237 225v82h66v-82
c163 -10 223 -95 234 -214h-176c-3 38 -17 77 -63 88v-162l17 -4c160 -34 232 -96 232 -226c0 -140 -81 -231 -246 -241v-103z" />
    <glyph glyph-name="dieresis.uc" horiz-adv-x="369" 
d="M212 831v157h160v-157h-160zM-3 831v157h160v-157h-160z" />
    <glyph glyph-name="zero.tab" 
d="M27 368c0 246 104 383 271 383c182 0 274 -133 274 -383c0 -246 -97 -383 -274 -383c-183 0 -271 134 -271 383zM299 136c54 0 85 64 85 232c0 174 -29 232 -84 232c-54 0 -85 -64 -85 -232c0 -177 29 -232 84 -232z" />
    <glyph glyph-name="one.tab" 
d="M561 0h-490v147h157v341h-154v122h11c44 0 88 6 118 27c28 19 44 56 44 104h172v-594h142v-147z" />
    <glyph glyph-name="nine.tab" 
d="M291 607c-41 0 -79 -30 -79 -111c0 -75 35 -112 79 -112c47 0 79 35 79 112s-37 111 -79 111zM37 189h170c13 -38 34 -61 77 -61c67 0 98 70 103 197h-2c-24 -33 -71 -67 -140 -67c-126 0 -222 84 -222 237c0 136 93 257 276 257c180 0 275 -126 275 -364
c0 -253 -110 -403 -290 -403c-169 0 -235 90 -247 204z" />
    <glyph glyph-name="eight.tab" 
d="M43 550c0 114 86 202 257 202s257 -88 257 -202c0 -83 -42 -137 -106 -161v-4c84 -23 131 -84 131 -180c0 -126 -114 -221 -282 -221c-180 0 -282 91 -282 219c0 96 47 159 131 182v4c-63 22 -106 78 -106 161zM300 620c-45 0 -79 -31 -79 -89c0 -56 35 -91 79 -91
c47 0 79 35 79 91c0 59 -33 89 -79 89zM300 112c52 0 93 40 93 100c0 63 -39 100 -93 100c-55 0 -93 -37 -93 -100c0 -60 41 -100 93 -100z" />
    <glyph glyph-name="seven.tab" 
d="M79 0l269 589h-321v152h543v-106l-291 -635h-200z" />
    <glyph glyph-name="six.tab" 
d="M564 554h-180c-9 35 -37 57 -69 57c-57 0 -94 -47 -103 -199h2c33 46 77 76 155 76c124 0 206 -92 206 -235s-78 -268 -272 -268c-170 0 -274 115 -274 354c0 272 109 413 293 413c152 0 233 -95 242 -198zM309 127c45 0 79 36 79 113c0 72 -33 113 -79 113
c-48 0 -79 -38 -79 -113c0 -77 31 -113 79 -113z" />
    <glyph glyph-name="five.tab" 
d="M26 217h184c5 -61 39 -90 90 -90c55 0 93 40 93 115c0 74 -38 115 -91 115c-43 0 -68 -17 -89 -53h-164l23 437h461v-152h-306l-8 -154h2c30 32 69 57 143 57c127 0 211 -94 211 -238c0 -142 -78 -269 -273 -269c-205 0 -268 116 -276 232z" />
    <glyph glyph-name="space_uni0326.alt" horiz-adv-x="369" 
d="M300 788l-29 -180h-189l88 180h130z" />
    <glyph glyph-name="four.tab" 
d="M183 299h155v288h-2s-13 -41 -44 -96zM588 156h-79v-156h-177v156h-315v131l277 454h215v-440h79v-145z" />
    <glyph glyph-name="three.tab" 
d="M289 311h-64v128h51c56 0 93 30 93 87c0 47 -25 82 -78 82c-58 0 -86 -39 -89 -87h-175c4 109 75 232 271 232c171 0 255 -91 255 -206c0 -74 -38 -134 -115 -160v-3c84 -24 134 -81 134 -173c0 -122 -92 -226 -273 -226c-205 0 -270 114 -278 231h186
c5 -57 43 -85 91 -85c54 0 93 36 93 90c0 56 -35 90 -102 90z" />
    <glyph glyph-name="uni021A.sc" horiz-adv-x="588" 
d="M564 644v-143h-172v-501h-196v501h-172v143h540zM176 -228l26 166h185l-79 -166h-132z" />
    <glyph glyph-name="two.tab" 
d="M220 488h-183c3 165 98 264 276 264c179 0 256 -94 256 -215c0 -112 -49 -178 -153 -273l-120 -110v-2h270v-152h-541v105l250 247c79 79 103 124 103 173c0 56 -27 83 -72 83c-39 0 -86 -18 -86 -120z" />
    </font>
</defs>
</svg>
